<svg id="Capa_1" data-name="Capa 1" xmlns="http://www.w3.org/2000/svg" viewBox="0 0 464.08 118.73"><title>Dibuix bola_inv</title><path d="M7.19,83.78l0,0h0a.4.4,0,0,1,.15-.14s0,0,0,0c.21-.1.18,0,.21,0a.64.64,0,0,1,.24,0l.43.07h.44l1.43,0,4.66.09,6.1.08,7.07,0c7.35-.09,15.06-.23,22.17-.55,6.5-.29,12.69-.21,18.58-.19,3.62,0,7.27.09,11,.19l11.88.33c5.31.15,10.94.22,16.24.25,3.2,0,6.29.14,9.25.28l8.33.38,12,.37,5.41.2,4,.12h1.28a18.55,18.55,0,0,0,2.45-.09c1.4,0,2.81.14,4.21.14.79.07,1.59.11,2.39.13,2.65.06,5.36.26,8.38.37,4.12.15,8.55.8,12.86.71l4.9-.19c1.78-.07,3.69-.13,5.73-.1,4.57.06,9.06.06,13.28,0,5.64,0,10.8-.34,16.06-.42,3.8-.06,7.69.23,11.65.24,3.63,0,7.54.17,11.61.38l12.62.64,6.88.27,6,.23c3.4.13,6.75-.09,10.11,0l8.05.21,9.83.35,6.28.15,5.39.15,4.23.16,1.47,0h0a2.3,2.3,0,0,0,.26,0c2.34,0,4.66-.2,7-.39l2.55,0c1.64,0,3.19,0,4.52,0,1.61,0,3.44.05,4.76,0,1.16,0,2.39-.09,3.54-.06,1.59,0,3.29,0,4.95,0l4.81.14a31.47,31.47,0,0,1,5.45.74c3.3.76,6.31,1.28,9,2.18a23.11,23.11,0,0,1,4.77,2.45l.55.36a3.56,3.56,0,0,1,.91,1,11.45,11.45,0,0,1,1.06,2.51l.26.83.15.64.27,1.23.49,2.5a46.11,46.11,0,0,0,1.4,5.45l1.27,3.93,1.63,4.92c.66,2,1.38,3.81,2.06,5.42s1.28,2.86,1.75,3.76a16.49,16.49,0,0,0,1.46,2.35,15.86,15.86,0,0,0,2.38,2.48c1.05.89,2,1.8,2.88,2.64l2.22,2.09,3.81,3.21c1.49,1.29,3,2.47,4.47,3.55l2.26,1.69c.79.56,1.67,1.2,2.51,1.72a7.77,7.77,0,0,0,1.35.68,26.85,26.85,0,0,1,3,1.11c1.74.82,3,1.73,4.28,2.24l4.21,1.81a35.94,35.94,0,0,0,5.41,1.54,25.31,25.31,0,0,0,3,.54,24,24,0,0,0,3.95.08c3.61-.23,7.35-.55,10.24-1a22.92,22.92,0,0,0,4.7-1.26c1.71-.65,3.31-1.48,4.69-2,1.71-.69,3.6-2.18,5.94-3a19.22,19.22,0,0,0,4.76-2.75,35,35,0,0,0,4.84-4.57,33.59,33.59,0,0,0,5.25-7.19c1.57-2.92,3-6.28,4.69-9.41a16.26,16.26,0,0,0,1.64-4.57,23.26,23.26,0,0,0,.4-3.67,36.41,36.41,0,0,0-.16-4.58,57.29,57.29,0,0,0-1.57-8.82,44.61,44.61,0,0,0-1.83-5.62c-.81-2-1.52-3.7-2.53-5.67s-1.91-3.92-2.72-5.43c-.9-1.66-2.06-3.4-3.15-5.06-1.48-2.27-3-4.32-4-6.07l-2.28-3.67c-.83-1.32-1.75-2.72-2.83-4.21s-2-3-2.81-4.32-1.45-2.56-2-3.69c-.81-1.55-1.43-2.91-2.12-4a32.07,32.07,0,0,0-3.12-4.51A28.47,28.47,0,0,0,436.31,46a27.48,27.48,0,0,0-3.48-2.58c-1.28-.82-2.55-1.61-3.66-2.24a26.38,26.38,0,0,0-4.61-2,25.6,25.6,0,0,0-2.9-1,38.12,38.12,0,0,0-4.42-.61,14.13,14.13,0,0,0-3.65-.17,1,1,0,0,0-.41.22h0l.34.1.66.25c.47.17,1.07.25,1.7.4,1.12.24,2.38.08,3.67.41a23.73,23.73,0,0,1,2.61,1,17.16,17.16,0,0,1,2.13.94l2.83,1.5A18.08,18.08,0,0,1,430.93,45c1.24,1.18,2.77,2.39,3.77,3.4a24.25,24.25,0,0,1,2.84,3.73,59.3,59.3,0,0,1,3.23,5.65c1,1.91,2,3.59,3.09,6a54.09,54.09,0,0,0,3.35,6.32c1.23,1.95,2.32,3.84,3.25,5.41l1.46,2.39.92,1.43L454.71,82c1.24,1.72,2.76,3.55,4.28,5.57a60.09,60.09,0,0,1,3.67,5.32,50.59,50.59,0,0,1,2.64,5.32,21.15,21.15,0,0,1,1.39,3.59,18.86,18.86,0,0,1,.62,4.5,28.19,28.19,0,0,1-.78,8.3,69.85,69.85,0,0,1-2.92,8.27c-.47,1.1-1,2.24-1.67,3.48l-2.12,4.15a24.54,24.54,0,0,1-4.72,6.3,42.43,42.43,0,0,1-7.32,5.68,65.75,65.75,0,0,1-10.93,5.14,21.5,21.5,0,0,1-5,1.35,34.9,34.9,0,0,1-5,.52,40.5,40.5,0,0,1-4.81-.23c-1.45-.16-2.76-.38-3.87-.6a32.62,32.62,0,0,1-4.4-1.27c-1.64-.56-3.54-1.45-5.42-2.17a83.88,83.88,0,0,1-10.74-5.13c-1.28-.72-2.37-1.29-3.58-2.11l-3.48-2.49c-1-.7-1.92-1.5-2.93-2.23l-2.28-1.74-2.83-2.37-2.17-2a21.27,21.27,0,0,1-2.83-3.46c-1.12-1.75-2.07-3.31-2.88-4.9a26.46,26.46,0,0,1-2.24-6.44,60.67,60.67,0,0,1-1.26-8.56,46.32,46.32,0,0,1,.27-7.87,35.68,35.68,0,0,1,1.32-7l1.4-4.11c.87-2.49,1.75-5,2.6-6.79s1.86-3.69,2.93-5.61,2.27-3.89,3.12-5.31l2-3.48c.31-.53.64-1,.94-1.68l1.49-3c.83-1.76,1.46-3.29,2.37-4.93.81-1.45,1.79-3.29,2.73-4.71A21.74,21.74,0,0,1,394.93,46l1.31-1.19.51-.44.35-.33.68-.69A10,10,0,0,1,399.4,42a41.75,41.75,0,0,1,3.82-2.09l.77-.38.45-.29a2,2,0,0,1,1.64-.4l.59.24c.05,0,.14,0,.23.29a.53.53,0,0,1-.06.4l-.06.07a.61.61,0,0,1-.34.19l-.66.34-.53.3a4.47,4.47,0,0,0-1.1.86c-.61.7-1.26,1.59-2.17,2.56-.64.67-1.32,1.16-2,1.76L398.88,47l-.92,1.1a17.25,17.25,0,0,0-1.07,1.61c-.64,1.13-1.12,2.64-1.74,4L393.29,58c-.33.81-.77,1.65-1.24,2.59s-1,2-1.54,3.23c-1.06,2.45-2.16,4.54-3.05,6.26-1.31,2.51-3,5.07-4.27,7.22-.76,1.28-1.65,2.75-2.76,4.37L379.52,83A13.1,13.1,0,0,0,378,86.16a24.85,24.85,0,0,0-1.13,4.56,48.12,48.12,0,0,0-.6,5.53c-.05,1.32,0,2.68,0,4l.13,3.26a16.1,16.1,0,0,0,1,4.57,50.42,50.42,0,0,0,2.26,5.63,39.4,39.4,0,0,0,2.52,4.28,24.23,24.23,0,0,0,2.22,2.85l.9.95,1.39,1.45c1,.88,2.07,1.75,3.34,2.86,1.54,1.33,3,2.79,4.32,3.77.9.67,1.78,1.43,2.9,2.14,1.3.82,2.73,1.84,3.85,2.68s2.42,1.44,3.49,2.17a37.93,37.93,0,0,0,6.28,2.91,20.26,20.26,0,0,0,4.87,1.54l6.41,1.06a22.76,22.76,0,0,0,3.68.38c1.61,0,3,.17,4.8.16,1.52,0,2.86,0,4.13-.1a11,11,0,0,0,4.49-1.55l1.55-.75,2.05-1.08a17.64,17.64,0,0,0,3.28-2,33.28,33.28,0,0,0,3.08-2.71c.58-.62,1.38-1.23,2-1.76.31-.27.63-.74,1-1.18l.27-.32.29-.37.65-1,1.09-1.67,1.13-1.88a13.54,13.54,0,0,0,1.23-2.94l1.1-4.2a15.74,15.74,0,0,0,.41-5.62,52.86,52.86,0,0,0-1.18-7.92,45,45,0,0,0-1.36-4.36c-.56-1.54-1.22-3.18-2-5l-3.18-7.22c-.83-2-1.6-3.31-2.26-5l-.55-1.42-.48-1.15-.82-2c-.34-.87-.6-1.91-.93-2.71l-1.37-3.45-1-2.21-1.4-2.82c-1.07-2.14-2.31-4.06-3.65-6.22A29.82,29.82,0,0,0,436,59.12c-1.06-1.32-2-2.75-2.9-4a30.33,30.33,0,0,0-4.06-5,37,37,0,0,0-7.48-5.25c-1.15-.6-2.45-1-3.65-1.67a5.49,5.49,0,0,0-2.76-.69,18.5,18.5,0,0,0-3.73.13,20.84,20.84,0,0,0-4.46,1.46,9.35,9.35,0,0,0-2.7,2.14,19,19,0,0,0-1.74,2.37l-1.23,2a29.41,29.41,0,0,0-1.43,3l-.63,1.7a71.77,71.77,0,0,0-2.28,6.82,35,35,0,0,1-2.54,6.2A36.64,36.64,0,0,1,390.73,74l-.57.76-.4.44-2.3,2.56a26.94,26.94,0,0,0-1.89,2.2,12.83,12.83,0,0,0-1.1,1.71l-.19.35a20.29,20.29,0,0,0-2.16,5.29c-.44,2-1.25,4-1.36,6a33.37,33.37,0,0,0,.19,6.13,28.28,28.28,0,0,0,.79,3.56c.37,1.35.83,2.78,1.34,4.25a60.42,60.42,0,0,0,5.13,10.57l2.48,4.18c.76,1.23,1.42,2.27,2,3a12.64,12.64,0,0,0,1.72,1.78,21.54,21.54,0,0,0,2.79,2,52.6,52.6,0,0,0,8,4.11c2.58,1,4.54,2.05,6.78,2.77s4.38,1.15,6.2,1.76a33.63,33.63,0,0,0,4.16,1.08,26.78,26.78,0,0,0,5.15.5,22.09,22.09,0,0,0,6.28-.81,25.88,25.88,0,0,0,4.31-2l1.28-.67.58-.25c.7-.33,1.47-.84,2.22-1.17l.71-.36.81-.52.57-.39.39-.21.55-.39.17-.15.53-.45,1.19-1.06,1.18-1a11.25,11.25,0,0,0,1.81-2.12,28.34,28.34,0,0,0,3-5.62,12.14,12.14,0,0,0,.93-4.45c0-.74,0-1.52,0-2.41a19.2,19.2,0,0,0-.48-3.19,62,62,0,0,0-2-6.71c-.87-2.38-1.56-4.76-2.78-7.73s-2.55-6.06-3.82-8.75l-2.47-5.33-2.08-4.57c-1-2.16-1.9-4.54-3.22-7.39-1.14-2.47-2.68-5.39-4-7.93a64.77,64.77,0,0,0-5.3-9,17.18,17.18,0,0,0-5.89-5.1,25.91,25.91,0,0,0-4.76-1.84,42.34,42.34,0,0,0-5.63-1.59c-1.75-.25-3,.73-4.4,2.08a14.44,14.44,0,0,0-1.72,1.77l-.56,1-.62,1.36-.8,2.19a30.11,30.11,0,0,0-1.05,4.54c-.45,2.68-1,5.32-1.6,8.12a32.61,32.61,0,0,1-1.68,5.73,20.79,20.79,0,0,1-2.92,4.2,27.52,27.52,0,0,1-4.6,4.68l-1.43,1.1a16.48,16.48,0,0,0-2.32,2.16,19.75,19.75,0,0,0-2.57,4.51l-.81,1.64-.36.73a4.85,4.85,0,0,0-.42,1.32,3.91,3.91,0,0,0,.29,2.36l.18.23.16-.26.59-1.33a26.92,26.92,0,0,1,1.37-2.54c.37-.63.86-1.28,1.34-2a24.63,24.63,0,0,1,3-3.66l3.91-3.72c1.08-1.08,2.43-1.66,3.55-2.87a27.91,27.91,0,0,0,2.85-3.61,16.71,16.71,0,0,0,1.67-4.69,25.26,25.26,0,0,0,1.17-5.27A30.63,30.63,0,0,1,404.94,58a16.15,16.15,0,0,1,3.19-5.21A8.17,8.17,0,0,1,410.35,51l.86-.46a4.38,4.38,0,0,1,2.31-.46,7.64,7.64,0,0,1,3.36,1.16A16.68,16.68,0,0,1,421.3,55l2.1,2.52,1.63,2c1,1.24,1.9,2.59,2.85,4a66.43,66.43,0,0,1,4,6.63c1.32,2.63,2.58,5.32,3.78,7.89a85.89,85.89,0,0,0,5.83,11.29,53.49,53.49,0,0,1,4.38,8.32,25,25,0,0,1,1.39,4.42l.85,3.9a19.57,19.57,0,0,1,.29,5.87,43.55,43.55,0,0,1-.93,7.24,16.87,16.87,0,0,1-2.6,6c-.56.79-1.14,1.81-2,2.81-1.54,1.89-2.9,3.77-4.94,4.82-1.53.77-3,1.53-4.08,2a10,10,0,0,1-4.59.75c-1.56,0-3.45-.32-4.89-.44s-2.57-.27-3.65-.46c-.9-.16-1.78-.3-2.75-.57a18.9,18.9,0,0,1-3.47-1.39c-2-1-4.24-2.24-5.65-3.12-.76-.46-1.48-.88-2.22-1.4a22.54,22.54,0,0,1-2.11-1.8l-.58-.55-1.13-1.16-.62-.5-1-.8-.61-.52-.42-.32-.66-.46-.91-.69-1.92-1.54a43.89,43.89,0,0,1-4.05-3.46,20.12,20.12,0,0,1-3.2-4,13.86,13.86,0,0,1-1.13-2.69,21.87,21.87,0,0,1-.66-2.57,22.52,22.52,0,0,1-1-4.58,24.5,24.5,0,0,1,.59-6.49,13.77,13.77,0,0,1,2.95-5l.49-.6.66-.72,1-1.06.64-.55.55-.5.23-.21.55-.43,1.2-.85,2.24-1.39,3.4-2A13.87,13.87,0,0,0,405,79.73l.37-.43.19-.18.27-.3.36-.56.49-1,.82-1.7a9.66,9.66,0,0,0,.88-3.46L408.6,69c.18-2.09.4-4,.67-6.16.13-1,.12-2.17.25-3.28a6.45,6.45,0,0,1,1.17-3.25l.51-.57a2,2,0,0,1,1.44-.55,5.29,5.29,0,0,1,2.54.94,16.82,16.82,0,0,1,3,2.41l.66.67c.86.9,1.58,1.73,2.3,2.63a38.46,38.46,0,0,1,2.78,4c1.23,2,2.74,4,3.83,6.16.91,1.78,1.73,3.54,2.82,5.26,1.47,2.31,2.79,4.54,4.25,7.1l.51.9.2.37.42.7L437,88c.61,1.13,1.39,2.08,2,3.29.78,1.65,1.38,3.12,2.1,4.79l.33.76.33.73.36.77.31.71.59,1.37a14.76,14.76,0,0,1,.9,2.83,26.22,26.22,0,0,1,.44,5.39,27.53,27.53,0,0,1-.23,4.08c-.39,2.46-.22,5.25-1.51,7.64a15,15,0,0,1-4.71,5.15,29.37,29.37,0,0,1-4.36,2.8,17.06,17.06,0,0,1-4.25,1.51,31.75,31.75,0,0,1-5,.38,13,13,0,0,1-6.92-1.74l-2.16-1.3-1-.63-1.23-.75-2-1.32-1.46-.84-.82-.48-1.08-.64-1.52-.89c-1.08-.69-2.49-1.57-3.66-2.41a23.58,23.58,0,0,1-3.06-2.47l-.62-.62-.24-.24-.45-.49-.59-.66-1.09-1.21-.71-.79-.27-.31-.5-.58-1.08-1.5-2.13-3a4.65,4.65,0,0,1-1-3,29.28,29.28,0,0,1,.29-3.73,11,11,0,0,1,2-4.67c.58-.79,1.3-1.52,2-2.31l1.44-1.61.49-.54,1.05-1,1-.81,1.73-1.29a11.55,11.55,0,0,1,1.75-1l.46-.22.6-.38,1.61-1,1.43-.84,2.64-1.47a11.78,11.78,0,0,0,2.3-1.69l.39-.38.44-.45.23-.27a3,3,0,0,0,.36-.87,12.3,12.3,0,0,0,.12-2.22c0-1.19-.07-2.47,0-3.69.07-2.15-.19-4.59-.13-7.08,0-.8,0-1.79.07-2.73a3.72,3.72,0,0,1,.71-2.37,1.27,1.27,0,0,1,1.18-.28,3.37,3.37,0,0,1,1.24.51,7.56,7.56,0,0,1,1.08.91,10.35,10.35,0,0,1,1.43,1.91l.85,1.22A18.63,18.63,0,0,1,420.8,68c.51.94,1.18,1.86,1.77,2.82.9,1.48,1.8,3.41,2.94,5.22,1.52,2.4,2.94,4.74,4.32,6.64a64.52,64.52,0,0,1,4,5.7A48,48,0,0,1,437,94.5a29.23,29.23,0,0,1,1.64,7.26,58.45,58.45,0,0,1,.89,5.93,19.37,19.37,0,0,1-.77,6,12.33,12.33,0,0,1-1.68,3.41,18,18,0,0,1-2,2.33,23,23,0,0,1-2.65,2,8.23,8.23,0,0,1-1.63,1.08,27.26,27.26,0,0,0-3.08,1.59,15.91,15.91,0,0,1-2.14,1.52,7.33,7.33,0,0,1-3.06.7,9.48,9.48,0,0,1-3.89-.77c-.82-.37-1.47-.79-2.15-1.16-1.24-.66-2.16-1.35-3-1.85a10.27,10.27,0,0,1-2.42-1.93c-.71-.79-1.19-1.57-2-2.41l-.61-.62-2.17-1.84-.35-.31-.55-.52-.75-.73-.42-.38-1-.78-1.63-1.08c-.82-.61-1.39-1.16-2.06-1.76a15.78,15.78,0,0,1-1.36-1.35l-.43-.51-.5-.57a12.74,12.74,0,0,1-1.22-1.84l-.26-.58-.31-.84c-.5-1.28-.15-2.83-.13-4.14a7.65,7.65,0,0,1,1.85-4.36l1.13-1.52.41-.46L400,92.66l.5-.42.39-.29,1.35-.93A11.85,11.85,0,0,1,405,89.6c1.05-.36,1.82-.52,2.64-.83l1.32-.5a35.53,35.53,0,0,1,3.82-1c1.78-.41,3-.4,4.2-1.4a2.63,2.63,0,0,0,.93-2.36c-.09-1-.43-2.15-.55-3.29-.16-1.57-.23-3.27-.5-4.89-.14-.89-.71-2-.46-3.12a1.59,1.59,0,0,1,.45-.88.93.93,0,0,1,1-.16,2,2,0,0,1,.65.65l.25.33.55.81c.47.75,1,1.58,1.32,2.33.82,1.67,1.14,3.73,2,5.38s1.63,3.48,2.47,4.84l.69,1.24a21.13,21.13,0,0,0,1.28,2c.8,1.11,1.14,2.29,1.74,3l.5.54.72.92.3.4.57.71,1.18,1.47a23.4,23.4,0,0,1,1.48,2.4,4.61,4.61,0,0,1,.6,1.81,15.76,15.76,0,0,0,.57,2.59,23.07,23.07,0,0,1,1,3.83,13.48,13.48,0,0,1-.62,4.8,23.85,23.85,0,0,1-2.42,4.93,13.65,13.65,0,0,1-1.23,1.77,11.54,11.54,0,0,1-1.61,1.68,10.5,10.5,0,0,1-2.66,1.66,9.3,9.3,0,0,1-3.86.72,10.66,10.66,0,0,1-3.71-.75,11,11,0,0,1-2.38-1.12,7.45,7.45,0,0,1-1.43-1.2l-1.58-1.61-.52-.61-1.89-2.16-.88-.91a5.72,5.72,0,0,0-1.37-.84l-2.55-1.18a17,17,0,0,1-2.24-1.22l-1.43-.9-2.11-1.42a4.73,4.73,0,0,1-1.09-1,5.36,5.36,0,0,1-1.11-2.38,6.24,6.24,0,0,1,.51-4.16,22.31,22.31,0,0,1,2.94-3.41l.94-1a16.25,16.25,0,0,1,1.35-1.53l.69-.65.26-.29a6,6,0,0,1,1-.83,12.16,12.16,0,0,1,1.83-.83l1.58-.6,1.43-.49,1.4-.45,1.37-.39c1-.18,2-.1,3.25-.33l.73-.12h1.19l1.06,0a7.44,7.44,0,0,1,1.91.2,6.94,6.94,0,0,1,3.2,1.63l.53.55.75.78.19.26.62.85.58,1a9,9,0,0,1,1.15,2.86,41,41,0,0,1,.74,5.22,13.22,13.22,0,0,1-.36,5.13,16.48,16.48,0,0,1-1.63,3.51,18.08,18.08,0,0,1-1.13,1.78l-1.13,1.7a5.81,5.81,0,0,1-1.36,1.29c-1.05.82-2.48.82-3.91.93a4.24,4.24,0,0,1-2.66-.69,6.53,6.53,0,0,1-1.8-1.83l-.34-.5a14,14,0,0,1-1.17-1.8c-.6-1.19-.8-2.23-1.52-3.44l-.33-.49-.24-.1-.71,0-1.65.12a9.32,9.32,0,0,1-3.17-.44,9.87,9.87,0,0,1-3-1.8,5.73,5.73,0,0,1-1-1.08,2.74,2.74,0,0,1-.53-1.68A6.28,6.28,0,0,1,404,100.9a13.43,13.43,0,0,1,2.18-2.66,19.88,19.88,0,0,1,2.39-1.85c.49-.33,1-.75,1.68-1.1a12.79,12.79,0,0,1,2.54-1,13.23,13.23,0,0,1,5.37-.62,11.75,11.75,0,0,1,5.3,1.6l.68.57.55.62a6.56,6.56,0,0,1,.85,1.17l.45,1a7.59,7.59,0,0,1,.78,2.44,20,20,0,0,1-.26,4c-.28,1.65-.14,3.5-.72,5a7.46,7.46,0,0,1-1.79,2.49,4.92,4.92,0,0,1-1.32,1.12,2.85,2.85,0,0,1-3.45-.55,5,5,0,0,1-.72-1.09l-.42-1a6.27,6.27,0,0,1-.27-2.63,4.19,4.19,0,0,0-1.32-3.6l-.38-.19a9.88,9.88,0,0,0-2.9-.33,27.22,27.22,0,0,1-3.55-.25l-.53-.11a1,1,0,0,1-.58-.44,1.87,1.87,0,0,1-.17-1,3.12,3.12,0,0,1,.82-2,16.06,16.06,0,0,1,1.75-2,8.2,8.2,0,0,1,3.46-1.73,10.14,10.14,0,0,1,3.6,0,6.25,6.25,0,0,1,1.82.36,6.91,6.91,0,0,1,2.87,1.86,5.93,5.93,0,0,1,1.28,3.08,14.46,14.46,0,0,1-.45,5.61,4.58,4.58,0,0,1-.43,1.09,1.25,1.25,0,0,1-1,.66,1.27,1.27,0,0,1-1-.72,5.35,5.35,0,0,1-.48-1.16,8,8,0,0,1-.34-1.57,11.62,11.62,0,0,0-.45-2.44c-.25-.78-.27-1.24-.7-1.56a2.38,2.38,0,0,0-1-.44,7.9,7.9,0,0,0-1.52,0l-2.3.11a.31.31,0,0,1-.25-.13l0-.07a.21.21,0,0,1,0-.19l0-.06a.3.3,0,0,1,.24-.15l2.29-.26a8.08,8.08,0,0,1,1.65,0,2.79,2.79,0,0,1,1.32.58,3.24,3.24,0,0,1,1,1.92A12,12,0,0,1,421,106a7.38,7.38,0,0,0,.31,1.41l.41,1c.14.24.22.29.3.29s.17-.06.29-.26a2.93,2.93,0,0,0,.33-.87,13.33,13.33,0,0,0,.45-5.25A5.11,5.11,0,0,0,422,99.64,6,6,0,0,0,419.48,98a5.34,5.34,0,0,0-1.58-.31,10.12,10.12,0,0,0-3.3,0,7.08,7.08,0,0,0-3.07,1.59,16.63,16.63,0,0,0-1.6,1.88,2.28,2.28,0,0,0-.58,1.33l0,.44h0l.36.08a26.29,26.29,0,0,0,3.43.32,9.53,9.53,0,0,1,3.2.4l.55.26c1.38.91,1.84,2.84,1.72,4.43a5.87,5.87,0,0,0,.2,2.23l.4.93a4.1,4.1,0,0,0,.61.88,1.84,1.84,0,0,0,2.29.33,4.45,4.45,0,0,0,1.1-.92,6.94,6.94,0,0,0,1.61-2.16c.48-1.26.36-3.07.66-4.85a18.94,18.94,0,0,0,.22-3.85,6.87,6.87,0,0,0-.68-2.12l-.41-.9a5.35,5.35,0,0,0-.72-1l-.51-.57-.56-.49A11.34,11.34,0,0,0,418,94.51a12.11,12.11,0,0,0-5,.61,11.23,11.23,0,0,0-2.35,1,17.65,17.65,0,0,0-1.59,1.07,18.16,18.16,0,0,0-2.26,1.77,12.45,12.45,0,0,0-2,2.5,5.65,5.65,0,0,0-1,2.37,1.83,1.83,0,0,0,.35,1,5.3,5.3,0,0,0,.82.87,9.07,9.07,0,0,0,2.66,1.65,8.9,8.9,0,0,0,2.81.37l1.56-.11a3.89,3.89,0,0,1,.92,0,1.39,1.39,0,0,1,.79.36,2.71,2.71,0,0,1,.51.71c.8,1.34,1,2.43,1.57,3.49a13.28,13.28,0,0,0,1.07,1.68l.35.52a4.08,4.08,0,0,0,3.58,2.1c1.45-.11,2.69-.18,3.38-.73a4.85,4.85,0,0,0,1.17-1.07l1.17-1.71a17,17,0,0,0,1.06-1.71,15,15,0,0,0,1.53-3.31,12.28,12.28,0,0,0,.34-4.75,42.44,42.44,0,0,0-.71-5.12,8.08,8.08,0,0,0-1-2.58l-.59-1-.54-.75-.2-.26-.68-.73-.53-.55a6.1,6.1,0,0,0-2.82-1.4,6,6,0,0,0-1.68-.16l-1.06,0h-.47l-.67,0-.61.11c-1.4.26-2.43.18-3.24.33l-1.3.35-1.31.43-1.5.53-1.5.57a11.29,11.29,0,0,0-1.69.78,4.72,4.72,0,0,0-.84.71l-.26.29-.7.69a14.94,14.94,0,0,0-1.27,1.47l-1,1a23,23,0,0,0-2.8,3.29,5.62,5.62,0,0,0-.4,3.49,4.7,4.7,0,0,0,.92,1.94,3.66,3.66,0,0,0,.89.77l2.08,1.4,1.41.9a18.06,18.06,0,0,0,2.13,1.16l2.61,1.16a6.73,6.73,0,0,1,1.58,1l1,1,1.9,2.16.5.6,1.56,1.58a6.39,6.39,0,0,0,1.26,1,10.19,10.19,0,0,0,2.14,1,9.85,9.85,0,0,0,3.39.7,8.46,8.46,0,0,0,3.46-.62,9.85,9.85,0,0,0,2.4-1.51,10.65,10.65,0,0,0,1.48-1.54,12.61,12.61,0,0,0,1.14-1.64,24.85,24.85,0,0,0,2.34-4.69,12.83,12.83,0,0,0,.59-4.44,24.6,24.6,0,0,0-1-3.66,16.32,16.32,0,0,1-.62-2.76,3.52,3.52,0,0,0-.48-1.42,23.1,23.1,0,0,0-1.41-2.31l-1.14-1.42-.58-.75-.31-.4-.68-.89-.48-.55c-.77-1-1.09-2.14-1.77-3.08A21.58,21.58,0,0,1,425,87.23L424.35,86c-.92-1.46-1.65-3.31-2.51-4.88-1-1.85-1.33-3.94-2-5.44-.34-.7-.81-1.51-1.26-2.26L418,72.7l-.21-.29-.39-.45,0,0a.73.73,0,0,0-.21.38c-.15.74.34,1.77.52,2.83.3,1.67.39,3.4.56,4.93.12,1,.47,2.17.58,3.29a3.59,3.59,0,0,1-1.29,3.2,5.65,5.65,0,0,1-2.23,1.12l-2.34.49a34.81,34.81,0,0,0-3.74,1l-1.29.48c-.9.35-1.68.5-2.67.84a10.81,10.81,0,0,0-2.54,1.31l-1.31.92-.38.28-.42.35-1.25,1.24-.35.4L398,96.49a6.76,6.76,0,0,0-1.63,3.78c0,1.42-.26,2.91.08,3.76l.3.82.22.49a12.33,12.33,0,0,0,1.12,1.69l.45.53.45.52,1.25,1.25a23.57,23.57,0,0,0,2,1.7l1.6,1,1.12.85.46.43.76.73.54.51.33.29,2.17,1.81.7.7c.86.92,1.35,1.72,2,2.43a9,9,0,0,0,2.17,1.75c.9.53,1.8,1.2,3,1.84.71.38,1.34.79,2.08,1.13a8.63,8.63,0,0,0,3.48.67,6.42,6.42,0,0,0,2.61-.66c.77-.36,1.16-1,2-1.5a26.48,26.48,0,0,1,3.21-1.67,7.89,7.89,0,0,0,1.4-1,24.68,24.68,0,0,0,2.54-1.83,16.18,16.18,0,0,0,1.83-2.18,11.23,11.23,0,0,0,1.54-3.1,18.29,18.29,0,0,0,.75-5.62c0-1.74-.61-3.84-.86-5.81a28.32,28.32,0,0,0-1.52-7,47.65,47.65,0,0,0-3.12-6,67.9,67.9,0,0,0-3.93-5.62c-1.42-1.94-2.85-4.29-4.37-6.68-1.19-1.87-2.1-3.83-3-5.23-.57-.92-1.25-1.86-1.79-2.87a16.64,16.64,0,0,0-1.3-2l-.87-1.26a10.11,10.11,0,0,0-1.29-1.78l-1-.79a2.28,2.28,0,0,0-.88-.4,1,1,0,0,0-.36,0c-.5.52-.45,2.82-.48,4.52-.05,2.41.22,4.84.17,7.08,0,1.17,0,2.44.08,3.65a12.6,12.6,0,0,1-.12,2.43,3.67,3.67,0,0,1-.51,1.24l-.42.45-.43.41-.41.4a13.2,13.2,0,0,1-2.47,1.81l-2.64,1.49-1.45.84-1.59.92-.6.39-.59.29a10.87,10.87,0,0,0-1.6,1l-1.66,1.23-1,.81-1,.89-.47.52-1.43,1.62c-.71.8-1.4,1.52-1.93,2.25a10.16,10.16,0,0,0-1.81,4.22,26.65,26.65,0,0,0-.24,3.6,3.41,3.41,0,0,0,.84,2.32l2.16,3,1,1.43.47.54.27.31.69.77,1.1,1.24.57.66.43.47.21.2.62.62a21.28,21.28,0,0,0,2.92,2.37c1.14.81,2.53,1.7,3.61,2.38l1.46.86,1.12.63.83.48,1.45.85,2,1.35,1.22.75,1,.63,2.13,1.3a11.79,11.79,0,0,0,6.36,1.58,29.74,29.74,0,0,0,4.81-.35,16.6,16.6,0,0,0,4-1.43,29.79,29.79,0,0,0,4.19-2.68,13.92,13.92,0,0,0,4.41-4.78c1.11-2.08,1-4.72,1.38-7.32a25.85,25.85,0,0,0,.22-3.91,25.13,25.13,0,0,0-.4-5.18,14.74,14.74,0,0,0-.83-2.65l-.57-1.35-.31-.7-.36-.76-.33-.76-.33-.76c-.72-1.68-1.32-3.14-2.09-4.76-.51-1.08-1.27-2-1.94-3.24l-1-1.59-.45-.73-.21-.4-.5-.88c-1.44-2.55-2.76-4.77-4.21-7.07-1.13-1.79-2-3.58-2.86-5.34-1-2-2.54-4-3.8-6.09a38.08,38.08,0,0,0-2.71-3.91c-.7-.88-1.39-1.69-2.23-2.58l-.65-.65a15.9,15.9,0,0,0-2.83-2.28,4.51,4.51,0,0,0-2.06-.81.88.88,0,0,0-.77.28l-.4.44c-1.21,1.62-.95,3.84-1.22,6.1-.24,2.09-.42,4-.57,6.12l-.26,3.22a10.89,10.89,0,0,1-.95,3.82l-.84,1.75-.51,1-.43.65-.39.41-.17.17-.33.38a14.69,14.69,0,0,1-3.95,3.12l-3.4,2L396.23,87l-1.13.8-.51.4-.21.18-.54.5-.61.54-1,1-.6.66-.5.6a13.22,13.22,0,0,0-2.74,4.52,24,24,0,0,0-.52,6.2,26.12,26.12,0,0,0,.95,4.36,20.72,20.72,0,0,0,.64,2.45,13,13,0,0,0,1,2.47,19.53,19.53,0,0,0,3,3.8,43.71,43.71,0,0,0,3.94,3.36l1.94,1.55.87.65.65.46.46.35.66.55.95.8.65.55,1.15,1.19.56.52a19.73,19.73,0,0,0,2,1.71l2.15,1.38c1.36.86,3.54,2.07,5.55,3.09a17.47,17.47,0,0,0,3.28,1.32,25,25,0,0,0,2.65.56c1,.19,2.16.35,3.55.47s3.36.4,4.83.45a8.84,8.84,0,0,0,4.14-.66c1.05-.48,2.49-1.24,4-2,1.75-.89,3.05-2.64,4.6-4.54.75-.92,1.32-1.91,1.92-2.76a15.69,15.69,0,0,0,2.42-5.6,43.49,43.49,0,0,0,.9-7.06,18,18,0,0,0-.24-5.55,46.48,46.48,0,0,0-2.17-8.16,51.35,51.35,0,0,0-4.29-8.16,52.65,52.65,0,0,1-3.32-5.9l-2.58-5.52c-1.2-2.57-2.46-5.26-3.78-7.86a64.27,64.27,0,0,0-4-6.52c-.94-1.42-1.81-2.74-2.78-3.93l-1.62-2-2.09-2.51a15.62,15.62,0,0,0-4.15-3.53,6.83,6.83,0,0,0-2.91-1,3.46,3.46,0,0,0-1.8.35l-.86.45a7.24,7.24,0,0,0-1.94,1.56,15.21,15.21,0,0,0-2.95,4.92,30.48,30.48,0,0,0-1.14,7.24,27.12,27.12,0,0,1-1.2,5.49,17.41,17.41,0,0,1-1.79,5,28.44,28.44,0,0,1-3,3.75c-1.28,1.39-2.68,2-3.57,2.9l-3.91,3.76a22.73,22.73,0,0,0-2.86,3.5l-1.28,1.9a22.21,22.21,0,0,0-1.32,2.41l-.62,1.39-.35.54a1.13,1.13,0,0,1-.67.43.92.92,0,0,1-.88-.31l-.45-.54a5,5,0,0,1-.51-3.08,5.66,5.66,0,0,1,.5-1.68l.4-.85.76-1.56a21.2,21.2,0,0,1,2.76-4.8,18.3,18.3,0,0,1,2.52-2.31l1.45-1.12A26.15,26.15,0,0,0,395.21,76,20.68,20.68,0,0,0,398,72a32.15,32.15,0,0,0,1.63-5.52c.64-2.77,1.16-5.4,1.6-8a32.65,32.65,0,0,1,1.11-4.71l.84-2.21.7-1.5.63-1a14.06,14.06,0,0,1,1.87-1.93,11.17,11.17,0,0,1,2.31-1.8,4.66,4.66,0,0,1,2.94-.5,40.58,40.58,0,0,1,5.77,1.6,27.61,27.61,0,0,1,4.92,1.92,18.17,18.17,0,0,1,6.23,5.39,65.91,65.91,0,0,1,5.37,9.18c1.31,2.54,2.85,5.46,4,8l1.75,4,1.46,3.38,2.09,4.56,2.46,5.32c1.28,2.72,2.64,5.83,3.85,8.8s1.92,5.42,2.77,7.78a59.72,59.72,0,0,1,2.07,6.81,19.14,19.14,0,0,1,.5,3.36c.06.94,0,1.75,0,2.48a13.08,13.08,0,0,1-1,4.8,28.94,28.94,0,0,1-3.11,5.78,11.48,11.48,0,0,1-2,2.27l-1.13,1-1.23,1.09-.53.44-.19.16-.62.44-.45.24-.48.35-.87.56-.81.4c-.65.29-1.42.8-2.19,1.16l-.61.27-1.22.64a26,26,0,0,1-4.45,2.15,23.14,23.14,0,0,1-6.54.88,27.74,27.74,0,0,1-5.34-.5,31.42,31.42,0,0,1-4.28-1.11c-1.75-.57-3.85-1-6.21-1.73s-4.32-1.76-6.85-2.76a55.24,55.24,0,0,1-8.18-4.17,22.5,22.5,0,0,1-2.93-2.11,13.75,13.75,0,0,1-1.87-1.92c-.59-.77-1.27-1.82-2-3.07l-2.5-4.18A60.44,60.44,0,0,1,382,107.62c-.52-1.48-1-2.93-1.38-4.3a31.77,31.77,0,0,1-.82-3.71,34.09,34.09,0,0,1-.21-6.35c.12-2.26,1-4.31,1.4-6.24a21.22,21.22,0,0,1,2.27-5.57l.19-.36a13.93,13.93,0,0,1,1.19-1.85,30.2,30.2,0,0,1,2-2.29l2.3-2.54.37-.4.53-.7a35.81,35.81,0,0,0,3.58-5.44,35.11,35.11,0,0,0,2.48-6,68.1,68.1,0,0,1,2.34-6.92l.64-1.73a29.44,29.44,0,0,1,1.48-3.09l1.27-2.06a18.52,18.52,0,0,1,1.85-2.49,10.05,10.05,0,0,1,3-2.35,21.59,21.59,0,0,1,4.66-1.53,17.29,17.29,0,0,1,3.94-.11,6.47,6.47,0,0,1,3.21.84c1.09.62,2.38,1,3.62,1.67a37,37,0,0,1,7.65,5.39,31.19,31.19,0,0,1,4.16,5.13c.93,1.3,1.84,2.71,2.87,4a30.52,30.52,0,0,1,2.24,3.31c1.35,2.16,2.6,4.1,3.69,6.28s1.83,3.65,2.41,5.11l1.37,3.44c.36.87.62,1.91.94,2.73l.82,2,.49,1.18.54,1.41c.65,1.6,1.43,3,2.28,4.95l3.19,7.21c.77,1.8,1.44,3.45,2,5s1,3,1.38,4.44a51.24,51.24,0,0,1,1.2,8.06,16.5,16.5,0,0,1-.43,5.92l-1.12,4.21a14.36,14.36,0,0,1-1.3,3.12l-1.14,1.91a20.42,20.42,0,0,1-1.13,1.74l-.65.94-.31.4-.31.36a11.7,11.7,0,0,1-1.11,1.25c-.63.56-1.42,1.16-1.93,1.7a32.25,32.25,0,0,1-3.14,2.81,18.91,18.91,0,0,1-3.42,2.14l-2.06,1.07-1.53.76a11.85,11.85,0,0,1-4.85,1.66c-1.3.08-2.66.09-4.19.1-1.88,0-3.25-.15-4.82-.18a25.65,25.65,0,0,1-3.82-.39l-6.39-1a21.73,21.73,0,0,1-5.09-1.57,37.53,37.53,0,0,1-6.48-3c-1-.66-2.28-1.24-3.54-2.18-1.1-.82-2.52-1.83-3.78-2.63s-2.1-1.53-3-2.18c-1.4-1-2.86-2.51-4.37-3.82-1.26-1.08-2.38-1.93-3.38-2.85l-1.46-1.5-.9-1a25.54,25.54,0,0,1-2.34-3,39.52,39.52,0,0,1-2.58-4.41,52.11,52.11,0,0,1-2.34-5.74,17.55,17.55,0,0,1-1-4.87l-.13-3.29c0-1.29-.05-2.67,0-4a30.8,30.8,0,0,1,.27-3.18l.35-2.46a25.92,25.92,0,0,1,1.18-4.77,14.06,14.06,0,0,1,1.69-3.43l.9-1.32c1.1-1.59,2-3,2.73-4.32,1.3-2.17,3-4.7,4.26-7.15.89-1.72,2-3.79,3-6.19.54-1.24,1.08-2.32,1.56-3.29l1.21-2.52,1.84-4.35c.59-1.27,1.08-2.8,1.8-4.07.35-.6.74-1.12,1.15-1.69l1-1.2,1.2-1.22c.69-.66,1.37-1.14,1.93-1.73.88-.9,1.52-1.76,2.18-2.49a3.2,3.2,0,0,1,.27-.25l-.1.05c-1.54.74-2.6,1.4-3.74,2.08A10,10,0,0,0,398.39,44l-.65.66-.38.37-.55.47-1.22,1.14a20.36,20.36,0,0,0-2.46,3.14c-.9,1.36-1.87,3.19-2.68,4.64s-1.48,3.1-2.31,4.89l-1.48,3c-.33.7-.68,1.24-1,1.74l-2,3.5c-.86,1.42-2.14,3.5-3.13,5.27s-2.09,3.82-2.9,5.54-1.68,4.22-2.53,6.71l-1.38,4.11A34.77,34.77,0,0,0,372.48,96a44.31,44.31,0,0,0-.33,7.68,59.77,59.77,0,0,0,1.28,8.41,25.45,25.45,0,0,0,2.17,6.18c.78,1.53,1.72,3.06,2.83,4.8a20.8,20.8,0,0,0,2.72,3.28l2.1,2,2.8,2.35,2.24,1.69c1,.76,2,1.56,2.92,2.22l3.47,2.47c1.16.79,2.21,1.34,3.5,2.06a83.4,83.4,0,0,0,10.58,5.09c1.93.73,3.83,1.63,5.39,2.16a30.68,30.68,0,0,0,4.26,1.25c1.09.22,2.36.43,3.78.58a36.81,36.81,0,0,0,4.69.22,36.13,36.13,0,0,0,4.81-.48,20.46,20.46,0,0,0,4.78-1.33,65.37,65.37,0,0,0,10.75-5,39.69,39.69,0,0,0,7.14-5.52,23.2,23.2,0,0,0,4.51-6l2.13-4.15c.63-1.23,1.19-2.35,1.65-3.42a68.75,68.75,0,0,0,2.88-8.14,27,27,0,0,0,.76-8,17.5,17.5,0,0,0-.57-4.26,21.07,21.07,0,0,0-1.31-3.42,50.81,50.81,0,0,0-2.62-5.23,62.13,62.13,0,0,0-3.59-5.24c-1.51-2-3-3.82-4.31-5.58L452,79.91l-.92-1.42-1.51-2.42c-.93-1.57-2-3.45-3.25-5.38a54.65,54.65,0,0,1-3.45-6.42c-1.1-2.37-2.07-4-3.07-6a58.72,58.72,0,0,0-3.17-5.55,24,24,0,0,0-2.72-3.54c-.92-.93-2.45-2.14-3.75-3.38a17.31,17.31,0,0,0-3.51-2.63l-2.78-1.52a17.57,17.57,0,0,0-2-.91c-.84-.29-1.71-.85-2.52-1.06-1.08-.27-2.32-.1-3.64-.38a15.92,15.92,0,0,1-1.84-.39l-.67-.25-.3-.1a1.71,1.71,0,0,1-.62-.23.75.75,0,0,1-.31-.74,1.11,1.11,0,0,1,.2-.53,2.7,2.7,0,0,1,2.53-.83c.94,0,1.89.26,2.61.33a37.68,37.68,0,0,1,4.53.64,24.05,24.05,0,0,1,3,1,26.79,26.79,0,0,1,4.76,2.11c1.14.64,2.41,1.44,3.7,2.27a32.1,32.1,0,0,1,6.47,5.55,33,33,0,0,1,3.2,4.62c.72,1.15,1.34,2.52,2.14,4,.6,1.13,1.26,2.34,2,3.64s1.71,2.74,2.79,4.24,2,2.94,2.85,4.27l2.26,3.68c1.08,1.71,2.55,3.76,4.06,6,1.08,1.64,2.27,3.4,3.2,5.11.83,1.54,1.72,3.46,2.73,5.44s1.74,3.72,2.54,5.75a45.64,45.64,0,0,1,1.86,5.72,58.88,58.88,0,0,1,1.6,9,36,36,0,0,1,.14,4.69,23.82,23.82,0,0,1-.42,3.8,17.44,17.44,0,0,1-1.7,4.8c-1.64,3.11-3.1,6.46-4.69,9.42a34.57,34.57,0,0,1-5.39,7.36,34.52,34.52,0,0,1-4.94,4.7,19.84,19.84,0,0,1-5,2.9c-2.17.81-4,2.28-5.9,3-1.33.55-2.94,1.39-4.7,2.06a24.43,24.43,0,0,1-4.88,1.33c-3,.51-6.71.83-10.34,1.08a24,24,0,0,1-4.12-.07,26.89,26.89,0,0,1-3.13-.54,37.39,37.39,0,0,1-5.6-1.55L406.2,151c-1.38-.56-2.67-1.47-4.33-2.25a26.78,26.78,0,0,0-2.88-1.09,8.09,8.09,0,0,1-1.57-.75c-.9-.53-1.8-1.17-2.6-1.73l-2.31-1.69c-1.45-1.09-3-2.28-4.52-3.61l-3.8-3.21-2.27-2.13c-.86-.83-1.81-1.73-2.83-2.59a17.27,17.27,0,0,1-2.55-2.66,18.39,18.39,0,0,1-1.57-2.51c-.5-.93-1.13-2.25-1.81-3.83s-1.45-3.5-2.14-5.5l-1.62-4.94-1.27-3.91a47.12,47.12,0,0,1-1.44-5.59l-.49-2.48-.26-1.24-.14-.59-.22-.77a12.21,12.21,0,0,0-.9-2.25,2.23,2.23,0,0,0-.61-.73l-.43-.31a23.49,23.49,0,0,0-4.54-2.37c-2.63-.87-5.61-1.38-8.94-2.14a48.6,48.6,0,0,0-10.06-.87c-1.6,0-3.3,0-4.93,0l-3.47.09c-1.37.07-3.21,0-4.82,0-1.36,0-2.9-.09-4.49-.06l-5.19,0h-.6c-.76,0-1.64,0-2.68.06l-2.84,0-4.25-.14L301.46,89l-6.28-.14-9.84-.32-8-.19c-3.32,0-6.68.2-10.14.07l-6-.22-6.88-.27-12.64-.62c-4.06-.2-8-.37-11.56-.37-4,0-7.89-.29-11.64-.23-5.23.1-10.4.41-16.06.46-4.22,0-8.72.06-13.3,0-2,0-3.9,0-5.68.11l-4.92.18c-4.42.09-8.87-.56-12.92-.7-3-.11-5.75-.31-8.36-.36-1.61,0-3.2-.17-4.75-.34l-2.8-.23-.7,0h-.34l-.18,0h-.06l-1.47.06-4.06-.06-5.41-.13-12-.33-8.33-.36c-3-.14-6-.25-9.22-.26-5.3,0-10.94-.06-16.26-.19l-11.88-.31c-3.77-.08-7.41-.15-11-.16-5.9,0-12.07-.08-18.54.22-7.12.34-14.85.49-22.19.59h-7.1l-6.11-.08-4.66-.1-1.43,0H8.27l-.75-.1a.61.61,0,0,1-.22-.13l-.11-.15A.41.41,0,0,1,7.19,83.78Z" transform="translate(-7.12 -36.25)"/></svg>