<svg xmlns="http://www.w3.org/2000/svg" viewBox="0 0 200 200" fill="none" stroke="#1E1E1E" stroke-width="2.5" stroke-linecap="round" stroke-linejoin="round">
  <!-- Brain — anatomical side view, elegant line art -->
  <!-- Left hemisphere outline -->
  <path d="M100 165 C95 163 88 158 82 150 C74 140 70 128 69 116 C68 104 72 94 68 84 C64 74 56 68 52 60 C46 48 44 36 50 26 C56 16 66 12 76 14 C82 15 86 18 88 22"/>
  <!-- Left hemisphere folds -->
  <path d="M88 22 C92 16 98 14 104 14 C112 14 118 18 122 24"/>
  <!-- Right hemisphere outline -->
  <path d="M100 165 C105 163 112 158 118 150 C126 140 130 128 131 116 C132 104 128 94 132 84 C136 74 144 68 148 60 C154 48 156 36 150 26 C144 16 134 12 124 14 C118 15 114 18 112 22"/>
  <!-- Right hemisphere folds -->
  <path d="M112 22 C108 16 102 14 96 14"/>
  <!-- Left sulci (brain folds) -->
  <path d="M52 60 C62 64 74 62 82 56 C86 53 88 48 88 44" stroke-width="2" opacity="0.6"/>
  <path d="M68 84 C76 88 86 86 92 80 C95 76 96 72 96 68" stroke-width="2" opacity="0.6"/>
  <path d="M69 116 C78 118 88 114 94 106 C96 102 98 98 98 94" stroke-width="2" opacity="0.6"/>
  <!-- Right sulci -->
  <path d="M148 60 C138 64 126 62 118 56 C114 53 112 48 112 44" stroke-width="2" opacity="0.6"/>
  <path d="M132 84 C124 88 114 86 108 80 C105 76 104 72 104 68" stroke-width="2" opacity="0.6"/>
  <path d="M131 116 C122 118 112 114 106 106 C104 102 102 98 102 94" stroke-width="2" opacity="0.6"/>
  <!-- Brain stem -->
  <path d="M92 150 C90 158 92 168 96 176 L100 182"/>
  <path d="M108 150 C110 158 108 168 104 176 L100 182"/>
  <!-- Central fissure -->
  <path d="M100 14 L100 94" stroke-width="2" opacity="0.4" stroke-dasharray="4 3"/>
</svg>
