<svg xmlns="http://www.w3.org/2000/svg" viewBox="0 0 200 200" fill="none" stroke="#1E1E1E" stroke-width="2.5" stroke-linecap="round" stroke-linejoin="round">
  <!-- Fingerprint — concentric organic loops -->
  <!-- Outer ridges -->
  <path d="M68 155 C55 138 48 118 48 98 C48 65 72 38 102 38 C125 38 145 52 152 72"/>
  <path d="M75 160 C60 142 52 122 52 100 C52 70 76 46 104 46 C122 46 138 56 146 72"/>
  <path d="M82 162 C68 145 58 126 58 104 C58 78 78 56 102 56 C118 56 132 66 139 80"/>
  <!-- Mid ridges -->
  <path d="M88 158 C76 142 68 126 68 108 C68 88 82 70 100 70 C114 70 126 80 130 94"/>
  <path d="M94 152 C84 138 78 124 78 108 C78 94 88 82 100 82 C110 82 118 90 120 100"/>
  <!-- Inner ridges -->
  <path d="M100 145 C92 134 88 122 88 110 C88 100 94 92 102 92 C108 92 112 98 112 106"/>
  <path d="M106 138 C102 130 98 120 98 112 C98 106 100 102 104 102"/>
  <!-- Core -->
  <path d="M110 128 C108 122 106 116 106 112"/>
  <!-- Upper arch -->
  <path d="M152 72 C158 88 160 100 155 120 C150 140 138 155 120 165"/>
  <path d="M146 72 C152 88 154 102 148 120 C142 138 130 152 114 160"/>
  <path d="M139 80 C144 92 146 106 140 122 C134 138 124 148 110 155"/>
  <path d="M130 94 C134 104 135 114 130 126 C124 138 116 146 106 150"/>
  <path d="M120 100 C124 108 125 118 120 128 C116 136 110 142 102 146"/>
</svg>
