<svg id="Capa_1" data-name="Capa 1" xmlns="http://www.w3.org/2000/svg" viewBox="0 0 1920 1221"><defs><style>.cls-1,.cls-5{font-size:32px;}.cls-1{font-family:RobotoCondensed-Light, Roboto Condensed;font-weight:300;}.cls-2,.cls-3,.cls-4{font-family:RobotoCondensed-Medium, Roboto Condensed;font-weight:500;}.cls-3{letter-spacing:-0.01em;}.cls-4{letter-spacing:-0.01em;}.cls-5{font-family:RobotoCondensed-Regular, Roboto Condensed;}.cls-6{letter-spacing:-0.02em;}.cls-7{letter-spacing:-0.07em;}.cls-8{letter-spacing:-0.04em;}.cls-9{letter-spacing:0.01em;}.cls-10{letter-spacing:0.01em;}</style></defs><title>Portada web 2</title><path d="M1058,459.87c-7.91-.1-6.41,8-12.08,9.65-5.08,1.49-6-3.76-5.76-7.62.18-3.54,3.34-13.68,8.08-12.39,4.9,1.33,8,7.8,14.15,3.94,6.73-4.24,5.45-16.19-1.13-19.76-5.54-3-9.88,3.39-13.47,2.95-2.08-.25-5.62-3.79-8.08-4.65-5.26-1.85-9.4,2-9.47,7.31,0,3.25,1.69,7,1.85,9.95a4,4,0,0,1-7.74,1.83c-1-2.46-1-6.85-1.69-9.78-2.86-11.55-8.08-10.24-17.51-12.86-5.53-1.54-8.95-4.37-15.32-3.54-7.71,1-12.63,16-20.94,13.22-3.54-1.19-5.56-8.15-4.06-11.37,3.66-7.9,22.72-4,29.13-7.33,3.21-1.65,4.12-6.76.67-8.66-6.11-3.37-16.59,3-23.28,1.58-5-1-3-4.55-2.78-7.77.48-8.39-2.87-19.08-.53-26.87,1.3-4.33,6.25-5.44,7.81-.85,2.58,7.61-7,19.18-2.31,25.56,4.54,6.2,18.31,1.14,25.43,4.64,3.66,1.8,7.31,9,10.23,12.4,5.58,6.42,13.47,12.7,22.16,7.61,2.64-1.54,4-4.37,7.43-4.37,6.54,0,10.28,7.51,18.46,6.08,6.3-1.1,10.27-9.25,5.72-14.43-5.91-6.73-18,2.54-25.43-1.85-3.69-2.17-1.44-7.52,2-6.38.71.23,1.7,1.35,2.56,1.78,8.06,4,19-5.34,12.6-13.53-4.36-5.59-10.21-3.49-15.28-.1-2.55,1.7-4.24,4.25-6.9,5.51-8.11.53-4.86-14-12.38-14-7.05,0-4.21,11.48-2.23,15.28,2.3,4.43,6.19,4.57,9,7.37,2.52,2.54,1.23,7.28-2.7,7.27-7,0-8-9.6-11.49-13.75-3.84-4.6-13.24-5.48-18.88-5.29-2.44.08-4.55,1.08-6.69.86-3.91-.39-5-5.54-.62-6.46,8.39-1.74,19.63,4.54,26.06-4.17,2.36-3.2,1.67-9.89,7.29-7.6,2.13.86,3.48,2.71,5.27,4,6.1,4.52,15.64,7.57,22.68,3.48,5.76-3.35,3.83-11.75-2.8-11.51-4.6.17-7.23,4.82-12.27,1.35-2.06-1.42-3.4-4.95-.35-5.88,2.58-.79,5.45.87,8.91-.39,8.37-3.06,5.32-13.42-3.17-12.78-3.74.28-10.37,5.72-12.84,8.54-1.48,1.7-3.11,4.94-5.36,5.79-3,1.14-5.09-2.35-9.39-1-4.72,1.46-3,6.22-5.15,9.42-3.82,5.73-12.42,5.4-17.28,1.26-2.58-2.2-3.23-4.47-3.32-7.77-.14-4.87.8-16.6-2.78-19.89a4.64,4.64,0,0,0-7.7,2.15c-.83,3.3,1,5.7.77,7.58s-2.41,2.47-4,1.79c-2.09-.9-1.52-9.89-1.62-12s-1.69-5.1.72-6.42c2.89-1.59,6.62.73,9.83-.08,3.6-.92,4.81-5.73,1.65-7.86-2.87-1.93-10.38.42-11.7-3.23-1.69-4.63,1.76-6.22,1.88-9.34.2-5.44-6.36-10.37-3.85-17,.62-1.63,2.25-2.76,3.82-1.47,2.66,2.18-.57,12.48,5,13,6,.52,3.42-8.76,3.8-11.87.53-4.45,7-1.9,7.15,2.19.09,3-4.91,10.63-5.81,14.65-1.87,8.31,2.41,8.57,5.31,14.34,2.26,4.5-1.27,5.06-1.26,8.76,0,2.85,2,6.13,2.32,9.08.67,6.45-1.33,11.15,3.19,17,3.43,4.4,9.09,5.62,11-.72,2.87-9.78-8.15-15.23-6.56-22.12.48-2.06,2.1-1.72,3.54-.74,4.15,2.8,2.42,10.94,10.32,15.24,4.76,2.59,10,1,8.89-5.17-.46-2.7-7.56-12.7-9.84-14.64-5.89-5-13.5-4.88-17-13.09-.84-2-2.54-6.76-2-8.7s4.13-4.87,5.37-7.34,1.19-7.14,5.19-5.5c3.81,1.56,1.83,6.37.33,8.85C998.48,325,994,326.7,997.19,332c1.07,1.77,3.18,3.43,5.36,3.32,3.27-.17,6.09-5.19,7.35-7.86.83-1.76,1-5.07,3.51-5.19,2.82-.13,4.39,2.82,3.8,5.38-.29,1.28-3.76,3.87-4.64,5.89-2.87,6.58,1.79,8.86,5,13.44,2.58,3.72,5,12.05,10.91,10.49a4.56,4.56,0,0,0,1.71-1.08c3.83-4.26-6.19-10.5-7.1-14.65-.24-1.11.13-2.8,1.33-3.2,1.66-.55,2.28.27,3.25,1.44,2.18,2.64,4.58,8,6.69,10.05a6,6,0,0,0,3,1.31c5.74.28,9.27-.09,14.64-.09-.23-.66-.39-1-.6-1.71h-14.1a3.39,3.39,0,0,1-2-1.37c-2.36-2.8-4.38-7.82-7-10.4-3-3-7.34-.43-7.19,3.53.17,4.41,8,9.41,8,12.74,0,2.06-2.29,2.13-3.72,1.23-2.42-1.53-5-7.65-7-10.34-2.77-3.75-6.93-6-3.6-11.4.78-1.26,2.1-2.06,3-3.22,5.19-6.87-4.5-13.71-8.05-7.43-1.72,3-2.07,6.57-4.93,9.33-3.63,3.5-8.57-2.21-6.06-5.75,1.48-2.08,3.53-3.54,4.71-6.14,1.62-3.56,1.77-8.75-2.83-10-5.76-1.54-5.47,4.42-7.5,7.7-1.81,2.93-5.4,4.65-5.19,8.68.11,2.21,2.52,8.59,3.75,10.53,4.24,6.7,12.78,7,17.77,12.6,1.21,1.35,7.24,10.37,7.52,11.7,1.11,5.33-3.62,5.57-7,3s-3.16-3.08-4.87-6.74c-1.33-2.84-2-7-5.22-8.42-1.86-.82-4.26-.61-5.24,1.39-3.8,7.8,10.88,15.71,5.64,24.61-2.3,3.91-6.86-.49-8.27-3.11-2.68-5-1.13-9.1-1.64-14.17-.33-3.26-3.16-7.92-2-10.73.9-2.13,2-2.49,1.62-5.34-.76-5.59-7.13-7.06-6.42-14.34.6-6.14,10-15.91,4-21.09-2.8-2.45-8-2.5-8.67,1.89-.33,2,1.77,11.19-2,10.62-2.34-.35-1.76-6.77-2.12-8.75-1.27-6.93-8.16-5.62-8.93,0-1,7.41,4.4,11.32,4.2,16.12-.06,1.4-1.7,2.54-2.09,5.46-.49,3.69.35,6.11,2.69,7.3,1.91,1,13.33,0,10.7,4.58-1.81,3.16-8.17-.56-12,1.62-3.45,2-1.76,5.11-1.64,8,.18,4.42-1.06,17.59,7,13.54,3.39-1.7,1.46-5,.93-8-.79-4.55,4.82-6.46,6.32-1.34,3.46,11.76-3.38,24.11,10,28.22,5.9,1.81,13.9-.39,16-6.62.86-2.53.21-6.21,3.85-6.69s4.82,2.78,9,1c2.56-1.11,3.87-3.89,5.67-5.8,3.29-3.5,11.61-11.64,16.45-6.82,2.58,2.58,1.68,5.72-1.34,7.36-3.79,2-7.31-.54-10.36,1.11-5.35,2.9-1.14,9.25,3.3,10.15,4,.81,4.77-.67,7.91-1.73,7-2.37,9.62,4.8,3.78,7.81-5.39,2.78-12.83.77-17.77-2.17-4-2.36-6.95-7.39-12.28-6.19-3.14.71-3.45,6.37-5,8.59-4.91,6.84-16.68,2.74-24.07,3.37-4.19.36-6.9,4.24-4.17,7.91s6.28,1.64,10.28,1.45c4.45-.21,10.54.26,14.62,2.11,6.76,3.06,5.87,12,12,15.61,4,2.36,9.48,1.64,10.1-3.66.85-7.27-6.91-6.83-9.94-11.68-1.4-2.24-3.68-10.56-1.71-12.53a2.79,2.79,0,0,1,3.34-.26c3.61,2.4,2.11,10.18,7.63,12.83,4.71,2.26,6.3-1.21,9.26-3.66,3.53-2.93,9.43-6.54,13.62-3.1,6.78,5.58-.3,14.28-7.9,12.55-1.75-.4-3.13-2.27-4.56-2.57-5-1-7.84,5.6-4.12,9.08,6.44,6,18.78-2,24.66,1.07,5.67,3,2.4,11.87-3.44,12.69-6.47.9-9.6-4.33-15.31-5.72-8.35-2-8.47,4.95-15.08,5.71-11,1.27-17-11.66-22.76-18.4-6.36-7.45-15.29-3.87-23.67-4.85-2.09-.24-5.23-1.63-5.7-3.91-1.58-7.76,7.62-18.07,2.36-25.6a5.61,5.61,0,0,0-8.29-.64c-5.62,5.42-1.27,20.64-1.27,27.56,0,3.18-1.93,7.67-.13,10.36,3.65,5.47,12.8,1.61,17.74.73,2.43-.43,10.06-1.7,10.31,1.93.24,3.41-3,4.28-5.74,4.5-6.42.51-19.78-.1-24.76,5.35-4.63,5.06-.65,16.34,6.55,16.34,7.69,0,12.47-11.84,18.34-13.49,5.26-1.48,10,1.79,14.81,3.17,6.51,1.87,12.52.89,15.62,8.25,1.66,3.92,1.46,7.22,2.19,11.14.84,4.49,4.42,7.66,9,5.45,6.89-3.32-1.57-14,2.24-19.45,4.38-6.28,10.37,2.85,14.87,3.09s9.06-7.31,14.1-1.72c3.54,3.92,4.39,11.56-.34,14.86-5.66,4-10-4.87-15.24-4.1-7.54,1.11-12.76,23.37-2.51,24.09a8.36,8.36,0,0,0,5.22-1.85c3.77-3.11,2.92-8.55,9.3-8.05,7,.56,9.2,8.13,8.83,14.09-.34,5.53-4.57,18.45-12.19,13.44-4.53-3-3.87-9.47-11.2-9.88-10.21-.57-8.78,13.14-17.82,10.08-3.19-1.08-6-4.81-4.5-8.2,1.2-2.77,7.46-3.45,9-7.75,2.93-8.27-10.72-15.48-18-10.3-6.79,4.81-9.43,14.79-5.66,22.23,3.21,6.34,17.85,15.77,25,16s12.36-6.12,20.07-1.49c6,3.6,4.34,16-.87,19.77-3.28,2.4-10.4,2.92-13.37-.11-3.84-3.92-3.29-7.53-10-9.72-8.55-2.81-15.7-3.65-21.92-11.24s-12.3-32.84-6.61-41.33c3.31-4.94,10.08-.65,13.75-5.16,5.42-6.66-3.85-13.72-9.84-15.28-17.73-4.63-21.85,19.14-18,31.63,1.07,3.45,3.1,5.8,3.45,9.57.41,4.32-1.14,9.63.13,13.82,1.34,4.45,7.85,6.6,5.46,11.83s-9.66,7.12-11.83,13.89c-1.3,4-1.15,10.88,4.59,10.49,5.12-.35,12.36-12.54,18.57-14.29,5.19-1.46,9.75,5.95,13.71,8.63,4.34,2.94,15.72,6.62,16.22,12.61.21,2.49-1.46,6.51-3,8.49-3.67,4.79-14.86,7.92-19.94,4.18-5.85-4.31,2.24-8.29,3-12.76a8,8,0,0,0-11.08-8.91c-4.38,1.73-9.77,8.38-9.27,13.29.66,6.42,6.34,7.42,8.39,11.75,2,4.18,1.63,15.31-3.6,17-4.62,1.46-7.58-1.49-11.58-2.41-3-.7-13.08.28-11.46-5.14,1.24-4.17,12.25.21,15.19-5,2.58-4.55.15-15.66-6.14-16.3-6.88-.71-5.32,5.91-7.85,9-1.19,1.47-4,.18-5-1.1-4.39-5.41,2.17-10.8,2.78-16.28.69-6.22-4.45-7.78-4.87-12.62-.83-9.67,10.27-.5,9.75-9.33-.32-5.53-4.73-5.07-8.57-6.24-4.16-1.26-3.41-5.14-1.5-8.35,7.8-13.06,11.57-17.76,7.55-23.17-3-4.06-12.82-1.72-12.4-7.71.4-5.55,8.76-4,11.35-7.5,3.15-4.22,1.37-10.51-4-11.48-3.76-.68-8.26.28-12.25-.14a58.71,58.71,0,0,1-7.29-1.55c1.28-3,1.32-6.16,2-9.3,1.38-6.25,6.06-12.9-1-17.55,2.21-4.39,3.52-8.88,3-13.87-.16-1.6-1.5-4.63-1.48-5.62,0-.65,1.59-3.47,1.92-4.56a24,24,0,0,0,.45-11.16c-.23-1-1.44-3.28-1.44-3.81s1.55-3.61,1.82-4.67c1.08-4.22.49-7.47-2.71-10.56a21.84,21.84,0,0,0,1.09-13.19c-.18-.9-1.14-2.81-1.07-3.46,0-.36,1.47-2.61,1.79-3.44,1.88-4.78,2.32-16.74,1.85-22C959,308.5,944.1,304,935.3,308.88c-5.5,3.05-6.13,7.85-3.86,13.47l-2.28,2.38c-5.47-5.41-13.1-3.11-17.67,2.17-.94,1.09-3,5-3.39,5.29a24.39,24.39,0,0,1-2.55.86c-3.57,1.69-7.93,6.33-9.07,10.15-1,3.38-.56,6.33-.16,9.74-5.18,4.82-10.47,10.93-12,18a45.65,45.65,0,0,0-.88,8.42c-8.16,4.13-11,12.08-11.43,20.8-.48,9.14,2.73,14.67,8.38,21.4-.1.46-7.73,2.3-8.06,2a11.2,11.2,0,0,0-.07-7.21c-2.82-8-14.93-4.62-12.12,4.68,1.3,4.29,5.48,5,9.4,5.18-.42,4.14-3,4-5.56,5.91a10.56,10.56,0,0,0-3.13,4c-2.72,5.88-1.68,23-.53,29.67.85,4.9,2.4,10,6.06,13.48-1.89,5.43-1.21,10.53.13,16,1.84,7.41,5.51,16.79,10.47,22.62.55.64,3.49,3.75,4,4.12.7.49,1.21.19,1.55.36,2.67,1.31,1.74,1.89,2.72,4,4.45,9.77,6.59,16,16.28,21.84,2.61,1.57,7.52,3.32,9.59,4.9,1,.8,2.53,3,3.8,4a96.45,96.45,0,0,0,10.09,7c5.07,3.11,11.88,6.83,18,4.36,2.73-1.11,2.63-4.58,3.29-4.78,5.55,1.45,14.9,2.09,15.9-5.47s-5.6-10-11.83-7.49c-3.81,1.56-5,4.09-5.72,7.91-.18.9.2,2-.56,2.55L933.62,557c1.13-3.26.69-6-.59-9.1a30.83,30.83,0,0,0,5.34-.4c3.68-.61,4-1.21,8.13-1.14,10.31.16,13.23-1.77,14.64-12,.83-6-.43-8.91-.83-14.48-.31-4.24.74-9.64-.69-13.56-.34-.94-1.75-2.85-1.76-3.47,0-1.09,2.28-5.74,2.67-7.54,1.89-8.7-2.79-16.16-7.61-22.91-.14-.87.8-1.62,1.12-2.48a28.18,28.18,0,0,0,.16-17.07c-1-3.13-3.15-4.94-1.64-8.44,2.78.61,5.67,1.63,8.53,1.86,4,.32,11.47-1.17,14.42,1.39a5.17,5.17,0,0,1-1.24,8.47c-1.27.62-5.31,1.6-6.58,2.29-4.31,2.37-5.47,7.61-.74,10.33,5.14,2.95,11.22.39,11.15,7.48-.07,6.83-11.57,16.67-10.61,23.66,1,7.31,11.55,2.89,11.72,9.35.15,5.69-7.29-1-9.38,5-2.71,7.75,4.36,10.06,4.45,15.28.12,6.49-6.88,10-3.35,17.59,1.37,2.93,5.8,5.18,8.44,2.71,2.9-2.71,1.44-10.44,7.51-8.44,4,1.31,5.72,10.45,3.76,13.51-1.59,2.49-7.95,1.45-10.57,1.83-5.67.82-6.89,7.22-1.6,9.49,2.78,1.2,6.94.55,10.1,1.37,4,1,5.68,3.27,10.63,2.7,8.06-.92,9.21-15.53,5.56-21.06-2.61-4-8-5.15-7.59-11.34.18-3.15,5.32-9.05,8.16-10.13,4.34-1.65,8.93,1.35,8.6,6.13-.34,4.95-6.93,6.77-4.63,12.66,3.18,8.14,19.47,4.33,24.12-1a18.15,18.15,0,0,0,4-8.93c.86-8.67-11.81-12-17.3-15.8-4.29-3-8.42-10.41-14.53-8.91-5.39,1.32-10.76,8.91-14.93,12.34-5.62,4.64-8.19.46-6.6-5.36,2.15-7.88,13.45-10.36,12.48-18.51-.48-4.09-5.06-5.59-6.06-9.44s.5-8.69.13-12.84c-.38-4.35-2.76-7.06-3.83-11-3.36-12.44,1.55-35.34,19-27.33,3.76,1.73,9.09,6.36,6.36,10.82-2.46,4-9.16.66-13.09,4.26-5.92,5.43-3.36,21.78-1.51,28.81,3.81,14.55,9.42,22.14,24.15,26.68,3.12,1,6,1,8.84,2.94,4.69,3.12,4.49,9.54,11.46,10.23,11.55,1.15,16.59-6.81,15.66-17.52-.5-5.78-5.14-9.16-10.69-9.45-6.58-.35-11,4.31-17.84,2.65-5.23-1.26-17.13-9-19.89-13.59-5.85-9.79,2.35-26.76,14.43-21.25,3.11,1.42,6.92,5.25,5.27,8.92s-7.43,3.72-9,7.79c-2.1,5.63,4,11.33,9.56,10.81,7.19-.68,6.57-11,14.61-10.52,6.19.35,5.89,7.5,11,10.05,10.06,5,14.65-11.3,14.22-18.56-.38-6.36-4.29-12.8-11.3-12.89Zm-107.88,93c3.3-1.91,9.4-2,10.05,2.67,1.23,8.88-8.47,7.68-14.23,6.33.4-3.69.65-7,4.18-9Zm2.77-137.95c-6.28-3.47-13.64-6.7-20.43-2.45l-6.35-3.11c1.49-3.74,6.15-2.86,9.41-2.43,4.18.54,9.65,2.44,13.69,2.45,3.68,0,5.3-2.17,5.1-5.74-.13-2.25-2-4.09.62-5.43a19.68,19.68,0,0,1-2,16.71ZM911.57,529.63l-9.29-.93.46-5.58c2.88-2.15,4.81-3.62,8.29-4.73,1.71-.54,8.64-2.45,10-2a.71.71,0,0,1,.52.87c-7.87.91-14.22,3.16-9.92,12.4Zm-9.91-11.16-.93-2.17,1.86-.31c.11.12-.38,2.41-.92,2.48Zm4.64,23.24c-3.79-1-7.52-3.46-9.16-7.11-1.42-3.17.09-3.36,3-4.05-.39,5,2.83,8.14,6.2,11.15Zm-33.48-61.36-3.89-1.54c1.09-2.26,2.24-4,2-6.67-.41-5.24-6.51-8.79-3.4-14.41a36.6,36.6,0,0,0,11.76,6.68l2.81,5.09c-7.39-.18-12.54,2.8-9.3,10.85Zm14.88-83.84c-.15-2.22-.86-4.53-.94-6.77l5.9-2.69a30.25,30.25,0,0,0,3.41,21.38c-.38.28-6.25-.37-6.8-.79-2.06-1.56-1.41-8.71-1.57-11.14ZM941,317c.46-1.95,3.16-2,4.82-1.87,7,.59,6.47,7.16,3.87,12-.68.44-1.67-.52-2.17-1,3-5-.57-10.73-6.52-9.12Zm-.31,1.86c2.78-.9,6.21.22,6.21,3.56,0,.88-.58,3.06-1.72,2.33A10.86,10.86,0,0,1,940.71,318.86Zm3.41,7.74c-4.13,1.26-7.66-.8-10.22-3.87.6-.7,4.64-3.39,5.25-2.94l1.43,3.07,3.54,3.74Zm6,3.73c3.25,2.39,2,6.6.79,9.78-5.58-.68-7.23,6.07-12.92,6.63-2.28.22-4-3.65-4.46-5.56,7.29-.21,12.95-4.89,16.58-10.84Zm-7.91,173.73c-.06-.82-1.11-4.93-.93-5.12a23.52,23.52,0,0,1,10.51,1.89c-.59,4.18-2.26,6.46-6.24,7.8-5.28,1.78-3.05-.53-3.35-4.58Zm0,7.63c2.75,4.71.78,10.92-2.75,14.7-.6.26-10-5.6-10.68-6.69-.43-.73-.4-1.7-.8-2.46a61,61,0,0,0,6.1-2.12c2.77-1.22,5-3.45,8.12-3.43Zm-14.84-3.6c0-.22.68-2.53.77-2.64.8-1.05,6.13.93,7.29,1.41a30.13,30.13,0,0,1,4,2.17c0,.51-1,1.44-1.48,1.62-2.77,1.1-7.61,1.35-10.61,1.94.12-1.43-.17-3.1,0-4.49Zm-1.89,5.08-4.18.93c-2.29-1.42-7.48-6.08-7.58-8.8,0-.72.06-.35.48-.46,1.72-.46,3.55-.14,5.27-.62l7,.31a26,26,0,0,0-1,8.65ZM898.7,437.9a19.63,19.63,0,0,0,2.62.64c0,3.73.42,7.78,3.6,10.19,1.84,1.39,3.43,1.36,5.6,1.84l2.92,4.36c-4.05.45-7.75-1.33-11.63-2.16l-7.56-15.63c.38-1.58,3.55.42,4.46.75Zm-1.07-2.65,4-1.7-.31,3.1C901.15,436.86,897.63,435.69,897.63,435.25Zm16.73-51.15c1.07,5,4.52,8.86,9.92,8.84l-.92,3c-7.28-.3-11.67,7-14.29,12.84-.82.57-3.15-2.74-3-3.48.07-.44,1.52-2.61,1.87-3.43,2.48-5.77,3.55-9.84-1.13-14.79-.78-.83-3.21-1.84-1.87-3.09s7.55-.46,9.45.15Zm-8.06-2.32,1.86-3.27,5.88-.14v3.72C911.5,381.73,908.84,381.07,906.3,381.78Zm21.39,9.61c2.6-8.91,13.34-8.92,19.52-3.56l-3.58,3.26C938.34,390.08,933,391.62,927.69,391.39ZM942,392.63c-3.43,3.65-9.16,6.2-12.4.77A74.44,74.44,0,0,1,942,392.63Zm-12.25,3.73c5.66,4.8,10,.29,14.82-3.05,1.62.14,6.62,4.62,6.37,5.94-7.74,7.82-17.54-.06-25.68-2.59,1.59-5.87,1.83-2.55,4.49-.3Zm-13.17-11.48a20.94,20.94,0,0,1,8.68,6.5C921.11,391.17,917.51,389.06,916.53,384.88Zm7.2,31.08c.32.83,1.65,2.53,1.46,3.13s-4.27,1.46-4.75,1.36c-.17,0-2.59-1.92-2.54-2.43l2.7-7.37,2.75,0a8.13,8.13,0,0,0,.38,5.35Zm10.65,29.36-3.74,2.48-5.42-3.56c1.54-.94,6.93-2.3,8.3-1.32.13.09,1.08,2.06.87,2.41Zm1.36,1.55,1.55,3.41c-.71.39-4.65-1-4.64-1.39l3.09-2Zm-13.81,27.3-5.11-1.45a71,71,0,0,1,1.57-11.9c.26-.24,1.73,1.11,2,1.37,1.37,1.14,2.49,2.6,4,3.57l.43.79-3,7.62Zm1.11,2.46,3.41.62c.64.59-3.56,3-3.72,2.79Zm-19.78-3.47.25-3,11,4c.58.87-.5,7.13-.88,8.45s-.64,2.9-2.39,3c.76-5.78-3.1-10.14-8-12.46Zm-9.36-19.47,6.46.66a32.59,32.59,0,0,1,1.6,11.43c-2.76.4-4.68-.46-6.83-2.08a27.33,27.33,0,0,0-1.23-10Zm.19,13.93a11.44,11.44,0,0,1,7.51,1.62l-.26,3.05L893,470l1.11-2.35Zm2.8,5.25c.82.21,3.57.8,3.8,1.49.51,1.59-2.69,7.58-3.84,9.09l-7.87-8c-.27-1,2.25-2.29,2.51-3.44.57-.33,4.48.59,5.4.82Zm5.7,2.21c4.55,1.62,7.87,6.24,6.67,11.17-4.17,1.92-7.39,1.35-11-1.26C900,481.82,901.89,478.68,902.59,475.08Zm0-20.15c3.37.43,6.44,2.28,9.92,1.86-1.44,4.1-3.83,8.14-8.68,8.37a43.07,43.07,0,0,0-1.24-10.23Zm1.23,13.13v-1c6.45-.27,8.46-5.29,11-10.23.37-.09,2.22,2.15,2.26,2.37s-1.28,5.12-1.45,6.2c-.36,2.28-.41,4.64-.67,6.93l-11.17-4.23Zm8.69-18.39,4.33-1.55-2.32,5c-.48-.49-2.38-2.87-2-3.4Zm-1.23-1.56c-1.82-5.08.6-8.42,6-6.44,1.94.71,3.5,1.66,1.37,3.55C918.13,445.65,911.59,448.34,911.27,448.11Zm5.26,26.66,5,1.24-1.1,5.56-5.1,2.49,1.24-9.3Zm-.62-20.46c2.05-3.29,2.94-8.65,7.42-9.15l5.28,3.73c-1.15,1.32-12.12,5.88-12.7,5.42ZM931.72,441a21,21,0,0,0-2.86.08c-1.65.27-4.31,1.7-5.37,1.77a.92.92,0,0,1-1.06-.46c1.79-2.25,3.32-4.72,5.77-6.33.54-.1,4,4.51,3.52,4.93Zm-3.19-7.48c-.31-.08-1.4-1.27-2.07-1.67-2.33-1.38-5.33-1.27-7.44-3.09,1-.53,3.35-4.22,4.13-4.14.34,0,4.47,2.57,5.37,3s3.11,1,3.81,1.46c.92.65,2.14,3.27,3.12,4.16a20,20,0,0,0-2.93-.62c-1,0-3.43,1-4,.89Zm-13-14.69-1.35,2.59c-2.47-.09-4.53.76-6.48-1a9.35,9.35,0,0,1-.75-.7c-.31-1.69,1.8-5.12,2.17-6.9Zm-5.48-8.2h8.68l-2.33,6.2A24.15,24.15,0,0,1,910,410.61Zm5.79,12.45c1.26.19,4.6-1.27,5.33,0,.22.38,0,.74-.25,1.06a33.92,33.92,0,0,1-3.58,3.8l-3.2-2.27Zm8.47.25c-.2-.26,1.76-3.28,2.64-1.86l2.94,4.65Zm-5-14.56h-8.06c-.31-.3,2-4.05,2.35-4.62,2-3,5.1-6.8,9.11-6.08l-3.4,10.7Zm-11.16-15.66c.36,3.5-1.68,7.29-3.1,10.38-.65.45-2.19-3-2.43-3.61a15,15,0,0,1,1-13.12c1.77,1.87,4.21,3.56,4.49,6.35Zm-.77,17.52.42.72-2.44,6.41c-.29.23-4.64-5.08-4.81-5.59s.77-1.53.94-1.53h5.89Zm-2.95,9.6c-1.79-.83-3.66-1.54-5.36-2.54-.56-.33-3.44-2.08-3.31-2.57l2.94-2.32,5.73,7.43Zm1.28,2.53a3.11,3.11,0,0,1,1.81.13,37.17,37.17,0,0,1,3.59,2.93c.49.89-2.09,3.14-2.86,3.67s-4,2-4.44,1.6l1.9-8.33Zm7.28,4.63,2.9,2c-3.42,3.6-7.45,7.38-12.7,7.59l.32-4c3.92-.12,7.17-2.59,9.48-5.57Zm-9.78,11.46c6-.23,10.3-4.54,14.46-8.34l6.82,2.38,2.57,1.77c-2.52,1.73-4.26,4.25-6.09,6.64-3.4-1.19-7-3.64-10.31-.73-2.45,2.16-2,5.06-1.26,7.88-5.14-.16-6.43-5.27-6.18-9.59Zm-3.74,13.62-6.13-1-3.19-11.57.08-.4,2.27-1.61,7,14.56Zm-6.19,9.46c0,.32.08.67-.46.46a51.77,51.77,0,0,1-5.28-4.33c-1.72-1.63-3.14-3.58-4.8-5.27l9.23.69c.7,2.61,1.67,5.74,1.31,8.46Zm-5.59-1.24c1,.9,4.49,3.05,5,3.7a1.26,1.26,0,0,1,.29,1.1c-4.21-.05-8.32-1.35-12.32-2.56-1.54-3.18-2.37-6.36-1.32-9.84.83-.73,7.39,6.75,8.36,7.6Zm4.35,6.66c.32.31-.75,2.14-1.15,2.48l-6.38-.31-2.39-4Zm-5.89,4,3.1.31-1.69,1.85c-.39-.21-1.74-1.85-1.4-2.16Zm1.08,5,8.21,9c-1.28.29-3.5,3.48-4.75,3.35L880,482.05l7.28-5.73Zm1.19,13.06c.23.21.62.28.51.72-1.1.55-2.85,2.41-4,1.87a78.8,78.8,0,0,1-6.83-7.13c-.2-.37-.42-.59-.3-1.09a4.34,4.34,0,0,1,1.56.14c1.56.44,7.84,4.31,9.09,5.48Zm-3.33,5.53c.61,0,3.7,2.3,4.57,2.85.4.25,1.4.51,1.45.57.5.52-.16.52-.43.64-2.78,1.25-9.49,2.95-12,.75a20.5,20.5,0,0,1,6.38-4.81Zm4.18.44-2.19-1.83,3.82-2.27,7,4.59-2.48,1.38c-2.28,1.33-4.14-1.07-6.17-1.88Zm3.39-5.24,4.23-3.84c3.68,2.59,7.12,4,11.58,2.14.94,1.3-4.16,4.32-5.17,4.9-1.35.77-2.86,2-4.3,1.32-.51-.23-6.23-4.14-6.33-4.52Zm12.7,4.19-2.06,2.76c-.54.16-1.29-.35-1.66-.75Zm-.6,3.88c2.12-1.84,3.29-5.17,5-7.14,1.17-1.39,3.23-2.55,4.12-4.4l6.72-2.89,1.2,5.36c-4.2,4-9.33,8.07-10.19,14.17l-6.81-4.65v-.44Zm0,15.64-1.22-6.17,7.41-2.06C916.3,511.13,909.09,512.61,904.76,513.82Zm-.26,1.92c2.51-.75,6.2-1.45,8.29-3,.59-.44,1.74-2.3,2.18-2-.2,1.1,3.93,3.45,3.41,4-3.84,1-8.9,1.58-12.3,3.66-.53.32-2.8,2.6-3.19,2.23l1.6-4.9Zm16.82-13.4-7.89.63c1.14-5.37,5.8-8.74,9.5-12.35,4.78,2.54,10.36,3.23,15.55,4.66l.37,2.11c-4.06.55-8.94,2.1-11.36,5.6Zm3.28-13.16c6.24-5.33,12.43-5.9,13.32,3.87-.42.41-10.17-2.25-11.4-2.7a3.6,3.6,0,0,1-1.92-1.17Zm15.79,18.13a34.29,34.29,0,0,0-10.53-4c-.18-.71.14-.51.39-.7a17.46,17.46,0,0,1,9.21-3.32c.43,2.7,1.25,5.27.93,8.05Zm-16.88-19.83c-.63-.14-1.48-4.21-.94-5l6.58-4.27c5.18,1.32,10.93,2.68,15.59,5.36,2,1.14,3.65,2.21,4.57,4.41,3.08,7.32-4.45,6.6-9.24,5.52-1.61-11.2-8.08-12.73-16.57-6Zm5.2-11.53-5.05-1.19,2.94-7.12,6,4.84-3.91,3.46Zm-1-9.6c1.09-4.11,5.07-6.61,9.23-4.57-.28,1.73-1.29,8.07-2.76,8.83-1,.49-5.26-3.8-6.46-4.26Zm7.21-7.05c-3.58-.34-5.17.83-7.41,3.37-.32.36-1.15,1.87-1.26,1.89-.55.09-2.35-1.54-2.93-2a45.1,45.1,0,0,1-3.92-4c1.61-4.83,6.16-4.73,10.44-3.73.91.21,7.78,2.94,8,3.3s.11,1.63-.45,1.79-1.79-.5-2.47-.56Zm-8.49-7,4.19-2.21c2.51,1.27,4.94,2.33,7.85,2.11,1,1.53.49,2.67,0,4.29a33.23,33.23,0,0,0-12.09-4.18Zm10.85-7c1.85-.05,2.22,3,2.17,4.34C938.77,449.33,937,445.61,937.3,445.32Zm.24-2.84c-.17,0-3-1.39-3.17-1.51l-4.2-6.18a8.71,8.71,0,0,1,4.64.16,54.75,54.75,0,0,1,6.47,3.91c.48.83-2.81,3.81-3.75,3.63Zm5.49-2.11c.55.59,4.93,4.37,4.49,4.95l-6.19,3.1L939.5,444Zm0-3.12c-.69.14-7.85-6.5-7.87-7.58,3.1.19,5.25-1.12,8-2C944.26,430.88,946,434.49,943,437.25Zm-2.6-17.34a7.7,7.7,0,0,1,5.57,3l-2.46,2-3.11-5ZM942,426.1c-2.41,1.06-5.39,2.26-8.07,1.42-.88-.28-5.66-6.59-5.25-7,2.93-.28,5.79-1.28,8.77-.87.87.25,5,5.93,4.56,6.44Zm-13.64-7.44a25.42,25.42,0,0,1,2.94-3.09c1.94-1.39,3,.9,4.49,2.16l-7.44.93Zm-1.86-1.24c-.26-1.29-1.25-2.34-1.48-3.64-.1-.6-.4-2.91.57-2.75l5.25,2.36-4.34,4Zm-2.23-8.74a7.58,7.58,0,0,1-3-.09l3.56-10.33c7.5,2.79,15.7,8.79,23.93,5,.67-.31,2.58-1.88,2.74-1.91,1-.23,1.14,2.87,1.08,3.56-.29,3.54-3.44,2.61-6,2.28-4.75-.62-15.41-3.92-19.4-1.63-1,.55-2.52,3-2.88,3.16Zm28-10.78A11.68,11.68,0,0,0,946,392l2.68-2.76c1-.17,5.08,5.67,5.25,6.78.06.36-1.31,2.18-1.73,1.87Zm-3.42-11.47c-5.67-4.15-14-6.29-19.67-.93-1.22,1.15-1.93,2.83-3.1,4a23.53,23.53,0,0,0-6.46-5.32,36.6,36.6,0,0,1-3.34-1.62c-.65-.84-.1-3.2-.29-4.32l6-2.39c2.41,3.48,5.83,2.72,9.3,3.15,4.76.59,9.35,3.76,14.35,1.88,3.15-1.18,4.5-4.57,5.52-7.49.73.23,3.89,3.19,3.83,3.82l-6.16,9.2Zm-2.16-35.64-2.35,4c-1.76-1-3.6-.45-5.47-.72a10.43,10.43,0,0,1-6.74-4.42c0-.37,3.67-.84,4.15-.78.64.08,1.92,1.25,2.75,1.61a10.37,10.37,0,0,0,7.65.25Zm-7.44-2.33a47,47,0,0,0,4.56-2.25c2.23-1.51,3.6-4.36,6.59-4.41.32.33-2.09,6.4-2.66,6.79C946.07,349.69,940.75,350,939.16,348.46ZM926,372.83c4.58,2.44,10.61,4.78,15,.75.86-.79,2.07-3.15,3-3.27,1.5-.21,3.92,1.49,5.39,1.9-2.47,12.05-10.62,5.91-18.15,5-2.68-.34-5.44.4-7.54-2.09l2.35-2.25Zm-3.92.27-.62-3.1,2.79,1.55-.19.64-2,.9Zm5.89-1.24c3.61-2.85,9.23-2.79,13.64-2.16-3.16,5.89-8.54,4.58-13.64,2.16Zm14.67-4.08c-5.84-.66-11.56-.35-16.69,2.73l-3.25-2.22c0-.56,4.45-2.05,5.2-2.24,4.73-1.2,7.75-.17,12-3.51,1.74-1.37,2.28-3.06,5.12-2.78.38,1.37-1.27,7.63-2.37,8Zm.21-11.72c-.58,3.56-6.4,4-9.37,3.64-.9-.12-5.92-1.59-6.07-2.27.79-2.73.38-5.14-.05-7.88.64.11,1.94-.21,2.42.06.08.05.69,1.27,1,1.63a13.37,13.37,0,0,0,12.08,4.81Zm-5.27,5.58c-2.24,2.31-5.76,1.75-8.69,2.31a44.23,44.23,0,0,0-6.18,2c.48-2.6,3.07-4,3.74-6.49,3.68,1.07,7.17,2.64,11.14,2.15Zm-11.78-5c-.5.53-7.89-4-8.78-4.7-.35-.27-.64-.31-.52-.88,2.86-1.16,5.66-1.26,8.7-1.42a11.73,11.73,0,0,1,.6,7Zm-1,2L920.41,366a19.41,19.41,0,0,1-6-13.63l10.52,6.38Zm-4.94,12.21.6,3.7-4,1.25c-.37-.35,2.73-5.74,3.41-5Zm30.22-.31-5.43-2.17a33.85,33.85,0,0,0,2.47-8.54c1.27,0,6.19,1.29,6.69,2.34l-3.74,8.37Zm.7-11.86c-.92-.26-3.86-.61-4.19-.93a13.92,13.92,0,0,1-.9-1.93c0-.72,2.93-4.25,3.16-5.41l6-3.73a19.75,19.75,0,0,1,.85,10c-.16.89-.59,3.8-1.67,3.41s-2-1-3.28-1.39Zm2.72-13.56c-.23.51-2.9,2.48-3.27,2.18l1.55-4.14c.5-.9,2.15,1,1.72,2Zm-19.07,2.17-4,.27-2.2-6.47,3.37.35Zm-5.89.31-2.14,0a17.72,17.72,0,0,0-3.44-6.32l3.38-.12Zm-4,.31c-3.68-.36-6.82.83-10.23,1.86.13-2.56.58-6,2.88-7.5.81-.52,3-1.5,3.79-.9.6.45,4,6.12,3.55,6.54Zm-5,20v.45c-1.33.46-2.58,2.2-3.29,3.38s-1.61,4.17-2,4.53c-.91.89-3.69.3-5,.47.83-2.52,2.46-4.78,3.33-7.36,1.22-3.6,1.56-6.89.14-10.52-.83-2.1-3.07-3.42-.52-5.06A25.36,25.36,0,0,0,919.63,368Zm-7.81-6.45c.86,5.5-1.95,10-4.3,14.61-1.66.18-3.86-1.55-4.53-3a18.91,18.91,0,0,1-1-6.41c.28-1.53,5.64-8.41,7-9.76.26-.26.28-.44.75-.33.57,1.67,1.82,3.08,2.1,4.88ZM901,364.11c0-1.87-3.07-9.36-2.34-10.54.36-.58,3.59-1.54,4.35-1.55a7.73,7.73,0,0,1,4.38,2,5.65,5.65,0,0,1,.68,1L901,364.11Zm.06,9.39a7.65,7.65,0,0,0,4.87,4.27c.36.51-1.81,4.06-2.63,4.3-3.47,1-4.09-1.54-7-2.66L900.1,370l1,3.5Zm-2.86,9.37L895.15,384l.62-2.79,2.47,1.7Zm3.13,2.14c1.11.89,0,1.69-.34,2.8-2.25,6.75-1.39,11.8,2.49,17.68a19.49,19.49,0,0,1-2.49,3.09,5.73,5.73,0,0,1-2.72.09c-.73-.42-3.32-7.09-3.63-8.3-1.2-4.73-.86-9.43-.1-14.21,1.69-.43,5.39-2.29,6.79-1.16Zm-8.47-.21c-.25.27-6.49,3.13-6.74,2.87l-.48-6.83c2.54-1.29,5.49-1,8.22-.6.23.23-.66,4.2-1,4.57Zm4.36,25.54.22,1.19L894.05,414c-.46-.25-3.58-3.69-3.25-4l6.46.35Zm-3,6.19a29.57,29.57,0,0,0,9.49,5.26l-1.88,9.85a14.74,14.74,0,0,0-2.51.74c-1.8.73-4.29,2.64-5.83.71-.71-.88,1.26-2,1.87-2.81,2.16-2.72,4.28-6,1.56-9.29-1.6-1.91-3.59-1.81-5.89-1.7.19-.9,2.45-3,3.19-2.75Zm.67,11.41c-.34.51-2.72,3.49-3.23,3.12-.4-1.56-2.72-8.89-1.56-9.77C895.42,419.82,898.06,423.26,895,427.94Zm-4,6.54.64,1.85-2.19,1.54-.64-1.85Zm.46,17-11.16-.62a34.61,34.61,0,0,1,5.11-7.13c.4-.41,2.85-2.78,3.25-2.47l2.79,10.23ZM878.56,450,871,444.69l.19-.61a63.7,63.7,0,0,0,15.92-6.82l.48,2.17a36.14,36.14,0,0,0-9,10.53Zm-1.39,8.84c.1.76.81,1.94.93,2.78,0,.3-.45.17-.72.1-1.23-.33-8.38-4.48-8.57-5.39,1.86-2.59,5.55-3.51,8.67-3.22.12.33-.31.68-.31.77a43.19,43.19,0,0,0,0,5Zm-.63-8.2-.15.62a12.17,12.17,0,0,0-8.83,3.41c-1.14-3.18-2.47-7.72,1.4-9.53a33.71,33.71,0,0,0,7.59,5.51Zm7.07,20.83,2.54,3.5-8.35,6.48a7.41,7.41,0,0,1-2.41-.52,17.83,17.83,0,0,1-1.6-3.82c-.81-6,5.53-5.8,9.82-5.64Zm-7.22,14.19c1,1.12,1.93,2.5,2.94,3.57,1.18,1.26,3.07,2.6,4,3.7.24.27.4.35.3.78-2.18,1-9.31,5.23-5.69,8,3.28,2.53,11.81-.53,15.46-1.7a22.09,22.09,0,0,1,3.54,2.53c.25.25.44.27.33.75-4.66,3-9.1,6.55-15,5.9-9.11-1-11.55-17.7-5.89-23.55Zm19.38,13.48c2.22-.89,3.65-2.47,5.89-.77.36.52-2.53,2.82-2.94,3.4l-2.94-2.63Zm7.63.81,5.37,3.84L903,506l-.7-.1-2.16-2.8,3.29-3.22Zm-.54,14.19-3.68.51c-1.27-1.66-2.4-2.81-.42-4.46,3.8-3.18,3.9.8,4.1,4Zm9.48,8.7c.34-1.31,1.47-1.87,2.65-2.31a75.91,75.91,0,0,1,8.75-2,14.1,14.1,0,0,1,3.59,2.93l3.77,9.09c-.37.42-8.24.39-9.47.33a40.69,40.69,0,0,1-7.14-.92c-2.17-.84-2.67-5.18-2.16-7.16Zm17.52.32,8.06,5c-1.62.6-3.06,2-4.92,1.83Zm10.33,5.65c1.26,1.05,9.18,2.49,8.86,4.38a3.47,3.47,0,0,1-1.11,1.08,31.61,31.61,0,0,1-8,1.88c-1.9-.08-4.92-2.75-5.45-4.62l5.68-2.72Zm1.14-1.46c3.31-4.59,5.61-10.71,2.8-16.1,3-1.4,5.94-1.73,7.8-4.92a24.51,24.51,0,0,0,1.46-3.82c.09-.22-.08-.64.49-.42,2.62,1,.48,4.05-.06,6.13-2,7.62-1.9,15.05-3.5,22.69l-9-3.56Zm10.84-28.37a26.55,26.55,0,0,0-11.26-1.85c-1.41-2.39.1-1.28,1.48-1.24,4.53.15,10.06.49,9.43-5.72-.86-8.51-13.89-11.59-20.73-13.21-.2-.73.19-.52.4-.71,1-.88,1.94-1.77,2.9-2.67,4.2,2.5,9.29,4.17,14.05,2.14,2.62,7.42,4.73,15.29,3.72,23.25Zm-4.65-24.81a12.82,12.82,0,0,1-8.53-.29,17,17,0,0,1-3.11-1.55c-.38-.59,1.11-2.67,1.42-3.56.69-2,.65-4.29,1.7-6.06.35-.08,5.45,3.51,5.86,4.06s2.88,7.08,2.65,7.4Zm-7.91-13.31c-.37-.6,0-1.25.18-1.84,2.44-.17,2.73,2.21,3.39,4l-3.57-2.17Zm3.42-3.45a18.44,18.44,0,0,1-1.95-3.9,24.32,24.32,0,0,1,.31-2.82,44.44,44.44,0,0,1,4-2.4c4.13-2.08,5.23-1.79,3.08,2.77-1.12,2.36-2.94,5.27-5.39,6.35Zm1.73-19.06c2.86-3.79,1.76-7.87-.3-11.75l2.64-2c1.09-.2,3.28,5.5,3.57,6.59a27.16,27.16,0,0,1,.57,10.43c-.43.47-6.37-2.59-6.48-3.29Zm2.92-16.84c-.25,0-3.19-2.23-4.19-2.64-1.7-.7-4-.72-5.25-1.25s-2.53-3.3-4-3.56c3.1-2.79,8.15-1.86,11.77-.45a39.18,39.18,0,0,1,5.39,2.67c.28.2.54.25.48.68s-3.66,4.56-4.15,4.56Zm7.44-27.3a35.8,35.8,0,0,0-5.08-6.6l6.17-8.27c1.52,4.73,1.46,10.51-1.08,14.87Zm2.65-25.86c.11,2.23-1.09,4.53-1.57,6.65l-4.36-3.28,3.43-7.88c.8-.6,2.45,3.76,2.49,4.51Zm-8-58.37c10.32,3.76,8.46,12.13,8,21.15-.08,1.53.13,3.09,0,4.62a32.34,32.34,0,0,1-2.14,7.32L952.77,341c.51-2.49,1.58-5.1,1.23-7.68-.27-2-1.74-3.38-2.76-5,1.43-3.47,3.14-7.53,1.24-11.18-2.05-3.93-9.06-5.37-12.27-2.33-1.05,1-1.15,2.48-1.88,3.08-.21.17-4.44,2.52-4.78,2.66a1.51,1.51,0,0,1-.91.17c-3.8-11,9.19-13.68,17.13-10.78Zm-17.29,13.89c2.54,3.33,6.22,5.43,10.54,4.95,1.11-.12,2.69-1.14,3.1-1.13.57,0,1.5,1.18,2.3,1.16.76,1.06-4.41,6.25-5.46,7.05a15.73,15.73,0,0,1-10.3,3.43c-1.22-3.29-.74-7-1.34-10.28C930.83,326.27,929.12,326.51,932.49,323.83Zm-3.4,4.33,1.7,11.46c-.83-.1-2.36.3-2.95-.3-1.76-1.79-1-9.45,1.25-11.17ZM924.83,324a8.57,8.57,0,0,1,2.71,1.64c.55.87-.77,2.25-1.14,3.2-1.43,3.62-1.84,6.65-.57,10.43-1.21-.16-3,.27-4.12-.06-.63-.19-2.69-2.69-3.48-3.34-2.17-1.79-5-3.37-7.9-3.42,1.89-5.7,8.28-10.64,14.5-8.45ZM908.2,338.89a20,20,0,0,1,1-4.54c.8-1,5.28,1.19,6.26,1.8.51.32,3.92,2.91,3.5,3.47-2.13.57-4.15,1.64-5.12,3.72-.33.72-1.24,5-1.55,5-3.07-2.68-4.49-5.22-4.14-9.41Zm-1-4.53c-1,4.39-1.73,8.73,1.25,12.54.89,1.13,3.33,2.89,3.87,3.88s-1.83,2.2-2.75,2.76c-2.39-2.47-5.17-3.8-8.64-3-1.13.27-1.94.91-3,1.15A15,15,0,0,1,907.23,334.36ZM887.54,366.9c1.42-3.18,5.79-9.21,8.53-11.31.31-.24.39-.6.93-.46l2.78,11.3-5.39,12.18c-3.06-1-6.08-.38-9.16.08a28.18,28.18,0,0,1,2.32-11.79Zm-2.32,24.18c.94,5.47.08,11.06,1.55,16.43-7.37-1.41-13.89-5.28-7-12.72C880.36,394.17,884.7,390.53,885.22,391.08ZM875.16,410.6c-3.28-8.51-1.39-25.16,8.52-28.82l.9,6.92c-4.07,3-10.94,7.73-9.25,13.67,1,3.62,5.06,5.24,8.35,6.22,1.05.31,3.72.58,4.33.94.79.48,3.12,4.92,4.65,5.57a18.88,18.88,0,0,0-2.95,2.63c-.51.56-.71,1.48-1.26,1.84a59.86,59.86,0,0,1-6.12,1.6c-2.44-3.56-5.58-6.44-7.17-10.57Zm14.09,18.6c-1.34-1.33-4.88-4.48-5.57-6.05-.21-.48.15-.42.38-.53a16.85,16.85,0,0,1,4-.86l1.24,7.44Zm-7.48-5.85a44.88,44.88,0,0,0,8.08,9.15l-2,1.94c-4-6.86-10.53-6.82-17.51-5.24l1.44-3.43Zm-19.64-1.89c-1.48-3.13-.66-7.12,3.18-7.69,5.31-.78,7.06,6.88,4.53,10.43-2.58.21-6.46-.11-7.71-2.74Zm7.26,10.12c6.06-1.91,13.83-2.95,16.76,4.13a67.67,67.67,0,0,1-16.74,7c-2.43-3.54-1.44-7.44,0-11.14Zm-7.36,34c-1.08-6.38-2.22-23.89.72-29.25a7.51,7.51,0,0,1,4.19-3.71c-1,3.92-1.39,7.61.93,11.15-3.92,1.89-3.65,5.7-2.7,9.37.19.75,1.13,2.6,1.13,2.88,0,.48-.94,2-1.15,2.87-1.81,7.59,7.68,11.44,2.24,18.68-3.24-2.7-4.68-7.9-5.37-12ZM882.43,521l-4.33-4.19c-5.55-6.44-12-24.09-11.13-32.5a24.61,24.61,0,0,1,.9-3.6c1.6,1,6.72,1.11,7.08,3,.17.89-1.75,3.17-2.27,4.42-3.21,7.74.1,22.06,9.92,22.93,6.17.54,11.16-3.42,16.07-6.47l2.05,2.29c-2.38,1.31-5.92,3-4.89,6.45.2.68,1.28.91,1.17,1.77l-9.78.6c-1,.65-2.26.43-3,.69-.93.3-2.18,3.56-1.76,4.6Zm3-3.05c3,0,6.05-1.06,9-1.21.62,0,1.15.25,1.76.24,1,0,1.64-.84,2.67.13a13.64,13.64,0,0,1,1.53,3.14c.23,2.28-2.17,2.6-3.9,2.88-2.21.37-8,.36-10-.46s-3.07-3.26-1.06-4.73Zm2.74,9.87c-.39-.85-1.49-1.95-1.7-2.64s.11-.41.45-.46c2.79-.39,6.81,1.1,9.77,0,.59.66-2.38,3-2.94,3.41s-3.77,2.51-4.35,2.5C888.51,530.36,888.57,528.65,888.17,527.77ZM909.4,550.4c-2.28-1.46-4.9-2.4-7.22-3.78a29.08,29.08,0,0,1-12.27-14,50.19,50.19,0,0,0,7.25-5.43c.23-.19.65-.08.78-.19.82-.73,1.61-2.2,2.64-2.9l-.2,4.61c-7.36.79-6.24,5.69-2.43,10.11,3.13,3.63,7.73,5.19,12.39,5.74-.59,2-1.24,3.68-.93,5.89Zm3,1.56c-1.4-1.09-1.34-4.72-.53-6.21,6,3.87,11.62,8.64,18.28,11.47-.12.57-.61.57-1.07.63-2.58.3-5.73-.88-8.13-1.81-1.69-.66-7.34-3.12-8.56-4.07Zm1.64-8.84c4-3.71,11-.87,14.25,2.63ZM930.29,548c.79.44,1.82,2.7,2,3.6s.36,4.68-1.17,4.29c-1.1-.28-4.92-2.71-6.16-3.46a67.06,67.06,0,0,1-9.32-6.64l14.69,2.2ZM940,561.79c1.33.52,2.74.9,4.11,1.33-.94,7.86-11.36,3.36-15.71,1a89.33,89.33,0,0,1-10.95-7.49c3.91,1.21,7.89,3.76,12.17,3,.89-.15,2.25-1.15,2.81-1.1s6.27,2.76,7.57,3.26Zm-1.46-16.19a27.89,27.89,0,0,1-7.24.41c-4.5-5.3-14.09-9.79-19.43-3.19-.21.17-.39.09-.62,0a43.79,43.79,0,0,1-4.65-3.44c-2.8-2.43-5-4.8-4.65-8.84,3.06.52,8.26.15,11,1.22.82.32,3.82,3.18,5,4,6.26,4.38,14.11,7.42,21.48,9.36.08.45-.59.4-.92.47Zm4.61-1.56c-1.46,0-5.14-1.15-6.72-1.62-6.9-2-14.55-5.56-19.91-10.31a52.44,52.44,0,0,0,15.67.13c1.79,1.69,3.41,4.29,5.8,5.21,3,1.15,9.16-.74,12-2.24,1.54,3.16-4.11,8.84-6.85,8.83Zm15.2-24.78c.18,2.84,1.08,5.85,1.25,8.67.24,4-.56,13.05-4.23,15.3a18.05,18.05,0,0,1-3.67,1.28h-4.8c3.4-2.91,5.42-4.91,4.94-9.75-.06-.64-.66-1.07-.55-1.8s.83-2.1,1-3c1.76-8.12,1.07-16.7,4.34-24.49.48-.07.65.37.84.71,1.64,3,.63,9.49.85,13.09Zm-5.31-43.35c3.7,4.95,6.66,11.53,5.87,17.84-.33,2.62-1.88,5.11-2.4,7.67L954,500a52.49,52.49,0,0,0-4-24.79c1.14-2.56,2-.63,3,.74Zm-1.5-5.17-5.11-5-2.64-6.36.14-.46c3.72-1.58,4.68-5.3,6.61-8.28.19-.3,0-.56.69-.4,2.75,6.51,3.37,14,.31,20.45Zm.32-41.7-3-5.89,4.76-5.41c7,3.62,0,12.27-.19,18L951.87,429Z"/><path d="M1147.07,351.32c3.57,0,2,4,4.2,5.72,1.34,1.09,5.08,1.06,6.62.45,3.53-1.41,1.09-5.42,4.44-6.1l10.67,0h2.58a3.11,3.11,0,0,0,3.11-3.11V314.89a7.21,7.21,0,0,0-3.23-6L968.11,133.1a7.08,7.08,0,0,0-7.84,0L752.91,308.86a7.17,7.17,0,0,0-3.22,6l1.09,320.67a7.2,7.2,0,0,0,7.2,7.18h419.76v-1.9H758a5.31,5.31,0,0,1-5.3-5.28L751.6,314.88a5.29,5.29,0,0,1,2.37-4.43L961.32,134.68a5.17,5.17,0,0,1,5.74,0l207.35,175.76a5.32,5.32,0,0,1,2.38,4.44V348a1.5,1.5,0,0,1-1.48,1.49l-13.23.13c-4.58.87-3.07,5.22-4.54,6.08a10,10,0,0,1-4.74.13c-1.53-.69-.94-3-1.87-4.33a5.05,5.05,0,0,0-3.88-2,123.59,123.59,0,0,0-16.83-.17h0l-20,0c-3.85-.36-1.67-5.2-5.19-6.28-4.83,0-10.55-.67-15.31-.22a3.73,3.73,0,0,0-3.39,2.5c-.56,1.51-.13,3.2-2,3.89-4.28-.06-9.31.56-13.52.15-4.47-.43-1.74-3.68-4.5-5.73-1.74-1.29-6.38-1.26-7.86.47s-.44,4.81-3.2,5.17l-18,.31c.1.7,0,1,.1,1.67,5.42.13,11.19.33,16.41,0,1.83-.13,3.73-.36,4.79-2s.17-4.19,2.62-4.51c6.64-.88,3.53,2.49,6,5.14,1.12,1.19,2.61,1.29,4.18,1.4,2.73.19,11.62.34,13.8-.49,3.84-1.46,1.26-5.71,4.79-6.05,4.49-.44,9.87.25,14.45.16,1.38.45,1.11,2,1.52,3.13.82,2.27,1.89,2.8,4.23,3.2a194.92,194.92,0,0,1,20,.2h16.85Z"/><path d="M631,732.58a23.09,23.09,0,0,0-7.76-5.56,24.72,24.72,0,0,0-10.13-2H590.18a2,2,0,0,0-1.62.75,2.93,2.93,0,0,0-.59,1.85V831.26a3.15,3.15,0,0,0,.55,1.93,1.93,1.93,0,0,0,1.66.75h4.49a1.81,1.81,0,0,0,1.66-.75,3.52,3.52,0,0,0,.47-1.93V799.81h16.32a25.29,25.29,0,0,0,10.09-2,22.83,22.83,0,0,0,7.8-5.44,24.6,24.6,0,0,0,5-8.24,29.54,29.54,0,0,0,1.77-10.36V751.26A29.69,29.69,0,0,0,636,740.93a25.07,25.07,0,0,0-5-8.35ZM628.88,774a21.69,21.69,0,0,1-1.1,7,16.47,16.47,0,0,1-3.23,5.64,14.9,14.9,0,0,1-5.12,3.74,16.51,16.51,0,0,1-6.78,1.34H596.81V733.12h15.76a16.09,16.09,0,0,1,6.9,1.42,15,15,0,0,1,5.12,3.86,17,17,0,0,1,3.19,5.75,22.45,22.45,0,0,1,1.1,7.17V774Z"/><path d="M691.46,825.9H661.9V727.61a3.2,3.2,0,0,0-.51-1.85,1.82,1.82,0,0,0-1.62-.75h-4.49a1.93,1.93,0,0,0-1.66.75,3,3,0,0,0-.55,1.85V831.26a3.15,3.15,0,0,0,.55,1.93,1.93,1.93,0,0,0,1.66.75h36.18a2.11,2.11,0,0,0,1.46-.63,2.35,2.35,0,0,0,.67-1.81v-3.7a1.58,1.58,0,0,0-.67-1.54,3,3,0,0,0-1.46-.35Z"/><path d="M733.08,726.9A2,2,0,0,0,731,725h-4a2.38,2.38,0,0,0-1.26.39,2.21,2.21,0,0,0-.87,1.5L701.94,831.26a2.18,2.18,0,0,0,.2,1.89,1.63,1.63,0,0,0,1.46.79h4.81a2.68,2.68,0,0,0,1.22-.35,2,2,0,0,0,.91-1.46l3.78-18.6h29.16l3.86,18.6a1.76,1.76,0,0,0,.91,1.46,3.06,3.06,0,0,0,1.3.35h4.73a1.55,1.55,0,0,0,1.46-.75,2.57,2.57,0,0,0,.2-1.85L733.08,726.9Zm-17.26,79.29,12.69-61.09.39-3.23.47,3.23L742,806.19H715.82Z"/><path d="M819.23,725h-4a1.89,1.89,0,0,0-1.69.75,3.22,3.22,0,0,0-.51,1.85l.24,82.45.24,5.75-1.58-6-32.95-83a2.24,2.24,0,0,0-1-1.26,1.83,1.83,0,0,0-1.34-.55h-4.18a2,2,0,0,0-1.62.75,2.93,2.93,0,0,0-.59,1.85V831.26a3.15,3.15,0,0,0,.55,1.93,1.93,1.93,0,0,0,1.66.75h4.1a1.83,1.83,0,0,0,1.62-.75,3.36,3.36,0,0,0,.51-1.93l-.24-82-.16-4.41,1.1,3.86,33.18,83.55a2,2,0,0,0,1.18,1.38,4,4,0,0,0,1.34.28h4a2.2,2.2,0,0,0,1.73-.71,2.73,2.73,0,0,0,.63-1.89V727.62a3,3,0,0,0-.55-1.89,2,2,0,0,0-1.66-.71Z"/><path d="M883.07,730.33a24.28,24.28,0,0,0-7.92-5.08,25.5,25.5,0,0,0-9.58-1.81,26.28,26.28,0,0,0-9.73,1.81,24.67,24.67,0,0,0-8,5.08,23.72,23.72,0,0,0-7.37,17.38V811.4a23.21,23.21,0,0,0,2,9.54,24,24,0,0,0,5.36,7.65,25,25,0,0,0,7.92,5.08,25.36,25.36,0,0,0,9.66,1.85,25.76,25.76,0,0,0,9.66-1.81,25.08,25.08,0,0,0,8-5,24,24,0,0,0,5.44-7.65,22.93,22.93,0,0,0,2-9.62V747.71a23.21,23.21,0,0,0-2-9.66,24.74,24.74,0,0,0-5.4-7.72Zm-1.42,81a15.82,15.82,0,0,1-1.26,6.27,16.45,16.45,0,0,1-3.43,5.16,15.79,15.79,0,0,1-5.16,3.47,16.32,16.32,0,0,1-6.38,1.26,15.33,15.33,0,0,1-6.31-1.3,16.48,16.48,0,0,1-5.08-3.51,16,16,0,0,1-3.39-5.16,16.35,16.35,0,0,1-1.22-6.34V748a17.09,17.09,0,0,1,1.22-6.42,16,16,0,0,1,8.51-8.83,15.71,15.71,0,0,1,6.42-1.3,15.13,15.13,0,0,1,6.31,1.3,16.1,16.1,0,0,1,5.08,3.55,16.77,16.77,0,0,1,3.43,5.28,16.59,16.59,0,0,1,1.26,6.42v63.37Z"/><path d="M913.34,725.09a1.81,1.81,0,0,0-1.5.71,2.71,2.71,0,0,0-.55,1.73V831.41a3.22,3.22,0,0,0,.47,1.81,1.76,1.76,0,0,0,1.58.71,1.58,1.58,0,0,0,1.34-.75,3.52,3.52,0,0,0,.39-1.77V727.53a3.23,3.23,0,0,0-.43-1.66,1.61,1.61,0,0,0-1.3-.79Z"/><path d="M985.85,725.09h-.08a1.57,1.57,0,0,0-1.5.71,3.43,3.43,0,0,0-.39,1.73v92L984,824l-1.42-4.49-38.31-93a2.06,2.06,0,0,0-.59-.83,4.12,4.12,0,0,0-.67-.43l-.47-.16h-.24a1.83,1.83,0,0,0-1.38.79,2.75,2.75,0,0,0-.51,1.66V831.41a4.11,4.11,0,0,0,.35,1.81,1.47,1.47,0,0,0,1.46.71h.08a1.57,1.57,0,0,0,1.5-.71,3.73,3.73,0,0,0,.39-1.81V738.56l-.16-2.84.79,2.13,38.86,94.74a2.09,2.09,0,0,0,.79,1,2.64,2.64,0,0,0,.87.35h.39a1.85,1.85,0,0,0,1.38-.75,2.72,2.72,0,0,0,.51-1.69v-104a3.92,3.92,0,0,0-.35-1.73,1.47,1.47,0,0,0-1.46-.71Z"/><path d="M1051.11,725.09H1051a2.59,2.59,0,0,0-1,.28,1.67,1.67,0,0,0-.87,1.22l-21.12,95.84-.32,1.66-.24-1.66-21.12-95.84a1.65,1.65,0,0,0-.87-1.22,2.8,2.8,0,0,0-.95-.28h-.08a1.69,1.69,0,0,0-1.42.75,2.08,2.08,0,0,0-.32,1.77L1026,832.36a1.8,1.8,0,0,0,.79,1.3,2.25,2.25,0,0,0,1,.28,2.08,2.08,0,0,0,1-.28,1.88,1.88,0,0,0,.75-1.3l23.25-104.83a2,2,0,0,0-.28-1.69,1.66,1.66,0,0,0-1.46-.75Z"/><path d="M1070,725.09a1.81,1.81,0,0,0-1.5.71,2.71,2.71,0,0,0-.55,1.73V831.41a3.22,3.22,0,0,0,.47,1.81,1.76,1.76,0,0,0,1.58.71,1.58,1.58,0,0,0,1.34-.75,3.52,3.52,0,0,0,.39-1.77V727.53a3.14,3.14,0,0,0-.43-1.66,1.59,1.59,0,0,0-1.3-.79Z"/><path d="M1137.19,797.6a26.36,26.36,0,0,0-3.55-5.44,54.54,54.54,0,0,0-4.89-5q-2.76-2.52-6.11-5.32t-7.21-6.34q-2.28-2.06-5.4-4.53a49.07,49.07,0,0,1-6-5.64,31.75,31.75,0,0,1-4.81-7.13,20.46,20.46,0,0,1-2-9.18,25.33,25.33,0,0,1,2-10.8,19.08,19.08,0,0,1,5-6.7,17.21,17.21,0,0,1,6.27-3.39,21.64,21.64,0,0,1,5.83-1,17.2,17.2,0,0,1,7.84,1.73,18.08,18.08,0,0,1,5.75,4.49,19.82,19.82,0,0,1,3.55,6.23,21.07,21.07,0,0,1,1.22,7v5a3.92,3.92,0,0,0,.35,1.73,1.47,1.47,0,0,0,1.46.71h.08a1.59,1.59,0,0,0,1.5-.67,3.69,3.69,0,0,0,.39-1.85V746.6a24.26,24.26,0,0,0-1.54-8.55,23.33,23.33,0,0,0-4.41-7.37,21.92,21.92,0,0,0-7-5.2,21.07,21.07,0,0,0-9.22-2,25.13,25.13,0,0,0-3.11.28,23.18,23.18,0,0,0-4.61,1.18,25.5,25.5,0,0,0-5.2,2.64,20.38,20.38,0,0,0-4.89,4.53,23.51,23.51,0,0,0-3.63,6.94,30.52,30.52,0,0,0-1.42,9.89,24.45,24.45,0,0,0,1.81,9.69,31.81,31.81,0,0,0,4.73,7.8,51.76,51.76,0,0,0,6.5,6.58q3.59,3,7.13,6,6.3,5.35,10.64,9.18a48.38,48.38,0,0,1,7,7.41,24.58,24.58,0,0,1,3.82,7.53,33.14,33.14,0,0,1,1.18,9.46,17.75,17.75,0,0,1-1.62,7.53,19.79,19.79,0,0,1-4.37,6.11,19.63,19.63,0,0,1-20,4.46,18.06,18.06,0,0,1-6.19-3.51,20.05,20.05,0,0,1-4.85-6.38,21.39,21.39,0,0,1-2-9.62v-3.94a2.62,2.62,0,0,0-.47-1.58,1.58,1.58,0,0,0-1.34-.63h-.08a1.57,1.57,0,0,0-1.5.71,3,3,0,0,0-.39,1.5v3.94a25.47,25.47,0,0,0,2.17,11,23,23,0,0,0,5.52,7.53,21.71,21.71,0,0,0,7.41,4.34,24.1,24.1,0,0,0,7.76,1.38,22.76,22.76,0,0,0,9.38-1.93,25,25,0,0,0,7.53-5.12,23.77,23.77,0,0,0,5-7.33,20.88,20.88,0,0,0,1.81-8.47,42,42,0,0,0-.75-8.43,27.45,27.45,0,0,0-2.17-6.54Z"/><path d="M1161.62,725.09a1.81,1.81,0,0,0-1.5.71,2.71,2.71,0,0,0-.55,1.73V831.41a3.22,3.22,0,0,0,.47,1.81,1.76,1.76,0,0,0,1.58.71,1.58,1.58,0,0,0,1.34-.75,3.52,3.52,0,0,0,.39-1.77V727.53a3.14,3.14,0,0,0-.43-1.66,1.59,1.59,0,0,0-1.3-.79Z"/><path d="M1227.16,782.43a15.26,15.26,0,0,0-5.28-3.78,19,19,0,0,0-5.08-1.38,12.73,12.73,0,0,0,5.32-1.73,15.85,15.85,0,0,0,4.49-3.94,20.27,20.27,0,0,0,3.11-5.6,18.65,18.65,0,0,0,1.18-6.62V748.11a27.2,27.2,0,0,0-1.73-10.09,20.11,20.11,0,0,0-4.77-7.21,19.61,19.61,0,0,0-7.09-4.3,26.39,26.39,0,0,0-8.79-1.42h-17.73a1.81,1.81,0,0,0-1.5.71,2.71,2.71,0,0,0-.55,1.73V831.41a3.18,3.18,0,0,0,.43,1.77,1.77,1.77,0,0,0,1.46.75h20.65a24.11,24.11,0,0,0,8.79-1.54,18.73,18.73,0,0,0,6.86-4.53,20.46,20.46,0,0,0,4.45-7.37,29.61,29.61,0,0,0,1.58-10v-9.22a34.28,34.28,0,0,0-1.66-11.63,20.59,20.59,0,0,0-4.14-7.17Zm-34.64-53.64h15.92a23.36,23.36,0,0,1,7.68,1.18,15.23,15.23,0,0,1,5.87,3.63,16.48,16.48,0,0,1,3.78,6.07,24.37,24.37,0,0,1,1.34,8.43v11.27a13.85,13.85,0,0,1-2.25,8.16,17,17,0,0,1-5.36,5,20.85,20.85,0,0,1-6.38,2.48,27.68,27.68,0,0,1-5.4.67h-15.21v-46.9Zm36.65,82.05a23.41,23.41,0,0,1-1,6.5,19.78,19.78,0,0,1-3.11,6.31,17.11,17.11,0,0,1-5.52,4.77,16.6,16.6,0,0,1-8.2,1.89h-18.84v-50.6h17.73a20.87,20.87,0,0,1,6.5,1.1,16.59,16.59,0,0,1,6.11,3.67,19.28,19.28,0,0,1,4.53,6.78,26.81,26.81,0,0,1,1.77,10.36v9.22Z"/><path d="M1287.81,830.55a4.18,4.18,0,0,0-1.34-.24H1256V727.53a3.24,3.24,0,0,0-.43-1.73,1.59,1.59,0,0,0-1.46-.71H1254a1.51,1.51,0,0,0-1.38.71,3.24,3.24,0,0,0-.43,1.73V831.41c0,1.31.45,2.13,1.34,2.44a.62.62,0,0,0,.39.08h32.55a2.57,2.57,0,0,0,1.34-.43,1.66,1.66,0,0,0,.71-1.54v-.08c0-.74-.24-1.18-.71-1.34Z"/><path d="M1342.43,728.79a2.94,2.94,0,0,0,1.26-.35,1.47,1.47,0,0,0,.71-1.46v-.08a1.48,1.48,0,0,0-.71-1.46,2.8,2.8,0,0,0-1.26-.35h-35.07a2,2,0,0,0-1.34.83,2.72,2.72,0,0,0-.47,1.62V831.42a3.24,3.24,0,0,0,.43,1.73,1.61,1.61,0,0,0,1.3.79h34.84a2.91,2.91,0,0,0,1.3-.39,1.53,1.53,0,0,0,.75-1.5V832a1.3,1.3,0,0,0-.75-1.34,3.46,3.46,0,0,0-1.3-.32h-32.79v-51h27.11a3.21,3.21,0,0,0,1.3-.35,1.44,1.44,0,0,0,.75-1.46v-.08a1.36,1.36,0,0,0-.75-1.42,3.46,3.46,0,0,0-1.3-.32h-27.11v-46.9h33.1Z"/><text class="cls-1" transform="translate(602.78 917.8)">donde ahondamos <tspan class="cls-2" x="238.09" y="0">de </tspan><tspan class="cls-3" x="276.48" y="0">v</tspan><tspan class="cls-2" x="290.33" y="0">e</tspan><tspan class="cls-4" x="305.5" y="0">r</tspan><tspan class="cls-2" x="315.41" y="0">dad </tspan><tspan x="369.69" y="0">en los deseos y necesidades</tspan></text><text class="cls-5" transform="translate(150.66 1168.8)">S<tspan class="cls-6" x="16.59" y="0">O</tspan><tspan x="35.16" y="0">Y </tspan><tspan class="cls-7" x="59.3" y="0">P</tspan><tspan x="74.88" y="0">A</tspan><tspan class="cls-8" x="93.33" y="0">R</tspan><tspan x="109.06" y="0">TICU</tspan><tspan class="cls-9" x="169.83" y="0">L</tspan><tspan x="185.34" y="0">AR</tspan></text><text class="cls-5" transform="translate(1510.97 1168.8)">S<tspan class="cls-6" x="16.59" y="0">O</tspan><tspan x="35.16" y="0">Y PROFESIO</tspan><tspan class="cls-10" x="188.38" y="0">N</tspan><tspan x="208.48" y="0">AL</tspan></text></svg>