<?xml version="1.0" encoding="UTF-8"?>
<svg xmlns="http://www.w3.org/2000/svg" version="1.1" viewBox="80 270 80 50">
  <path d="M153.76,301.41c-.18-2.44-.99-4.35-2.39-5.68,1.05-1.58,2.06-4.07,1.21-7.2-.69-2.56-2.19-4.72-4.32-6.24-2.32-1.66-5.27-2.53-8.78-2.59-.41,0-.81,0-1.21.02-.99-1.9-2.94-3.55-5.81-4.89-2.62-1.23-5.97-1.83-9.43-1.69-2.56.11-5.06.64-7.06,1.5-.93-.44-1.97-.76-3.09-.94-3.3-.55-7.69.09-11.75,1.73-4.45,1.8-7.7,4.42-9.15,7.38-.73,1.5-1.05,2.9-.94,4.17-1.97.33-3.68,1.09-4.95,2.21-1.56,1.36-3.17,3.86-2.05,8.02.69,2.54,2.6,4.72,5.38,6.14,3.73,1.91,8.51,2.24,12.16.86,5.4-2.04,5.75-4.36,5.77-4.62.03-.29-.19-.55-.48-.57-.29-.02-.55.18-.58.46,0,.02-.36,1.94-5.09,3.73-3.39,1.28-7.82.97-11.3-.81-1.78-.91-4.06-2.6-4.84-5.47-.54-2-.68-4.83,1.72-6.93,1.14-1,2.67-1.67,4.44-1.97.12.42.29.83.51,1.21,1.22,2.12,3.79,3.23,5.66,3.36,1.7.11,2.54-.78,2.75-1.67.24-1.02-.26-2.43-1.93-3.13-1.87-.78-4.04-1.12-6.12-.94-.08-1.07.2-2.27.84-3.56,1.32-2.69,4.45-5.19,8.6-6.86,3.89-1.57,8.07-2.2,11.18-1.67.7.12,1.37.29,2,.52-.1.06-.2.12-.29.17-2.07,1.28-3.19,2.95-3.24,4.83-.06,2.18.9,3.85,2.62,4.59,1.87.8,4.22.32,5.72-1.18,1.1-1.1,1.42-2.7.88-4.4-.49-1.53-1.64-2.96-3.2-3.98,1.74-.63,3.77-1.01,5.9-1.1,3.3-.14,6.47.42,8.94,1.59,2.38,1.12,4.12,2.51,5.08,4.03-4.13.51-6.42,2.44-7.15,3.98-.48,1.01-.39,2.01.25,2.75.6.7,1.51,1.11,2.63,1.18,1.64.1,3.44-.53,4.7-1.66.88-.79,1.7-2.35,1.41-4.35-.05-.31-.12-.63-.22-.94.25,0,.5,0,.75,0,3.29.06,6.04.86,8.18,2.4,1.93,1.38,3.29,3.34,3.91,5.65.73,2.7-.11,4.86-1.01,6.25-.25-.17-.52-.33-.79-.47-3.3-1.67-6.89-1.82-8.52-.34-.86.78-1.07,1.88-.6,3.12.41,1.07,1.15,1.78,2.18,2.12,2.03.66,4.77-.36,6.02-1.16.61-.39,1.3-1.02,1.88-1.73,2.72,2.76,2.47,8.27.61,12.12-1.1,2.27-4.26,7.37-9.86,5.73-.95-.28-1.74-.81-2.32-1.55,1.65.18,3.04-.15,4.04-.98,1.69-1.41,2.46-3.56,1.82-5.12-.32-.78-1.26-2.07-4-1.83-2.15.18-3.69,1.85-3.93,4.25-.07.71-.01,1.44.16,2.15-2.4-.81-5.08-2.52-7.6-4.85-1.37-1.27-2.93-2.31-4.5-3.02.17-1.46.22-3.06.15-4.74h0c2.38-.09,4.53-.04,6.58.17,2.34.24,4.55-.76,5.49-2.47.46-.85.98-2.59-.73-4.72-1.65-2.06-4.43-2.75-7.09-1.76-1.54.58-2.91,1.68-3.84,3.11-.86,1.32-1.37,2.92-1.46,4.65-1.79.1-3.72.27-5.89.52-.65.08-1.31.14-1.96.18.28-.65.44-1.33.48-2.02.1-2.08-.96-3.96-2.99-5.3-3.14-2.07-8.36-1.47-10.94.44-1.27.94-1.77,2.11-1.41,3.29.89,2.93,5.93,4.82,12.82,4.74-.41.42-.89.78-1.42,1.06-1.28.68-2.43,1.1-3.46,1.47-1.88.68-3.5,1.27-4.96,3.08-1.2,1.49-1.64,3.42-1.2,5.3.46,1.96,1.82,3.59,3.73,4.47,2.5,1.15,4.39,1.02,6.59.87,1.17-.08,2.38-.16,3.81-.05,1.92.15,3.45.44,4.94.95-.29,3.39,2.31,5.32,5.22,7.16,2.06,1.3,4.47,2.71,6.98,2.99.3.04.61.05.92.05,2.47,0,4.6-1.19,6.52-3.63.78-1,1.07-2.07.85-3.2-.54-2.81-4.06-4.9-4.21-4.99-.25-.15-.58-.06-.73.19-.07.12-.09.27-.06.4.04.14.12.25.25.32.03.02,3.26,1.96,3.7,4.27.15.81-.06,1.6-.64,2.34-1.7,2.17-3.55,3.22-5.68,3.22-2.28,0-4.58-1.15-7.33-2.88-2.72-1.71-4.81-3.24-4.75-5.87.22.09.44.18.66.27,1.54.64,2.87,1.19,5.34,1.12,1.84-.03,4.85-1.24,5.56-3.13.29-.78.32-2-1.2-3.38-1.63-1.47-3.89-1.91-6.2-1.22-2.44.73-4.45,2.63-5,4.73-.01.05-.03.11-.04.16-1.01-.33-2.59-.75-5.03-.94-1.5-.12-2.75-.03-3.96.05-2.04.14-3.81.27-6.07-.77-1.61-.74-2.75-2.11-3.13-3.75-.36-1.56,0-3.16.99-4.39,1.27-1.58,2.69-2.09,4.49-2.75,1.05-.38,2.25-.81,3.59-1.53.94-.5,1.74-1.2,2.34-2.05.89-.04,1.8-.12,2.71-.23,2.12-.25,4.01-.42,5.76-.51.06,1.52.02,2.95-.11,4.28-1.64-.59-3.28-.8-4.77-.63-2.05.24-3.68,1.19-4.71,2.75-1.62,2.43-1,4.24-.49,5.11.93,1.56,2.9,2.46,5.02,2.26,2.92-.26,5.03-3.16,5.82-7.98,1.38.66,2.7,1.57,3.93,2.7,2.94,2.72,6.06,4.61,8.79,5.33.51,1.01,1.51,2.28,3.45,2.85.84.24,1.66.37,2.45.37h0c4.91,0,7.69-4.66,8.66-6.66,1.09-2.26,1.66-5.24,1.47-7.76ZM137.61,280.84c.13.34.22.68.27,1.02.24,1.59-.43,2.83-1.07,3.4-1.04.93-2.57,1.48-3.92,1.39-.58-.04-1.37-.21-1.89-.81-.35-.41-.38-.98-.09-1.6.99-2.1,4.07-3.13,6.7-3.41ZM115.94,275.82c1.68.91,2.96,2.32,3.43,3.78.42,1.3.19,2.51-.61,3.32-1.18,1.18-3.09,1.58-4.55.96-.76-.33-2.04-1.23-1.97-3.58.05-1.9,1.52-3.2,2.74-3.95.3-.18.62-.36.97-.53ZM92.3,287.89c1.88-.13,3.82.17,5.5.88.79.33,1.5,1.09,1.31,1.9-.14.59-.75.91-1.64.85-1.33-.09-3.71-.92-4.81-2.82-.15-.26-.27-.53-.36-.8ZM149.91,295.92c-.75.91-1.44,1.38-1.64,1.51-1.17.75-3.53,1.57-5.12,1.05-.72-.24-1.23-.74-1.52-1.49-.31-.82-.21-1.47.31-1.95.54-.49,1.41-.75,2.5-.75,1.47,0,3.28.47,4.82,1.25.22.11.44.24.64.38ZM144.03,307.2c.47,1.14-.17,2.77-1.52,3.9-.91.76-2.31.97-4.04.6-.29-.75-.41-1.59-.33-2.38.14-1.41,1-3.12,2.96-3.29,1.52-.13,2.56.29,2.92,1.18ZM124,304.16c-.22,1.5-.58,2.81-1.06,3.91-.93,2.11-2.26,3.3-3.84,3.44-1.71.16-3.29-.53-4.01-1.75-.66-1.12-.5-2.53.46-3.97.86-1.29,2.23-2.08,3.95-2.28.3-.04.6-.05.91-.05,1.15,0,2.36.24,3.59.71ZM135.81,292.38c.98,1.23,1.2,2.49.63,3.55-.72,1.32-2.54,2.11-4.44,1.92-1.46-.15-2.94-.22-4.53-.22-.69,0-1.41.01-2.14.04.1-1.5.54-2.88,1.28-4.02.81-1.24,1.99-2.2,3.32-2.7,2.25-.84,4.51-.3,5.88,1.42ZM115.82,296.35c-.04.73-.25,1.47-.63,2.14-6.57.22-11.86-1.44-12.62-3.96-.28-.92.41-1.66,1.03-2.12,1.1-.82,2.83-1.38,4.63-1.51.27-.02.53-.03.79-.03,1.69,0,3.17.39,4.29,1.13,1.7,1.12,2.59,2.67,2.51,4.36ZM133.08,312.78c.87.78,1.18,1.53.92,2.22-.52,1.38-3.1,2.41-4.59,2.44-2.25.07-3.48-.45-4.92-1.05-.3-.12-.6-.25-.92-.37.02-.09.04-.17.06-.26.46-1.75,2.17-3.35,4.27-3.97,1.94-.58,3.83-.22,5.18.99Z"/>
</svg>