<?xml version="1.0" encoding="UTF-8"?>
<svg id="Capa_1" xmlns="http://www.w3.org/2000/svg" version="1.1" viewBox="0 0 538.58 624.54">
  <!-- Generator: Adobe Illustrator 30.0.0, SVG Export Plug-In . SVG Version: 2.1.1 Build 123)  -->
  <path d="M374.93,380.36c-7.91-.1-6.41,7.98-12.08,9.65-5.08,1.49-5.96-3.76-5.76-7.62.18-3.54,3.34-13.68,8.08-12.39,4.9,1.33,8.03,7.8,14.15,3.94,6.73-4.24,5.45-16.19-1.13-19.76-5.54-3.01-9.88,3.39-13.47,2.95-2.08-.25-5.62-3.79-8.08-4.65-5.26-1.85-9.4,2.04-9.47,7.31-.04,3.25,1.69,6.97,1.85,9.95.25,4.99-5.93,6.09-7.74,1.83-1.04-2.46-.96-6.85-1.69-9.78-2.86-11.55-8.08-10.24-17.51-12.86-5.53-1.54-8.95-4.37-15.32-3.54-7.71,1.01-12.63,16.01-20.94,13.22-3.54-1.19-5.56-8.15-4.06-11.37,3.66-7.9,22.72-4.04,29.13-7.33,3.21-1.65,4.12-6.76.67-8.66-6.11-3.37-16.59,3-23.28,1.58-4.98-1.05-2.96-4.55-2.78-7.77.48-8.39-2.87-19.08-.53-26.87,1.3-4.33,6.25-5.44,7.81-.85,2.58,7.61-6.98,19.18-2.31,25.56,4.54,6.2,18.31,1.14,25.43,4.64,3.66,1.8,7.31,9.04,10.23,12.4,5.58,6.42,13.47,12.7,22.16,7.61,2.64-1.54,3.96-4.37,7.43-4.37,6.54,0,10.28,7.51,18.46,6.08,6.3-1.1,10.27-9.25,5.72-14.43-5.91-6.73-17.98,2.54-25.43-1.85-3.69-2.17-1.44-7.52,2.04-6.38.71.23,1.7,1.35,2.56,1.78,8.06,3.98,18.99-5.34,12.6-13.53-4.36-5.59-10.21-3.49-15.28-.1-2.55,1.7-4.24,4.25-6.9,5.51-8.11.53-4.86-13.96-12.38-13.96-7.05,0-4.21,11.48-2.23,15.28,2.3,4.43,6.19,4.57,8.97,7.37,2.52,2.54,1.23,7.28-2.7,7.27-6.98-.01-8.03-9.6-11.49-13.75-3.84-4.6-13.24-5.48-18.88-5.29-2.44.08-4.55,1.08-6.69.86-3.91-.39-5.03-5.54-.62-6.46,8.39-1.74,19.63,4.54,26.06-4.17,2.36-3.2,1.67-9.89,7.29-7.6,2.13.86,3.48,2.71,5.27,4.03,6.1,4.52,15.64,7.57,22.68,3.48,5.76-3.35,3.83-11.75-2.8-11.51-4.6.17-7.23,4.82-12.27,1.35-2.06-1.42-3.4-4.95-.35-5.88,2.58-.79,5.45.87,8.91-.39,8.37-3.06,5.32-13.42-3.17-12.78-3.74.28-10.37,5.72-12.84,8.54-1.48,1.7-3.11,4.94-5.36,5.79-3.02,1.14-5.09-2.35-9.39-1.02-4.72,1.46-3.02,6.22-5.15,9.42-3.82,5.73-12.42,5.4-17.28,1.26-2.58-2.2-3.23-4.47-3.32-7.77-.14-4.87.8-16.6-2.78-19.89-2.69-2.48-6.87-1.16-7.7,2.15-.83,3.3,1.04,5.7.77,7.58-.26,1.79-2.41,2.47-3.97,1.79-2.09-.9-1.52-9.89-1.62-12.03-.1-2.03-1.69-5.1.72-6.42,2.89-1.59,6.62.73,9.83-.08,3.6-.92,4.81-5.73,1.65-7.86-2.87-1.93-10.38.42-11.7-3.23-1.69-4.63,1.76-6.22,1.88-9.34.2-5.44-6.36-10.37-3.85-17.01.62-1.63,2.25-2.76,3.82-1.47,2.66,2.18-.57,12.48,5.02,12.96,5.97.52,3.42-8.76,3.8-11.87.53-4.45,7.03-1.9,7.15,2.19.09,3.03-4.91,10.63-5.81,14.65-1.87,8.31,2.41,8.57,5.31,14.34,2.26,4.5-1.27,5.06-1.26,8.76.01,2.85,2.01,6.13,2.32,9.08.67,6.45-1.33,11.15,3.19,16.96,3.43,4.4,9.09,5.62,10.95-.72,2.87-9.78-8.15-15.23-6.56-22.12.48-2.06,2.1-1.72,3.54-.74,4.15,2.8,2.42,10.94,10.32,15.24,4.76,2.59,9.95,1.02,8.89-5.17-.46-2.7-7.56-12.7-9.84-14.64-5.89-5.03-13.5-4.88-16.98-13.09-.84-1.97-2.54-6.76-2.03-8.7.53-2.02,4.13-4.87,5.37-7.34,1.26-2.5,1.19-7.14,5.19-5.5,3.81,1.56,1.83,6.37.33,8.85-2.32,3.85-6.83,5.53-3.61,10.85,1.07,1.77,3.18,3.43,5.36,3.32,3.27-.17,6.09-5.19,7.35-7.86.83-1.76.97-5.07,3.51-5.19,2.82-.13,4.39,2.82,3.8,5.38-.29,1.28-3.76,3.87-4.64,5.89-2.87,6.58,1.79,8.86,4.97,13.44,2.58,3.72,5.04,12.05,10.91,10.49.5-.13,1.35-.68,1.71-1.08,3.83-4.26-6.19-10.5-7.1-14.65-.24-1.11.13-2.8,1.33-3.2,1.66-.55,2.28.27,3.25,1.44,2.18,2.64,4.58,7.98,6.69,10.05.81.8,1.95,1.07,3.03,1.31,5.74.28,9.27-.09,14.64-.09-.23-.66-.39-1.05-.6-1.71h-14.1c-.85-.11-1.5-.74-2.03-1.37-2.36-2.8-4.38-7.82-6.96-10.4-3.01-3-7.34-.43-7.19,3.53.17,4.41,7.98,9.41,7.96,12.74-.01,2.06-2.29,2.13-3.72,1.23-2.42-1.53-5.03-7.65-7.01-10.34-2.77-3.75-6.93-6.01-3.6-11.4.78-1.26,2.1-2.06,2.98-3.22,5.19-6.87-4.5-13.71-8.05-7.43-1.72,3.04-2.07,6.57-4.93,9.33-3.63,3.5-8.57-2.21-6.06-5.75,1.48-2.08,3.53-3.54,4.71-6.14,1.62-3.56,1.77-8.75-2.83-9.98-5.76-1.54-5.47,4.42-7.5,7.7-1.81,2.93-5.4,4.65-5.19,8.68.11,2.21,2.52,8.59,3.75,10.53,4.24,6.7,12.78,7.01,17.77,12.6,1.21,1.35,7.24,10.37,7.52,11.7,1.11,5.33-3.62,5.57-7.03,3-3.33-2.51-3.16-3.08-4.87-6.74-1.33-2.84-1.96-7-5.22-8.42-1.86-.82-4.26-.61-5.24,1.39-3.8,7.8,10.88,15.71,5.64,24.61-2.3,3.91-6.86-.49-8.27-3.11-2.68-4.98-1.13-9.1-1.64-14.17-.33-3.26-3.16-7.92-1.97-10.73.9-2.13,2.01-2.49,1.62-5.34-.76-5.59-7.13-7.06-6.42-14.34.6-6.14,9.97-15.91,4.04-21.09-2.8-2.45-7.96-2.5-8.67,1.89-.33,2.03,1.77,11.19-1.96,10.62-2.34-.35-1.76-6.77-2.12-8.75-1.27-6.93-8.16-5.62-8.93,0-1.01,7.41,4.4,11.32,4.2,16.12-.06,1.4-1.7,2.54-2.09,5.46-.49,3.69.35,6.11,2.69,7.3,1.91.98,13.33-.02,10.7,4.58-1.81,3.16-8.17-.56-12.01,1.62-3.45,1.96-1.76,5.11-1.64,7.97.18,4.42-1.06,17.59,7.03,13.54,3.39-1.7,1.46-4.96.93-8.02-.79-4.55,4.82-6.46,6.32-1.34,3.46,11.76-3.38,24.11,10.03,28.22,5.9,1.81,13.9-.39,16.03-6.62.86-2.53.21-6.21,3.85-6.69,3.73-.49,4.82,2.78,9.02.96,2.56-1.11,3.87-3.89,5.67-5.8,3.29-3.5,11.61-11.64,16.45-6.82,2.58,2.58,1.68,5.72-1.34,7.36-3.79,2.05-7.31-.54-10.36,1.11-5.35,2.9-1.14,9.25,3.3,10.15,3.98.81,4.77-.67,7.91-1.73,6.99-2.37,9.62,4.8,3.78,7.81-5.39,2.78-12.83.77-17.77-2.17-3.96-2.36-6.95-7.39-12.28-6.19-3.14.71-3.45,6.37-5.04,8.59-4.91,6.84-16.68,2.74-24.07,3.37-4.19.36-6.9,4.24-4.17,7.91,2.84,3.81,6.28,1.64,10.28,1.45,4.45-.21,10.54.26,14.62,2.11,6.76,3.06,5.87,12,11.97,15.61,3.99,2.36,9.48,1.64,10.1-3.66.85-7.27-6.91-6.83-9.94-11.68-1.4-2.24-3.68-10.56-1.71-12.53.83-.83,2.36-.91,3.34-.26,3.61,2.4,2.11,10.18,7.63,12.83,4.71,2.26,6.3-1.21,9.26-3.66,3.53-2.93,9.43-6.54,13.62-3.1,6.78,5.58-.3,14.28-7.9,12.55-1.75-.4-3.13-2.27-4.56-2.57-5.02-1.02-7.84,5.6-4.12,9.08,6.44,6.02,18.78-2.03,24.66,1.07,5.67,2.99,2.4,11.87-3.44,12.69-6.47.9-9.6-4.33-15.31-5.72-8.35-2.03-8.47,4.95-15.08,5.71-11.01,1.27-17-11.66-22.76-18.4-6.36-7.45-15.29-3.87-23.67-4.85-2.09-.24-5.23-1.63-5.7-3.91-1.58-7.76,7.62-18.07,2.36-25.6-1.88-2.68-5.98-2.86-8.29-.64-5.62,5.42-1.27,20.64-1.27,27.56,0,3.18-1.93,7.67-.13,10.36,3.65,5.47,12.8,1.61,17.74.73,2.43-.43,10.06-1.7,10.31,1.93.24,3.41-2.97,4.28-5.74,4.5-6.42.51-19.78-.1-24.76,5.35-4.63,5.06-.65,16.34,6.55,16.34,7.69,0,12.47-11.84,18.34-13.49,5.26-1.48,10,1.79,14.81,3.17,6.51,1.87,12.52.89,15.62,8.25,1.66,3.92,1.46,7.22,2.19,11.14.84,4.49,4.42,7.66,9.01,5.45,6.89-3.32-1.57-13.99,2.24-19.45,4.38-6.28,10.37,2.85,14.87,3.09,4.41.24,9.06-7.31,14.1-1.72,3.54,3.92,4.39,11.56-.34,14.86-5.66,3.96-9.97-4.87-15.24-4.1-7.54,1.11-12.76,23.37-2.51,24.09,1.71.12,3.92-.78,5.22-1.85,3.77-3.11,2.92-8.55,9.3-8.05,7.01.56,9.2,8.13,8.83,14.09-.34,5.53-4.57,18.45-12.19,13.44-4.53-2.98-3.87-9.47-11.2-9.88-10.21-.57-8.78,13.14-17.82,10.08-3.19-1.08-5.97-4.81-4.5-8.2,1.2-2.77,7.46-3.45,8.98-7.75,2.93-8.27-10.72-15.48-18.05-10.3-6.79,4.81-9.43,14.79-5.66,22.23,3.21,6.34,17.85,15.77,24.97,15.97,7.06.2,12.36-6.12,20.07-1.49,6,3.6,4.34,15.96-.87,19.77-3.28,2.4-10.4,2.92-13.37-.11-3.84-3.92-3.29-7.53-9.96-9.72-8.55-2.81-15.7-3.65-21.92-11.24-6.29-7.67-12.3-32.84-6.61-41.33,3.31-4.94,10.08-.65,13.75-5.16,5.42-6.66-3.85-13.72-9.84-15.28-17.73-4.63-21.85,19.14-17.99,31.63,1.07,3.45,3.1,5.8,3.45,9.57.41,4.32-1.14,9.63.13,13.82,1.34,4.45,7.85,6.6,5.46,11.83-2.38,5.22-9.66,7.12-11.83,13.89-1.3,4.05-1.15,10.88,4.59,10.49,5.12-.35,12.36-12.54,18.57-14.29,5.19-1.46,9.75,5.95,13.71,8.63,4.34,2.94,15.72,6.62,16.22,12.61.21,2.49-1.46,6.51-2.98,8.49-3.67,4.79-14.86,7.92-19.94,4.18-5.85-4.31,2.24-8.29,3-12.76,1.11-6.55-4.95-11.33-11.08-8.91-4.38,1.73-9.77,8.38-9.27,13.29.66,6.42,6.34,7.42,8.39,11.75,1.97,4.18,1.63,15.31-3.6,16.97-4.62,1.46-7.58-1.49-11.58-2.41-3.05-.7-13.08.28-11.46-5.14,1.24-4.17,12.25.21,15.19-4.96,2.58-4.55.15-15.66-6.14-16.3-6.88-.71-5.32,5.91-7.85,9.04-1.19,1.47-4.02.18-5.05-1.1-4.39-5.41,2.17-10.8,2.78-16.28.69-6.22-4.45-7.78-4.87-12.62-.83-9.67,10.27-.5,9.75-9.33-.32-5.53-4.73-5.07-8.57-6.24-4.16-1.26-3.41-5.14-1.5-8.35,7.8-13.06,11.57-17.76,7.55-23.17-3.02-4.06-12.82-1.72-12.4-7.71.4-5.55,8.76-4.03,11.35-7.5,3.15-4.22,1.37-10.51-4.01-11.48-3.76-.68-8.26.28-12.25-.14-2.46-.26-4.89-.98-7.29-1.55,1.28-3.02,1.32-6.16,2.01-9.3,1.38-6.25,6.06-12.9-1.04-17.55,2.21-4.39,3.52-8.88,3.02-13.87-.16-1.6-1.5-4.63-1.48-5.62.01-.65,1.59-3.47,1.92-4.56,1-3.33,1.21-7.78.45-11.16-.23-1.02-1.44-3.28-1.44-3.81,0-.59,1.55-3.61,1.82-4.67,1.08-4.22.49-7.47-2.71-10.56,1.76-4.55,2.06-8.44,1.09-13.19-.18-.9-1.14-2.81-1.07-3.46.04-.36,1.47-2.61,1.79-3.44,1.88-4.78,2.32-16.74,1.85-22.01-.99-11.13-15.89-15.63-24.69-10.75-5.5,3.05-6.13,7.85-3.86,13.47l-2.28,2.38c-5.47-5.41-13.1-3.11-17.67,2.17-.94,1.09-2.98,4.99-3.39,5.29-.56.41-1.77.48-2.55.86-3.57,1.69-7.93,6.33-9.07,10.15-1.01,3.38-.56,6.33-.16,9.74-5.18,4.82-10.47,10.93-12.04,18.04-.61,2.75-.79,5.6-.88,8.42-8.16,4.13-10.98,12.08-11.43,20.8-.48,9.14,2.73,14.67,8.38,21.4-.1.46-7.73,2.3-8.06,2.02.7-2.56.82-4.68-.07-7.21-2.82-8-14.93-4.62-12.12,4.68,1.3,4.29,5.48,5,9.4,5.18-.42,4.14-3.02,3.98-5.56,5.91-1.37,1.05-2.41,2.44-3.13,4-2.72,5.88-1.68,22.96-.53,29.67.85,4.9,2.4,9.96,6.06,13.48-1.89,5.43-1.21,10.53.13,15.97,1.84,7.41,5.51,16.79,10.47,22.62.55.64,3.49,3.75,4.02,4.12.7.49,1.21.19,1.55.36,2.67,1.31,1.74,1.89,2.72,4.04,4.45,9.77,6.59,16.01,16.28,21.84,2.61,1.57,7.52,3.32,9.59,4.9,1.05.8,2.53,2.96,3.8,4.03,2.71,2.27,7.03,5.08,10.09,6.96,5.07,3.11,11.88,6.83,17.95,4.36,2.73-1.11,2.63-4.58,3.29-4.78,5.55,1.45,14.9,2.09,15.9-5.47,1-7.59-5.6-10.05-11.83-7.49-3.81,1.56-4.98,4.09-5.72,7.91-.18.9.2,1.96-.56,2.55l-10.4-4.23c1.13-3.26.69-5.98-.59-9.1,1.75.02,3.61-.11,5.34-.4,3.68-.61,4.05-1.21,8.13-1.14,10.31.16,13.23-1.77,14.64-12.04.83-6.04-.43-8.91-.83-14.48-.31-4.24.74-9.64-.69-13.56-.34-.94-1.75-2.85-1.76-3.47-.02-1.09,2.28-5.74,2.67-7.54,1.89-8.7-2.79-16.16-7.61-22.91-.14-.87.8-1.62,1.12-2.48,1.88-5.02,1.81-11.98.16-17.07-1.01-3.13-3.15-4.94-1.64-8.44,2.78.61,5.67,1.63,8.53,1.86,3.99.32,11.47-1.17,14.42,1.39,2.81,2.45,1.93,6.92-1.24,8.47-1.27.62-5.31,1.6-6.58,2.29-4.31,2.37-5.47,7.61-.74,10.33,5.14,2.95,11.22.39,11.15,7.48-.07,6.83-11.57,16.67-10.61,23.66,1,7.31,11.55,2.89,11.72,9.35.15,5.69-7.29-1.02-9.38,4.98-2.71,7.75,4.36,10.06,4.45,15.28.12,6.49-6.88,10.04-3.35,17.59,1.37,2.93,5.8,5.18,8.44,2.71,2.9-2.71,1.44-10.44,7.51-8.44,3.98,1.31,5.72,10.45,3.76,13.51-1.59,2.49-7.95,1.45-10.57,1.83-5.67.82-6.89,7.22-1.6,9.49,2.78,1.2,6.94.55,10.1,1.37,4.02,1.03,5.68,3.27,10.63,2.7,8.06-.92,9.21-15.53,5.56-21.06-2.61-3.97-7.95-5.15-7.59-11.34.18-3.15,5.32-9.05,8.16-10.13,4.34-1.65,8.93,1.35,8.6,6.13-.34,4.95-6.93,6.77-4.63,12.66,3.18,8.14,19.47,4.33,24.12-.99,1.93-2.21,3.73-5.99,4.02-8.93.86-8.67-11.81-11.97-17.3-15.8-4.29-2.99-8.42-10.41-14.53-8.91-5.39,1.32-10.76,8.91-14.93,12.34-5.62,4.64-8.19.46-6.6-5.36,2.15-7.88,13.45-10.36,12.48-18.51-.48-4.09-5.06-5.59-6.06-9.44-1.05-3.99.5-8.69.13-12.84-.38-4.35-2.76-7.06-3.83-11.04-3.36-12.44,1.55-35.34,18.96-27.33,3.76,1.73,9.09,6.36,6.36,10.82-2.46,4.02-9.16.66-13.09,4.26-5.92,5.43-3.36,21.78-1.51,28.81,3.81,14.55,9.42,22.14,24.15,26.68,3.12.96,5.99,1.03,8.84,2.94,4.69,3.12,4.49,9.54,11.46,10.23,11.55,1.15,16.59-6.81,15.66-17.52-.5-5.78-5.14-9.16-10.69-9.45-6.58-.35-10.95,4.31-17.84,2.65-5.23-1.26-17.13-8.98-19.89-13.59-5.85-9.79,2.35-26.76,14.43-21.25,3.11,1.42,6.92,5.25,5.27,8.92-1.7,3.78-7.43,3.72-8.95,7.79-2.1,5.63,4.05,11.33,9.56,10.81,7.19-.68,6.57-10.99,14.61-10.52,6.19.35,5.89,7.5,11.03,10.05,10.06,4.99,14.65-11.3,14.22-18.56-.38-6.36-4.29-12.8-11.3-12.89ZM267.05,473.36c3.3-1.91,9.4-2.03,10.05,2.67,1.23,8.88-8.47,7.68-14.23,6.33.4-3.69.65-6.96,4.18-9ZM269.82,335.41c-6.28-3.47-13.64-6.7-20.43-2.45l-6.35-3.11c1.49-3.74,6.15-2.86,9.41-2.43,4.18.54,9.65,2.44,13.69,2.45,3.68,0,5.3-2.17,5.1-5.74-.13-2.25-2.04-4.09.62-5.43,1.73,5.51,1.23,11.86-2.04,16.71ZM228.47,450.12l-9.29-.93.46-5.58c2.88-2.15,4.81-3.62,8.29-4.73,1.71-.54,8.64-2.45,9.95-2.03.41.13.6.45.52.87-7.87.91-14.22,3.16-9.92,12.4ZM218.56,438.96l-.93-2.17,1.86-.31c.11.12-.38,2.41-.92,2.48ZM223.2,462.2c-3.79-1.02-7.52-3.46-9.16-7.11-1.42-3.17.09-3.36,2.96-4.05-.39,4.97,2.83,8.14,6.2,11.15ZM189.72,400.84l-3.89-1.54c1.09-2.26,2.24-4,2.03-6.67-.41-5.24-6.51-8.79-3.4-14.41,3.42,3.02,7.49,5.11,11.76,6.68l2.81,5.09c-7.39-.18-12.54,2.8-9.3,10.85ZM204.6,317c-.15-2.22-.86-4.53-.94-6.77l5.9-2.69c-1.47,7.4-.39,14.86,3.41,21.38-.38.28-6.25-.37-6.8-.79-2.06-1.56-1.41-8.71-1.57-11.14ZM257.92,237.49c.46-1.95,3.16-2.01,4.82-1.87,6.97.59,6.47,7.16,3.87,11.96-.68.44-1.67-.52-2.17-.97,3.03-5-.57-10.73-6.52-9.12ZM257.61,239.35c2.78-.9,6.21.22,6.21,3.56,0,.88-.58,3.06-1.72,2.33-2.05-1.31-3.83-3.54-4.49-5.89ZM261.02,247.09c-4.13,1.26-7.66-.8-10.22-3.87.6-.7,4.64-3.39,5.25-2.94l1.43,3.07,3.54,3.74ZM267.06,250.82c3.25,2.39,1.96,6.6.79,9.78-5.58-.68-7.23,6.07-12.92,6.63-2.28.22-4.01-3.65-4.46-5.56,7.29-.21,12.95-4.89,16.58-10.84ZM259.15,424.55c-.06-.82-1.11-4.93-.93-5.12,3.59-.17,7.22.45,10.51,1.89-.59,4.18-2.26,6.46-6.24,7.8-5.28,1.78-3.05-.53-3.35-4.58ZM259.12,432.18c2.75,4.71.78,10.92-2.75,14.7-.6.26-10.03-5.6-10.68-6.69-.43-.73-.4-1.7-.8-2.46,2-.63,4.19-1.28,6.1-2.12,2.77-1.22,5.05-3.45,8.12-3.43ZM244.28,428.58c.03-.22.68-2.53.77-2.64.8-1.05,6.13.93,7.29,1.41,1.41.58,2.75,1.39,4.04,2.17,0,.51-1.02,1.44-1.48,1.62-2.77,1.1-7.61,1.35-10.61,1.94.12-1.43-.17-3.1,0-4.49ZM242.39,433.66l-4.18.93c-2.29-1.42-7.48-6.08-7.58-8.8-.03-.72.06-.35.48-.46,1.72-.46,3.55-.14,5.27-.62l6.97.31c-.87,2.89-1.06,5.63-.96,8.65ZM215.6,358.39c.84.31,1.75.45,2.62.64,0,3.73.42,7.78,3.6,10.19,1.84,1.39,3.43,1.36,5.6,1.84l2.92,4.36c-4.05.45-7.75-1.33-11.63-2.16l-7.56-15.63c.38-1.58,3.55.42,4.46.75ZM214.53,355.74l4.02-1.7-.31,3.1c-.19.21-3.71-.96-3.71-1.4ZM231.26,304.59c1.07,5,4.52,8.86,9.92,8.84l-.92,2.96c-7.28-.3-11.67,7.03-14.29,12.84-.82.57-3.15-2.74-3.04-3.48.07-.44,1.52-2.61,1.87-3.43,2.48-5.77,3.55-9.84-1.13-14.79-.78-.83-3.21-1.84-1.87-3.09,1.39-1.29,7.55-.46,9.45.15ZM223.2,302.27l1.86-3.27,5.88-.14v3.72c-2.54-.36-5.2-1.02-7.74-.31ZM244.59,311.88c2.6-8.91,13.34-8.92,19.52-3.56l-3.58,3.26c-5.29-1.01-10.62.53-15.94.3ZM258.85,313.12c-3.43,3.65-9.16,6.2-12.4.77,4.09-.6,8.25-.86,12.4-.77ZM246.6,316.85c5.66,4.8,10.01.29,14.82-3.05,1.62.14,6.62,4.62,6.37,5.94-7.74,7.82-17.54-.06-25.68-2.59,1.59-5.87,1.83-2.55,4.49-.3ZM233.43,305.37c3.41,1.21,6.39,3.75,8.68,6.5-4.1-.21-7.7-2.32-8.68-6.5ZM240.63,336.45c.32.83,1.65,2.53,1.46,3.13-.16.54-4.27,1.46-4.75,1.36-.17-.03-2.59-1.92-2.54-2.43l2.7-7.37,2.75-.04c-.52,1.91-.31,3.54.38,5.35ZM251.28,365.81l-3.74,2.48-5.42-3.56c1.54-.94,6.93-2.3,8.3-1.32.13.09,1.08,2.06.87,2.41ZM252.64,367.36l1.55,3.41c-.71.39-4.65-.99-4.64-1.39l3.09-2.01ZM238.83,394.66l-5.11-1.45c.13-4.02.77-7.98,1.57-11.9.26-.24,1.73,1.11,2.04,1.37,1.37,1.14,2.49,2.6,4.03,3.57l.43.79-2.96,7.62ZM239.94,397.12l3.41.62c.64.59-3.56,2.97-3.72,2.79l.31-3.41ZM220.16,393.65l.25-3.04,11.01,4.02c.58.87-.5,7.13-.88,8.45-.39,1.38-.64,2.9-2.39,3.03.76-5.78-3.1-10.14-8-12.46ZM210.8,374.18l6.46.66c1.21,3.67,1.75,7.57,1.6,11.43-2.76.4-4.68-.46-6.83-2.08.16-3.39-.15-6.79-1.23-10.01ZM210.99,388.11c2.94-.27,5,.17,7.51,1.62l-.26,3.05-8.36-2.32,1.11-2.35ZM213.79,393.36c.82.21,3.57.8,3.8,1.49.51,1.59-2.69,7.58-3.84,9.09l-7.87-7.97c-.27-1.03,2.25-2.29,2.51-3.44.57-.33,4.48.59,5.4.82ZM219.49,395.57c4.55,1.62,7.87,6.24,6.67,11.17-4.17,1.92-7.39,1.35-11.01-1.26,1.71-3.17,3.64-6.31,4.34-9.91ZM219.48,375.42c3.37.43,6.44,2.28,9.92,1.86-1.44,4.1-3.83,8.14-8.68,8.37.13-3.45-.55-6.87-1.24-10.23ZM220.71,388.55v-1.04c6.45-.27,8.46-5.29,11.02-10.23.37-.09,2.22,2.15,2.26,2.37.06.31-1.28,5.12-1.45,6.2-.36,2.28-.41,4.64-.67,6.93l-11.17-4.23ZM229.4,370.16l4.33-1.55-2.32,4.96c-.48-.49-2.38-2.87-2.01-3.4ZM228.17,368.6c-1.82-5.08.6-8.42,5.97-6.44,1.94.71,3.5,1.66,1.37,3.55-.48.43-7.02,3.12-7.34,2.89ZM233.43,395.26l4.96,1.24-1.1,5.56-5.1,2.49,1.24-9.3ZM232.81,374.8c2.05-3.29,2.94-8.65,7.42-9.15l5.28,3.73c-1.15,1.32-12.12,5.88-12.7,5.42ZM248.62,361.47c-.95.02-1.91-.07-2.86.08-1.65.27-4.31,1.7-5.37,1.77-.55.04-.73,0-1.06-.46,1.79-2.25,3.32-4.72,5.77-6.33.54-.1,3.96,4.51,3.52,4.93ZM245.43,353.99c-.31-.08-1.4-1.27-2.07-1.67-2.33-1.38-5.33-1.27-7.44-3.09.98-.53,3.35-4.22,4.13-4.14.34.03,4.47,2.57,5.37,3.01,1.01.5,3.11.97,3.81,1.46.92.65,2.14,3.27,3.12,4.16-1.01-.12-1.86-.64-2.93-.62-1.03.02-3.43,1.03-3.98.89ZM232.4,339.3l-1.35,2.59c-2.47-.09-4.53.76-6.48-1.02-.15-.14-.74-.64-.75-.7-.31-1.69,1.8-5.12,2.17-6.9l6.41,6.03ZM226.92,331.1h8.68l-2.33,6.2c-2.57-1.51-4.53-3.89-6.35-6.2ZM232.71,343.55c1.26.19,4.6-1.27,5.33,0,.22.38-.04.74-.25,1.06-.25.38-3.32,3.8-3.58,3.8l-3.2-2.27,1.7-2.59ZM241.18,343.8c-.2-.26,1.76-3.28,2.64-1.86l2.94,4.65-5.58-2.79ZM236.22,329.24h-8.06c-.31-.3,1.97-4.05,2.35-4.62,1.98-2.96,5.1-6.8,9.11-6.08l-3.4,10.7ZM225.06,313.58c.36,3.5-1.68,7.29-3.1,10.38-.65.45-2.19-3.01-2.43-3.61-1.69-4.27-1.31-9.21,1.04-13.12,1.77,1.87,4.21,3.56,4.49,6.35ZM224.29,331.1l.42.72-2.44,6.41c-.29.23-4.64-5.08-4.81-5.59-.2-.6.77-1.53.94-1.53h5.89ZM221.34,340.7c-1.79-.83-3.66-1.54-5.36-2.54-.56-.33-3.44-2.08-3.31-2.57l2.94-2.32,5.73,7.43ZM222.62,343.23c.61-.15,1.22-.08,1.81.13.28.1,3.48,2.72,3.59,2.93.49.89-2.09,3.14-2.86,3.67-.64.44-3.97,2.04-4.44,1.6l1.9-8.33ZM229.9,347.86l2.9,1.99c-3.42,3.6-7.45,7.38-12.7,7.59l.32-4.02c3.92-.12,7.17-2.59,9.48-5.57ZM220.12,359.32c6.01-.23,10.3-4.54,14.46-8.34l6.82,2.38,2.57,1.77c-2.52,1.73-4.26,4.25-6.09,6.64-3.4-1.19-7.01-3.64-10.31-.73-2.45,2.16-2.02,5.06-1.26,7.88-5.14-.16-6.43-5.27-6.18-9.59ZM216.38,372.94l-6.13-.99-3.19-11.57.08-.4,2.27-1.61,6.97,14.56ZM210.19,382.4c-.04.32.08.67-.46.46-.67-.26-4.51-3.6-5.28-4.33-1.72-1.63-3.14-3.58-4.8-5.27l9.23.69c.7,2.61,1.67,5.74,1.31,8.46ZM204.6,381.16c1.03.9,4.49,3.05,4.98,3.7.28.38.36.63.29,1.1-4.21-.05-8.32-1.35-12.32-2.56-1.54-3.18-2.37-6.36-1.32-9.84.83-.73,7.39,6.75,8.36,7.6ZM208.95,387.82c.32.31-.75,2.14-1.15,2.48l-6.38-.31-2.39-4.03,9.92,1.86ZM203.06,391.85l3.1.31-1.69,1.85c-.39-.21-1.74-1.85-1.4-2.16ZM204.14,396.81l8.21,8.98c-1.28.29-3.5,3.48-4.75,3.35l-10.73-6.6,7.28-5.73ZM205.33,409.87c.23.21.62.28.51.72-1.1.55-2.85,2.41-4.02,1.87-.51-.24-6.47-6.45-6.83-7.13-.2-.37-.42-.59-.3-1.09.54-.05,1.03,0,1.56.14,1.56.44,7.84,4.31,9.09,5.48ZM202,415.4c.61-.03,3.7,2.3,4.57,2.85.4.25,1.4.51,1.45.57.5.52-.16.52-.43.64-2.78,1.25-9.49,2.95-11.96.75,1.82-1.93,3.92-3.71,6.38-4.81ZM206.18,415.84l-2.19-1.83,3.82-2.27,7.02,4.59-2.48,1.38c-2.28,1.33-4.14-1.07-6.17-1.88ZM209.57,410.6l4.23-3.84c3.68,2.59,7.12,4.04,11.58,2.14.94,1.3-4.16,4.32-5.17,4.9-1.35.77-2.86,1.96-4.3,1.32-.51-.23-6.23-4.14-6.33-4.52ZM222.27,414.79l-2.06,2.76c-.54.16-1.29-.35-1.66-.75l3.72-2.01ZM221.67,418.67c2.12-1.84,3.29-5.17,4.95-7.14,1.17-1.39,3.23-2.55,4.12-4.4l6.72-2.89,1.2,5.36c-4.2,3.96-9.33,8.07-10.19,14.17l-6.81-4.65v-.44ZM221.66,434.31l-1.22-6.17,7.41-2.06c5.35,5.54-1.86,7.02-6.19,8.23ZM221.4,436.23c2.51-.75,6.2-1.45,8.29-3.02.59-.44,1.74-2.3,2.18-1.99-.2,1.1,3.93,3.45,3.41,4.03-3.84.96-8.9,1.58-12.3,3.66-.53.32-2.8,2.6-3.19,2.23l1.6-4.9ZM238.22,422.83l-7.89.63c1.14-5.37,5.8-8.74,9.5-12.35,4.78,2.54,10.36,3.23,15.55,4.66l.37,2.11c-4.06.55-8.94,2.1-11.36,5.6l-6.17-.65ZM241.5,409.67c6.24-5.33,12.43-5.9,13.32,3.87-.42.41-10.17-2.25-11.4-2.7-.76-.28-1.41-.48-1.92-1.17ZM257.29,427.8c-3.26-1.94-6.82-3.25-10.53-4.03-.18-.71.14-.51.39-.7,2.56-2.01,6-3.06,9.21-3.32.43,2.7,1.25,5.27.93,8.05ZM240.41,407.97c-.63-.14-1.48-4.21-.94-4.97l6.58-4.27c5.18,1.32,10.93,2.68,15.59,5.36,1.98,1.14,3.65,2.21,4.57,4.41,3.08,7.32-4.45,6.6-9.24,5.52-1.61-11.2-8.08-12.73-16.57-6.05ZM245.61,396.44l-5.05-1.19,2.94-7.12,6.02,4.84-3.91,3.46ZM244.63,386.84c1.09-4.11,5.07-6.61,9.23-4.57-.28,1.73-1.29,8.07-2.76,8.83-.95.49-5.26-3.8-6.46-4.26ZM251.84,379.79c-3.58-.34-5.17.83-7.41,3.37-.32.36-1.15,1.87-1.26,1.89-.55.09-2.35-1.54-2.93-2.03-.53-.46-3.89-3.75-3.92-4.03,1.61-4.83,6.16-4.73,10.44-3.73.91.21,7.78,2.94,8.01,3.3.24.39.11,1.63-.45,1.79-.48.14-1.79-.5-2.47-.56ZM243.35,372.79l4.19-2.21c2.51,1.27,4.94,2.33,7.85,2.11,1.02,1.53.49,2.67.05,4.29-3.78-2.03-7.78-3.72-12.09-4.18ZM254.2,365.81c1.85-.05,2.22,3.01,2.17,4.34-.7-.33-2.45-4.05-2.17-4.34ZM254.44,362.97c-.17-.03-3.03-1.39-3.17-1.51l-4.2-6.18c1.83-.23,2.84-.45,4.64.16.73.25,6.28,3.58,6.47,3.91.48.83-2.81,3.81-3.75,3.63ZM259.93,360.86c.55.59,4.93,4.37,4.49,4.95l-6.19,3.1-1.83-4.45,3.53-3.6ZM259.9,357.74c-.69.14-7.85-6.5-7.87-7.58,3.1.19,5.25-1.12,8.05-2.01,1.08,3.22,2.85,6.83-.18,9.59ZM257.3,340.4c2.18.07,4.22,1.29,5.57,2.96l-2.46,1.99-3.11-4.96ZM258.85,346.59c-2.41,1.06-5.39,2.26-8.07,1.42-.88-.28-5.66-6.59-5.25-6.99,2.93-.28,5.79-1.28,8.77-.87.87.25,4.95,5.93,4.56,6.44ZM245.21,339.15c.85-.92,1.96-2.38,2.94-3.09,1.94-1.39,3.02.9,4.49,2.16l-7.44.93ZM243.35,337.91c-.26-1.29-1.25-2.34-1.48-3.64-.1-.6-.4-2.91.57-2.75l5.25,2.36-4.34,4.02ZM241.12,329.17c-.31.18-3.04.13-3.04-.09l3.56-10.33c7.5,2.79,15.7,8.79,23.93,4.97.67-.31,2.58-1.88,2.74-1.91,1-.23,1.14,2.87,1.08,3.56-.29,3.54-3.44,2.61-6,2.28-4.75-.62-15.41-3.92-19.4-1.63-.97.55-2.52,2.96-2.88,3.16ZM269.08,318.39c-.96-2.52-3.7-4.89-6.2-5.89l2.68-2.76c.98-.17,5.08,5.67,5.25,6.78.06.36-1.31,2.18-1.73,1.87ZM265.66,306.92c-5.67-4.15-14.02-6.29-19.67-.93-1.22,1.15-1.93,2.83-3.1,4.02-1.75-2.2-4.06-3.88-6.46-5.32-.71-.43-3.06-1.26-3.34-1.62-.65-.84-.1-3.2-.29-4.32l6.03-2.39c2.41,3.48,5.83,2.72,9.3,3.15,4.76.59,9.35,3.76,14.35,1.88,3.15-1.18,4.5-4.57,5.52-7.49.73.23,3.89,3.19,3.83,3.82l-6.16,9.2ZM263.5,271.28l-2.35,4.04c-1.76-.98-3.6-.45-5.47-.72-2.48-.35-5.44-2.26-6.74-4.42.02-.37,3.67-.84,4.15-.78.64.08,1.92,1.25,2.75,1.61,2.62,1.15,4.96,1.05,7.65.25ZM256.06,268.95c1.56-.84,3.05-1.23,4.56-2.25,2.23-1.51,3.6-4.36,6.59-4.41.32.33-2.09,6.4-2.66,6.79-1.58,1.1-6.9,1.41-8.49-.13ZM242.93,293.32c4.58,2.44,10.61,4.78,14.99.75.86-.79,2.07-3.15,2.95-3.27,1.5-.21,3.92,1.49,5.39,1.9-2.47,12.05-10.62,5.91-18.15,4.97-2.68-.34-5.44.4-7.54-2.09l2.35-2.25ZM239.01,293.59l-.62-3.1,2.79,1.55-.19.64-1.97.9ZM244.9,292.35c3.61-2.85,9.23-2.79,13.64-2.16-3.16,5.89-8.54,4.58-13.64,2.16ZM259.57,288.27c-5.84-.66-11.56-.35-16.69,2.73l-3.25-2.22c-.01-.56,4.45-2.05,5.2-2.24,4.73-1.2,7.75-.17,11.99-3.51,1.74-1.37,2.28-3.06,5.12-2.78.38,1.37-1.27,7.63-2.37,8.01ZM259.78,276.55c-.58,3.56-6.4,4.04-9.37,3.64-.9-.12-5.92-1.59-6.07-2.27.79-2.73.38-5.14-.05-7.88.64.11,1.94-.21,2.42.06.08.05.69,1.27,1,1.63,3.25,3.74,7.09,5.22,12.08,4.81ZM254.51,282.13c-2.24,2.31-5.76,1.75-8.69,2.31-2.16.41-4.13,1.32-6.18,2.03.48-2.6,3.07-4.02,3.74-6.49,3.68,1.07,7.17,2.64,11.14,2.15ZM242.73,277.17c-.5.53-7.89-4.01-8.78-4.7-.35-.27-.64-.31-.52-.88,2.86-1.16,5.66-1.26,8.7-1.42,1.06,2.22.97,4.65.6,7ZM241.78,279.21l-4.47,7.25c-3.71-3.5-5.95-8.5-6.04-13.63l10.52,6.38ZM236.84,291.42l.6,3.7-4.01,1.25c-.37-.35,2.73-5.74,3.41-4.96ZM267.06,291.11l-5.43-2.17c1.24-2.75,1.98-5.57,2.47-8.54,1.27.01,6.19,1.29,6.69,2.34l-3.74,8.37ZM267.76,279.25c-.92-.26-3.86-.61-4.19-.93-.11-.1-.91-1.83-.9-1.93.04-.72,2.93-4.25,3.16-5.41l6.03-3.73c1.08,3.36,1.49,6.5.85,9.99-.16.89-.59,3.8-1.67,3.41-1.1-.4-2.01-1.03-3.28-1.39ZM270.48,265.69c-.23.51-2.9,2.48-3.27,2.18l1.55-4.14c.5-.9,2.15.99,1.72,1.96ZM251.41,267.86l-3.99.27-2.2-6.47,3.37.35,2.82,5.85ZM245.52,268.17l-2.14-.03c-.6-2.32-1.97-4.46-3.44-6.32l3.38-.12,2.2,6.47ZM241.49,268.48c-3.68-.36-6.82.83-10.23,1.86.13-2.56.58-6.02,2.88-7.5.81-.52,2.99-1.5,3.79-.9.6.45,3.97,6.12,3.55,6.54ZM236.52,288.49v.45c-1.33.46-2.58,2.2-3.29,3.38-.67,1.1-1.61,4.17-1.98,4.53-.91.89-3.69.3-4.95.47.83-2.52,2.46-4.78,3.33-7.36,1.22-3.6,1.56-6.89.14-10.52-.83-2.1-3.07-3.42-.52-5.06,1,5.49,3.27,10.2,7.28,14.11ZM228.71,282.04c.86,5.5-1.95,9.96-4.3,14.61-1.66.18-3.86-1.55-4.53-2.98-.54-1.15-1.21-5.22-1-6.41.28-1.53,5.64-8.41,6.98-9.76.26-.26.28-.44.75-.33.57,1.67,1.82,3.08,2.1,4.88ZM217.94,284.6c-.02-1.87-3.07-9.36-2.34-10.54.36-.58,3.59-1.54,4.35-1.55,1.25,0,3.55,1.04,4.38,1.97.27.3.48.68.68,1.04l-7.08,9.08ZM218,293.99c.88,2.08,2.71,3.62,4.87,4.27.36.51-1.81,4.06-2.63,4.3-3.47,1.04-4.09-1.54-6.99-2.66l3.75-9.42.99,3.5ZM215.14,303.36l-3.09,1.08.62-2.79,2.47,1.7ZM218.27,305.5c1.11.89.03,1.69-.34,2.8-2.25,6.75-1.39,11.8,2.49,17.68,0,.23-2.24,2.98-2.49,3.09-.48.22-2.34.31-2.72.09-.73-.42-3.32-7.09-3.63-8.3-1.2-4.73-.86-9.43-.1-14.21,1.69-.43,5.39-2.29,6.79-1.16ZM209.8,305.29c-.25.27-6.49,3.13-6.74,2.87l-.48-6.83c2.54-1.29,5.49-1.04,8.22-.6.23.23-.66,4.2-1,4.57ZM214.16,330.83l.22,1.19-3.43,2.43c-.46-.25-3.58-3.69-3.25-3.98l6.46.35ZM211.2,337.02c2.81,2.29,6.03,4.14,9.49,5.26l-1.88,9.85c-.85.18-1.7.41-2.51.74-1.8.73-4.29,2.64-5.83.71-.71-.88,1.26-2.04,1.87-2.81,2.16-2.72,4.28-6.05,1.56-9.29-1.6-1.91-3.59-1.81-5.89-1.7.19-.9,2.45-2.95,3.19-2.75ZM211.87,348.43c-.34.51-2.72,3.49-3.23,3.12-.4-1.56-2.72-8.89-1.56-9.77,5.24-1.47,7.88,1.97,4.79,6.65ZM207.86,354.97l.64,1.85-2.19,1.54-.64-1.85,2.19-1.54ZM208.32,372.01l-11.16-.62c1.38-2.48,3.13-5.09,5.11-7.13.4-.41,2.85-2.78,3.25-2.47l2.79,10.23ZM195.46,370.45l-7.59-5.27.19-.61c5.67-1.39,10.87-3.98,15.92-6.82l.48,2.17c-3.75,2.8-6.6,6.56-9,10.53ZM194.07,379.29c.1.76.81,1.94.93,2.78,0,.3-.45.17-.72.1-1.23-.33-8.38-4.48-8.57-5.39,1.86-2.59,5.55-3.51,8.67-3.22.12.33-.31.68-.31.77,0,1.49-.19,3.57,0,4.96ZM193.44,371.09l-.15.62c-3.28-.14-6.45,1.16-8.83,3.41-1.14-3.18-2.47-7.72,1.4-9.53,2.29,2.1,4.79,4.12,7.59,5.51ZM200.51,391.92l2.54,3.5-8.35,6.48c-.3.09-2.21-.35-2.41-.52-.29-.23-1.52-3.26-1.6-3.82-.81-5.99,5.53-5.8,9.82-5.64ZM193.29,406.11c.97,1.12,1.93,2.5,2.94,3.57,1.18,1.26,3.07,2.6,4.05,3.7.24.27.4.35.3.78-2.18,1.04-9.31,5.23-5.69,8.02,3.28,2.53,11.81-.53,15.46-1.7.37.02,3.13,2.13,3.54,2.53.25.25.44.27.33.75-4.66,3-9.1,6.55-15.03,5.9-9.11-1.01-11.55-17.7-5.89-23.55ZM212.67,419.59c2.22-.89,3.65-2.47,5.89-.77.36.52-2.53,2.82-2.94,3.4l-2.94-2.63ZM220.3,420.4l5.37,3.84-5.8,2.28-.7-.1-2.16-2.8,3.29-3.22ZM219.76,434.59l-3.68.51c-1.27-1.66-2.4-2.81-.42-4.46,3.8-3.18,3.9.8,4.1,3.95ZM229.24,443.29c.34-1.31,1.47-1.87,2.65-2.31.95-.35,8.24-2.07,8.75-1.96.58.12,3.23,2.33,3.59,2.93l3.77,9.09c-.37.42-8.24.39-9.47.33-1.52-.08-5.92-.45-7.14-.92-2.17-.84-2.67-5.18-2.16-7.16ZM246.76,443.61l8.06,4.95c-1.62.6-3.06,1.99-4.92,1.83l-3.14-6.78ZM257.09,449.26c1.26,1.05,9.18,2.49,8.86,4.38-.27.42-.68.83-1.11,1.08-1.07.64-6.78,1.94-7.99,1.88-1.9-.08-4.92-2.75-5.45-4.62l5.68-2.72ZM258.23,447.8c3.31-4.59,5.61-10.71,2.8-16.1,3.04-1.4,5.94-1.73,7.8-4.92.76-1.3.94-2.51,1.46-3.82.09-.22-.08-.64.49-.42,2.62,1.02.48,4.05-.06,6.13-1.99,7.62-1.9,15.05-3.5,22.69l-8.98-3.56ZM269.07,419.43c-3.58-1.41-7.4-2.07-11.26-1.85-1.41-2.39.1-1.28,1.48-1.24,4.53.15,10.06.49,9.43-5.72-.86-8.51-13.89-11.59-20.73-13.21-.2-.73.19-.52.4-.71.99-.88,1.94-1.77,2.9-2.67,4.2,2.5,9.29,4.17,14.05,2.14,2.62,7.42,4.73,15.29,3.72,23.25ZM264.42,394.62c-2.86.98-5.71.68-8.53-.29-.52-.18-2.92-1.27-3.11-1.55-.38-.59,1.11-2.67,1.42-3.56.69-1.97.65-4.29,1.7-6.06.35-.08,5.45,3.51,5.86,4.06.42.57,2.88,7.08,2.65,7.4ZM256.51,381.31c-.37-.6.03-1.25.18-1.84,2.44-.17,2.73,2.21,3.39,4.02l-3.57-2.17ZM259.93,377.86c-.25-.02-1.9-3.51-1.95-3.9-.03-.23.24-2.69.31-2.82.11-.2,3.45-2.15,3.95-2.4,4.13-2.08,5.23-1.79,3.08,2.77-1.12,2.36-2.94,5.27-5.39,6.35ZM261.66,358.8c2.86-3.79,1.76-7.87-.3-11.75l2.64-1.98c1.09-.2,3.28,5.5,3.57,6.59.88,3.36,1.04,7,.57,10.43-.43.47-6.37-2.59-6.48-3.29ZM264.58,341.96c-.25,0-3.19-2.23-4.19-2.64-1.7-.7-4.05-.72-5.25-1.25-1.13-.51-2.53-3.3-4.04-3.56,3.1-2.79,8.15-1.86,11.77-.45,1.21.47,4.41,1.97,5.39,2.67.28.2.54.25.48.68-.07.47-3.66,4.56-4.15,4.56ZM272.02,314.66c-1.38-2.46-3.19-4.54-5.08-6.6l6.17-8.27c1.52,4.73,1.46,10.51-1.08,14.87ZM274.67,288.8c.11,2.23-1.09,4.53-1.57,6.65l-4.36-3.28,3.43-7.88c.8-.6,2.45,3.76,2.49,4.51ZM266.68,230.43c10.32,3.76,8.46,12.13,7.96,21.15-.08,1.53.13,3.09-.02,4.62-.25,2.48-1.31,5-2.14,7.32l-2.81-2.06c.51-2.49,1.58-5.1,1.23-7.68-.27-1.99-1.74-3.38-2.76-4.98,1.43-3.47,3.14-7.53,1.24-11.18-2.05-3.93-9.06-5.37-12.27-2.33-1.05.99-1.15,2.48-1.88,3.08-.21.17-4.44,2.52-4.78,2.66-.32.12-.55.24-.91.17-3.8-10.97,9.19-13.68,17.13-10.78ZM249.39,244.32c2.54,3.33,6.22,5.43,10.54,4.95,1.11-.12,2.69-1.14,3.1-1.13.57,0,1.5,1.18,2.3,1.16.76,1.06-4.41,6.25-5.46,7.05-2.84,2.18-6.69,3.71-10.3,3.43-1.22-3.29-.74-6.98-1.34-10.28-.5-2.74-2.21-2.5,1.16-5.18ZM245.99,248.65l1.7,11.46c-.83-.1-2.36.3-2.95-.3-1.76-1.79-.96-9.45,1.25-11.17ZM241.73,244.53c.63.22,2.41,1.16,2.71,1.64.55.87-.77,2.25-1.14,3.2-1.43,3.62-1.84,6.65-.57,10.43-1.21-.16-3.01.27-4.12-.06-.63-.19-2.69-2.69-3.48-3.34-2.17-1.79-5.02-3.37-7.9-3.42,1.89-5.7,8.28-10.64,14.5-8.45ZM225.1,259.38c.06-.76.68-4.09,1.04-4.54.8-.99,5.28,1.19,6.26,1.8.51.32,3.92,2.91,3.5,3.47-2.13.57-4.15,1.64-5.12,3.72-.33.72-1.24,4.97-1.55,4.96-3.07-2.68-4.49-5.22-4.14-9.41ZM224.13,254.85c-1.03,4.39-1.73,8.73,1.25,12.54.89,1.13,3.33,2.89,3.87,3.88.57,1.06-1.83,2.2-2.75,2.76-2.39-2.47-5.17-3.8-8.64-2.98-1.13.27-1.94.91-3.03,1.15-1.81-7.31,2.51-14.71,9.3-17.35ZM204.44,287.39c1.42-3.18,5.79-9.21,8.53-11.31.31-.24.39-.6.93-.46l2.78,11.3-5.39,12.18c-3.06-1.04-6.08-.38-9.16.08-.04-4.06.67-8.09,2.32-11.79ZM202.12,311.57c.94,5.47.08,11.06,1.55,16.43-7.37-1.41-13.89-5.28-6.98-12.72.57-.62,4.91-4.26,5.43-3.71ZM192.06,331.09c-3.28-8.51-1.39-25.16,8.52-28.82l.9,6.92c-4.07,3.03-10.94,7.73-9.25,13.67,1.03,3.62,5.06,5.24,8.35,6.22,1.05.31,3.72.58,4.33.94.79.48,3.12,4.92,4.65,5.57-1.07.77-2.06,1.65-2.95,2.63-.51.56-.71,1.48-1.26,1.84-.27.17-5.81,1.65-6.12,1.6-2.44-3.56-5.58-6.44-7.17-10.57ZM206.15,349.69c-1.34-1.33-4.88-4.48-5.57-6.05-.21-.48.15-.42.38-.53.48-.22,3.79-1.04,3.95-.86l1.24,7.44ZM198.67,343.84c2.18,3.47,5.07,6.42,8.08,9.15l-1.99,1.94c-3.97-6.86-10.53-6.82-17.51-5.24l1.44-3.43,9.98-2.42ZM179.03,341.95c-1.48-3.13-.66-7.12,3.18-7.69,5.31-.78,7.06,6.88,4.53,10.43-2.58.21-6.46-.11-7.71-2.74ZM186.29,352.07c6.06-1.91,13.83-2.95,16.76,4.13-5.24,3.06-10.96,5.48-16.74,7-2.43-3.54-1.44-7.44-.02-11.14ZM178.93,386.06c-1.08-6.38-2.22-23.89.72-29.25.86-1.57,2.42-3.26,4.19-3.71-1.03,3.92-1.39,7.61.93,11.15-3.92,1.89-3.65,5.7-2.7,9.37.19.75,1.13,2.6,1.13,2.88.02.48-.94,2.02-1.15,2.87-1.81,7.59,7.68,11.44,2.24,18.68-3.24-2.7-4.68-7.9-5.37-11.99ZM199.33,441.44l-4.33-4.19c-5.55-6.44-12.02-24.09-11.13-32.5.13-1.23.59-2.42.9-3.6,1.6.96,6.72,1.11,7.08,3.02.17.89-1.75,3.17-2.27,4.42-3.21,7.74.1,22.06,9.92,22.93,6.17.54,11.16-3.42,16.07-6.47l2.05,2.29c-2.38,1.31-5.92,2.99-4.89,6.45.2.68,1.28.91,1.17,1.77l-9.78.6c-.95.65-2.26.43-3.03.69-.93.3-2.18,3.56-1.76,4.6ZM202.33,438.39c3-.04,6.05-1.06,9.02-1.21.62-.03,1.15.25,1.76.24,1.01,0,1.64-.84,2.67.13.3.28,1.49,2.71,1.53,3.14.23,2.28-2.17,2.6-3.9,2.88-2.21.37-8.04.36-10.02-.46-2.02-.83-3.07-3.26-1.06-4.73ZM205.07,448.26c-.39-.85-1.49-1.95-1.7-2.64-.18-.58.11-.41.45-.46,2.79-.39,6.81,1.1,9.77,0,.59.66-2.38,2.98-2.94,3.41-.66.5-3.77,2.51-4.35,2.5-.89-.22-.83-1.93-1.23-2.81ZM226.3,470.89c-2.28-1.46-4.9-2.4-7.22-3.78-5.61-3.32-9.75-8.04-12.27-14.05,2.66-1.53,4.94-3.48,7.25-5.43.23-.19.65-.08.78-.19.82-.73,1.61-2.2,2.64-2.9l-.2,4.61c-7.36.79-6.24,5.69-2.43,10.11,3.13,3.63,7.73,5.19,12.39,5.74-.59,2.03-1.24,3.68-.93,5.89ZM229.31,472.45c-1.4-1.09-1.34-4.72-.53-6.21,6.05,3.87,11.62,8.64,18.28,11.47-.12.57-.61.57-1.07.63-2.58.3-5.73-.88-8.13-1.81-1.69-.66-7.34-3.12-8.56-4.07ZM230.95,463.61c4-3.71,11.02-.87,14.25,2.63l-14.25-2.63ZM247.19,468.44c.79.44,1.82,2.7,1.98,3.6.16.92.36,4.68-1.17,4.29-1.1-.28-4.92-2.71-6.16-3.46-3.23-1.95-6.47-4.16-9.32-6.64l14.69,2.2ZM256.91,482.28c1.33.52,2.74.9,4.11,1.33-.94,7.86-11.36,3.36-15.71.97-3.72-2.05-7.62-4.91-10.95-7.49,3.91,1.21,7.89,3.76,12.17,3.02.89-.15,2.25-1.15,2.81-1.1.65.06,6.27,2.76,7.57,3.26ZM255.45,466.09c-2.38.47-4.82.57-7.24.41-4.5-5.3-14.09-9.79-19.43-3.19-.21.17-.39.09-.62.02-.53-.15-3.98-2.87-4.65-3.44-2.8-2.43-4.97-4.8-4.65-8.84,3.06.52,8.26.15,11.03,1.22.82.32,3.82,3.18,4.99,4,6.26,4.38,14.11,7.42,21.48,9.36.08.45-.59.4-.92.47ZM260.06,464.53c-1.46,0-5.14-1.15-6.72-1.62-6.9-2.05-14.55-5.56-19.91-10.31,5.18.67,10.5,1.03,15.67.13,1.79,1.69,3.41,4.29,5.8,5.21,2.99,1.15,9.16-.74,12-2.24,1.54,3.16-4.11,8.84-6.85,8.83ZM275.26,439.75c.18,2.84,1.08,5.85,1.25,8.67.24,3.95-.56,13.05-4.23,15.3-.5.31-3.21,1.28-3.67,1.28h-4.8c3.4-2.91,5.42-4.91,4.94-9.75-.06-.64-.66-1.07-.55-1.8.11-.71.83-2.1,1.03-3.02,1.76-8.12,1.07-16.7,4.34-24.49.48-.07.65.37.84.71,1.64,2.97.63,9.49.85,13.09ZM269.95,396.4c3.7,4.95,6.66,11.53,5.87,17.84-.33,2.62-1.88,5.11-2.4,7.67l-2.48-1.46c.75-8.48-.7-16.95-3.96-24.79,1.14-2.56,1.96-.63,2.98.74ZM268.45,391.23l-5.11-4.96-2.64-6.36.14-.46c3.72-1.58,4.68-5.3,6.61-8.28.19-.3-.03-.56.69-.4,2.75,6.51,3.37,13.95.31,20.45ZM268.77,349.53l-3.03-5.89,4.76-5.41c6.96,3.62-.01,12.27-.19,17.96l-1.54-6.67Z"/>
  <path d="M463.97,271.81c3.57.03,2.05,3.96,4.2,5.72,1.34,1.09,5.08,1.06,6.62.45,3.53-1.41,1.09-5.42,4.44-6.1l10.67-.03h.74s1.84,0,1.84,0c1.72,0,3.11-1.4,3.11-3.11v-33.36c0-2.43-1.21-4.68-3.23-6.02L285.01,53.59c-2.38-1.58-5.46-1.58-7.84,0L69.81,229.35c-2.02,1.34-3.23,3.59-3.22,6.02l1.09,320.67c.01,3.97,3.23,7.18,7.2,7.18h419.76v-1.9H74.89c-2.91,0-5.29-2.37-5.3-5.28l-1.09-320.67c0-1.79.88-3.44,2.37-4.43L278.22,55.17c1.74-1.16,4-1.16,5.74,0l207.35,175.76c1.49.99,2.38,2.65,2.38,4.44v33.09c0,.82-.67,1.48-1.48,1.49l-13.23.13c-4.58.87-3.07,5.22-4.54,6.08-.71.42-3.98.47-4.74.13-1.53-.69-.94-2.98-1.87-4.33-.89-1.31-2.35-1.86-3.88-2.01-5.32-.53-11.05-.4-16.83-.17h0s-20.02-.02-20.02-.02c-3.85-.36-1.67-5.2-5.19-6.28-4.83-.02-10.55-.67-15.31-.22-1.61.15-2.82.96-3.39,2.5-.56,1.51-.13,3.2-2,3.89-4.28-.06-9.31.56-13.52.15-4.47-.43-1.74-3.68-4.5-5.73-1.74-1.29-6.38-1.26-7.86.47-1.46,1.71-.44,4.81-3.2,5.17l-17.97.31c.1.7.01.97.1,1.67,5.42.13,11.19.33,16.41-.03,1.83-.13,3.73-.36,4.79-2.03,1-1.55.17-4.19,2.62-4.51,6.64-.88,3.53,2.49,6.05,5.14,1.12,1.19,2.61,1.29,4.18,1.4,2.73.19,11.62.34,13.8-.49,3.84-1.46,1.26-5.71,4.79-6.05,4.49-.44,9.87.25,14.45.16,1.38.45,1.11,2.02,1.52,3.13.82,2.27,1.89,2.8,4.23,3.2,6.37-.43,13.23-.06,20.02.2h0s16.83-.01,16.83-.01Z"/>
</svg>