<?xml version="1.0" encoding="UTF-8"?>
<svg id="Capa_1" xmlns="http://www.w3.org/2000/svg" version="1.1" viewBox="0 0 250.8 383.73">
  <!-- Generator: Adobe Illustrator 29.5.1, SVG Export Plug-In . SVG Version: 2.1.0 Build 141)  -->
  <defs>
    <style>
      .st0 {
        fill: #1d1d1b;
      }
    </style>
  </defs>
  <path class="st0" d="M129.32,210.06c1.2-1.47,2.13-3.04,2.75-4.68.62-1.63.93-3.52.93-5.63,0-2.55-.49-4.84-1.46-6.82-.96-1.96-2.39-3.52-4.23-4.64-1.84-1.12-4.16-1.68-6.89-1.68-2.42,0-4.67.5-6.67,1.5-1.99.99-3.6,2.46-4.81,4.36-1.12,1.79-1.75,3.95-1.87,6.44h1.96c.11-1.99.6-3.78,1.47-5.31.94-1.66,2.28-2.97,3.97-3.89,1.68-.91,3.68-1.37,5.95-1.37s4.31.5,5.88,1.48c1.58.99,2.78,2.35,3.57,4.06.78,1.68,1.17,3.64,1.17,5.83s-.3,4.07-.88,5.56c-.59,1.49-1.43,2.86-2.51,4.09-1.03,1.17-2.29,2.48-3.74,3.91-1.46,1.36-2.61,2.65-3.45,3.85-.82,1.18-1.42,2.46-1.77,3.81-.33,1.25-.52,2.72-.56,4.38h1.92c.05-1.94.39-3.79,1.02-5.53.69-1.91,1.97-3.61,3.78-5.04,1.74-1.6,3.25-3.18,4.49-4.67Z"/>
  <path class="st0" d="M119.23,240.42c.58,0,1.05-.18,1.42-.56.37-.37.56-.81.56-1.35s-.18-.97-.56-1.35c-.37-.37-.84-.56-1.42-.56s-1.03.18-1.37.55c-.36.37-.53.82-.53,1.36s.17.98.53,1.36c.35.37.8.55,1.37.55Z"/>
</svg>