<?xml version="1.0" encoding="UTF-8"?>
<svg id="Capa_1" xmlns="http://www.w3.org/2000/svg" version="1.1" viewBox="0 0 1920 1080">
  <!-- Generator: Adobe Illustrator 29.5.1, SVG Export Plug-In . SVG Version: 2.1.0 Build 141)  -->
  <defs>
    <style>
      .st0 {
        fill: #1d1d1b;
      }
    </style>
  </defs>
  <g>
    <path class="st0" d="M1230.02,101.83c-.77,0-1.47-.13-2.11-.38-.64-.25-1.2-.63-1.66-1.15-.46-.52-.82-1.17-1.08-1.96-.26-.79-.38-1.72-.38-2.79v-1.58c0-1.15.14-2.14.41-2.96.27-.82.64-1.5,1.1-2.02s.99-.91,1.59-1.15c.6-.24,1.23-.36,1.89-.36.76,0,1.42.12,2,.37.58.25,1.06.62,1.45,1.12.39.5.69,1.14.88,1.9.2.76.29,1.66.29,2.7v1.19h-8.77v-1.34h7.35v-.35c-.02-.9-.14-1.67-.38-2.31-.23-.63-.59-1.12-1.05-1.46-.47-.34-1.06-.5-1.78-.5-.52,0-1,.1-1.44.29-.44.19-.82.49-1.14.9-.32.41-.56.94-.73,1.6-.17.66-.25,1.45-.25,2.38v1.58c0,.84.09,1.57.27,2.19s.44,1.12.79,1.53c.34.41.75.71,1.23.91s1,.3,1.58.3c.71,0,1.33-.12,1.87-.36s1.02-.61,1.44-1.11l.74.95c-.25.33-.56.64-.93.93-.37.29-.82.51-1.34.68s-1.14.26-1.85.26Z"/>
    <path class="st0" d="M1239.01,81.93v19.63h-1.42v-19.63h1.42Z"/>
    <path class="st0" d="M1250.27,90.39v16.48h-1.42v-19.14h1.33l.09,2.66ZM1258.29,94.01v1.29c0,1.12-.1,2.08-.29,2.9-.2.82-.49,1.5-.87,2.03s-.85.94-1.4,1.2c-.55.26-1.18.4-1.88.4s-1.29-.12-1.81-.36c-.53-.24-.98-.58-1.35-1.02-.37-.44-.67-.95-.89-1.54-.22-.59-.37-1.24-.45-1.96v-4.26c.1-.78.26-1.5.49-2.13.22-.64.52-1.19.89-1.65s.82-.81,1.34-1.06c.52-.25,1.11-.37,1.78-.37.72,0,1.35.12,1.9.37.55.25,1.02.63,1.41,1.15s.67,1.19.87,2.03c.2.83.29,1.83.29,2.98ZM1256.88,95.3v-1.29c0-.89-.07-1.66-.2-2.31s-.34-1.18-.62-1.6c-.28-.43-.63-.74-1.06-.95s-.94-.31-1.51-.31-1.09.11-1.51.33c-.42.22-.77.5-1.05.86-.28.36-.5.75-.66,1.17s-.29.84-.36,1.25v4.84c.14.56.36,1.09.65,1.58.29.49.68.88,1.16,1.18.49.3,1.09.45,1.8.45.58,0,1.08-.1,1.5-.31.42-.21.77-.53,1.05-.96s.48-.97.62-1.62c.14-.65.2-1.41.2-2.3Z"/>
    <path class="st0" d="M1263.16,81.93v19.63h-1.42v-19.63h1.42Z"/>
    <path class="st0" d="M1274.46,93.49l.03,1.21h-2.47c-.66,0-1.23.07-1.74.22-.5.14-.92.35-1.26.63-.34.27-.59.6-.76.97s-.26.81-.26,1.29c0,.61.1,1.11.29,1.5.2.38.49.67.87.85.38.18.83.27,1.35.27.7,0,1.31-.14,1.85-.42.53-.28.97-.65,1.31-1.11.34-.46.56-.96.66-1.48l.38.87c-.09.38-.24.78-.47,1.19-.23.41-.53.8-.89,1.15s-.8.64-1.3.86c-.5.22-1.06.33-1.69.33-.77,0-1.43-.15-2-.43-.57-.29-1.01-.73-1.32-1.32s-.47-1.31-.47-2.17c0-.64.11-1.23.33-1.76.22-.54.54-1.01.98-1.41.43-.4.98-.71,1.64-.93.66-.22,1.42-.33,2.29-.33h2.65ZM1274.15,99.08v-7.53c0-.65-.11-1.17-.33-1.58-.22-.4-.54-.7-.97-.89-.43-.19-.95-.28-1.58-.28-.58,0-1.1.12-1.55.35-.46.23-.81.56-1.06.97-.25.41-.38.89-.38,1.42h-1.42c0-.55.1-1.06.31-1.55.21-.49.51-.92.91-1.3.4-.38.87-.68,1.42-.9.55-.22,1.16-.33,1.83-.33.83,0,1.56.13,2.2.4.64.26,1.14.7,1.5,1.3.36.6.54,1.41.54,2.4v7.07c0,.49.03.98.1,1.5s.15.92.26,1.24v.18h-1.5c-.09-.3-.16-.68-.21-1.15-.05-.47-.07-.91-.07-1.33Z"/>
    <path class="st0" d="M1280.87,90.69v10.87h-1.42v-13.83h1.37l.05,2.95ZM1280.55,93.79l-.63-.37c.03-.82.17-1.58.4-2.3.23-.72.56-1.35.96-1.9.41-.55.89-.98,1.44-1.28s1.17-.46,1.84-.46c.58,0,1.1.09,1.55.28.46.19.84.48,1.16.88.32.4.56.92.73,1.57s.26,1.42.26,2.33v9.02h-1.42v-9.02c0-.95-.11-1.69-.32-2.22-.21-.54-.52-.92-.91-1.14-.4-.23-.87-.34-1.42-.34-.59,0-1.11.16-1.55.47-.45.32-.83.72-1.14,1.23-.31.5-.55,1.04-.71,1.62-.16.57-.25,1.12-.26,1.64Z"/>
    <path class="st0" d="M1291.53,95.36v-1.43c0-1.05.12-1.97.36-2.78.24-.8.59-1.48,1.04-2.02.45-.55.98-.96,1.6-1.23.62-.28,1.3-.42,2.04-.42s1.45.14,2.06.42,1.15.69,1.6,1.23c.45.54.79,1.22,1.04,2.02.25.81.37,1.73.37,2.78v1.43c0,1.05-.12,1.97-.37,2.77-.25.8-.59,1.48-1.04,2.03-.45.55-.98.96-1.6,1.25s-1.3.42-2.04.42-1.44-.14-2.06-.42-1.15-.7-1.6-1.25c-.46-.55-.81-1.22-1.05-2.03-.24-.8-.36-1.73-.36-2.77ZM1292.96,93.93v1.43c0,.79.08,1.5.24,2.13.16.63.4,1.17.7,1.61.31.44.69.78,1.14,1.02.45.24.97.36,1.56.36s1.13-.12,1.59-.36c.46-.24.83-.58,1.14-1.02.3-.44.53-.98.68-1.61s.22-1.34.22-2.13v-1.43c0-.78-.08-1.49-.24-2.11-.16-.63-.4-1.16-.72-1.61s-.7-.79-1.15-1.04-.96-.36-1.54-.36-1.07.12-1.52.36-.83.59-1.14,1.04-.55.98-.71,1.61c-.16.63-.24,1.33-.24,2.11Z"/>
    <path class="st0" d="M1312.21,90.39v16.48h-1.42v-19.14h1.33l.09,2.66ZM1320.23,94.01v1.29c0,1.12-.1,2.08-.29,2.9-.2.82-.49,1.5-.87,2.03s-.85.94-1.4,1.2c-.55.26-1.18.4-1.88.4s-1.29-.12-1.81-.36c-.53-.24-.98-.58-1.35-1.02-.37-.44-.67-.95-.89-1.54-.22-.59-.37-1.24-.45-1.96v-4.26c.1-.78.26-1.5.49-2.13.22-.64.52-1.19.89-1.65s.82-.81,1.34-1.06c.52-.25,1.11-.37,1.78-.37.72,0,1.35.12,1.9.37.55.25,1.02.63,1.41,1.15s.67,1.19.87,2.03c.2.83.29,1.83.29,2.98ZM1318.81,95.3v-1.29c0-.89-.07-1.66-.2-2.31s-.34-1.18-.62-1.6c-.28-.43-.63-.74-1.06-.95s-.94-.31-1.51-.31-1.09.11-1.51.33c-.42.22-.77.5-1.05.86-.28.36-.5.75-.66,1.17s-.29.84-.36,1.25v4.84c.14.56.36,1.09.65,1.58.29.49.68.88,1.16,1.18.49.3,1.09.45,1.8.45.58,0,1.08-.1,1.5-.31.42-.21.77-.53,1.05-.96s.48-.97.62-1.62c.14-.65.2-1.41.2-2.3Z"/>
    <path class="st0" d="M1324.95,90.01v11.55h-1.42v-13.83h1.38l.04,2.27ZM1328.97,87.63l-.04,1.43c-.15-.03-.29-.06-.42-.07-.14-.01-.29-.02-.46-.02-.54,0-1.01.12-1.41.36-.4.24-.74.57-1.02,1s-.49.93-.64,1.5c-.15.57-.24,1.18-.26,1.83l-.5.22c0-.89.08-1.73.23-2.5.15-.77.39-1.46.71-2.04s.72-1.04,1.21-1.37,1.07-.49,1.73-.49c.15,0,.31.01.48.04.17.03.29.07.38.11Z"/>
    <path class="st0" d="M1335.78,101.83c-.77,0-1.47-.13-2.11-.38-.64-.25-1.2-.63-1.66-1.15-.46-.52-.82-1.17-1.08-1.96-.26-.79-.38-1.72-.38-2.79v-1.58c0-1.15.14-2.14.41-2.96.27-.82.64-1.5,1.1-2.02s.99-.91,1.59-1.15c.6-.24,1.23-.36,1.89-.36.76,0,1.42.12,2,.37.58.25,1.06.62,1.45,1.12.39.5.69,1.14.88,1.9.2.76.29,1.66.29,2.7v1.19h-8.77v-1.34h7.35v-.35c-.02-.9-.14-1.67-.38-2.31-.23-.63-.59-1.12-1.05-1.46-.47-.34-1.06-.5-1.78-.5-.52,0-1,.1-1.44.29-.44.19-.82.49-1.14.9-.32.41-.56.94-.73,1.6-.17.66-.25,1.45-.25,2.38v1.58c0,.84.09,1.57.27,2.19s.44,1.12.79,1.53c.34.41.75.71,1.23.91s1,.3,1.58.3c.71,0,1.33-.12,1.87-.36s1.02-.61,1.44-1.11l.74.95c-.25.33-.56.64-.93.93-.37.29-.82.51-1.34.68s-1.14.26-1.85.26Z"/>
    <path class="st0" d="M1343.27,87.74l3.67,12.36.2,1.47h-1.02l-4.32-13.83h1.47ZM1346.49,100.07l3.62-12.33h1.46l-4.29,13.83h-1.04l.26-1.5Z"/>
    <path class="st0" d="M1354.08,83.75c0-.3.08-.55.25-.75s.4-.3.7-.3.52.1.68.3.25.45.25.75-.08.53-.25.73-.39.29-.68.29-.53-.1-.7-.29-.25-.44-.25-.73ZM1355.72,87.74v13.83h-1.42v-13.83h1.42Z"/>
    <path class="st0" d="M1359.14,95.36v-1.43c0-1.05.12-1.97.36-2.78.24-.8.59-1.48,1.04-2.02.45-.55.98-.96,1.6-1.23.62-.28,1.3-.42,2.04-.42s1.45.14,2.06.42,1.15.69,1.6,1.23c.45.54.79,1.22,1.04,2.02.25.81.37,1.73.37,2.78v1.43c0,1.05-.12,1.97-.37,2.77-.25.8-.59,1.48-1.04,2.03-.45.55-.98.96-1.6,1.25s-1.3.42-2.04.42-1.44-.14-2.06-.42-1.15-.7-1.6-1.25c-.46-.55-.81-1.22-1.05-2.03-.24-.8-.36-1.73-.36-2.77ZM1360.58,93.93v1.43c0,.79.08,1.5.24,2.13.16.63.4,1.17.7,1.61.31.44.69.78,1.14,1.02.45.24.97.36,1.56.36s1.13-.12,1.59-.36c.46-.24.83-.58,1.14-1.02.3-.44.53-.98.68-1.61s.22-1.34.22-2.13v-1.43c0-.78-.08-1.49-.24-2.11-.16-.63-.4-1.16-.72-1.61s-.7-.79-1.15-1.04-.96-.36-1.54-.36-1.07.12-1.52.36-.83.59-1.14,1.04-.55.98-.71,1.61c-.16.63-.24,1.33-.24,2.11Z"/>
    <path class="st0" d="M1385.75,93.49l.03,1.21h-2.47c-.66,0-1.23.07-1.74.22-.5.14-.92.35-1.26.63-.34.27-.59.6-.76.97s-.26.81-.26,1.29c0,.61.1,1.11.29,1.5.2.38.49.67.87.85.38.18.83.27,1.35.27.7,0,1.31-.14,1.85-.42.53-.28.97-.65,1.31-1.11s.56-.96.67-1.48l.38.87c-.08.38-.24.78-.47,1.19-.23.41-.53.8-.89,1.15s-.8.64-1.3.86c-.5.22-1.06.33-1.69.33-.77,0-1.43-.15-2-.43-.57-.29-1.01-.73-1.32-1.32s-.47-1.31-.47-2.17c0-.64.11-1.23.33-1.76.22-.54.54-1.01.98-1.41.43-.4.98-.71,1.64-.93.66-.22,1.42-.33,2.29-.33h2.64ZM1385.44,99.08v-7.53c0-.65-.11-1.17-.33-1.58s-.54-.7-.97-.89c-.43-.19-.95-.28-1.58-.28-.58,0-1.1.12-1.55.35-.46.23-.81.56-1.06.97-.25.41-.38.89-.38,1.42h-1.42c0-.55.1-1.06.31-1.55.21-.49.51-.92.91-1.3.4-.38.87-.68,1.42-.9.55-.22,1.16-.33,1.83-.33.83,0,1.56.13,2.2.4.64.26,1.14.7,1.5,1.3.36.6.54,1.41.54,2.4v7.07c0,.49.03.98.1,1.5s.15.92.26,1.24v.18h-1.5c-.09-.3-.16-.68-.21-1.15-.05-.47-.07-.91-.07-1.33Z"/>
    <path class="st0" d="M1396.12,95.3v-1.29c0-1.16.1-2.15.31-2.98s.51-1.51.9-2.03.87-.9,1.42-1.15c.56-.25,1.18-.37,1.87-.37s1.26.12,1.77.37c.51.25.94.6,1.3,1.06.36.46.65,1.01.87,1.65.22.64.38,1.35.49,2.13v4.13c-.09.72-.24,1.4-.45,2.01-.22.62-.51,1.15-.87,1.59-.36.44-.8.79-1.32,1.04-.52.25-1.12.37-1.8.37s-1.3-.13-1.85-.4c-.55-.26-1.03-.66-1.42-1.2s-.69-1.21-.9-2.03-.31-1.78-.31-2.9ZM1397.56,94.01v1.29c0,.89.07,1.65.2,2.29.14.64.34,1.18.61,1.6.27.43.62.74,1.04.95.42.21.91.31,1.48.31.72,0,1.33-.15,1.81-.45.49-.3.88-.7,1.17-1.2.29-.5.51-1.05.65-1.64v-4.73c-.08-.41-.2-.82-.36-1.25s-.39-.81-.66-1.17c-.28-.36-.63-.65-1.05-.86s-.93-.33-1.53-.33-1.08.1-1.51.31-.78.53-1.05.95c-.27.43-.47.96-.61,1.6-.13.64-.2,1.41-.2,2.31ZM1404.15,98.88v-16.94h1.42v19.63h-1.33l-.09-2.68Z"/>
    <path class="st0" d="M1409.34,83.75c0-.3.08-.55.25-.75.17-.2.4-.3.7-.3s.52.1.68.3c.17.2.25.45.25.75s-.08.53-.25.73c-.17.2-.39.29-.68.29s-.53-.1-.7-.29c-.17-.2-.25-.44-.25-.73ZM1410.97,87.74v13.83h-1.42v-13.83h1.42Z"/>
    <path class="st0" d="M1414.92,81.93h1.42v16.94l-.09,2.68h-1.33v-19.63ZM1424.38,94.01v1.29c0,1.12-.1,2.08-.29,2.9-.2.82-.49,1.5-.87,2.03-.38.54-.85.94-1.4,1.2-.55.26-1.18.4-1.88.4s-1.29-.12-1.81-.37c-.52-.25-.96-.59-1.32-1.04-.36-.44-.65-.97-.87-1.59-.22-.62-.37-1.29-.45-2.01v-4.13c.1-.78.26-1.5.49-2.13.22-.64.52-1.19.88-1.65s.8-.81,1.3-1.06,1.09-.37,1.76-.37c.72,0,1.35.12,1.9.37s1.02.63,1.41,1.15c.38.52.67,1.19.87,2.03.2.83.29,1.83.29,2.98ZM1422.95,95.3v-1.29c0-.89-.06-1.65-.19-2.3-.12-.65-.32-1.18-.59-1.61-.27-.43-.61-.74-1.04-.95-.42-.21-.93-.31-1.53-.31s-1.09.11-1.51.33-.77.5-1.04.86c-.27.36-.49.75-.66,1.17s-.29.84-.36,1.25v4.73c.12.56.32,1.1.61,1.6s.68.92,1.18,1.23c.49.31,1.1.47,1.81.47.58,0,1.08-.1,1.49-.31.41-.21.76-.53,1.03-.95.27-.43.47-.96.6-1.6.13-.64.19-1.41.19-2.29Z"/>
    <path class="st0" d="M1435.3,95.79l.69-.03c0,.87-.08,1.67-.26,2.41-.17.74-.44,1.38-.8,1.92-.36.54-.83.96-1.41,1.27-.58.31-1.28.46-2.1.46-.57,0-1.09-.1-1.56-.29-.47-.2-.87-.5-1.21-.91-.34-.41-.6-.95-.78-1.61-.18-.66-.28-1.46-.28-2.41v-8.86h1.42v8.88c0,.72.07,1.34.2,1.83.14.5.33.89.57,1.18.24.29.52.5.82.63.31.13.63.19.98.19.93,0,1.66-.21,2.2-.65.54-.43.92-1,1.15-1.71.23-.71.35-1.48.35-2.31ZM1435.05,98.37v-10.63h1.42v13.83h-1.37l-.05-3.19Z"/>
    <path class="st0" d="M1440.35,87.74h1.44v15.47c0,.84-.12,1.56-.35,2.15-.23.59-.58,1.03-1.03,1.33-.45.3-1.01.45-1.67.45-.19,0-.38-.02-.59-.06-.21-.04-.39-.1-.56-.18v-1.29c.13.03.28.07.46.11.18.04.34.06.5.06.39,0,.72-.1.98-.29.26-.19.47-.48.61-.86.14-.38.21-.85.21-1.42v-15.47ZM1440.13,83.75c0-.3.08-.55.25-.75s.39-.3.68-.3.53.1.7.3c.17.2.25.45.25.75s-.08.53-.25.73c-.17.2-.41.29-.7.29s-.52-.1-.68-.29-.25-.44-.25-.73Z"/>
    <path class="st0" d="M1453.18,93.49l.03,1.21h-2.47c-.66,0-1.24.07-1.74.22-.5.14-.92.35-1.26.63-.34.27-.59.6-.76.97-.17.38-.25.81-.25,1.29,0,.61.1,1.11.29,1.5.2.38.49.67.87.85.38.18.83.27,1.35.27.7,0,1.31-.14,1.85-.42.53-.28.97-.65,1.31-1.11s.56-.96.67-1.48l.38.87c-.08.38-.24.78-.47,1.19-.23.41-.53.8-.89,1.15s-.8.64-1.3.86c-.5.22-1.06.33-1.69.33-.77,0-1.43-.15-2-.43s-1-.73-1.32-1.32c-.31-.59-.47-1.31-.47-2.17,0-.64.11-1.23.33-1.76.22-.54.54-1.01.98-1.41s.98-.71,1.64-.93c.66-.22,1.42-.33,2.29-.33h2.64ZM1452.87,99.08v-7.53c0-.65-.11-1.17-.33-1.58s-.54-.7-.97-.89c-.43-.19-.95-.28-1.58-.28-.58,0-1.1.12-1.55.35-.46.23-.81.56-1.06.97-.25.41-.38.89-.38,1.42h-1.42c0-.55.1-1.06.31-1.55.21-.49.51-.92.91-1.3.4-.38.87-.68,1.42-.9.55-.22,1.16-.33,1.83-.33.83,0,1.56.13,2.2.4.64.26,1.14.7,1.5,1.3.36.6.54,1.41.54,2.4v7.07c0,.49.03.98.1,1.5s.15.92.26,1.24v.18h-1.5c-.09-.3-.16-.68-.21-1.15-.05-.47-.07-.91-.07-1.33Z"/>
    <path class="st0" d="M1459.6,90.01v11.55h-1.42v-13.83h1.38l.04,2.27ZM1463.62,87.63l-.04,1.43c-.15-.03-.29-.06-.42-.07-.14-.01-.29-.02-.46-.02-.54,0-1.01.12-1.41.36-.4.24-.74.57-1.02,1-.28.43-.49.93-.64,1.5-.15.57-.24,1.18-.26,1.83l-.5.22c0-.89.08-1.73.23-2.5.15-.77.39-1.46.71-2.04s.72-1.04,1.21-1.37,1.07-.49,1.73-.49c.15,0,.31.01.48.04.17.03.29.07.38.11Z"/>
    <path class="st0" d="M1473.56,81.93v19.63h-1.42v-19.63h1.42Z"/>
    <path class="st0" d="M1477.48,85.67l2.44-3.58h1.85l-2.96,3.58h-1.33ZM1479.08,87.74v13.83h-1.43v-13.83h1.43Z"/>
    <path class="st0" d="M1484.45,90.69v10.87h-1.42v-13.83h1.37l.05,2.95ZM1484.13,93.79l-.63-.37c.03-.82.17-1.58.4-2.3.23-.72.56-1.35.96-1.9s.89-.98,1.44-1.28c.55-.31,1.17-.46,1.84-.46.58,0,1.1.09,1.55.28.46.19.84.48,1.16.88s.56.92.74,1.57c.17.64.25,1.42.25,2.33v9.02h-1.42v-9.02c0-.95-.11-1.69-.32-2.22s-.52-.92-.91-1.14c-.4-.23-.87-.34-1.42-.34-.59,0-1.11.16-1.55.47-.45.32-.83.72-1.14,1.23-.31.5-.55,1.04-.71,1.62-.16.57-.25,1.12-.26,1.64Z"/>
    <path class="st0" d="M1500.2,101.83c-.77,0-1.47-.13-2.12-.38-.64-.25-1.2-.63-1.66-1.15-.46-.52-.82-1.17-1.08-1.96-.26-.79-.38-1.72-.38-2.79v-1.58c0-1.15.14-2.14.41-2.96s.64-1.5,1.11-2.02c.46-.52.99-.91,1.59-1.15.6-.24,1.23-.36,1.89-.36.76,0,1.42.12,2,.37s1.06.62,1.45,1.12c.39.5.69,1.14.88,1.9s.29,1.66.29,2.7v1.19h-8.77v-1.34h7.35v-.35c-.02-.9-.14-1.67-.38-2.31-.23-.63-.59-1.12-1.05-1.46s-1.06-.5-1.78-.5c-.52,0-1,.1-1.44.29-.44.19-.82.49-1.14.9-.32.41-.56.94-.73,1.6-.17.66-.25,1.45-.25,2.38v1.58c0,.84.09,1.57.27,2.19.18.61.45,1.12.79,1.53.34.41.75.71,1.23.91.48.2,1,.3,1.58.3.71,0,1.33-.12,1.87-.36s1.02-.61,1.44-1.11l.74.95c-.25.33-.56.64-.93.93-.37.29-.82.51-1.34.68-.52.17-1.14.26-1.85.26Z"/>
    <path class="st0" d="M1514.96,93.49l.03,1.21h-2.47c-.66,0-1.24.07-1.74.22-.5.14-.92.35-1.26.63-.34.27-.59.6-.76.97-.17.38-.25.81-.25,1.29,0,.61.1,1.11.29,1.5.2.38.49.67.87.85.38.18.83.27,1.35.27.7,0,1.31-.14,1.85-.42.53-.28.97-.65,1.31-1.11s.56-.96.67-1.48l.38.87c-.08.38-.24.78-.47,1.19-.23.41-.53.8-.89,1.15s-.8.64-1.3.86c-.5.22-1.06.33-1.69.33-.77,0-1.43-.15-2-.43s-1-.73-1.32-1.32c-.31-.59-.47-1.31-.47-2.17,0-.64.11-1.23.33-1.76.22-.54.54-1.01.98-1.41s.98-.71,1.64-.93c.66-.22,1.42-.33,2.29-.33h2.64ZM1514.66,99.08v-7.53c0-.65-.11-1.17-.33-1.58s-.54-.7-.97-.89c-.43-.19-.95-.28-1.58-.28-.58,0-1.1.12-1.55.35-.46.23-.81.56-1.06.97-.25.41-.38.89-.38,1.42h-1.42c0-.55.1-1.06.31-1.55.21-.49.51-.92.91-1.3.4-.38.87-.68,1.42-.9.55-.22,1.16-.33,1.83-.33.83,0,1.56.13,2.2.4.64.26,1.14.7,1.5,1.3.36.6.54,1.41.54,2.4v7.07c0,.49.03.98.1,1.5s.15.92.26,1.24v.18h-1.5c-.09-.3-.16-.68-.21-1.15-.05-.47-.07-.91-.07-1.33Z"/>
    <path class="st0" d="M1526.87,98.16c0-.38-.1-.73-.29-1.05-.2-.31-.52-.63-.98-.93-.46-.31-1.08-.64-1.86-1-.62-.28-1.18-.55-1.67-.82-.49-.26-.91-.54-1.25-.84-.34-.3-.6-.64-.78-1.02-.18-.38-.28-.83-.28-1.35s.1-1,.29-1.44c.2-.44.48-.83.84-1.17.36-.34.8-.6,1.3-.79.51-.19,1.08-.28,1.71-.28.9,0,1.67.17,2.31.52.64.35,1.13.82,1.48,1.42.35.6.52,1.3.52,2.1h-1.43c0-.48-.11-.92-.34-1.33-.23-.41-.55-.74-.98-1-.43-.26-.95-.38-1.57-.38s-1.16.11-1.57.34-.7.51-.88.86c-.18.35-.27.72-.27,1.1,0,.28.04.53.13.75.09.22.24.43.46.63.22.2.52.41.92.63.4.22.89.47,1.48.77.85.37,1.58.73,2.2,1.09.61.36,1.09.78,1.42,1.27.33.48.5,1.09.5,1.82,0,.57-.1,1.09-.31,1.55s-.49.86-.87,1.19-.83.58-1.36.75c-.53.17-1.12.26-1.77.26-.99,0-1.83-.19-2.51-.56-.69-.38-1.21-.87-1.56-1.48s-.53-1.28-.53-1.99h1.42c.03.72.21,1.28.54,1.67.33.39.73.66,1.21.81.48.15.95.22,1.43.22.62,0,1.15-.1,1.58-.31.43-.2.76-.48.98-.84.22-.35.33-.74.33-1.17Z"/>
  </g>
  <g>
    <path d="M1321.22,168.02c-.99-1.09-2.18-1.94-3.57-2.56-1.39-.62-2.94-.93-4.66-.93h-10.56c-.31,0-.56.11-.74.34-.18.23-.27.51-.27.85v47.71c0,.36.08.66.25.89.17.23.42.34.76.34h2.07c.36,0,.62-.11.76-.34.15-.23.22-.53.22-.89v-14.48h7.51c1.69,0,3.24-.3,4.64-.91,1.4-.6,2.6-1.44,3.59-2.5.99-1.06,1.76-2.33,2.3-3.79.54-1.46.82-3.05.82-4.77v-10.38c0-1.69-.27-3.28-.82-4.75-.54-1.47-1.31-2.76-2.3-3.85ZM1320.24,187.11c0,1.16-.17,2.24-.51,3.23-.34.99-.83,1.86-1.49,2.59-.65.74-1.44,1.31-2.36,1.72-.92.41-1.96.62-3.12.62h-7.29v-26.99h7.26c1.18,0,2.24.22,3.17.65.93.44,1.72,1.03,2.36,1.78.64.75,1.13,1.63,1.47,2.65.34,1.02.51,2.12.51,3.3v10.45Z"/>
    <path d="M1349.05,210.98h-13.61v-45.24c0-.34-.08-.62-.24-.85-.16-.23-.41-.34-.74-.34h-2.07c-.34,0-.59.11-.76.34-.17.23-.25.51-.25.85v47.71c0,.36.08.66.25.89.17.23.42.34.76.34h16.65c.24,0,.47-.1.67-.29.21-.19.31-.47.31-.83v-1.71c0-.36-.1-.6-.31-.71-.21-.11-.43-.16-.67-.16Z"/>
    <path d="M1368.21,165.41c-.07-.34-.2-.57-.38-.69-.18-.12-.38-.18-.6-.18h-1.85c-.19,0-.39.06-.58.18-.19.12-.33.35-.4.69l-10.52,48.04c-.1.34-.07.63.09.87.16.24.38.36.67.36h2.21c.17,0,.36-.05.56-.16.21-.11.34-.33.42-.67l1.74-8.56h13.42l1.78,8.56c.05.34.19.56.42.67.23.11.43.16.6.16h2.18c.31,0,.54-.11.67-.34.13-.23.16-.51.09-.85l-10.52-48.07ZM1360.26,201.91l5.84-28.12.18-1.49.22,1.49,5.81,28.12h-12.05Z"/>
    <path d="M1407.86,164.54h-1.85c-.36,0-.62.11-.78.34-.16.23-.24.51-.24.85l.11,37.95.11,2.65-.73-2.76-15.17-38.2c-.1-.27-.25-.46-.47-.58-.17-.17-.38-.25-.62-.25h-1.92c-.31,0-.56.11-.74.34-.18.23-.27.51-.27.85v47.71c0,.36.08.66.25.89.17.23.42.34.76.34h1.89c.34,0,.59-.11.74-.34.16-.23.24-.53.24-.89l-.11-37.73-.07-2.03.51,1.78,15.27,38.46c.12.34.3.55.54.63.24.09.45.13.62.13h1.85c.34,0,.6-.11.8-.33.19-.22.29-.51.29-.87v-47.75c0-.36-.09-.65-.25-.87-.17-.22-.42-.33-.76-.33Z"/>
    <path d="M1437.25,166.99c-1.04-1-2.26-1.78-3.65-2.34-1.39-.56-2.86-.83-4.41-.83s-3.09.28-4.48.83c-1.39.56-2.61,1.34-3.66,2.34-1.05,1-1.88,2.19-2.49,3.56-.6,1.37-.91,2.85-.91,4.44v29.32c0,1.57.3,3.04.91,4.39.6,1.36,1.43,2.53,2.47,3.52,1.04.99,2.26,1.77,3.65,2.34,1.39.57,2.87.85,4.44.85s3.05-.28,4.44-.83c1.39-.56,2.61-1.33,3.66-2.32,1.05-.99,1.89-2.16,2.5-3.52.62-1.35.93-2.83.93-4.43v-29.32c0-1.6-.31-3.08-.93-4.44-.62-1.37-1.45-2.55-2.49-3.56ZM1436.6,204.27c0,1.02-.19,1.98-.58,2.88-.39.91-.91,1.7-1.58,2.38-.67.68-1.46,1.21-2.38,1.6-.92.39-1.9.58-2.94.58s-2.01-.2-2.9-.6c-.89-.4-1.68-.94-2.34-1.61-.67-.68-1.19-1.47-1.56-2.38-.38-.91-.56-1.88-.56-2.92v-29.1c0-1.04.19-2.03.56-2.96.37-.93.89-1.74,1.56-2.43.67-.69,1.45-1.23,2.36-1.63s1.89-.6,2.96-.6,2.01.2,2.9.6c.89.4,1.67.94,2.34,1.63.67.69,1.19,1.5,1.58,2.43.39.93.58,1.92.58,2.96v29.17Z"/>
    <path d="M1451.18,164.57c-.29,0-.52.11-.69.33-.17.22-.25.48-.25.8v47.82c0,.34.07.62.22.83s.39.33.73.33c.29-.02.5-.14.62-.34.12-.21.18-.48.18-.82v-47.82c0-.29-.07-.54-.2-.76-.13-.22-.33-.34-.6-.36Z"/>
    <path d="M1484.56,164.57h-.04c-.34,0-.57.11-.69.33s-.18.48-.18.8v42.34l.07,2.07-.65-2.07-17.63-42.81c-.07-.17-.16-.3-.27-.38-.11-.08-.21-.15-.31-.2l-.22-.07h-.11c-.27.02-.48.15-.63.36-.16.22-.24.47-.24.76v47.82c0,.34.05.62.16.83s.33.33.67.33h.04c.34,0,.57-.11.69-.33.12-.22.18-.5.18-.83v-42.74l-.07-1.31.36.98,17.89,43.61c.1.22.22.37.36.45.15.09.28.14.4.16h.18c.27-.02.48-.14.63-.34.16-.21.24-.47.24-.78v-47.86c0-.31-.05-.58-.16-.8s-.33-.33-.67-.33Z"/>
    <path d="M1514.61,164.57h-.04c-.1,0-.24.04-.44.13-.19.09-.33.27-.4.56l-9.72,44.12-.15.76-.11-.76-9.72-44.12c-.07-.29-.21-.48-.4-.56-.19-.08-.34-.13-.44-.13h-.04c-.27,0-.48.11-.65.34-.17.23-.22.5-.15.82l10.7,48.22c.07.31.19.51.36.6.17.09.33.13.47.13s.3-.04.45-.13c.16-.08.27-.28.34-.6l10.7-48.25c.07-.29.03-.55-.13-.78-.16-.23-.38-.34-.67-.34Z"/>
    <path d="M1523.28,164.57c-.29,0-.52.11-.69.33s-.25.48-.25.8v47.82c0,.34.07.62.22.83s.39.33.73.33c.29-.02.5-.14.62-.34.12-.21.18-.48.18-.82v-47.82c0-.29-.07-.54-.2-.76s-.33-.34-.6-.36Z"/>
    <path d="M1554.23,197.95c-.44-.89-.98-1.73-1.63-2.5-.65-.77-1.4-1.55-2.25-2.32-.85-.77-1.78-1.59-2.81-2.45-1.03-.86-2.13-1.83-3.32-2.92-.7-.63-1.53-1.32-2.49-2.09s-1.87-1.63-2.74-2.59c-.87-.97-1.61-2.06-2.21-3.28-.6-1.22-.91-2.63-.91-4.23,0-2.01.31-3.66.93-4.97s1.38-2.33,2.29-3.08c.91-.75,1.87-1.27,2.88-1.56s1.91-.44,2.68-.44c1.35,0,2.56.27,3.61.8,1.05.53,1.94,1.22,2.65,2.07.71.85,1.26,1.8,1.63,2.87.37,1.06.56,2.14.56,3.23v2.29c0,.31.05.58.16.8s.33.33.67.33h.04c.34,0,.57-.1.69-.31.12-.21.18-.49.18-.85v-2.25c0-1.35-.24-2.67-.71-3.94s-1.15-2.4-2.03-3.39c-.88-.99-1.95-1.79-3.21-2.39-1.26-.6-2.67-.91-4.24-.91-.31,0-.79.04-1.43.13-.64.09-1.35.27-2.12.54-.77.28-1.57.68-2.39,1.22-.82.53-1.57,1.23-2.25,2.09-.68.86-1.23,1.92-1.67,3.19s-.65,2.79-.65,4.55c0,1.67.28,3.16.83,4.46s1.28,2.5,2.18,3.59,1.89,2.1,2.99,3.03c1.1.93,2.2,1.84,3.28,2.74,1.94,1.65,3.57,3.05,4.9,4.23,1.33,1.17,2.4,2.31,3.21,3.41.81,1.1,1.4,2.26,1.76,3.46.36,1.21.54,2.66.54,4.35,0,1.23-.25,2.39-.74,3.46-.5,1.08-1.17,2.01-2.01,2.81s-1.82,1.42-2.92,1.87c-1.1.45-2.27.67-3.5.67-.85,0-1.78-.16-2.79-.49s-1.97-.86-2.85-1.61c-.88-.75-1.63-1.73-2.23-2.94-.6-1.21-.91-2.68-.91-4.43v-1.81c0-.29-.07-.53-.22-.73-.15-.19-.35-.29-.62-.29h-.04c-.34,0-.57.11-.69.33s-.18.45-.18.69v1.81c0,1.98.33,3.68,1,5.08.67,1.4,1.51,2.56,2.54,3.46,1.03.91,2.16,1.57,3.41,2s2.44.63,3.57.63c1.55,0,2.99-.3,4.32-.89s2.49-1.38,3.46-2.36,1.75-2.1,2.3-3.37c.56-1.27.83-2.57.83-3.9,0-1.47-.11-2.77-.34-3.88-.23-1.11-.56-2.12-1-3.01Z"/>
    <path d="M1565.47,164.57c-.29,0-.52.11-.69.33s-.25.48-.25.8v47.82c0,.34.07.62.22.83s.39.33.73.33c.29-.02.5-.14.62-.34.12-.21.18-.48.18-.82v-47.82c0-.29-.07-.54-.2-.76s-.33-.34-.6-.36Z"/>
    <path d="M1595.64,190.97c-.76-.81-1.57-1.39-2.43-1.74-.86-.35-1.64-.56-2.34-.63.85-.07,1.66-.34,2.45-.8.79-.46,1.48-1.06,2.07-1.81.59-.75,1.07-1.61,1.43-2.58.36-.97.54-1.98.54-3.05v-5.19c0-1.77-.27-3.31-.8-4.64-.53-1.33-1.26-2.44-2.2-3.32-.93-.88-2.02-1.54-3.27-1.98s-2.59-.65-4.05-.65h-8.16c-.29,0-.52.11-.69.33s-.25.48-.25.8v47.82c0,.34.07.61.2.82.13.21.36.32.67.34h9.51c1.48,0,2.82-.24,4.05-.71s2.27-1.17,3.16-2.09c.88-.92,1.57-2.05,2.05-3.39s.73-2.88.73-4.63v-4.24c0-2.18-.25-3.96-.76-5.35-.51-1.39-1.14-2.49-1.9-3.3ZM1579.7,166.28h7.33c1.31,0,2.49.18,3.54.54,1.05.36,1.95.92,2.7,1.67.75.75,1.33,1.68,1.74,2.79.41,1.11.62,2.41.62,3.88v5.19c0,1.52-.34,2.78-1.03,3.76s-1.51,1.75-2.47,2.3c-.96.56-1.94.94-2.94,1.14-1,.21-1.83.31-2.49.31h-7v-21.59ZM1596.57,204.05c0,.94-.15,1.94-.45,2.99s-.78,2.02-1.43,2.9c-.65.88-1.5,1.61-2.54,2.2s-2.3.87-3.77.87h-8.67v-23.29h8.16c.97,0,1.97.17,2.99.51,1.03.34,1.97.9,2.81,1.69.85.79,1.54,1.83,2.09,3.12.54,1.29.82,2.88.82,4.77v4.24Z"/>
    <path d="M1623.56,213.12c-.22-.07-.42-.11-.62-.11h-14.04v-47.31c0-.31-.07-.58-.2-.8s-.36-.33-.67-.33h-.04c-.29,0-.5.11-.63.33s-.2.48-.2.8v47.82c0,.6.21.98.62,1.12.02.02.08.04.18.04h14.98c.19,0,.4-.07.62-.2.22-.13.33-.37.33-.71v-.04c0-.34-.11-.54-.33-.62Z"/>
    <path d="M1648.7,166.28c.17,0,.36-.05.58-.16s.33-.33.33-.67v-.04c0-.34-.11-.56-.33-.67s-.41-.16-.58-.16h-16.15c-.27.05-.47.18-.62.38-.15.21-.22.45-.22.74v47.82c0,.31.07.58.2.8s.33.34.6.36h16.04c.17,0,.37-.06.6-.18.23-.12.34-.35.34-.69v-.04c0-.31-.11-.52-.34-.62-.23-.1-.43-.15-.6-.15h-15.09v-23.47h12.48c.17,0,.37-.05.6-.16s.34-.33.34-.67v-.04c0-.34-.11-.56-.34-.65-.23-.1-.43-.15-.6-.15h-12.48v-21.59h15.24Z"/>
  </g>
  <path d="M1847.15,178.57c-.47-1.02-1.15-1.93-2.05-2.62-1.66-1.27-3.36-1.16-3.64-3.87,2.57-.11,5.3-.58,6.15-3.39,1.84-6.08-6.08-8.3-7.93-3.06-.59,1.66-.51,3.05-.05,4.72-.21.18-5.21-1.02-5.27-1.32,3.7-4.4,5.8-8.02,5.49-14-.3-5.71-2.14-10.91-7.48-13.61-.06-1.85-.18-3.71-.57-5.51-1.03-4.65-4.49-8.65-7.88-11.81.26-2.23.55-4.16-.11-6.37-.75-2.49-3.6-5.53-5.94-6.64-.51-.24-1.31-.29-1.67-.56-.27-.2-1.6-2.75-2.22-3.46-2.99-3.46-7.99-4.96-11.57-1.42l-1.5-1.56c1.49-3.68,1.07-6.82-2.53-8.82-5.76-3.2-15.51-.25-16.16,7.04-.31,3.45-.02,11.27,1.21,14.41.21.55,1.15,2.02,1.17,2.25.05.42-.58,1.67-.7,2.26-.64,3.11-.44,5.66.71,8.64-2.1,2.02-2.48,4.15-1.77,6.91.18.7,1.19,2.67,1.19,3.05,0,.34-.79,1.83-.94,2.49-.5,2.21-.36,5.13.29,7.3.21.71,1.24,2.56,1.25,2.98.01.65-.86,2.63-.97,3.68-.33,3.27.53,6.2,1.98,9.08-4.65,3.04-1.58,7.4-.68,11.49.45,2.06.48,4.11,1.32,6.09-1.57.37-3.16.84-4.77,1.01-2.61.28-5.56-.35-8.02.09-3.52.64-4.69,4.75-2.63,7.52,1.7,2.27,7.17,1.28,7.43,4.91.28,3.92-6.14,2.39-8.11,5.04-2.63,3.54-.17,6.62,4.94,15.16,1.26,2.1,1.74,4.64-.98,5.47-2.51.76-5.4.46-5.61,4.08-.34,5.78,6.93-.22,6.38,6.11-.27,3.17-3.64,4.19-3.19,8.26.4,3.59,4.7,7.12,1.82,10.66-.68.84-2.53,1.68-3.31.72-1.66-2.05-.63-6.38-5.14-5.92-4.12.42-5.71,7.7-4.02,10.67,1.92,3.38,9.13.52,9.94,3.24,1.06,3.55-5.51,2.91-7.5,3.37-2.61.6-4.55,2.53-7.58,1.57-3.43-1.09-3.65-8.37-2.36-11.1,1.34-2.84,5.06-3.49,5.49-7.69.33-3.22-3.2-7.57-6.07-8.7-4.01-1.59-7.98,1.55-7.25,5.83.5,2.92,5.79,5.53,1.96,8.35-3.33,2.45-10.65.4-13.05-2.74-.99-1.3-2.08-3.93-1.95-5.56.33-3.92,7.78-6.33,10.61-8.26,2.59-1.76,5.58-6.61,8.98-5.65,4.06,1.15,8.8,9.12,12.15,9.35,3.76.26,3.85-4.21,3.01-6.86-1.42-4.44-6.19-5.68-7.74-9.09-1.56-3.43,2.69-4.83,3.57-7.74.83-2.74-.18-6.22.08-9.05.23-2.46,1.56-4,2.26-6.26,2.53-8.17-.17-23.73-11.77-20.7-3.92,1.02-9.99,5.64-6.44,10,2.4,2.95,6.83.14,9,3.38,3.72,5.56-.21,22.03-4.33,27.05-4.07,4.97-8.75,5.52-14.35,7.36-4.37,1.43-4.01,3.8-6.52,6.36-1.94,1.98-6.61,1.64-8.75.07-3.41-2.5-4.5-10.59-.57-12.94,5.05-3.03,8.52,1.11,13.14.98,4.66-.13,14.24-6.3,16.34-10.45,2.47-4.87.74-11.4-3.71-14.55-4.79-3.39-13.73,1.32-11.81,6.74,1,2.81,5.1,3.26,5.88,5.07.96,2.22-.86,4.66-2.95,5.37-5.92,2.01-4.98-6.97-11.67-6.59-4.8.27-4.36,4.51-7.33,6.47-4.99,3.29-7.75-5.17-7.98-8.79-.24-3.91,1.19-8.86,5.78-9.23,4.18-.33,3.62,3.23,6.09,5.27.85.7,2.3,1.29,3.41,1.21,6.71-.47,3.29-15.04-1.65-15.77-3.45-.51-6.27,5.28-9.98,2.68-3.09-2.17-2.54-7.16-.22-9.73,3.3-3.65,6.34,1.29,9.23,1.13,2.95-.16,6.86-6.13,9.73-2.02,2.49,3.57-3.04,10.56,1.47,12.73,3.01,1.45,5.35-.63,5.9-3.57.48-2.56.35-4.72,1.43-7.29,2.03-4.81,5.96-4.17,10.22-5.4,3.15-.91,6.26-3.04,9.7-2.08,3.85,1.08,6.97,8.83,12.01,8.83,4.71,0,7.32-7.38,4.29-10.7-3.26-3.57-12-3.17-16.2-3.5-1.82-.14-3.91-.71-3.76-2.94.16-2.37,5.16-1.55,6.75-1.26,3.23.58,9.22,3.1,11.61-.48,1.18-1.76-.09-4.7-.09-6.78,0-4.52,2.85-14.49-.83-18.04-1.51-1.45-4.2-1.34-5.42.42-3.45,4.93,2.57,11.68,1.54,16.76-.3,1.5-2.36,2.4-3.73,2.56-5.49.64-11.33-1.7-15.49,3.17-3.77,4.41-7.69,12.87-14.89,12.04-4.32-.5-4.4-5.07-9.87-3.74-3.73.91-5.78,4.33-10.02,3.74-3.83-.53-5.97-6.35-2.25-8.3,3.84-2.03,11.92,3.24,16.14-.7,2.43-2.28.59-6.61-2.7-5.94-.93.19-1.84,1.42-2.99,1.68-4.98,1.13-9.61-4.56-5.17-8.21,2.74-2.25,6.6.11,8.91,2.03,1.93,1.6,2.98,3.87,6.06,2.39,3.61-1.73,2.63-6.82,4.99-8.4.64-.43,1.64-.38,2.19.17,1.29,1.29-.2,6.73-1.12,8.2-1.99,3.18-7.07,2.89-6.51,7.65.41,3.46,4,3.94,6.61,2.39,4-2.36,3.41-8.21,7.84-10.22,2.67-1.21,6.66-1.52,9.57-1.38,2.62.13,4.87,1.55,6.73-.95,1.79-2.4.01-4.94-2.73-5.18-4.83-.41-12.54,2.27-15.75-2.21-1.04-1.46-1.24-5.16-3.3-5.62-3.49-.79-5.45,2.51-8.04,4.05-3.23,1.92-8.11,3.24-11.63,1.42-3.82-1.97-2.1-6.66,2.48-5.11,2.05.7,2.57,1.67,5.18,1.14,2.91-.59,5.66-4.75,2.16-6.65-2-1.08-4.29.61-6.78-.73-1.98-1.07-2.57-3.13-.88-4.82,3.16-3.15,8.61,2.18,10.76,4.47,1.18,1.25,2.04,3.07,3.71,3.79,2.75,1.19,3.46-.95,5.9-.63,2.38.31,1.95,2.72,2.52,4.38,1.4,4.08,6.63,5.52,10.49,4.33,8.78-2.69,4.3-10.78,6.57-18.47.99-3.35,4.65-2.1,4.14.88-.35,2-1.61,4.14.61,5.25,5.3,2.65,4.48-5.97,4.6-8.86.08-1.87,1.18-3.94-1.08-5.22-2.52-1.43-6.68,1.01-7.86-1.06-1.72-3.01,5.75-2.36,7-3,1.53-.78,2.08-2.37,1.76-4.78-.26-1.92-1.33-2.66-1.37-3.58-.14-3.14,3.41-5.7,2.75-10.55-.5-3.67-5.01-4.53-5.84,0-.24,1.3.14,5.5-1.39,5.73-2.44.37-1.07-5.62-1.28-6.95-.46-2.87-3.84-2.84-5.67-1.24-3.88,3.39,2.25,9.79,2.64,13.8.46,4.76-3.71,5.72-4.2,9.38-.25,1.87.47,2.1,1.06,3.5.78,1.84-1.08,4.89-1.29,7.02-.33,3.32.68,6.01-1.07,9.27-.92,1.71-3.9,4.6-5.41,2.03-3.43-5.82,6.18-11,3.69-16.1-.64-1.31-2.21-1.44-3.43-.91-2.13.93-2.54,3.65-3.41,5.51-1.12,2.39-1.01,2.77-3.19,4.41-2.23,1.68-5.33,1.52-4.6-1.97.18-.87,4.13-6.77,4.92-7.66,3.27-3.66,8.85-3.86,11.63-8.25.8-1.27,2.38-5.44,2.45-6.89.14-2.64-2.21-3.77-3.4-5.68-1.33-2.15-1.14-6.05-4.91-5.04-3.01.81-2.91,4.2-1.86,6.53.77,1.7,2.12,2.66,3.08,4.02,1.65,2.32-1.59,6.05-3.97,3.76-1.87-1.81-2.1-4.12-3.23-6.1-2.32-4.11-8.66.36-5.27,4.86.58.76,1.44,1.28,1.95,2.11,2.18,3.53-.55,5-2.36,7.46-1.3,1.76-3.01,5.77-4.59,6.77-.93.59-2.43.54-2.44-.81-.01-2.18,5.1-5.46,5.21-8.34.1-2.59-2.73-4.27-4.7-2.31-1.69,1.69-3.01,4.97-4.56,6.8-.35.41-.77.82-1.33.9h-19.85c-2.13-.17-1.18-2.6-2.56-3.73-.88-.72-3.32-.7-4.33-.29-2.31.92-.71,3.55-2.91,3.99l-28.95.06c-2.36.36-1.68,2.85-2.54,3.75-.56.59-2.14.61-2.9.45-2.24-.46-.57-3.75-3.51-4.2l-33.82-.06c-1.8-.24-1.13-2.27-2.09-3.39-.97-1.13-4.01-1.15-5.15-.31-1.8,1.34-.02,3.47-2.94,3.75-2.75.27-6.04-.14-8.85-.1-1.22-.45-.94-1.56-1.31-2.54-.38-1.01-1.17-1.54-2.22-1.64-3.11-.29-6.86.13-10.02.14-2.31.71-.88,3.87-3.4,4.11l-24.12.02c-2.34-.02-1.34-2.59-2.75-3.74-.88-.72-3.32-.7-4.33-.29-2.31.92-.71,3.55-2.91,3.99l-28.95.06c-2.36.36-1.68,2.85-2.54,3.75-.56.59-2.15.61-2.9.45-2.24-.46-.57-3.75-3.51-4.2l-33.82-.06c-1.8-.24-1.13-2.27-2.09-3.39-.97-1.13-4.01-1.15-5.15-.31-1.8,1.34-.02,3.47-2.94,3.75-2.75.27-6.04-.14-8.85-.1-1.22-.45-.94-1.56-1.31-2.54-.38-1.01-1.17-1.54-2.22-1.64-3.11-.29-6.86.13-10.02.14-2.31.71-.88,3.87-3.4,4.11-5.58-.43-12.18.64-17.63.02-2.54-.29-1.23-2.5-2.75-3.74-.88-.72-3.32-.7-4.33-.29-2.31.92-.71,3.55-2.91,3.99l-28.95.06c-2.36.36-1.68,2.85-2.54,3.75-.56.59-2.15.61-2.9.45-2.24-.46-.57-3.75-3.51-4.2l-27.93-.06c-1.8-.24-1.13-2.27-2.09-3.39-.97-1.13-4.01-1.15-5.15-.31-1.8,1.34-.02,3.47-2.94,3.75-2.75.27-6.04-.14-8.85-.1-1.22-.45-.94-1.56-1.31-2.54-.38-1.01-1.17-1.54-2.22-1.64-3.11-.29-6.86.13-10.02.14-2.31.71-.88,3.87-3.4,4.11l-24.12.02c-2.34-.02-1.34-2.59-2.75-3.74-.88-.72-3.32-.7-4.33-.29-2.31.92-.71,3.55-2.91,3.99l-28.95.06c-2.36.36-1.68,2.85-2.54,3.75-.56.59-2.14.61-2.9.45-2.24-.46-.57-3.75-3.51-4.2l-26.23-.05v1.21l26.03.05c1.76.28.62,2.87,2.47,3.82.68.35,3.57.36,4.28.08,1.82-.74,1.14-3.11,2.17-3.71l29.34-.28c3-.57,2.01-3.42,2.97-3.98.47-.27,2.61-.31,3.1-.09,1,.45.62,1.95,1.22,2.84.58.86,1.54,1.22,2.54,1.32,7.58.76,16.41-.55,24.12-.02,1.54-.27,2.23-.61,2.77-2.1.26-.73.09-1.76.99-2.05,2.99.06,6.52-.39,9.46-.1,2.31.23.63,3,3.14,3.96,1.43.54,7.24.44,9.03.32,1.03-.07,2-.14,2.74-.91,1.65-1.74-.39-3.94,3.96-3.37,1.61.21,1.06,1.94,1.71,2.95.7,1.09,1.94,1.25,3.14,1.33,8.68.6,18.03-.48,26.78,0,1.76.28.62,2.87,2.47,3.82.68.35,3.57.36,4.28.08,1.72-.69,1.19-3.14,2.17-3.71l29.34-.28c3.02-.53,1.99-3.4,2.97-3.98.47-.27,2.61-.31,3.1-.09,1,.45.62,1.95,1.22,2.84.58.86,1.54,1.22,2.54,1.32,5.54.56,11.99-.39,17.62-.02,1.54-.27,2.23-.61,2.77-2.1.26-.73.09-1.76.99-2.05,3,.06,6.52-.39,9.46-.1,2.31.23.63,3,3.14,3.96,1.43.54,7.24.44,9.03.32,1.03-.07,2-.14,2.74-.91,1.66-1.75-.36-3.94,3.96-3.37,1.43.19,1.13,1.46,1.44,2.41.36,1.11,1.56,1.73,2.66,1.8l33.4.07c1.76.28.62,2.87,2.47,3.82.68.35,3.57.36,4.28.08,1.82-.74,1.14-3.11,2.17-3.71l29.34-.28c3-.57,2.01-3.42,2.97-3.98.47-.27,2.61-.31,3.1-.09,1,.45.62,1.95,1.22,2.84.58.86,1.54,1.22,2.54,1.32,7.58.76,16.41-.55,24.12-.02,1.54-.27,2.23-.61,2.77-2.1.26-.73.09-1.76.99-2.05,2.99.06,6.52-.39,9.46-.1,2.31.23.63,3,3.14,3.96,1.43.54,7.24.44,9.03.32,1.03-.07,2-.14,2.74-.91,1.67-1.76-.4-3.79,3.76-3.37,1.7.17,1.27,1.26,1.64,2.41.36,1.1,1.57,1.73,2.66,1.8l33.4.07c1.76.28.62,2.87,2.47,3.82.68.35,3.57.36,4.28.08,1.82-.74,1.14-3.11,2.17-3.71l29.34-.28c3-.57,2.01-3.42,2.97-3.98.47-.27,2.61-.31,3.1-.09.91.41.69,1.48.86,2.18.27,1.09,1.67,1.82,2.72,1.95,6.1.72,13.56-.45,19.81-.03.7-.16,1.45-.34,1.98-.86,1.38-1.35,2.95-4.85,4.38-6.58.63-.76,1.04-1.3,2.13-.94.79.26,1.03,1.37.87,2.1-.59,2.72-7.15,6.8-4.64,9.59.23.26.79.62,1.12.71,3.84,1.02,5.45-4.43,7.14-6.87,2.08-2.99,5.13-4.49,3.25-8.8-.58-1.33-2.85-3.02-3.04-3.86-.39-1.67.64-3.6,2.49-3.52,1.66.08,1.76,2.24,2.3,3.4.82,1.75,2.67,5.03,4.81,5.15,1.43.08,2.81-1.02,3.51-2.17,2.1-3.48-.84-4.58-2.37-7.1-.98-1.63-2.27-4.77.22-5.79,2.62-1.08,2.57,1.97,3.4,3.6.81,1.61,3.17,3.48,3.51,4.8.34,1.27-.78,4.4-1.33,5.7-2.27,5.37-7.26,5.27-11.11,8.57-1.49,1.27-6.14,7.82-6.44,9.59-.69,4.06,2.7,5.08,5.82,3.38,5.17-2.82,4.04-8.14,6.75-9.98.95-.64,2.01-.86,2.32.49,1.04,4.51-6.17,8.08-4.29,14.48,1.22,4.15,4.92,3.35,7.17.47,2.96-3.8,1.65-6.88,2.09-11.1.2-1.93,1.51-4.08,1.52-5.94.01-2.43-2.3-2.79-.82-5.74,1.9-3.78,4.71-3.95,3.48-9.39-.59-2.63-3.86-7.6-3.81-9.59.08-2.68,4.33-4.35,4.68-1.43.24,2.04-1.42,8.11,2.48,7.77,3.66-.32,1.55-7.05,3.29-8.48,1.03-.84,2.1-.1,2.5.96,1.64,4.34-2.65,7.57-2.52,11.13.07,2.04,2.33,3.08,1.23,6.12-.87,2.39-5.78.85-7.66,2.11-2.07,1.4-1.28,4.55,1.08,5.15,2.1.54,4.54-.99,6.44.05,1.58.87.54,2.87.47,4.2-.07,1.4.31,7.28-1.06,7.88-1.03.44-2.43,0-2.6-1.17-.18-1.23,1.05-2.8.5-4.96-.55-2.17-3.28-3.03-5.04-1.41-2.34,2.16-1.73,9.84-1.82,13.02-.06,2.16-.48,3.65-2.17,5.09-3.18,2.71-8.81,2.92-11.31-.83-1.4-2.09-.28-5.21-3.37-6.17-2.81-.87-4.17,1.41-6.14.67-1.48-.56-2.54-2.68-3.51-3.79-1.61-1.85-5.96-5.41-8.41-5.59-5.55-.42-7.56,6.36-2.08,8.36,2.26.83,4.14-.26,5.83.26,2,.61,1.12,2.92-.23,3.85-3.3,2.27-5.02-.78-8.03-.88-4.34-.16-5.61,5.34-1.84,7.53,4.61,2.68,10.85.68,14.85-2.28,1.17-.87,2.06-2.07,3.45-2.64,3.68-1.5,3.23,2.88,4.77,4.97,4.2,5.7,11.56,1.59,17.05,2.73,2.89.6,2.15,3.97-.41,4.23-1.39.14-2.78-.51-4.38-.56-3.69-.12-9.84.45-12.36,3.46-2.27,2.72-2.95,8.99-7.52,9-2.57,0-3.42-3.09-1.77-4.76,1.82-1.84,4.36-1.92,5.87-4.82,1.29-2.49,3.15-10-1.46-10-4.92,0-2.79,9.48-8.1,9.14-1.74-.83-2.85-2.49-4.52-3.61-3.32-2.22-7.15-3.59-10,.07-4.18,5.36,2.97,11.46,8.25,8.86.57-.28,1.21-1.01,1.68-1.16,2.28-.74,3.75,2.76,1.34,4.18-4.88,2.87-12.78-3.2-16.64,1.21-2.98,3.39-.38,8.73,3.74,9.45,5.35.93,7.8-3.98,12.08-3.98,2.27,0,3.14,1.85,4.86,2.86,5.69,3.33,10.85-.78,14.5-4.98,1.91-2.2,4.3-6.94,6.69-8.12,4.66-2.29,13.67,1.02,16.64-3.04,3.06-4.18-3.2-11.75-1.51-16.73,1.02-3,4.26-2.28,5.11.56,1.53,5.1-.66,12.1-.35,17.59.12,2.11,1.44,4.4-1.82,5.09-4.38.93-11.24-3.24-15.24-1.04-2.26,1.25-1.67,4.59.44,5.67,4.2,2.15,16.67-.38,19.07,4.8.98,2.11-.34,6.66-2.66,7.44-5.44,1.83-8.66-7.99-13.71-8.65-4.17-.54-6.41,1.31-10.03,2.31-6.17,1.72-9.59.86-11.46,8.42-.47,1.92-.42,4.79-1.11,6.4-1.18,2.79-5.23,2.07-5.07-1.19.1-1.95,1.24-4.39,1.21-6.51-.05-3.45-2.76-6-6.2-4.79-1.61.57-3.93,2.88-5.29,3.05-2.35.29-5.19-3.9-8.82-1.93-4.3,2.33-5.14,10.16-.74,12.93,4.01,2.52,6.05-1.71,9.26-2.58,3.1-.84,5.17,5.8,5.29,8.11.13,2.53-.44,5.96-3.77,4.99-3.71-1.09-2.72-6.38-7.9-6.31-4.59.06-7.15,4.27-7.4,8.44-.28,4.75,2.72,15.42,9.31,12.15,3.37-1.67,3.17-6.35,7.22-6.58,5.27-.3,4.86,6.45,9.56,6.89,3.61.34,7.63-3.39,6.26-7.08-.99-2.66-4.75-2.62-5.86-5.1-1.08-2.4,1.42-4.91,3.45-5.84,7.91-3.6,13.28,7.5,9.45,13.91-1.8,3.02-9.59,8.07-13.02,8.89-4.51,1.09-7.38-1.96-11.68-1.74-3.63.19-6.67,2.4-7,6.19-.6,7.01,2.69,12.22,10.25,11.47,4.56-.45,4.44-4.65,7.5-6.7,1.87-1.25,3.74-1.29,5.79-1.92,9.64-2.97,13.31-7.94,15.81-17.46,1.21-4.6,2.88-15.3-.99-18.86-2.57-2.36-6.96-.16-8.57-2.79-1.79-2.92,1.7-5.95,4.16-7.08,11.4-5.24,14.61,9.75,12.41,17.89-.7,2.61-2.26,4.38-2.51,7.23-.24,2.72.77,5.79.09,8.4-.66,2.51-3.65,3.5-3.97,6.18-.63,5.33,6.77,6.96,8.17,12.12,1.04,3.81-.64,6.54-4.32,3.51-2.73-2.25-6.25-7.22-9.77-8.08-4-.98-6.7,3.87-9.51,5.83-3.59,2.51-11.89,4.67-11.32,10.34.19,1.92,1.37,4.39,2.63,5.84,3.05,3.49,13.7,5.98,15.79.65,1.51-3.86-2.81-5.05-3.03-8.29-.21-3.13,2.79-5.09,5.63-4.01,1.86.71,5.22,4.57,5.34,6.63.23,4.06-3.26,4.83-4.97,7.42-2.39,3.62-1.64,13.18,3.64,13.78,3.24.37,4.33-1.09,6.96-1.77,2.07-.53,4.79-.11,6.61-.89,3.46-1.49,2.66-5.68-1.04-6.21-1.71-.25-5.87.43-6.92-1.2-1.28-2-.14-7.99,2.46-8.84,3.97-1.31,3.02,3.74,4.92,5.52,1.72,1.61,4.62.14,5.52-1.78,2.31-4.94-2.27-7.26-2.19-11.51.06-3.41,4.69-4.92,2.91-10-1.37-3.93-6.24.46-6.14-3.26.11-4.23,7.01-1.34,7.67-6.12.63-4.57-6.9-11.01-6.95-15.48-.04-4.64,3.94-2.96,7.3-4.89,3.1-1.78,2.34-5.21-.48-6.76-.83-.46-3.48-1.1-4.31-1.5-2.08-1.01-2.65-3.94-.81-5.54,1.93-1.68,6.82-.7,9.44-.91,1.87-.15,3.76-.81,5.58-1.21.99,2.29-.41,3.48-1.07,5.52-1.08,3.33-1.13,7.89.1,11.17.21.56.83,1.06.74,1.62-3.16,4.42-6.22,9.3-4.98,15,.26,1.18,1.76,4.22,1.75,4.93,0,.4-.93,1.65-1.15,2.27-.94,2.57-.25,6.1-.45,8.88-.26,3.64-1.09,5.52-.54,9.47.92,6.73,2.84,7.99,9.58,7.88,2.67-.04,2.91.35,5.32.75,1.13.19,2.35.28,3.49.26-.84,2.04-1.13,3.82-.39,5.95l-6.81,2.77c-.5-.39-.25-1.08-.37-1.67-.49-2.5-1.26-4.16-3.75-5.18-4.08-1.68-8.4-.06-7.74,4.9.66,4.95,6.77,4.53,10.41,3.58.43.13.37,2.4,2.15,3.13,3.97,1.61,8.43-.82,11.75-2.86,2-1.23,4.83-3.07,6.6-4.55.84-.7,1.8-2.11,2.49-2.64,1.35-1.03,4.57-2.18,6.28-3.2,6.34-3.82,7.74-7.9,10.66-14.3.64-1.41.04-1.79,1.78-2.65.22-.11.56.08,1.01-.24.35-.24,2.27-2.28,2.63-2.7,3.24-3.82,5.65-9.96,6.85-14.81.88-3.56,1.32-6.9.09-10.45,2.4-2.3,3.42-5.62,3.97-8.82.76-4.39,1.44-15.57-.34-19.42ZM1782.04,256.7c.43-3.08,4.42-3,6.58-1.75,2.31,1.33,2.47,3.47,2.73,5.89-3.77.89-10.12,1.67-9.31-4.14ZM1841.48,175.56c.93,2.42,1.58,4.97-.01,7.29-3.79-1-7.53-2.58-10.96-4.58,1.92-4.64,7.01-3.96,10.97-2.7ZM1841.78,206.47l-2.54,1.01c2.12-5.27-1.25-7.22-6.09-7.1l1.84-3.33c2.79-1.03,5.46-2.4,7.69-4.37,2.03,3.68-1.96,6.01-2.23,9.43-.14,1.74.62,2.88,1.33,4.36ZM1820.37,232.43c-.35-.04-.68-1.54-.6-1.62l1.22.2-.61,1.42ZM1821.38,240.35c1.88.45,2.87.57,1.94,2.65-1.07,2.39-3.51,3.98-5.99,4.65,2.2-1.98,4.31-4.05,4.06-7.3ZM1807.39,231.62c-.06-.28.07-.49.34-.57.86-.28,5.39.98,6.51,1.33,2.28.72,3.54,1.69,5.43,3.1l.3,3.65-6.08.61c2.82-6.05-1.34-7.52-6.49-8.11ZM1791.87,105.65c-.74.47-1.12-.95-1.12-1.53,0-2.19,2.24-2.92,4.06-2.33-.43,1.54-1.6,3-2.94,3.86ZM1794.89,104.41l.93-2.01c.4-.3,3.05,1.47,3.44,1.92-1.68,2.01-3.99,3.36-6.69,2.53l2.32-2.45ZM1790.34,106.54c-.32.3-.97.92-1.42.64-1.7-3.14-2.03-7.45,2.53-7.83,1.08-.09,2.85-.05,3.15,1.22-3.89-1.05-6.25,2.7-4.27,5.97ZM1788.62,109.3c2.38,3.89,6.08,6.96,10.85,7.1-.3,1.25-1.42,3.79-2.92,3.64-3.72-.36-4.8-4.78-8.45-4.34-.76-2.09-1.6-4.84.52-6.4ZM1828.47,159.9c-.36.27-4.2.7-4.45.52,2.49-4.27,3.2-9.15,2.23-13.99l3.86,1.76c-.06,1.46-.52,2.98-.62,4.43-.11,1.59.32,6.27-1.03,7.29ZM1836.39,190.14c0-.06-.28-.29-.2-.51,2.04-.19,4.45.41,5.67,2.11-.13.6-4.81,3.32-5.61,3.53-.17.05-.47.13-.47-.07.08-.55.54-1.32.61-1.82.12-.91,0-2.27,0-3.25ZM1835.48,187.6c-1.57-2.6-3.44-5.06-5.89-6.9l.32-1.42c3.3,1.86,6.71,3.56,10.42,4.46l.13.4-4.97,3.45ZM1804.14,223.31l4.56-.2c1.13.31,2.32.11,3.45.41.28.07.33-.17.31.3-.07,1.78-3.46,4.83-4.96,5.76l-2.73-.61c.07-1.98-.06-3.77-.63-5.66ZM1803.53,228.58c-1.97-.39-5.14-.55-6.95-1.27-.3-.12-.97-.73-.97-1.06.85-.51,1.72-1.04,2.64-1.42.75-.31,4.25-1.61,4.77-.92.05.07.48,1.59.5,1.73.11.91-.08,2,0,2.94ZM1791.6,226c-2.6-.88-3.7-2.37-4.09-5.11,2.16-.94,4.53-1.35,6.88-1.24.12.12-.57,2.81-.61,3.35-.19,2.65,1.27,4.16-2.19,3ZM1793.82,228c2.01-.01,3.5,1.45,5.31,2.24,1.25.55,2.69.97,3.99,1.39-.26.49-.24,1.13-.52,1.61-.43.72-6.6,4.55-6.99,4.38-2.31-2.47-3.6-6.54-1.8-9.62ZM1806.17,161.84l1.8.03,1.77,4.83c.04.33-1.55,1.57-1.66,1.59-.31.06-3-.54-3.11-.89-.12-.4.75-1.51.96-2.05.45-1.19.59-2.26.25-3.5ZM1792.89,149.06l-2.34-2.14c4.04-3.51,11.08-3.5,12.78,2.33-3.48.15-6.97-.86-10.44-.2ZM1802.11,150.58c-2.12,3.55-5.87,1.88-8.11-.5,2.71-.06,5.43.11,8.11.5ZM1802.01,152.51c1.74-1.47,1.89-3.65,2.94.2-5.33,1.65-11.74,6.81-16.81,1.7-.16-.86,3.11-3.79,4.17-3.89,3.15,2.19,6,5.14,9.7,2ZM1804.95,149.26c1.5-1.8,3.45-3.47,5.68-4.26-.64,2.74-2.99,4.12-5.68,4.26ZM1812.05,144.49c1.24-.4,5.28-.94,6.19-.1.88.81-.71,1.48-1.22,2.02-3.06,3.24-2.36,5.9-.74,9.68.23.53,1.18,1.96,1.23,2.24.07.48-1.45,2.65-1.99,2.28-1.71-3.8-4.58-8.6-9.35-8.4l-.6-1.93c3.53.01,5.79-2.51,6.49-5.78ZM1812.25,143.17v-2.43s3.85.09,3.85.09l1.22,2.14c-1.67-.46-3.41-.03-5.07.2ZM1820.59,180.12c.57-.12,1.16-.22,1.71-.42.59-.22,2.67-1.52,2.92-.49l-4.95,10.23c-2.54.54-4.96,1.71-7.61,1.41l1.91-2.86c1.42-.32,2.46-.29,3.66-1.21,2.08-1.57,2.35-4.23,2.36-6.67ZM1820.37,176.85l2.63,1.12c0,.29-2.31,1.05-2.43.91l-.2-2.03ZM1814.08,210.93c-1.15-.08-1.3-1.08-1.56-1.98-.25-.86-.95-4.96-.57-5.53l7.21-2.63.17,1.99c-3.21,1.52-5.73,4.37-5.24,8.15ZM1805.16,198.45l.28-.52c1.01-.63,1.74-1.59,2.64-2.34.2-.17,1.16-1.05,1.33-.9.53,2.57.95,5.16,1.03,7.79l-3.34.95-1.94-4.99ZM1806.57,207.28c-.1.12-2.85-1.44-2.43-1.82l2.23-.41.2,2.23ZM1798.95,184.56c-.14-.23.49-1.52.57-1.58.89-.64,4.42.25,5.43.87l-3.55,2.33-2.45-1.62ZM1800.08,186.89c0,.26-2.57,1.17-3.04.91l1.02-2.23,2.02,1.32ZM1810.73,165.9l-1.52-4.06h5.68c-1.19,1.52-2.47,3.07-4.16,4.06ZM1815.5,163.26c.24,1.17,1.62,3.41,1.42,4.52,0,.04-.39.36-.49.46-1.27,1.17-2.62.61-4.24.67l-.88-1.7,4.19-3.95ZM1811.1,169.99l1.11,1.69-2.09,1.48c-.17,0-2.18-2.24-2.34-2.49-.14-.21-.31-.44-.16-.69.48-.83,2.67.13,3.49,0ZM1809,173.71c-1.38,1.19-3.35,1.12-4.87,2.02-.44.26-1.15,1.04-1.35,1.09-.36.09-1.93-.57-2.61-.58-.7-.01-1.25.33-1.92.41.64-.58,1.44-2.3,2.04-2.72.46-.32,1.83-.63,2.49-.96.59-.29,3.29-1.95,3.51-1.97.5-.05,2.06,2.36,2.7,2.71ZM1802.99,178.49c1.61,1.05,2.61,2.67,3.78,4.14-.22.3-.34.32-.69.3-.69-.05-2.43-.98-3.51-1.16-.62-.1-1.25-.04-1.87-.05-.29-.28,1.95-3.3,2.3-3.23ZM1806.18,184.45c2.94.33,3.52,3.84,4.86,5.99-.38.3-7.56-2.69-8.31-3.55l3.45-2.44ZM1809.27,184.5c-1.39-1.24-.37-1.86.9-2.33,3.52-1.29,5.1.89,3.91,4.22-.21.15-4.49-1.61-4.8-1.89ZM1811.95,189.63l-1.52-3.24,2.84,1.02c.24.35-1,1.91-1.32,2.23ZM1810.63,203.83l.81,6.09-3.34-1.63-.72-3.64,3.25-.81ZM1811.21,197.67c-.11-.71-.99-3.85-.95-4.06.03-.14,1.24-1.61,1.48-1.55,1.67,3.23,2.99,6.52,7.21,6.7v.68s-7.3,2.77-7.3,2.77c-.17-1.5-.2-3.04-.44-4.54ZM1813.27,192.07c2.27.28,4.28-.93,6.49-1.22-.45,2.2-.9,4.44-.81,6.69-3.17-.15-4.74-2.79-5.68-5.48ZM1819.76,204.03c.46,2.36,1.72,4.41,2.84,6.49-2.37,1.71-4.48,2.08-7.21.82-.79-3.23,1.39-6.25,4.37-7.31ZM1824.63,196.59c-1.4,1.06-2.66,1.62-4.47,1.36-.1-2.53.25-5.08,1.04-7.48l4.23-.43c-.71,2.11-.91,4.33-.81,6.55ZM1821,203.56c.14-.45,1.94-.84,2.48-.97.6-.15,3.16-.76,3.54-.54.17.75,1.82,1.58,1.64,2.25l-5.15,5.21c-.75-.99-2.85-4.91-2.51-5.95ZM1820.57,202.21l-.17-2c1.64-.95,2.99-1.23,4.91-1.06l.73,1.54-5.47,1.52ZM1825.85,195.42c-.24-1.78.4-3.83.86-5.54l6.04-.45c-1.08,1.11-2.01,2.38-3.14,3.45-.5.48-3.02,2.66-3.46,2.83-.35.14-.27-.09-.3-.3ZM1825.8,188.57l-4.02.65,4.56-9.53,1.49,1.05.06.26-2.09,7.57ZM1815.3,186.59c.5-1.85.78-3.75-.83-5.16-2.16-1.91-4.52-.3-6.75.48-1.2-1.56-2.33-3.21-3.98-4.34l1.68-1.16,4.46-1.55c2.72,2.49,5.53,5.31,9.46,5.46.17,2.83-.68,6.17-4.05,6.28ZM1811.04,174.11l1.9-1.3c1.51,1.95,3.64,3.57,6.21,3.64l.21,2.63c-3.44-.14-6.08-2.62-8.31-4.97ZM1816.04,174.18c-.5-.35-2.19-1.82-1.87-2.4.07-.13,2.17-1.85,2.35-1.91.39-.14.78-.18,1.18-.08l1.24,5.45c-.31.29-2.49-.76-2.91-1.05ZM1818.54,168.13l3.75-4.87,1.93,1.52c.08.32-1.8,1.47-2.17,1.68-1.12.65-2.34,1.12-3.51,1.66ZM1821.09,162.84c-.12.34-2.96,3.81-3.15,3.66l-1.6-4.2.27-.47h3.85c.11,0,.75.61.62,1ZM1818.14,157.17c-.93-2.02-2.26-4.5-2.03-6.8.19-1.82,1.78-2.93,2.94-4.15,1.54,2.56,1.79,5.8.68,8.59-.15.39-1.17,2.66-1.59,2.36ZM1812.54,157.59c.25.38,1.74,2.83,1.54,3.03h-5.27l-2.23-7c2.62-.47,4.67,2.04,5.96,3.98ZM1805.56,170.15l-3.65,1.83,1.92-3.04c.57-.93,1.86,1.04,1.73,1.22ZM1799.28,172.9c-1.76.55-3.71-.23-5.29-.93-.25-.33,2.41-4.05,2.98-4.22,1.95-.27,3.82.39,5.74.57.26.26-2.86,4.39-3.44,4.57ZM1792.98,171.17l-1.61-1.3c.88-1.1,2.22-1.89,3.64-1.94l-2.03,3.24ZM1793.19,173c1.83.58,3.24,1.44,5.27,1.32-.02.7-4.7,5.05-5.15,4.96-1.98-1.81-.82-4.17-.12-6.27ZM1793.29,181.32l2.31,2.36-1.2,2.91-4.05-2.03c-.29-.38,2.58-2.85,2.94-3.24ZM1794.43,180.32c.12-.21,3.76-2.39,4.24-2.56,1.18-.4,1.84-.26,3.04-.11l-2.75,4.05c-.09.08-1.96.97-2.07.99-.61.12-2.77-1.83-2.45-2.37ZM1797.04,184.56c.18.19-.96,2.62-1.42,2.84-.04-.87.21-2.87,1.42-2.84ZM1796.26,189.06c1.91.14,3.49-.55,5.14-1.38l2.74,1.45c-2.82.31-5.44,1.41-7.91,2.74-.29-1.06-.64-1.8.03-2.8ZM1796.67,192.91c.15-.24,4.64-2.02,5.24-2.16,2.8-.66,5.78-.72,6.83,2.44-.02.18-2.22,2.34-2.57,2.63-.37.33-1.55,1.39-1.91,1.33-.07-.01-.62-1-.83-1.23-1.46-1.66-2.51-2.43-4.85-2.21-.45.04-1.31.46-1.62.37-.37-.11-.45-.92-.3-1.17ZM1803.3,198.32c-.78.3-3.61,3.11-4.23,2.79-.96-.5-1.63-4.64-1.81-5.78,2.72-1.33,5.33.3,6.04,2.99ZM1804.04,199.17l1.93,4.66-3.31.78-2.56-2.27,3.94-3.17ZM1806.68,208.9c.35.49-.21,3.16-.62,3.25-5.56-4.37-9.79-3.37-10.84,3.96-3.14.71-8.06,1.18-6.05-3.61.61-1.44,1.7-2.14,2.99-2.89,3.05-1.75,6.81-2.64,10.2-3.51l4.31,2.8ZM1805.35,213.26c-.33.46-.76.59-1.26.77-.8.29-7.19,2.03-7.46,1.77.58-6.4,4.64-6.02,8.72-2.53ZM1795.62,219.86c2.1.17,4.36.85,6.03,2.17.16.13.37,0,.26.46-2.43.51-4.76,1.37-6.89,2.64-.21-1.82.33-3.51.61-5.27ZM1803.46,222.31c-1.59-2.3-4.78-3.31-7.44-3.67l.24-1.38c3.4-.94,7.05-1.39,10.18-3.05,2.42,2.37,5.47,4.57,6.22,8.08l-5.16-.41-4.04.43ZM1811.65,227.37c.29-.2,1.04,1.01,1.43,1.3,1.37,1.03,3.79,1.48,5.43,1.98l1.05,3.21c-.26.24-1.75-1.25-2.09-1.46-2.23-1.36-5.54-1.77-8.05-2.4-.34-.37,2.37-1.91,2.23-2.63ZM1818.34,229.39c-2.84-.79-7.56-1.76-4.05-5.39l4.85,1.35-.8,4.04ZM1813.88,222.49c-.56-3.99-3.92-6.68-6.67-9.27l.79-3.51,4.4,1.89c.58,1.21,1.93,1.97,2.7,2.88,1.08,1.29,1.85,3.47,3.24,4.68v.29s-4.45,3.05-4.45,3.05ZM1817.93,216.61l2.43,1.32c-.24.26-.73.6-1.08.49l-1.35-1.81ZM1819.29,215.96c-.66-.38-4-2.36-3.39-3.21,2.92,1.24,5.17.3,7.58-1.4l2.77,2.51c-.06.25-3.81,2.81-4.14,2.96-.94.42-1.94-.36-2.82-.87ZM1827.4,214.62l2.5,1.48-1.43,1.2c-1.33.53-2.54,2.1-4.04,1.23l-1.62-.91,4.59-3.01ZM1827.27,219.25s.69-.21.95-.37c.57-.36,2.59-1.89,2.99-1.87,1.61.72,2.98,1.89,4.17,3.15-1.61,1.44-6.01.33-7.83-.49-.18-.08-.61-.08-.28-.42ZM1828.69,213.87c-.07-.29.18-.33.33-.47.82-.76,4.93-3.3,5.95-3.59.34-.1.67-.13,1.02-.09.08.33-.07.47-.2.71-.24.44-4.14,4.51-4.47,4.66-.77.36-1.91-.86-2.63-1.22ZM1827.54,212.92c-.82.08-2.27-2-3.11-2.19l5.37-5.88,4.76,3.75-7.03,4.32ZM1829.59,203.01l-1.11-1.21,2.03-.2c.22.2-.66,1.27-.92,1.41ZM1827.41,200.59c-.26-.22-.96-1.42-.75-1.63l6.49-1.22-1.56,2.64-4.18.2ZM1826.05,197.74c-.05-.31,0-.47.19-.72.32-.43,2.59-1.83,3.26-2.42.64-.56,4.93-5.45,5.47-4.97.69,2.27.14,4.36-.86,6.44-2.61.79-5.31,1.64-8.06,1.67ZM1831.02,183.54c1.3,1.33,2.44,3.04,3.34,4.67l-7.3.41,1.83-6.69c.26-.2,1.87,1.35,2.13,1.62ZM1828.38,179.69l-1.43-1.01.42-1.21,1.43,1.01-.42,1.21ZM1826.86,175.23c-.33.24-1.89-1.71-2.11-2.04-2.03-3.06-.3-5.31,3.13-4.35.76.57-.76,5.37-1.02,6.39ZM1823.41,168.63c-1.78,2.12-.39,4.3,1.02,6.08.4.51,1.69,1.26,1.22,1.84-1.01,1.26-2.64.01-3.82-.47-.53-.21-1.09-.37-1.65-.48l-1.23-6.45c2.27-.74,4.37-1.95,6.21-3.45.48-.13,1.97,1.21,2.09,1.8-1.51-.07-2.81-.14-3.86,1.11ZM1825.34,164.03l-2.25-1.59.15-.78,4.23-.23c.22.19-1.82,2.44-2.13,2.6ZM1826.1,144.95c-.22-.24-.8-2.84-.65-2.99,1.78-.29,3.71-.45,5.38.39l-.31,4.47c-.16.18-4.25-1.7-4.41-1.88ZM1824.93,155.14c-.2.79-1.9,5.15-2.38,5.43-.25.14-1.47.08-1.78-.06-.16-.07-1.63-1.87-1.63-2.02,2.54-3.85,3.1-7.15,1.63-11.57-.24-.73-.95-1.25-.22-1.83.92-.74,3.34.48,4.44.76.5,3.12.72,6.2-.07,9.3ZM1822.6,143.68l1.62-1.12.41,1.82-2.02-.71ZM1819.26,143.16c-.53-.16-1.96-2.48-1.72-2.82,1.41-.43,2.61-1.43,3.19-2.8l.65-2.29,2.45,6.16c-1.9.73-2.3,2.42-4.57,1.74ZM1820.77,131.41l-4.63-5.94c.14-.23.27-.48.45-.68.55-.61,2.05-1.29,2.87-1.29.5,0,2.61.63,2.84,1.01.48.78-1.52,5.68-1.53,6.9ZM1820.16,133.14c.14.78-.3,3.45-.65,4.2-.44.94-1.88,2.07-2.97,1.95-1.54-3.05-3.38-5.96-2.82-9.56.18-1.17,1-2.1,1.37-3.19.31-.07.32.05.49.22.88.88,4.39,5.38,4.57,6.39ZM1813.03,128.02c-.93,2.37-.71,4.52.09,6.88.57,1.69,1.64,3.17,2.18,4.82-.83-.11-2.65.28-3.24-.31-.24-.24-.86-2.24-1.29-2.97-.47-.77-1.28-1.91-2.15-2.21v-.3c2.62-2.56,4.11-5.64,4.77-9.23,1.67,1.07.2,1.94-.34,3.31ZM1795.96,122.52c.54-.24,1.38-1,1.8-1.06.32-.04,2.71.27,2.72.51-.85,1.41-2.79,2.66-4.41,2.89-1.22.17-2.43-.17-3.58.47l-1.54-2.65c1.76.52,3.3.59,5.01-.17ZM1790.26,121.25c-.37-.26-1.95-4.23-1.74-4.45,1.96.03,2.85,1.9,4.31,2.89.99.67,1.97.93,2.98,1.47-1.04,1.01-4.53.8-5.56.09ZM1806.57,132.62c-1.34-.47-2.63-1.06-4.05-1.33-1.92-.36-4.23,0-5.69-1.51,2.59.32,4.88-.71,7.29-1.41.44,1.62,2.14,2.54,2.45,4.25ZM1804.94,121.96c1.99.11,3.82.17,5.69.93.08.37-.11.4-.34.57-.59.45-5.42,3.42-5.75,3.08-.24-1.53-.3-3.13.39-4.58ZM1803.5,127.03c-.1.45-3.39,1.41-3.97,1.49-1.94.26-5.75-.05-6.13-2.38,3.27.27,5.78-.7,7.91-3.15.21-.24.6-1.04.65-1.07.31-.18,1.17.03,1.58-.04-.29,1.79-.55,3.37-.04,5.15ZM1791.97,128.57c1.86-.18,2.21.93,3.35,1.82,2.77,2.18,4.75,1.51,7.85,2.29.49.12,3.41,1.1,3.4,1.46l-2.12,1.45c-3.36-2.01-7.1-2.22-10.92-1.79-.72-.25-1.8-4.34-1.55-5.24ZM1803.12,136.48c-3.34,1.58-6.85,2.44-8.93-1.42,2.88-.41,6.56-.45,8.93,1.42ZM1794.6,137.6c2.87,2.64,6.82,1.11,9.81-.49l1.54,1.48c-1.38,1.63-3.18,1.15-4.93,1.37-4.93.62-10.26,4.64-11.88-3.25.96-.26,2.54-1.38,3.53-1.24.58.08,1.37,1.62,1.93,2.14ZM1805.69,136.7l-.13-.42,1.82-1.02-.41,2.03-1.29-.59ZM1805.17,127.88l6.88-4.18c-.06,3.36-1.52,6.63-3.95,8.92l-2.93-4.74ZM1808.4,135.87c.44-.51,2.47,3.01,2.23,3.24l-2.63-.82.4-2.42ZM1805.36,120.86c-.28-.27,1.93-3.98,2.32-4.28.52-.4,1.95.25,2.48.59,1.51.97,1.8,3.23,1.89,4.91-2.23-.67-4.28-1.46-6.69-1.22ZM1804.12,120.63l-1.4.02,1.44-4.24,2.21.08c-.96,1.22-1.86,2.62-2.25,4.14ZM1801.48,120.63l-2.61-.18,1.85-3.83,2.21-.23-1.44,4.24ZM1787.5,117.74l1.01,2.71c-.24.2-1.99-1.09-2.14-1.42-.28-.63.8-1.87,1.12-1.28ZM1789.42,122.49c.15.76,2.04,3.07,2.07,3.54,0,.07-.52,1.2-.59,1.27-.22.21-2.14.44-2.74.61-.83.24-1.43.64-2.15.91-.71.26-.99-1.65-1.09-2.23-.42-2.28-.15-4.34.56-6.54l3.95,2.44ZM1790.55,128.66c.32,1.95.81,3.79,1.62,5.59l-3.55,1.42-2.45-5.48c.33-.69,3.55-1.52,4.38-1.53ZM1791.62,142.4c3.27,1.23,6.27-.85,9.39-1.23,2.27-.28,4.51.21,6.08-2.06l3.94,1.57c-.13.73.23,2.28-.19,2.83-.18.24-1.72.78-2.18,1.06-1.57.94-3.08,2.04-4.23,3.48-.77-.78-1.23-1.88-2.03-2.63-3.7-3.51-9.17-2.11-12.88.61l-4.03-6.02c-.04-.41,2.03-2.35,2.51-2.5.67,1.92,1.55,4.13,3.61,4.9ZM1789.61,147.85l1.75,1.81c-1.64.65-3.43,2.21-4.06,3.86-.27.2-1.17-.99-1.13-1.22.12-.73,2.8-4.55,3.44-4.44ZM1787.8,155.75c.11.02,1.35,1.05,1.79,1.25,5.39,2.5,10.75-1.43,15.66-3.25l2.33,6.76c0,.15-1.79.18-1.99.06-.23-.14-1.25-1.71-1.88-2.07-2.61-1.5-9.59.66-12.7,1.07-1.67.22-3.73.82-3.92-1.49-.04-.45.06-2.48.71-2.33ZM1805.1,163.92c-.15.85-.8,1.54-.97,2.38l-2.84-2.63,3.44-1.55c.63-.11.44,1.41.37,1.8ZM1802.92,167.11l-4.87-.61c.96-.83,1.67-2.33,2.94-1.42.65.46,1.37,1.42,1.93,2.02ZM1796.42,166.4c-.79.35-2.33.36-3.44.82-.66.27-2.58,1.73-2.74,1.73-.33,0-2.67-2.68-2.72-2.98-.04-.29.13-.32.31-.45.64-.46,2.74-1.44,3.53-1.75,2.37-.92,5.68-1.53,7.71.3-.98.17-1.9,2-2.64,2.33ZM1790.62,170.98l1.73,1.3c-1.34,2.54-2.07,5.2-.19,7.69-.08.46-3.96,2.46-4.24,2.16-.3-2.24-.2-4.63.37-6.83.19-.72,1.62-4.45,2.33-4.31ZM1791.77,186.48c.33.17,2.51,1.44,2.59,1.57.05.08.22,1.7.2,1.84-.03.25-1.11,2.54-1.28,2.55-1.6-.71-2.8-2.62-3.53-4.16-1.41-2.98-.69-3.17,2.01-1.81ZM1795.4,193.49c.1.39.36.82.12,1.21l-2.34,1.42c.43-1.18.62-2.74,2.22-2.63ZM1795.92,195.92c.69,1.16.66,2.68,1.11,3.96.2.58,1.18,1.95.93,2.33-.12.19-1.7.9-2.03,1.02-1.85.63-3.71.83-5.58.19-.15-.21,1.46-4.47,1.74-4.84.27-.36,3.6-2.7,3.83-2.65ZM1798.94,203.04c.63.59,1.25,1.17,1.9,1.75.14.12.39-.01.26.46-4.48,1.06-13.01,3.08-13.57,8.64-.41,4.06,3.21,3.84,6.17,3.74.91-.03,1.89-.75.97.81-2.52-.15-5.03.29-7.37,1.21-.66-5.2.72-10.36,2.44-15.21,3.12,1.33,6.45.23,9.2-1.4ZM1787.46,224.46c1.21,2.09,3.12,2.31,5.1,3.22-1.84,3.53-.33,7.54,1.83,10.54l-5.88,2.33c-1.05-5-.99-9.87-2.29-14.85-.35-1.36-1.76-3.34-.04-4.01.37-.14.26.13.32.28.34.86.46,1.64.96,2.5ZM1795.14,239.17l3.72,1.78c-.35,1.22-2.32,2.97-3.56,3.03-.79.04-4.53-.81-5.23-1.23-.28-.17-.55-.43-.72-.71-.21-1.24,4.98-2.18,5.8-2.87ZM1796.63,238.72l5.27-3.24-2.05,4.44c-1.22.11-2.16-.8-3.22-1.2ZM1803.56,234.39c.23-.39,1.97-1.84,2.35-1.92.34-.07,5.11,1.05,5.73,1.28.78.29,1.51.65,1.73,1.51.34,1.3,0,4.14-1.41,4.69-.8.31-3.68.55-4.67.6-.8.04-5.95.06-6.2-.21l2.46-5.95ZM1819.58,229.58c.13-2.06.2-4.67,2.69-2.59,1.29,1.08.56,1.84-.28,2.92l-2.41-.34ZM1819.96,224.23l-.46.06-3.8-1.49,3.52-2.52,2.15,2.11-1.41,1.83ZM1820.37,219.25c1.46-1.11,2.4-.08,3.85.5l-1.93,1.72c-.27-.38-2.16-1.88-1.93-2.22ZM1823.42,222c.27-.27,2.07-1.65,2.32-1.66,2.39.77,7.97,2.77,10.12,1.11,2.37-1.83-2.3-4.57-3.73-5.25-.07-.28.04-.33.2-.51.64-.73,1.88-1.6,2.65-2.42.66-.7,1.29-1.6,1.92-2.33,3.71,3.83,2.11,14.76-3.85,15.42-3.88.43-6.79-1.9-9.84-3.86-.08-.31.05-.32.21-.49ZM1835.98,208.18l-5.47-4.24,1.66-2.29c2.81-.11,6.96-.23,6.43,3.69-.05.37-.86,2.35-1.05,2.5-.13.11-1.38.4-1.58.34ZM1842.68,190.64c-1.55-1.47-3.63-2.32-5.78-2.23l-.1-.4c1.83-.91,3.47-2.23,4.97-3.61,2.53,1.19,1.66,4.16.91,6.24ZM1844.15,163.91c2.51.37,3.05,2.98,2.08,5.03-.82,1.73-3.36,1.93-5.05,1.8-1.66-2.32-.51-7.33,2.96-6.83ZM1839.91,171.76l.94,2.25c-4.57-1.04-8.86-1.06-11.46,3.43l-1.3-1.27c1.97-1.79,3.86-3.72,5.29-5.99l6.53,1.58ZM1828.48,174.01l.81-4.87c.11-.11,2.27.42,2.59.57.15.07.39.03.25.34-.45,1.03-2.77,3.09-3.65,3.96ZM1832.14,142.97c6.49,2.39,7.72,13.29,5.57,18.86-1.04,2.7-3.1,4.58-4.69,6.92-.2.03-3.83-.94-4.01-1.05-.36-.23-.49-.84-.82-1.2-.58-.64-1.23-1.21-1.93-1.72,1.01-.42,2.53-3.33,3.05-3.64.39-.24,2.15-.41,2.83-.62,2.15-.64,4.79-1.7,5.47-4.07,1.11-3.89-3.39-6.97-6.05-8.95l.59-4.53ZM1834.67,151.49c4.52,4.87.26,7.4-4.57,8.32.96-3.52.4-7.17,1.01-10.75.34-.36,3.18,2.02,3.55,2.43ZM1824.02,125.83c1.79,1.37,4.65,5.32,5.58,7.4,1.08,2.42,1.54,5.06,1.52,7.71-2.02-.3-3.99-.74-6-.05l-3.53-7.97,1.82-7.39c.35-.09.41.15.61.3ZM1816.72,111.93c4.44,1.73,7.27,6.58,6.08,11.36-.71-.16-1.24-.58-1.98-.75-2.27-.54-4.09.33-5.65,1.95-.6-.36-2.17-1.11-1.8-1.8.35-.65,1.95-1.8,2.53-2.54,1.95-2.5,1.49-5.34.82-8.21ZM1815.4,111.93c.24.29.64,2.47.68,2.97.22,2.74-.7,4.41-2.71,6.16-.2,0-.79-2.77-1.01-3.24-.63-1.36-1.95-2.06-3.35-2.44-.27-.36,1.96-2.06,2.29-2.27.64-.4,3.58-1.82,4.1-1.18ZM1803.42,106.25c.19-.31,1.36-.93,1.77-1.07,4.07-1.43,8.25,1.8,9.49,5.53-1.88.03-3.75,1.07-5.17,2.24-.52.42-1.87,2.06-2.28,2.18-.73.22-1.9-.07-2.7.04.83-2.47.56-4.46-.37-6.83-.25-.62-1.11-1.52-.75-2.1ZM1803.23,115.18c-.39.39-1.39.13-1.93.2l1.11-7.5c1.45,1.12,1.97,6.13.82,7.31ZM1800.94,108.43c-.4,2.16-.08,4.57-.88,6.73-2.36.18-4.89-.82-6.74-2.25-.68-.52-4.07-3.92-3.57-4.61.52.01,1.13-.75,1.51-.76.27,0,1.3.66,2.03.74,2.83.31,5.23-1.07,6.9-3.24,2.2,1.75,1.09,1.6.76,3.39ZM1783.67,112.82c-.1-1,.04-2.02-.02-3.03-.33-5.91-1.55-11.38,5.21-13.84,5.2-1.9,13.7-.12,11.21,7.05-.24.05-.39-.03-.6-.11-.22-.09-2.99-1.62-3.13-1.74-.48-.39-.55-1.37-1.23-2.02-2.1-1.99-6.69-1.05-8.03,1.52-1.24,2.39-.12,5.04.81,7.32-.66,1.04-1.63,1.96-1.8,3.26-.23,1.69.47,3.4.81,5.02l-1.84,1.35c-.54-1.52-1.24-3.17-1.4-4.79ZM1783.64,134.15c.02-.49,1.11-3.34,1.63-2.95l2.25,5.16-2.85,2.14c-.31-1.39-1.1-2.89-1.03-4.35ZM1784.67,141.35l4.04,5.41c-1.24,1.35-2.42,2.71-3.33,4.32-1.67-2.85-1.7-6.64-.71-9.73ZM1785.48,153.72c1.74.88.49,2.08.4,3.56-.13,2.34.93,3.76,3.34,3.75,2.65,0,6.23-1.25,8.96-1.6,2.14-.28,5.19-.86,6.16,1.59l-4.16,2.04c-4.44-2.78-9.26-.67-13.37,1.6-2.14-3.18-2.47-7.33-1.34-10.94ZM1786.49,178.27c-.12-3.72-4.68-9.39-.13-11.76l3.12,3.54-1.98,3.85-1.01,4.36ZM1787.91,187.81c.47-.1.32.06.45.26,1.26,1.94,1.89,4.38,4.33,5.42l.09.3-1.73,4.16-3.34,3.25c-2-4.26-1.6-9.12.2-13.39ZM1782.89,216.26c-.52-4.13,1.42-8.44,3.84-11.68.67-.9,1.21-2.16,1.95-.48-2.14,5.14-3.09,10.68-2.59,16.23l-1.63.95c-.34-1.68-1.36-3.31-1.57-5.02ZM1787.6,249.48c-.3,0-2.08-.64-2.41-.84-2.4-1.47-2.92-7.43-2.77-10.01.11-1.84.7-3.82.82-5.67.15-2.36-.52-6.63.56-8.57.12-.22.23-.51.55-.47,2.14,5.1,1.69,10.72,2.84,16.03.13.61.61,1.51.68,1.98.07.48-.32.76-.36,1.18-.31,3.17,1.01,4.47,3.24,6.38h-3.14ZM1788.72,243.39c1.86.98,5.9,2.21,7.85,1.46,1.57-.6,2.63-2.3,3.8-3.41,3.38.59,6.87.35,10.26-.08-3.5,3.11-8.52,5.41-13.03,6.75-1.03.31-3.44,1.06-4.4,1.06-1.79,0-5.49-3.71-4.48-5.78ZM1802.85,262.29c-2.85,1.56-9.66,4.51-10.28-.64.89-.28,1.81-.53,2.69-.87.85-.33,4.53-2.1,4.95-2.14.37-.03,1.26.62,1.84.72,2.8.48,5.4-1.19,7.96-1.98-2.18,1.69-4.73,3.56-7.17,4.9ZM1811.24,250.29c-1.87,1.62-3.99,3.06-6.1,4.34-.81.49-3.32,2.08-4.03,2.27-1.01.26-.87-2.21-.77-2.81.1-.59.78-2.07,1.29-2.36l9.61-1.44ZM1802.92,250.29c2.11-2.29,6.71-4.15,9.33-1.72l-9.33,1.72ZM1813.33,254.36c-.8.62-4.49,2.23-5.6,2.66-1.57.61-3.63,1.38-5.32,1.19-.3-.03-.62-.04-.7-.41,4.36-1.85,8.01-4.97,11.97-7.51.53.98.57,3.36-.34,4.07ZM1814.08,248.39c-.15.04-.27.09-.41-.02-3.49-4.32-9.77-1.38-12.72,2.09-1.59.11-3.18.04-4.74-.27-.22-.04-.66-.01-.6-.31,4.82-1.27,9.97-3.26,14.06-6.13.76-.54,2.73-2.41,3.27-2.62,1.81-.7,5.22-.46,7.22-.8.21,2.65-1.21,4.19-3.04,5.79-.43.38-2.69,2.16-3.04,2.25ZM1820.02,250.86c-1.52.9-3.23,1.52-4.73,2.47.2-1.44-.23-2.52-.61-3.85,3.05-.36,6.06-1.39,8.11-3.76,2.49-2.89,3.23-6.1-1.59-6.61l-.13-3.01c.67.45,1.19,1.42,1.73,1.9.08.07.36,0,.51.13,1.51,1.28,3.01,2.55,4.75,3.55-1.65,3.93-4.36,7.02-8.03,9.19ZM1830.31,236.79c-.14.45-.86,1.17-1.11,1.73-.26.57-.22,1.7-.81,1.84-.37,0-2.41-1.31-2.84-1.64-.37-.28-2.31-1.8-1.93-2.23,1.94.72,4.57-.26,6.39,0,.23.03.41-.08.3.3ZM1830.29,235.16c-1.3.53-5.11.54-6.56.3-1.14-.19-2.71-.39-2.55-1.89.03-.28.81-1.87,1-2.06.67-.63,1.09-.09,1.74-.08.4,0,.74-.18,1.15-.16,1.94.1,3.94.77,5.91.79,1.32.96.63,2.55-.69,3.1ZM1835.78,231.32l-2.83,2.74c.28-.68-.54-2.81-1.15-3.01-.51-.17-1.37-.02-1.98-.45l-6.4-.4c-.07-.56.63-.71.77-1.16.67-2.26-1.64-3.36-3.2-4.22l1.34-1.5c3.21,2,6.48,4.59,10.52,4.24,6.42-.56,8.59-9.94,6.49-15-.34-.82-1.6-2.32-1.49-2.9.24-1.25,3.59-1.35,4.63-1.98.2.78.5,1.55.59,2.36.58,5.51-3.65,17.05-7.28,21.27ZM1846.3,197.81c-.45,2.67-1.4,6.08-3.52,7.84-3.56-4.74,2.66-7.26,1.47-12.22-.13-.56-.76-1.56-.75-1.88,0-.18.62-1.39.74-1.88.62-2.4.8-4.89-1.77-6.13,1.52-2.32,1.28-4.73.61-7.3,1.16.29,2.18,1.4,2.74,2.43,1.92,3.51,1.18,14.97.47,19.15Z"/>
</svg>