<?xml version="1.0" encoding="UTF-8"?>
<svg id="Capa_1" xmlns="http://www.w3.org/2000/svg" version="1.1" viewBox="0 0 1920 1080">
  <!-- Generator: Adobe Illustrator 29.5.1, SVG Export Plug-In . SVG Version: 2.1.0 Build 141)  -->
  <defs>
    <style>
      .st0 {
        fill: none;
        stroke: #1d1d1b;
      }

      .st1 {
        fill: #1d1d1b;
      }
    </style>
  </defs>
  <g>
    <path class="st1" d="M809.22,157.57c-.77,0-1.47-.13-2.11-.38-.64-.25-1.2-.63-1.66-1.15-.46-.52-.82-1.17-1.08-1.96-.26-.79-.38-1.72-.38-2.79v-1.58c0-1.15.14-2.14.41-2.96.27-.82.64-1.5,1.1-2.02s.99-.91,1.59-1.15c.6-.24,1.23-.36,1.89-.36.76,0,1.42.12,2,.37.58.25,1.06.62,1.45,1.12.39.5.69,1.14.88,1.9.2.76.29,1.66.29,2.7v1.19h-8.77v-1.34h7.35v-.35c-.02-.9-.14-1.67-.38-2.31-.23-.63-.59-1.12-1.05-1.46-.47-.34-1.06-.5-1.78-.5-.52,0-1,.1-1.44.29-.44.19-.82.49-1.14.9-.32.41-.56.94-.73,1.6-.17.66-.25,1.45-.25,2.38v1.58c0,.84.09,1.57.27,2.19s.44,1.12.79,1.53c.34.41.75.71,1.23.91s1,.3,1.58.3c.71,0,1.33-.12,1.87-.36s1.02-.61,1.44-1.11l.74.95c-.25.33-.56.64-.93.93-.37.29-.82.51-1.34.68s-1.14.26-1.85.26Z"/>
    <path class="st1" d="M818.21,137.68v19.63h-1.42v-19.63h1.42Z"/>
    <path class="st1" d="M829.47,146.14v16.48h-1.42v-19.14h1.33l.09,2.66ZM837.5,149.75v1.29c0,1.12-.1,2.08-.29,2.9-.2.82-.49,1.5-.87,2.03s-.85.94-1.4,1.2c-.55.26-1.18.4-1.88.4s-1.29-.12-1.81-.36c-.53-.24-.98-.58-1.35-1.02-.37-.44-.67-.95-.89-1.54-.22-.59-.37-1.24-.45-1.96v-4.26c.1-.78.26-1.5.49-2.13.22-.64.52-1.19.89-1.65s.82-.81,1.34-1.06c.52-.25,1.11-.37,1.78-.37.72,0,1.35.12,1.9.37.55.25,1.02.63,1.41,1.15s.67,1.19.87,2.03c.2.83.29,1.83.29,2.98ZM836.08,151.04v-1.29c0-.89-.07-1.66-.2-2.31s-.34-1.18-.62-1.6c-.28-.43-.63-.74-1.06-.95s-.94-.31-1.51-.31-1.09.11-1.51.33c-.42.22-.77.5-1.05.86-.28.36-.5.75-.66,1.17s-.29.84-.36,1.25v4.84c.14.56.36,1.09.65,1.58.29.49.68.88,1.16,1.18.49.3,1.09.45,1.8.45.58,0,1.08-.1,1.5-.31.42-.21.77-.53,1.05-.96s.48-.97.62-1.62c.14-.65.2-1.41.2-2.3Z"/>
    <path class="st1" d="M842.37,137.68v19.63h-1.42v-19.63h1.42Z"/>
    <path class="st1" d="M853.66,149.23l.03,1.21h-2.47c-.66,0-1.23.07-1.74.22-.5.14-.92.35-1.26.63-.34.27-.59.6-.76.97s-.26.81-.26,1.29c0,.61.1,1.11.29,1.5.2.38.49.67.87.85.38.18.83.27,1.35.27.7,0,1.31-.14,1.85-.42.53-.28.97-.65,1.31-1.11.34-.46.56-.96.66-1.48l.38.87c-.09.38-.24.78-.47,1.19-.23.41-.53.8-.89,1.15s-.8.64-1.3.86c-.5.22-1.06.33-1.69.33-.77,0-1.43-.15-2-.43-.57-.29-1.01-.73-1.32-1.32s-.47-1.31-.47-2.17c0-.64.11-1.23.33-1.76.22-.54.54-1.01.98-1.41.43-.4.98-.71,1.64-.93.66-.22,1.42-.33,2.29-.33h2.65ZM853.36,154.83v-7.53c0-.65-.11-1.17-.33-1.58-.22-.4-.54-.7-.97-.89-.43-.19-.95-.28-1.58-.28-.58,0-1.1.12-1.55.35-.46.23-.81.56-1.06.97-.25.41-.38.89-.38,1.42h-1.42c0-.55.1-1.06.31-1.55.21-.49.51-.92.91-1.3.4-.38.87-.68,1.42-.9.55-.22,1.16-.33,1.83-.33.83,0,1.56.13,2.2.4.64.26,1.14.7,1.5,1.3.36.6.54,1.41.54,2.4v7.07c0,.49.03.98.1,1.5s.15.92.26,1.24v.18h-1.5c-.09-.3-.16-.68-.21-1.15-.05-.47-.07-.91-.07-1.33Z"/>
    <path class="st1" d="M860.08,146.43v10.87h-1.42v-13.83h1.37l.05,2.95ZM859.76,149.54l-.63-.37c.03-.82.17-1.58.4-2.3.23-.72.56-1.35.96-1.9.41-.55.89-.98,1.44-1.28s1.17-.46,1.84-.46c.58,0,1.1.09,1.55.28.46.19.84.48,1.16.88.32.4.56.92.73,1.57.17.64.26,1.42.26,2.33v9.02h-1.42v-9.02c0-.95-.11-1.69-.32-2.22-.21-.54-.52-.92-.91-1.14-.4-.23-.87-.34-1.42-.34-.59,0-1.11.16-1.55.47-.45.32-.83.72-1.14,1.23-.31.5-.55,1.04-.71,1.62-.16.57-.25,1.12-.26,1.64Z"/>
    <path class="st1" d="M870.73,151.11v-1.43c0-1.05.12-1.97.36-2.78.24-.8.59-1.48,1.04-2.02.45-.55.98-.96,1.6-1.23.62-.28,1.3-.42,2.04-.42s1.45.14,2.06.42,1.15.69,1.6,1.23c.45.54.79,1.22,1.04,2.02.25.81.37,1.73.37,2.78v1.43c0,1.05-.12,1.97-.37,2.77-.25.8-.59,1.48-1.04,2.03-.45.55-.98.96-1.6,1.25s-1.3.42-2.04.42-1.44-.14-2.06-.42-1.15-.7-1.6-1.25c-.46-.55-.81-1.22-1.05-2.03-.24-.8-.36-1.73-.36-2.77ZM872.17,149.68v1.43c0,.79.08,1.5.24,2.13.16.63.4,1.17.7,1.61.31.44.69.78,1.14,1.02.45.24.97.36,1.56.36s1.13-.12,1.59-.36c.46-.24.83-.58,1.14-1.02.3-.44.53-.98.68-1.61s.22-1.34.22-2.13v-1.43c0-.78-.08-1.49-.24-2.11-.16-.63-.4-1.16-.72-1.61s-.7-.79-1.15-1.04-.96-.36-1.54-.36-1.07.12-1.52.36-.83.59-1.14,1.04-.55.98-.71,1.61c-.16.63-.24,1.33-.24,2.11Z"/>
    <path class="st1" d="M891.41,146.14v16.48h-1.42v-19.14h1.33l.09,2.66ZM899.43,149.75v1.29c0,1.12-.1,2.08-.29,2.9-.2.82-.49,1.5-.87,2.03s-.85.94-1.4,1.2c-.55.26-1.18.4-1.88.4s-1.29-.12-1.81-.36c-.53-.24-.98-.58-1.35-1.02-.37-.44-.67-.95-.89-1.54-.22-.59-.37-1.24-.45-1.96v-4.26c.1-.78.26-1.5.49-2.13.22-.64.52-1.19.89-1.65s.82-.81,1.34-1.06c.52-.25,1.11-.37,1.78-.37.72,0,1.35.12,1.9.37.55.25,1.02.63,1.41,1.15s.67,1.19.87,2.03c.2.83.29,1.83.29,2.98ZM898.02,151.04v-1.29c0-.89-.07-1.66-.2-2.31s-.34-1.18-.62-1.6c-.28-.43-.63-.74-1.06-.95s-.94-.31-1.51-.31-1.09.11-1.51.33c-.42.22-.77.5-1.05.86-.28.36-.5.75-.66,1.17s-.29.84-.36,1.25v4.84c.14.56.36,1.09.65,1.58.29.49.68.88,1.16,1.18.49.3,1.09.45,1.8.45.58,0,1.08-.1,1.5-.31.42-.21.77-.53,1.05-.96s.48-.97.62-1.62c.14-.65.2-1.41.2-2.3Z"/>
    <path class="st1" d="M904.15,145.75v11.55h-1.42v-13.83h1.38l.04,2.27ZM908.17,143.38l-.04,1.43c-.15-.03-.29-.06-.42-.07-.14-.01-.29-.02-.46-.02-.54,0-1.01.12-1.41.36-.4.24-.74.57-1.02,1s-.49.93-.64,1.5c-.15.57-.24,1.18-.26,1.83l-.5.22c0-.89.08-1.73.23-2.5.15-.77.39-1.46.71-2.04s.72-1.04,1.21-1.37,1.07-.49,1.73-.49c.15,0,.31.01.48.04.17.03.29.07.38.11Z"/>
    <path class="st1" d="M914.98,157.57c-.77,0-1.47-.13-2.11-.38-.64-.25-1.2-.63-1.66-1.15-.46-.52-.82-1.17-1.08-1.96-.26-.79-.38-1.72-.38-2.79v-1.58c0-1.15.14-2.14.41-2.96.27-.82.64-1.5,1.1-2.02s.99-.91,1.59-1.15c.6-.24,1.23-.36,1.89-.36.76,0,1.42.12,2,.37.58.25,1.06.62,1.45,1.12.39.5.69,1.14.88,1.9.2.76.29,1.66.29,2.7v1.19h-8.77v-1.34h7.35v-.35c-.02-.9-.14-1.67-.38-2.31-.23-.63-.59-1.12-1.05-1.46-.47-.34-1.06-.5-1.78-.5-.52,0-1,.1-1.44.29-.44.19-.82.49-1.14.9-.32.41-.56.94-.73,1.6-.17.66-.25,1.45-.25,2.38v1.58c0,.84.09,1.57.27,2.19s.44,1.12.79,1.53c.34.41.75.71,1.23.91s1,.3,1.58.3c.71,0,1.33-.12,1.87-.36s1.02-.61,1.44-1.11l.74.95c-.25.33-.56.64-.93.93-.37.29-.82.51-1.34.68s-1.14.26-1.85.26Z"/>
    <path class="st1" d="M922.48,143.48l3.67,12.36.2,1.47h-1.02l-4.32-13.83h1.47ZM925.7,155.81l3.62-12.33h1.46l-4.29,13.83h-1.04l.26-1.5Z"/>
    <path class="st1" d="M933.29,139.49c0-.3.08-.55.25-.75s.4-.3.7-.3.52.1.68.3.25.45.25.75-.08.53-.25.73-.39.29-.68.29-.53-.1-.7-.29-.25-.44-.25-.73ZM934.92,143.48v13.83h-1.42v-13.83h1.42Z"/>
    <path class="st1" d="M938.35,151.11v-1.43c0-1.05.12-1.97.36-2.78.24-.8.59-1.48,1.04-2.02.45-.55.98-.96,1.6-1.23.62-.28,1.3-.42,2.04-.42s1.45.14,2.06.42,1.15.69,1.6,1.23c.45.54.79,1.22,1.04,2.02.25.81.37,1.73.37,2.78v1.43c0,1.05-.12,1.97-.37,2.77-.25.8-.59,1.48-1.04,2.03-.45.55-.98.96-1.6,1.25s-1.3.42-2.04.42-1.44-.14-2.06-.42-1.15-.7-1.6-1.25c-.46-.55-.81-1.22-1.05-2.03-.24-.8-.36-1.73-.36-2.77ZM939.78,149.68v1.43c0,.79.08,1.5.24,2.13.16.63.4,1.17.7,1.61.31.44.69.78,1.14,1.02.45.24.97.36,1.56.36s1.13-.12,1.59-.36c.46-.24.83-.58,1.14-1.02.3-.44.53-.98.68-1.61s.22-1.34.22-2.13v-1.43c0-.78-.08-1.49-.24-2.11-.16-.63-.4-1.16-.72-1.61s-.7-.79-1.15-1.04-.96-.36-1.54-.36-1.07.12-1.52.36-.83.59-1.14,1.04-.55.98-.71,1.61c-.16.63-.24,1.33-.24,2.11Z"/>
    <path class="st1" d="M964.95,149.23l.03,1.21h-2.47c-.66,0-1.23.07-1.74.22-.5.14-.92.35-1.26.63-.34.27-.59.6-.76.97s-.26.81-.26,1.29c0,.61.1,1.11.29,1.5.2.38.49.67.87.85.38.18.83.27,1.35.27.7,0,1.31-.14,1.85-.42.53-.28.97-.65,1.31-1.11s.56-.96.67-1.48l.38.87c-.08.38-.24.78-.47,1.19-.23.41-.53.8-.89,1.15s-.8.64-1.3.86c-.5.22-1.06.33-1.69.33-.77,0-1.43-.15-2-.43-.57-.29-1.01-.73-1.32-1.32s-.47-1.31-.47-2.17c0-.64.11-1.23.33-1.76.22-.54.54-1.01.98-1.41.43-.4.98-.71,1.64-.93.66-.22,1.42-.33,2.29-.33h2.64ZM964.65,154.83v-7.53c0-.65-.11-1.17-.33-1.58s-.54-.7-.97-.89c-.43-.19-.95-.28-1.58-.28-.58,0-1.1.12-1.55.35-.46.23-.81.56-1.06.97-.25.41-.38.89-.38,1.42h-1.42c0-.55.1-1.06.31-1.55.21-.49.51-.92.91-1.3.4-.38.87-.68,1.42-.9.55-.22,1.16-.33,1.83-.33.83,0,1.56.13,2.2.4.64.26,1.14.7,1.5,1.3.36.6.54,1.41.54,2.4v7.07c0,.49.03.98.1,1.5s.15.92.26,1.24v.18h-1.5c-.09-.3-.16-.68-.21-1.15-.05-.47-.07-.91-.07-1.33Z"/>
    <path class="st1" d="M975.33,151.04v-1.29c0-1.16.1-2.15.31-2.98s.51-1.51.9-2.03.87-.9,1.42-1.15c.56-.25,1.18-.37,1.87-.37s1.26.12,1.77.37c.51.25.94.6,1.3,1.06.36.46.65,1.01.87,1.65.22.64.38,1.35.49,2.13v4.13c-.09.72-.24,1.4-.45,2.01-.22.62-.51,1.15-.87,1.59-.36.44-.8.79-1.32,1.04-.52.25-1.12.37-1.8.37s-1.3-.13-1.85-.4c-.55-.26-1.03-.66-1.42-1.2s-.69-1.21-.9-2.03-.31-1.78-.31-2.9ZM976.76,149.75v1.29c0,.89.07,1.65.2,2.29.14.64.34,1.18.61,1.6.27.43.62.74,1.04.95.42.21.91.31,1.48.31.72,0,1.33-.15,1.81-.45.49-.3.88-.7,1.17-1.2.29-.5.51-1.05.65-1.64v-4.73c-.08-.41-.2-.82-.36-1.25s-.39-.81-.66-1.17c-.28-.36-.63-.65-1.05-.86s-.93-.33-1.53-.33-1.08.1-1.51.31-.78.53-1.05.95c-.27.43-.47.96-.61,1.6-.13.64-.2,1.41-.2,2.31ZM983.35,154.62v-16.94h1.42v19.63h-1.33l-.09-2.68Z"/>
    <path class="st1" d="M988.54,139.49c0-.3.08-.55.25-.75.17-.2.4-.3.7-.3s.52.1.68.3c.17.2.25.45.25.75s-.08.53-.25.73c-.17.2-.39.29-.68.29s-.53-.1-.7-.29c-.17-.2-.25-.44-.25-.73ZM990.18,143.48v13.83h-1.42v-13.83h1.42Z"/>
    <path class="st1" d="M994.13,137.68h1.42v16.94l-.09,2.68h-1.33v-19.63ZM1003.58,149.75v1.29c0,1.12-.1,2.08-.29,2.9-.2.82-.49,1.5-.87,2.03-.38.54-.85.94-1.4,1.2-.55.26-1.18.4-1.88.4s-1.29-.12-1.81-.37c-.52-.25-.96-.59-1.32-1.04-.36-.44-.65-.97-.87-1.59-.22-.62-.37-1.29-.45-2.01v-4.13c.1-.78.26-1.5.49-2.13.22-.64.52-1.19.88-1.65s.8-.81,1.3-1.06,1.09-.37,1.76-.37c.72,0,1.35.12,1.9.37s1.02.63,1.41,1.15c.38.52.67,1.19.87,2.03.2.83.29,1.83.29,2.98ZM1002.15,151.04v-1.29c0-.89-.06-1.65-.19-2.3-.12-.65-.32-1.18-.59-1.61-.27-.43-.61-.74-1.04-.95-.42-.21-.93-.31-1.53-.31s-1.09.11-1.51.33-.77.5-1.04.86c-.27.36-.49.75-.66,1.17s-.29.84-.36,1.25v4.73c.12.56.32,1.1.61,1.6s.68.92,1.18,1.23c.49.31,1.1.47,1.81.47.58,0,1.08-.1,1.49-.31.41-.21.76-.53,1.03-.95.27-.43.47-.96.6-1.6.13-.64.19-1.41.19-2.29Z"/>
    <path class="st1" d="M1014.51,151.53l.69-.03c0,.87-.08,1.67-.26,2.41-.17.74-.44,1.38-.8,1.92-.36.54-.83.96-1.41,1.27-.58.31-1.28.46-2.1.46-.57,0-1.09-.1-1.56-.29-.47-.2-.87-.5-1.21-.91-.34-.41-.6-.95-.78-1.61-.18-.66-.28-1.46-.28-2.41v-8.86h1.42v8.88c0,.72.07,1.34.2,1.83.14.5.33.89.57,1.18.24.29.52.5.82.63.31.13.63.19.98.19.93,0,1.66-.21,2.2-.65.54-.43.92-1,1.15-1.71.23-.71.35-1.48.35-2.31ZM1014.25,154.11v-10.63h1.42v13.83h-1.37l-.05-3.19Z"/>
    <path class="st1" d="M1019.55,143.48h1.44v15.47c0,.84-.12,1.56-.35,2.15-.23.59-.58,1.03-1.03,1.33-.45.3-1.01.45-1.67.45-.19,0-.38-.02-.59-.06-.21-.04-.39-.1-.56-.18v-1.29c.13.03.28.07.46.11.18.04.34.06.5.06.39,0,.72-.1.98-.29.26-.19.47-.48.61-.86.14-.38.21-.85.21-1.42v-15.47ZM1019.34,139.49c0-.3.08-.55.25-.75s.39-.3.68-.3.53.1.7.3c.17.2.25.45.25.75s-.08.53-.25.73c-.17.2-.41.29-.7.29s-.52-.1-.68-.29-.25-.44-.25-.73Z"/>
    <path class="st1" d="M1032.38,149.23l.03,1.21h-2.47c-.66,0-1.24.07-1.74.22-.5.14-.92.35-1.26.63-.34.27-.59.6-.76.97-.17.38-.25.81-.25,1.29,0,.61.1,1.11.29,1.5.2.38.49.67.87.85.38.18.83.27,1.35.27.7,0,1.31-.14,1.85-.42.53-.28.97-.65,1.31-1.11s.56-.96.67-1.48l.38.87c-.08.38-.24.78-.47,1.19-.23.41-.53.8-.89,1.15s-.8.64-1.3.86c-.5.22-1.06.33-1.69.33-.77,0-1.43-.15-2-.43s-1-.73-1.32-1.32c-.31-.59-.47-1.31-.47-2.17,0-.64.11-1.23.33-1.76.22-.54.54-1.01.98-1.41s.98-.71,1.64-.93c.66-.22,1.42-.33,2.29-.33h2.64ZM1032.08,154.83v-7.53c0-.65-.11-1.17-.33-1.58s-.54-.7-.97-.89c-.43-.19-.95-.28-1.58-.28-.58,0-1.1.12-1.55.35-.46.23-.81.56-1.06.97-.25.41-.38.89-.38,1.42h-1.42c0-.55.1-1.06.31-1.55.21-.49.51-.92.91-1.3.4-.38.87-.68,1.42-.9.55-.22,1.16-.33,1.83-.33.83,0,1.56.13,2.2.4.64.26,1.14.7,1.5,1.3.36.6.54,1.41.54,2.4v7.07c0,.49.03.98.1,1.5s.15.92.26,1.24v.18h-1.5c-.09-.3-.16-.68-.21-1.15-.05-.47-.07-.91-.07-1.33Z"/>
    <path class="st1" d="M1038.8,145.75v11.55h-1.42v-13.83h1.38l.04,2.27ZM1042.82,143.38l-.04,1.43c-.15-.03-.29-.06-.42-.07-.14-.01-.29-.02-.46-.02-.54,0-1.01.12-1.41.36-.4.24-.74.57-1.02,1-.28.43-.49.93-.64,1.5-.15.57-.24,1.18-.26,1.83l-.5.22c0-.89.08-1.73.23-2.5.15-.77.39-1.46.71-2.04s.72-1.04,1.21-1.37,1.07-.49,1.73-.49c.15,0,.31.01.48.04.17.03.29.07.38.11Z"/>
    <path class="st1" d="M1052.76,137.68v19.63h-1.42v-19.63h1.42Z"/>
    <path class="st1" d="M1056.69,141.41l2.44-3.58h1.85l-2.96,3.58h-1.33ZM1058.29,143.48v13.83h-1.43v-13.83h1.43Z"/>
    <path class="st1" d="M1063.65,146.43v10.87h-1.42v-13.83h1.37l.05,2.95ZM1063.33,149.54l-.63-.37c.03-.82.17-1.58.4-2.3.23-.72.56-1.35.96-1.9s.89-.98,1.44-1.28c.55-.31,1.17-.46,1.84-.46.58,0,1.1.09,1.55.28.46.19.84.48,1.16.88s.56.92.74,1.57c.17.64.25,1.42.25,2.33v9.02h-1.42v-9.02c0-.95-.11-1.69-.32-2.22s-.52-.92-.91-1.14c-.4-.23-.87-.34-1.42-.34-.59,0-1.11.16-1.55.47-.45.32-.83.72-1.14,1.23-.31.5-.55,1.04-.71,1.62-.16.57-.25,1.12-.26,1.64Z"/>
    <path class="st1" d="M1079.41,157.57c-.77,0-1.47-.13-2.12-.38-.64-.25-1.2-.63-1.66-1.15-.46-.52-.82-1.17-1.08-1.96-.26-.79-.38-1.72-.38-2.79v-1.58c0-1.15.14-2.14.41-2.96s.64-1.5,1.11-2.02c.46-.52.99-.91,1.59-1.15.6-.24,1.23-.36,1.89-.36.76,0,1.42.12,2,.37s1.06.62,1.45,1.12c.39.5.69,1.14.88,1.9s.29,1.66.29,2.7v1.19h-8.77v-1.34h7.35v-.35c-.02-.9-.14-1.67-.38-2.31-.23-.63-.59-1.12-1.05-1.46s-1.06-.5-1.78-.5c-.52,0-1,.1-1.44.29-.44.19-.82.49-1.14.9-.32.41-.56.94-.73,1.6-.17.66-.25,1.45-.25,2.38v1.58c0,.84.09,1.57.27,2.19.18.61.45,1.12.79,1.53.34.41.75.71,1.23.91.48.2,1,.3,1.58.3.71,0,1.33-.12,1.87-.36s1.02-.61,1.44-1.11l.74.95c-.25.33-.56.64-.93.93-.37.29-.82.51-1.34.68-.52.17-1.14.26-1.85.26Z"/>
    <path class="st1" d="M1094.17,149.23l.03,1.21h-2.47c-.66,0-1.24.07-1.74.22-.5.14-.92.35-1.26.63-.34.27-.59.6-.76.97-.17.38-.25.81-.25,1.29,0,.61.1,1.11.29,1.5.2.38.49.67.87.85.38.18.83.27,1.35.27.7,0,1.31-.14,1.85-.42.53-.28.97-.65,1.31-1.11s.56-.96.67-1.48l.38.87c-.08.38-.24.78-.47,1.19-.23.41-.53.8-.89,1.15s-.8.64-1.3.86c-.5.22-1.06.33-1.69.33-.77,0-1.43-.15-2-.43s-1-.73-1.32-1.32c-.31-.59-.47-1.31-.47-2.17,0-.64.11-1.23.33-1.76.22-.54.54-1.01.98-1.41s.98-.71,1.64-.93c.66-.22,1.42-.33,2.29-.33h2.64ZM1093.86,154.83v-7.53c0-.65-.11-1.17-.33-1.58s-.54-.7-.97-.89c-.43-.19-.95-.28-1.58-.28-.58,0-1.1.12-1.55.35-.46.23-.81.56-1.06.97-.25.41-.38.89-.38,1.42h-1.42c0-.55.1-1.06.31-1.55.21-.49.51-.92.91-1.3.4-.38.87-.68,1.42-.9.55-.22,1.16-.33,1.83-.33.83,0,1.56.13,2.2.4.64.26,1.14.7,1.5,1.3.36.6.54,1.41.54,2.4v7.07c0,.49.03.98.1,1.5s.15.92.26,1.24v.18h-1.5c-.09-.3-.16-.68-.21-1.15-.05-.47-.07-.91-.07-1.33Z"/>
    <path class="st1" d="M1106.08,153.91c0-.38-.1-.73-.29-1.05-.2-.31-.52-.63-.98-.93-.46-.31-1.08-.64-1.86-1-.62-.28-1.18-.55-1.67-.82-.49-.26-.91-.54-1.25-.84-.34-.3-.6-.64-.78-1.02-.18-.38-.28-.83-.28-1.35s.1-1,.29-1.44c.2-.44.48-.83.84-1.17.36-.34.8-.6,1.3-.79.51-.19,1.08-.28,1.71-.28.9,0,1.67.17,2.31.52.64.35,1.13.82,1.48,1.42.35.6.52,1.3.52,2.1h-1.43c0-.48-.11-.92-.34-1.33-.23-.41-.55-.74-.98-1-.43-.26-.95-.38-1.57-.38s-1.16.11-1.57.34-.7.51-.88.86c-.18.35-.27.72-.27,1.1,0,.28.04.53.13.75.09.22.24.43.46.63.22.2.52.41.92.63.4.22.89.47,1.48.77.85.37,1.58.73,2.2,1.09.61.36,1.09.78,1.42,1.27.33.48.5,1.09.5,1.82,0,.57-.1,1.09-.31,1.55s-.49.86-.87,1.19-.83.58-1.36.75c-.53.17-1.12.26-1.77.26-.99,0-1.83-.19-2.51-.56-.69-.38-1.21-.87-1.56-1.48s-.53-1.28-.53-1.99h1.42c.03.72.21,1.28.54,1.67.33.39.73.66,1.21.81.48.15.95.22,1.43.22.62,0,1.15-.1,1.58-.31.43-.2.76-.48.98-.84.22-.35.33-.74.33-1.17Z"/>
  </g>
  <g>
    <line class="st0" x1="1795.92" y1="76.88" x2="1849.7" y2="76.88"/>
    <line class="st0" x1="1795.92" y1="93.57" x2="1849.7" y2="93.57"/>
    <line class="st0" x1="1795.92" y1="110.26" x2="1849.7" y2="110.26"/>
  </g>
  <g>
    <path d="M767.38,54.11c-1.23-1.35-2.72-2.41-4.45-3.18-1.73-.77-3.66-1.15-5.8-1.15h-13.14c-.39,0-.7.14-.93.43-.23.29-.34.64-.34,1.06v59.36c0,.45.11.82.32,1.11.21.29.53.43.95.43h2.57c.45,0,.77-.14.95-.43.18-.29.27-.65.27-1.11v-18.01h9.34c2.11,0,4.03-.38,5.78-1.13,1.74-.75,3.23-1.79,4.47-3.11,1.23-1.32,2.19-2.9,2.87-4.72.68-1.82,1.02-3.8,1.02-5.94v-12.91c0-2.11-.34-4.08-1.02-5.91-.68-1.83-1.63-3.43-2.87-4.78ZM766.16,77.86c0,1.44-.21,2.78-.63,4.02-.42,1.23-1.04,2.31-1.85,3.23-.81.92-1.79,1.63-2.93,2.14-1.14.51-2.44.77-3.88.77h-9.07v-33.58h9.03c1.47,0,2.79.27,3.95.81,1.16.54,2.14,1.28,2.93,2.21.8.93,1.41,2.03,1.83,3.3.42,1.26.63,2.63.63,4.11v13Z"/>
    <path d="M802,107.56h-16.93v-56.29c0-.42-.1-.77-.29-1.06-.2-.29-.5-.43-.93-.43h-2.57c-.42,0-.74.14-.95.43-.21.29-.32.64-.32,1.06v59.36c0,.45.11.82.32,1.11.21.29.53.43.95.43h20.72c.3,0,.58-.12.84-.36.26-.24.38-.59.38-1.04v-2.12c0-.45-.13-.74-.38-.88-.26-.14-.53-.2-.84-.2Z"/>
    <path d="M825.83,50.86c-.09-.42-.25-.71-.47-.86-.23-.15-.47-.23-.74-.23h-2.3c-.24,0-.48.08-.72.23-.24.15-.41.44-.5.86l-13.09,59.76c-.12.42-.08.78.11,1.08.2.3.47.45.84.45h2.75c.21,0,.44-.07.7-.2.26-.14.43-.41.52-.84l2.17-10.65h16.7l2.21,10.65c.06.42.23.7.52.84.29.14.53.2.74.2h2.71c.39,0,.67-.14.84-.43.16-.29.2-.64.11-1.06l-13.09-59.81ZM815.95,96.27l7.27-34.98.23-1.85.27,1.85,7.22,34.98h-14.99Z"/>
    <path d="M875.17,49.78h-2.3c-.45,0-.77.14-.97.43-.2.29-.29.64-.29,1.06l.14,47.21.14,3.3-.9-3.43-18.87-47.53c-.12-.33-.32-.57-.59-.72-.21-.21-.47-.32-.77-.32h-2.39c-.39,0-.7.14-.93.43-.23.29-.34.64-.34,1.06v59.36c0,.45.11.82.32,1.11.21.29.53.43.95.43h2.35c.42,0,.73-.14.93-.43.2-.29.29-.65.29-1.11l-.14-46.94-.09-2.53.63,2.21,19,47.85c.15.42.38.68.68.79.3.11.56.16.77.16h2.3c.42,0,.75-.14.99-.41.24-.27.36-.63.36-1.08v-59.4c0-.45-.11-.81-.32-1.08-.21-.27-.53-.41-.95-.41Z"/>
    <path d="M911.73,52.83c-1.29-1.25-2.81-2.22-4.54-2.91-1.73-.69-3.56-1.04-5.48-1.04s-3.84.35-5.57,1.04c-1.73.69-3.25,1.66-4.56,2.91-1.31,1.25-2.34,2.72-3.09,4.42-.75,1.7-1.13,3.54-1.13,5.53v36.47c0,1.96.38,3.78,1.13,5.46.75,1.69,1.78,3.14,3.07,4.38,1.29,1.23,2.81,2.2,4.54,2.91,1.73.71,3.57,1.06,5.53,1.06s3.8-.35,5.53-1.04c1.73-.69,3.25-1.65,4.56-2.89,1.31-1.23,2.35-2.69,3.11-4.38.77-1.69,1.15-3.52,1.15-5.51v-36.47c0-1.99-.38-3.83-1.15-5.53-.77-1.7-1.8-3.17-3.09-4.42ZM910.92,99.21c0,1.26-.24,2.46-.72,3.59-.48,1.13-1.14,2.11-1.96,2.96-.83.84-1.81,1.51-2.96,1.99-1.14.48-2.36.72-3.66.72s-2.5-.25-3.61-.74c-1.11-.5-2.08-1.17-2.91-2.01-.83-.84-1.47-1.83-1.94-2.96-.47-1.13-.7-2.34-.7-3.63v-36.2c0-1.29.23-2.52.7-3.68.47-1.16,1.11-2.17,1.94-3.02.83-.86,1.81-1.53,2.93-2.03s2.35-.74,3.68-.74,2.5.25,3.61.74c1.11.5,2.08,1.17,2.91,2.03.83.86,1.48,1.87,1.96,3.02.48,1.16.72,2.39.72,3.68v36.29Z"/>
    <path d="M929.06,49.82c-.36,0-.65.14-.86.41-.21.27-.32.6-.32.99v59.49c0,.42.09.77.27,1.04s.48.41.9.41c.36-.03.62-.17.77-.43.15-.26.23-.59.23-1.02v-59.49c0-.36-.08-.68-.25-.95-.17-.27-.41-.42-.74-.45Z"/>
    <path d="M970.59,49.82h-.05c-.42,0-.71.14-.86.41s-.23.6-.23.99v52.68l.09,2.57-.81-2.57-21.94-53.26c-.09-.21-.2-.37-.34-.47-.14-.11-.26-.19-.38-.25l-.27-.09h-.14c-.33.03-.59.18-.79.45-.2.27-.29.59-.29.95v59.49c0,.42.07.77.2,1.04s.41.41.84.41h.05c.42,0,.71-.14.86-.41.15-.27.23-.62.23-1.04v-53.17l-.09-1.62.45,1.22,22.25,54.26c.12.27.27.46.45.56.18.11.35.17.5.2h.23c.33-.03.59-.17.79-.43.2-.26.29-.58.29-.97v-59.54c0-.39-.07-.72-.2-.99s-.41-.41-.84-.41Z"/>
    <path d="M1007.96,49.82h-.05c-.12,0-.3.05-.54.16-.24.11-.41.34-.5.7l-12.1,54.89-.18.95-.14-.95-12.1-54.89c-.09-.36-.26-.59-.5-.7-.24-.11-.42-.16-.54-.16h-.05c-.33,0-.6.14-.81.43-.21.29-.27.63-.18,1.02l13.32,59.99c.09.39.24.64.45.74.21.11.41.16.59.16s.37-.05.56-.16c.2-.11.34-.35.43-.74l13.32-60.03c.09-.36.04-.68-.16-.97-.2-.29-.47-.43-.84-.43Z"/>
    <path d="M1018.75,49.82c-.36,0-.65.14-.86.41s-.32.6-.32.99v59.49c0,.42.09.77.27,1.04s.48.41.9.41c.36-.03.62-.17.77-.43.15-.26.23-.59.23-1.02v-59.49c0-.36-.08-.68-.25-.95s-.41-.42-.74-.45Z"/>
    <path d="M1057.25,91.35c-.54-1.11-1.22-2.15-2.03-3.11-.81-.96-1.75-1.93-2.8-2.89-1.05-.96-2.22-1.98-3.5-3.05-1.28-1.07-2.66-2.28-4.13-3.63-.87-.78-1.9-1.65-3.09-2.6s-2.32-2.02-3.41-3.23c-1.08-1.2-2-2.57-2.75-4.08-.75-1.52-1.13-3.27-1.13-5.26,0-2.5.38-4.56,1.15-6.18s1.72-2.9,2.84-3.84c1.13-.93,2.32-1.58,3.59-1.94s2.38-.54,3.34-.54c1.69,0,3.18.33,4.49.99,1.31.66,2.41,1.52,3.3,2.57.89,1.05,1.56,2.24,2.03,3.57.47,1.32.7,2.66.7,4.02v2.84c0,.39.07.72.2.99s.41.41.84.41h.05c.42,0,.71-.13.86-.38.15-.26.23-.61.23-1.06v-2.8c0-1.69-.29-3.32-.88-4.9s-1.43-2.99-2.53-4.22c-1.1-1.23-2.43-2.23-3.99-2.98-1.56-.75-3.33-1.13-5.28-1.13-.39,0-.99.05-1.78.16-.8.11-1.68.33-2.64.68-.96.35-1.96.85-2.98,1.51-1.02.66-1.96,1.53-2.8,2.6-.84,1.07-1.53,2.39-2.08,3.97s-.81,3.47-.81,5.66c0,2.08.35,3.93,1.04,5.55.69,1.62,1.59,3.11,2.71,4.47,1.11,1.35,2.35,2.61,3.72,3.77,1.37,1.16,2.73,2.3,4.08,3.41,2.41,2.05,4.44,3.8,6.09,5.26,1.66,1.46,2.99,2.87,3.99,4.24,1.01,1.37,1.74,2.81,2.19,4.31.45,1.51.68,3.31.68,5.42,0,1.53-.31,2.97-.93,4.31-.62,1.34-1.45,2.51-2.51,3.5-1.05.99-2.26,1.77-3.63,2.32-1.37.56-2.82.84-4.36.84-1.05,0-2.21-.2-3.48-.61s-2.44-1.08-3.54-2.01c-1.1-.93-2.02-2.15-2.78-3.66-.75-1.5-1.13-3.34-1.13-5.51v-2.26c0-.36-.09-.66-.27-.9-.18-.24-.44-.36-.77-.36h-.05c-.42,0-.71.14-.86.41s-.23.56-.23.86v2.26c0,2.47.41,4.57,1.24,6.32.83,1.75,1.88,3.18,3.16,4.31,1.28,1.13,2.69,1.96,4.24,2.48,1.55.53,3.03.79,4.45.79,1.93,0,3.72-.37,5.37-1.11,1.66-.74,3.09-1.72,4.31-2.93s2.17-2.62,2.87-4.2c.69-1.58,1.04-3.2,1.04-4.85,0-1.83-.14-3.45-.43-4.83-.29-1.38-.7-2.63-1.24-3.75Z"/>
    <path d="M1071.25,49.82c-.36,0-.65.14-.86.41s-.32.6-.32.99v59.49c0,.42.09.77.27,1.04s.48.41.9.41c.36-.03.62-.17.77-.43.15-.26.23-.59.23-1.02v-59.49c0-.36-.08-.68-.25-.95s-.41-.42-.74-.45Z"/>
    <path d="M1108.78,82.66c-.95-1.01-1.96-1.73-3.02-2.17-1.07-.44-2.04-.7-2.91-.79,1.05-.09,2.07-.42,3.05-.99.98-.57,1.84-1.32,2.57-2.26.74-.93,1.33-2,1.78-3.2.45-1.2.68-2.47.68-3.79v-6.45c0-2.2-.33-4.12-.99-5.78-.66-1.65-1.57-3.03-2.73-4.13-1.16-1.1-2.51-1.92-4.06-2.46s-3.23-.81-5.03-.81h-10.16c-.36,0-.65.14-.86.41s-.32.6-.32.99v59.49c0,.42.08.76.25,1.02.17.26.44.4.84.43h11.83c1.84,0,3.51-.29,5.03-.88s2.83-1.45,3.93-2.6c1.1-1.14,1.95-2.55,2.55-4.22.6-1.67.9-3.59.9-5.76v-5.28c0-2.71-.32-4.93-.95-6.66-.63-1.73-1.42-3.1-2.37-4.11ZM1088.94,51.95h9.12c1.62,0,3.09.23,4.4.68s2.43,1.14,3.36,2.08c.93.93,1.66,2.09,2.17,3.48.51,1.38.77,2.99.77,4.83v6.45c0,1.9-.43,3.45-1.29,4.67s-1.88,2.17-3.07,2.87c-1.19.69-2.41,1.17-3.66,1.42-1.25.26-2.28.38-3.09.38h-8.71v-26.86ZM1109.93,98.93c0,1.17-.19,2.41-.56,3.72-.38,1.31-.97,2.51-1.78,3.61-.81,1.1-1.87,2.01-3.16,2.73s-2.86,1.08-4.69,1.08h-10.79v-28.98h10.16c1.2,0,2.44.21,3.72.63,1.28.42,2.44,1.12,3.5,2.1,1.05.98,1.92,2.27,2.6,3.88.68,1.61,1.02,3.59,1.02,5.94v5.28Z"/>
    <path d="M1143.51,110.22c-.27-.09-.53-.14-.77-.14h-17.47v-58.86c0-.39-.08-.72-.25-.99s-.44-.41-.84-.41h-.05c-.36,0-.62.14-.79.41s-.25.6-.25.99v59.49c0,.75.26,1.22.77,1.4.03.03.11.05.23.05h18.64c.24,0,.5-.08.77-.25.27-.16.41-.46.41-.88v-.05c0-.42-.14-.68-.41-.77Z"/>
    <path d="M1174.79,51.95c.21,0,.45-.07.72-.2s.41-.41.41-.84v-.05c0-.42-.14-.7-.41-.84s-.51-.2-.72-.2h-20.09c-.33.06-.59.22-.77.47-.18.26-.27.56-.27.93v59.49c0,.39.08.72.25.99s.41.42.74.45h19.95c.21,0,.46-.07.74-.23.29-.15.43-.44.43-.86v-.05c0-.39-.14-.65-.43-.77-.29-.12-.53-.18-.74-.18h-18.78v-29.2h15.53c.21,0,.46-.07.74-.2s.43-.41.43-.84v-.05c0-.42-.14-.69-.43-.81-.29-.12-.53-.18-.74-.18h-15.53v-26.86h18.96Z"/>
  </g>
  <path d="M735.7,110.35h-15.45c-.05,0-.8.44-.91.54-1.11.95-.54,2.2-1.18,2.8-.66.63-2.8.69-3.44.02-.77-.8-.16-3.02-2.27-3.35l-25.85-.05c-1.96-.4-.54-2.74-2.6-3.56-.9-.36-3.09-.38-3.87.26-1.35,1.11-.19,3.09-2.45,3.34-4.87.55-10.76-.4-15.75-.02-2.25-.21-.97-3.04-3.04-3.67-2.82-.01-6.17-.39-8.95-.13-.94.09-1.65.56-1.98,1.46-.33.88-.08,1.87-1.17,2.27-2.5-.04-5.44.33-7.9.09-2.61-.25-1.02-2.15-2.63-3.35-1.01-.75-3.73-.74-4.6.27-.86,1-.26,2.81-1.87,3.02l-30.2.05c-2.62.4-1.14,3.34-3.13,3.75-.68.14-2.09.12-2.59-.4-.77-.8-.16-3.02-2.27-3.35l-25.85-.05c-1.96-.4-.54-2.74-2.6-3.56-.9-.36-3.09-.38-3.87.26-1.26,1.03-.37,3.32-2.45,3.34l-21.54-.02c-2.25-.21-.97-3.04-3.04-3.67-2.82-.01-6.17-.39-8.95-.13-.94.09-1.65.56-1.98,1.46-.33.88-.08,1.87-1.17,2.27-2.5-.04-5.44.33-7.9.09-2.61-.25-1.02-2.15-2.63-3.35-1.01-.75-3.73-.74-4.6.27-.86,1-.26,2.81-1.87,3.02l-24.95.05c-2.62.4-1.14,3.34-3.13,3.75-.68.14-2.09.12-2.59-.4-.77-.8-.16-3.02-2.27-3.35l-25.85-.05c-1.96-.4-.54-2.74-2.6-3.56-.9-.36-3.09-.38-3.87.26-1.35,1.11-.19,3.09-2.45,3.34-4.87.55-10.76-.4-15.75-.02-2.25-.21-.97-3.04-3.04-3.67-2.82-.01-6.17-.39-8.95-.13-.94.09-1.65.56-1.98,1.46-.33.88-.08,1.87-1.17,2.27-2.5-.04-5.44.33-7.9.09-2.61-.25-1.02-2.15-2.63-3.35-1.01-.75-3.73-.74-4.6.27-.86,1-.26,2.81-1.87,3.02l-30.2.05c-2.62.4-1.14,3.34-3.13,3.75-.68.14-2.09.12-2.59-.4-.77-.8-.16-3.02-2.27-3.35l-25.85-.05c-1.96-.4-.54-2.74-2.6-3.56-.9-.36-3.09-.38-3.87.26-1.26,1.03-.37,3.32-2.45,3.34l-21.54-.02c-2.25-.21-.97-3.04-3.04-3.67-2.82-.01-6.17-.39-8.95-.13-.94.09-1.65.56-1.98,1.46-.33.88-.08,1.87-1.17,2.27-2.5-.04-5.44.33-7.9.09-2.61-.25-1.02-2.15-2.63-3.35-1.01-.75-3.73-.74-4.6.27-.86,1-.26,2.81-1.87,3.02l-30.2.05c-2.62.4-1.14,3.34-3.13,3.75-.68.14-2.09.12-2.59-.4-.77-.8-.16-3.02-2.27-3.35l-25.85-.05c-1.96-.4-.54-2.74-2.6-3.56-.9-.36-3.09-.38-3.87.26-1.23,1.01-.39,3.18-2.29,3.33h-17.73c-.5-.06-.88-.43-1.19-.8-1.38-1.64-2.56-4.57-4.07-6.08-1.76-1.75-4.29-.25-4.2,2.06.1,2.58,4.67,5.5,4.66,7.45,0,1.21-1.34,1.25-2.18.72-1.42-.89-2.94-4.47-4.1-6.05-1.62-2.19-4.05-3.51-2.1-6.66.46-.74,1.23-1.2,1.74-1.88,3.03-4.02-2.63-8.01-4.7-4.34-1,1.77-1.21,3.84-2.88,5.45-2.12,2.05-5.01-1.29-3.54-3.36.86-1.21,2.06-2.07,2.75-3.59.94-2.08,1.03-5.12-1.66-5.84-3.37-.9-3.2,2.58-4.39,4.5-1.06,1.71-3.16,2.72-3.03,5.08.07,1.29,1.47,5.02,2.19,6.16,2.48,3.92,7.47,4.1,10.39,7.37.71.79,4.23,6.06,4.39,6.84.65,3.12-2.12,3.26-4.11,1.76-1.95-1.47-1.85-1.8-2.85-3.94-.78-1.66-1.15-4.09-3.05-4.92-1.09-.48-2.49-.36-3.06.81-2.22,4.56,6.36,9.18,3.3,14.38-1.35,2.29-4.01-.29-4.83-1.82-1.57-2.91-.66-5.32-.96-8.28-.19-1.91-1.85-4.63-1.15-6.27.53-1.25,1.17-1.45.95-3.12-.44-3.27-4.17-4.13-3.76-8.38.35-3.59,5.83-9.3,2.36-12.33-1.64-1.43-4.65-1.46-5.07,1.1-.19,1.19,1.04,6.54-1.15,6.21-1.37-.21-1.03-3.95-1.24-5.11-.74-4.05-4.77-3.29-5.22,0-.59,4.33,2.57,6.62,2.45,9.42-.03.82-.99,1.48-1.22,3.19-.29,2.16.2,3.57,1.57,4.27,1.12.57,7.79,0,6.25,2.68-1.06,1.85-4.77-.33-7.02.95-2.02,1.14-1.03,2.99-.96,4.66.11,2.58-.62,10.28,4.11,7.91,1.98-.99.85-2.9.54-4.69-.46-2.66,2.81-3.77,3.7-.78,2.02,6.87-1.98,14.09,5.86,16.5,3.45,1.06,8.12-.23,9.37-3.87.51-1.48.13-3.63,2.25-3.91,2.18-.29,2.82,1.63,5.27.56,1.5-.65,2.26-2.28,3.31-3.39,1.93-2.04,6.79-6.8,9.61-3.99,1.51,1.51.98,3.35-.78,4.3-2.22,1.2-4.27-.31-6.05.65-3.13,1.69-.67,5.41,1.93,5.94,2.33.48,2.79-.39,4.62-1.01,4.09-1.38,5.63,2.81,2.21,4.57-3.15,1.63-7.5.45-10.39-1.27-2.31-1.38-4.06-4.32-7.18-3.62-1.84.42-2.02,3.72-2.95,5.02-2.87,4-9.75,1.6-14.07,1.97-2.45.21-4.03,2.48-2.44,4.62,1.66,2.23,3.67.96,6.01.85,2.6-.12,6.16.15,8.55,1.23,3.95,1.79,3.43,7.02,7,9.12,2.33,1.38,5.54.96,5.9-2.14.5-4.25-4.04-3.99-5.81-6.83-.82-1.31-2.15-6.17-1-7.32.49-.49,1.38-.53,1.95-.15,2.11,1.4,1.23,5.95,4.46,7.5,2.75,1.32,3.68-.71,5.41-2.14,2.06-1.71,5.51-3.83,7.96-1.81,3.96,3.26-.17,8.35-4.62,7.33-1.02-.23-1.83-1.33-2.67-1.5-2.93-.6-4.58,3.27-2.41,5.31,3.76,3.52,10.98-1.18,14.41.63,3.31,1.75,1.41,6.94-2.01,7.42-3.78.53-5.61-2.53-8.95-3.34-4.88-1.19-4.95,2.89-8.81,3.34-6.43.74-9.94-6.82-13.3-10.75-3.72-4.35-8.94-2.26-13.83-2.83-1.22-.14-3.06-.95-3.33-2.29-.92-4.53,4.46-10.56,1.38-14.97-1.1-1.57-3.5-1.67-4.84-.37-3.29,3.17-.74,12.07-.74,16.11,0,1.86-1.13,4.48-.08,6.06,2.14,3.2,7.48.94,10.37.43,1.42-.25,5.88-.99,6.03,1.13.14,1.99-1.73,2.5-3.36,2.63-3.75.3-11.56-.06-14.47,3.13-2.71,2.96-.38,9.55,3.83,9.55,4.5,0,7.29-6.92,10.72-7.89,3.07-.87,5.85,1.04,8.66,1.85,3.81,1.09,7.32.52,9.13,4.82.97,2.29.85,4.22,1.28,6.51.49,2.62,2.58,4.48,5.27,3.19,4.03-1.94-.92-8.18,1.31-11.37,2.56-3.67,6.06,1.66,8.69,1.81,2.58.14,5.3-4.27,8.24-1.01,2.07,2.29,2.56,6.75-.2,8.69-3.31,2.32-5.83-2.85-8.91-2.4-4.41.65-7.46,13.66-1.47,14.08,1,.07,2.29-.46,3.05-1.08,2.21-1.82,1.7-5,5.44-4.7,4.1.33,5.38,4.75,5.16,8.24-.2,3.23-2.67,10.79-7.12,7.85-2.65-1.74-2.26-5.53-6.55-5.77-5.97-.33-5.13,7.68-10.42,5.89-1.86-.63-3.49-2.81-2.63-4.8.7-1.62,4.36-2.02,5.25-4.53,1.72-4.84-6.27-9.05-10.55-6.02-3.97,2.81-5.51,8.65-3.31,13,1.88,3.71,10.43,9.22,14.59,9.33,4.13.11,7.23-3.58,11.73-.87,3.51,2.1,2.54,9.33-.51,11.56-1.92,1.41-6.08,1.71-7.82-.06-2.25-2.29-1.92-4.4-5.82-5.68-5-1.64-9.17-2.13-12.81-6.57-3.67-4.48-7.19-19.2-3.86-24.16,1.93-2.89,5.89-.38,8.04-3.02,3.17-3.89-2.25-8.02-5.75-8.93-10.36-2.71-12.77,11.19-10.52,18.49.62,2.02,1.81,3.39,2.02,5.59.24,2.52-.67,5.63.07,8.08.78,2.6,4.59,3.86,3.19,6.92-1.39,3.05-5.65,4.16-6.92,8.12-.76,2.37-.67,6.36,2.69,6.13,2.99-.21,7.22-7.33,10.85-8.35,3.03-.85,5.7,3.48,8.02,5.05,2.53,1.72,9.19,3.87,9.48,7.37.12,1.46-.85,3.81-1.74,4.96-2.15,2.8-8.68,4.63-11.65,2.45-3.42-2.52,1.31-4.84,1.75-7.46.65-3.83-2.9-6.62-6.48-5.21-2.56,1.01-5.71,4.9-5.42,7.77.39,3.75,3.71,4.34,4.9,6.87,1.15,2.44.95,8.95-2.11,9.92-2.7.86-4.43-.87-6.77-1.41-1.78-.41-7.65.17-6.7-3.01.73-2.44,7.16.12,8.88-2.9,1.51-2.66.09-9.15-3.59-9.53-4.02-.41-3.11,3.46-4.59,5.29-.69.86-2.35.11-2.95-.64-2.57-3.16,1.27-6.31,1.63-9.52.4-3.64-2.6-4.55-2.84-7.38-.48-5.65,6-.29,5.7-5.46-.19-3.23-2.77-2.97-5.01-3.65-2.43-.74-2-3.01-.87-4.88,4.56-7.63,6.76-10.38,4.41-13.54-1.76-2.37-7.49-1.01-7.24-4.5.23-3.24,5.12-2.35,6.63-4.38,1.84-2.47.8-6.14-2.35-6.71-2.2-.4-4.83.16-7.16-.08-1.44-.15-2.86-.57-4.26-.91.75-1.77.77-3.6,1.18-5.43.8-3.65,3.54-7.54-.61-10.26,1.29-2.57,2.06-5.19,1.76-8.11-.09-.93-.88-2.7-.87-3.29,0-.38.93-2.03,1.12-2.66.58-1.94.71-4.55.26-6.52-.13-.59-.84-1.92-.84-2.22,0-.34.9-2.11,1.06-2.73.63-2.47.29-4.37-1.58-6.17,1.03-2.66,1.2-4.93.63-7.71-.11-.53-.67-1.64-.63-2.02.02-.21.86-1.53,1.05-2.01,1.1-2.8,1.35-9.79,1.08-12.86-.58-6.51-9.29-9.14-14.43-6.28-3.22,1.78-3.58,4.59-2.26,7.87l-1.34,1.39c-3.19-3.16-7.66-1.82-10.33,1.27-.55.64-1.74,2.91-1.98,3.09-.32.24-1.03.28-1.49.5-2.09.99-4.64,3.7-5.3,5.93-.59,1.97-.33,3.7-.1,5.69-3.03,2.82-6.12,6.39-7.04,10.54-.36,1.61-.46,3.27-.51,4.92-4.77,2.41-6.42,7.06-6.68,12.16-.28,5.34,1.6,8.57,4.9,12.51-.06.27-4.52,1.34-4.71,1.18.41-1.5.48-2.74-.04-4.22-1.65-4.68-8.73-2.7-7.08,2.73.76,2.51,3.2,2.92,5.49,3.03-.25,2.42-1.77,2.32-3.25,3.46-.8.61-1.41,1.43-1.83,2.34-1.59,3.44-.98,13.42-.31,17.34.49,2.87,1.4,5.82,3.54,7.88-1.1,3.17-.71,6.15.08,9.33,1.07,4.33,3.22,9.81,6.12,13.22.32.38,2.04,2.19,2.35,2.41.41.29.71.11.9.21,1.56.76,1.02,1.11,1.59,2.36,2.6,5.71,3.85,9.36,9.52,12.77,1.53.92,4.4,1.94,5.6,2.86.61.47,1.48,1.73,2.22,2.36,1.58,1.33,4.11,2.97,5.9,4.07,2.97,1.82,6.95,3.99,10.49,2.55,1.6-.65,1.54-2.68,1.92-2.79,3.25.85,8.71,1.22,9.29-3.2.59-4.43-3.27-5.88-6.92-4.38-2.22.91-2.91,2.39-3.35,4.63-.1.53.12,1.14-.33,1.49l-6.08-2.47c.66-1.91.4-3.5-.35-5.32,1.02.01,2.11-.07,3.12-.23,2.15-.36,2.37-.7,4.75-.67,6.02.1,7.73-1.03,8.56-7.04.48-3.53-.25-5.21-.49-8.46-.18-2.48.43-5.64-.41-7.93-.2-.55-1.02-1.67-1.03-2.03-.01-.64,1.33-3.36,1.56-4.41,1.1-5.08-1.63-9.45-4.45-13.39-.08-.51.47-.95.66-1.45,1.1-2.93,1.06-7,.09-9.98-.59-1.83-1.84-2.89-.96-4.93,1.62.36,3.32.95,4.98,1.08,2.33.19,6.71-.69,8.43.81,1.64,1.43,1.13,4.05-.73,4.95-.74.36-3.11.93-3.85,1.34-2.52,1.38-3.2,4.45-.43,6.04,3,1.72,6.56.23,6.52,4.37s-6.76,9.75-6.2,13.83c.59,4.27,6.75,1.69,6.85,5.47.09,3.33-4.26-.59-5.48,2.91-1.58,4.53,2.55,5.88,2.6,8.93.07,3.79-4.02,5.87-1.96,10.28.8,1.71,3.39,3.03,4.93,1.59,1.7-1.59.84-6.1,4.39-4.93,2.33.77,3.34,6.11,2.2,7.9-.93,1.46-4.65.85-6.18,1.07-3.31.48-4.02,4.22-.93,5.55,1.62.7,4.06.32,5.91.8,2.35.6,3.32,1.91,6.21,1.58,4.71-.54,5.38-9.07,3.25-12.31-1.53-2.32-4.64-3.01-4.44-6.63.11-1.84,3.11-5.29,4.77-5.92,2.54-.96,5.22.79,5.03,3.58-.2,2.89-4.05,3.96-2.71,7.4,1.86,4.76,11.38,2.53,14.1-.58,1.13-1.29,2.18-3.5,2.35-5.22.5-5.07-6.9-7-10.11-9.23-2.51-1.75-4.92-6.08-8.49-5.21-3.15.77-6.29,5.21-8.73,7.22-3.29,2.71-4.79.27-3.86-3.13,1.26-4.61,7.86-6.06,7.3-10.82-.28-2.39-2.96-3.27-3.54-5.51-.61-2.33.29-5.08.08-7.51-.22-2.54-1.61-4.13-2.24-6.46-1.96-7.27.91-20.66,11.09-15.98,2.2,1.01,5.31,3.72,3.72,6.32-1.44,2.35-5.36.39-7.65,2.49-3.46,3.18-1.96,12.73-.89,16.84,2.23,8.5,5.51,12.94,14.12,15.59,1.83.56,3.5.6,5.17,1.72,2.74,1.83,2.63,5.58,6.7,5.98,6.75.67,9.69-3.98,9.15-10.24-.29-3.38-3-5.35-6.25-5.52-3.84-.2-6.4,2.52-10.43,1.55-3.06-.74-10.01-5.25-11.62-7.94-3.42-5.72,1.37-15.64,8.44-12.42,1.82.83,4.04,3.07,3.08,5.21-.99,2.21-4.34,2.18-5.23,4.55-1.22,3.29,2.37,6.62,5.59,6.32,4.2-.39,3.84-6.42,8.54-6.15,3.62.21,3.44,4.38,6.45,5.88,5.88,2.92,8.56-6.6,8.31-10.85-.22-3.72-2.51-7.48-6.61-7.53-4.63-.06-3.75,4.67-7.06,5.64-2.97.87-3.48-2.2-3.37-4.45.11-2.07,1.95-7.99,4.72-7.24,2.87.77,4.7,4.56,8.27,2.31,3.93-2.48,3.18-9.46-.66-11.55-3.24-1.76-5.78,1.98-7.87,1.73-1.22-.15-3.29-2.22-4.72-2.72-3.07-1.08-5.5,1.19-5.54,4.27-.03,1.9.99,4.08,1.08,5.82.15,2.92-3.47,3.56-4.52,1.07-.61-1.44-.56-4-.99-5.72-1.67-6.75-4.72-5.99-10.24-7.52-3.23-.9-5.23-2.55-8.95-2.07-4.5.59-7.38,9.36-12.24,7.73-2.07-.7-3.25-4.76-2.38-6.65,2.14-4.62,13.28-2.36,17.03-4.28,1.88-.96,2.41-3.95.39-5.06-3.57-1.97-9.7,1.75-13.61.93-2.91-.62-1.73-2.66-1.62-4.54.28-4.9-1.68-11.15-.31-15.71.76-2.53,3.66-3.18,4.56-.5,1.51,4.45-4.08,11.21-1.35,14.94,2.65,3.62,10.7.67,14.86,2.71,2.14,1.05,4.27,5.29,5.98,7.25,3.26,3.75,7.87,7.43,12.95,4.45,1.54-.9,2.32-2.56,4.34-2.55,3.82,0,6.01,4.39,10.79,3.56,3.68-.64,6-5.41,3.34-8.44-3.46-3.93-10.51,1.48-14.86-1.08-2.16-1.27-.84-4.39,1.19-3.73.41.13.99.79,1.5,1.04,4.71,2.33,11.1-3.12,7.37-7.91-2.55-3.27-5.97-2.04-8.93-.06-1.49,1-2.48,2.49-4.03,3.22-4.74.31-2.84-8.16-7.23-8.16-4.12,0-2.46,6.71-1.31,8.93,1.35,2.59,3.62,2.67,5.24,4.31,1.47,1.49.72,4.26-1.58,4.25-4.08,0-4.69-5.61-6.72-8.04-2.25-2.69-7.74-3.2-11.03-3.09-1.43.05-2.66.63-3.91.5-2.29-.23-2.94-3.24-.36-3.77,4.91-1.02,11.48,2.65,15.23-2.44,1.38-1.87.98-5.78,4.26-4.44,1.24.5,2.03,1.58,3.08,2.36,3.56,2.64,9.14,4.43,13.26,2.03,3.37-1.96,2.24-6.87-1.64-6.73-2.69.1-4.23,2.82-7.17.79-1.21-.83-1.99-2.89-.2-3.44,1.51-.46,3.19.51,5.21-.23,4.89-1.79,3.11-7.84-1.85-7.47-2.19.16-6.06,3.34-7.51,4.99-.87.99-1.81,2.89-3.13,3.39-1.76.67-2.97-1.37-5.49-.59-2.76.85-1.76,3.64-3.01,5.51-2.23,3.35-7.26,3.16-10.1.74-1.51-1.28-1.89-2.62-1.94-4.54-.08-2.84.47-9.7-1.62-11.63-1.57-1.45-4.01-.68-4.5,1.26s.61,3.33.45,4.43-1.41,1.44-2.32,1.05c-1.22-.53-.89-5.78-.95-7.03-.06-1.19-.99-2.98.42-3.75,1.69-.93,3.87.43,5.75-.05,2.1-.54,2.81-3.35.96-4.6-1.68-1.13-6.07.24-6.84-1.89-.99-2.71,1.03-3.64,1.1-5.46.12-3.18-3.72-6.06-2.25-9.94.36-.95,1.32-1.61,2.23-.86,1.55,1.28-.34,7.29,2.93,7.58,3.49.3,2-5.12,2.22-6.94.31-2.6,4.11-1.11,4.18,1.28.05,1.77-2.87,6.21-3.4,8.56-1.1,4.86,1.41,5.01,3.11,8.38,1.32,2.63-.74,2.96-.73,5.12,0,1.67,1.18,3.58,1.36,5.31.39,3.77-.78,6.52,1.87,9.91,2,2.57,5.31,3.28,6.4-.42,1.68-5.72-4.76-8.9-3.83-12.93.28-1.2,1.23-1,2.07-.43,2.43,1.64,1.41,6.39,6.03,8.91,2.78,1.52,5.82.6,5.2-3.02-.27-1.58-4.42-7.42-5.75-8.56-3.44-2.94-7.89-2.85-9.92-7.65-.49-1.15-1.49-3.95-1.19-5.09.31-1.18,2.41-2.85,3.14-4.29.73-1.46.7-4.18,3.03-3.22,2.22.91,1.07,3.72.19,5.17-1.36,2.25-3.99,3.23-2.11,6.34.62,1.03,1.86,2.01,3.13,1.94,1.91-.1,3.56-3.03,4.3-4.6.49-1.03.57-2.97,2.05-3.03,1.65-.08,2.57,1.65,2.22,3.14-.17.75-2.2,2.26-2.71,3.44-1.68,3.85,1.05,5.18,2.9,7.86,1.51,2.17,2.95,7.04,6.38,6.13.29-.08.79-.4,1-.63,2.24-2.49-3.62-6.14-4.15-8.56-.14-.65.07-1.64.78-1.87.97-.32,1.33.16,1.9.84,1.28,1.54,2.68,4.66,3.91,5.87.48.47,1.14.62,1.77.77,5.57-.38,12.24.67,17.69.03.93-.11,2.19-.77,2.43-1.74.15-.63-.04-1.59.77-1.95.44-.2,2.35-.16,2.77.08.86.5-.02,3.05,2.65,3.55l26.2.25c.92.54.31,2.66,1.94,3.32.63.26,3.22.24,3.83-.07,1.65-.84.64-3.16,2.21-3.41l29.83-.06c.98-.06,2.06-.62,2.38-1.61.33-1.03-.05-2,1.47-2.16,3.71-.38,1.86,1.43,3.36,3.01.66.69,1.53.75,2.44.82,1.6.11,6.79.2,8.06-.29,2.24-.86.74-3.34,2.8-3.54,2.63-.26,5.77.15,8.45.09.81.26.65,1.18.89,1.83.48,1.33,1.1,1.64,2.48,1.87,6.89-.47,14.77.7,21.54.02.89-.09,1.74-.41,2.27-1.18.54-.79.19-2.13,1.09-2.53.44-.2,2.35-.16,2.77.08.86.5-.02,3.05,2.65,3.55l26.2.25c.92.54.31,2.66,1.94,3.32.63.26,3.22.24,3.83-.07,1.65-.84.64-3.16,2.21-3.41l29.83-.06c.98-.06,2.06-.62,2.38-1.61.28-.85.01-1.98,1.29-2.15,3.85-.51,2.05,1.44,3.53,3.01.66.69,1.53.75,2.44.82,1.6.11,6.79.2,8.06-.29,2.24-.86.74-3.34,2.8-3.54,2.63-.26,5.77.15,8.45.09.81.26.65,1.18.89,1.83.48,1.33,1.1,1.64,2.48,1.87,5.04-.33,10.79.51,15.74.02.89-.09,1.74-.41,2.27-1.18.54-.79.19-2.13,1.09-2.53.44-.2,2.35-.16,2.77.08.88.51-.04,3.08,2.65,3.55l26.2.25c.87.52.4,2.7,1.94,3.32.64.26,3.22.24,3.83-.07,1.65-.84.64-3.16,2.21-3.41,7.81-.43,16.16.53,23.91,0,1.07-.07,2.18-.21,2.8-1.19.58-.91.1-2.45,1.53-2.64,3.88-.51,2.07,1.46,3.53,3.01.66.69,1.53.75,2.44.82,1.6.11,6.79.2,8.06-.29,2.24-.86.74-3.34,2.8-3.54,2.63-.26,5.77.15,8.45.09.81.26.65,1.18.89,1.83.48,1.33,1.1,1.64,2.48,1.87,6.89-.47,14.77.7,21.54.02.89-.09,1.74-.41,2.27-1.18.54-.79.19-2.13,1.09-2.53.44-.2,2.35-.16,2.77.08.86.5-.02,3.05,2.65,3.55l26.2.25c.92.54.31,2.66,1.94,3.32.63.26,3.22.24,3.83-.07,1.65-.84.64-3.16,2.21-3.41l29.83-.06c.98-.06,2.06-.62,2.38-1.61.28-.85.01-1.98,1.29-2.15,3.88-.52,2.07,1.46,3.53,3.01.66.69,1.53.75,2.44.82,1.6.11,6.79.2,8.06-.29,2.24-.86.74-3.34,2.8-3.54,2.63-.26,5.77.15,8.45.09.81.26.65,1.18.89,1.83.48,1.33,1.1,1.64,2.48,1.87,5.04-.33,10.79.51,15.74.02.89-.09,1.74-.41,2.27-1.18.5-.74.23-1.05.44-1.73.34-1.1,1.77-1,2.73-.9,1.37.15,1.01,1.1,1.34,2.1.36,1.07,1.22,1.56,2.3,1.69l25.67.06c1.16.34.48,2.57,2.05,3.38.65.33,3.29.33,3.94,0,1.54-.78.84-3.17,2.02-3.42h15.27v-1.09ZM119.49,229.19c1.93-1.12,5.49-1.19,5.88,1.56.72,5.19-4.95,4.49-8.32,3.7.23-2.16.38-4.07,2.44-5.26ZM121.11,148.56c-3.67-2.03-7.97-3.92-11.94-1.43l-3.71-1.82c.87-2.19,3.59-1.67,5.5-1.42,2.44.32,5.64,1.43,8,1.43,2.15,0,3.1-1.27,2.98-3.35-.07-1.31-1.19-2.39.36-3.17,1.01,3.22.72,6.93-1.19,9.77ZM96.94,215.61l-5.43-.54.27-3.26c1.68-1.26,2.81-2.12,4.84-2.76,1-.32,5.05-1.43,5.81-1.19.24.08.35.26.3.51-4.6.53-8.31,1.85-5.8,7.25ZM90.6,207.82l1.09-.18c.07.07-.22,1.41-.54,1.45l-.55-1.27ZM93.86,222.67c-2.22-.6-4.39-2.02-5.35-4.16-.83-1.85.05-1.96,1.73-2.36-.23,2.91,1.66,4.76,3.62,6.52ZM74.3,186.8l-2.27-.9c.63-1.32,1.31-2.34,1.19-3.9-.24-3.06-3.8-5.14-1.99-8.43,2,1.76,4.38,2.98,6.87,3.91l1.64,2.98c-4.32-.11-7.33,1.64-5.44,6.34ZM82.99,137.8c-.09-1.3-.5-2.65-.55-3.96l3.45-1.57c-.86,4.33-.23,8.69,1.99,12.5-.22.16-3.65-.22-3.98-.46-1.2-.91-.82-5.09-.92-6.51ZM114.16,91.32c.27-1.14,1.85-1.17,2.82-1.09,4.07.34,3.78,4.19,2.26,6.99-.4.26-.98-.3-1.27-.57,1.77-2.92-.33-6.27-3.81-5.33ZM113.97,92.41c1.62-.52,3.63.13,3.63,2.08,0,.52-.34,1.79-1,1.36-1.2-.76-2.24-2.07-2.62-3.44ZM115.97,96.94c-2.41.74-4.48-.47-5.97-2.26.35-.41,2.71-1.98,3.07-1.72l.83,1.8,2.07,2.18ZM119.5,99.12c1.9,1.39,1.14,3.86.46,5.72-3.26-.4-4.23,3.55-7.55,3.87-1.33.13-2.34-2.13-2.61-3.25,4.26-.12,7.57-2.86,9.69-6.34ZM114.88,200.66c-.03-.48-.65-2.88-.54-2.99,2.1-.1,4.22.27,6.15,1.11-.35,2.44-1.32,3.78-3.65,4.56-3.09,1.04-1.78-.31-1.96-2.68ZM114.86,205.12c1.61,2.75.46,6.38-1.61,8.59-.35.15-5.86-3.27-6.24-3.91-.25-.43-.23-.99-.47-1.44,1.17-.37,2.45-.75,3.57-1.24,1.62-.71,2.95-2.02,4.75-2ZM89.42,161.99c.49.18,1.02.27,1.53.37,0,2.18.25,4.55,2.11,5.96,1.08.81,2.01.79,3.27,1.08l1.71,2.55c-2.37.26-4.53-.78-6.8-1.26l-4.42-9.13c.22-.92,2.08.25,2.6.44ZM88.79,160.44l2.35-1-.18,1.81c-.11.12-2.17-.56-2.17-.82ZM98.58,130.55c.62,2.93,2.64,5.18,5.8,5.17l-.54,1.73c-4.26-.17-6.82,4.11-8.35,7.5-.48.33-1.84-1.6-1.78-2.03.04-.26.89-1.53,1.1-2,1.45-3.37,2.07-5.75-.66-8.64-.46-.48-1.88-1.08-1.09-1.8.81-.75,4.41-.27,5.53.09ZM93.87,129.19l1.09-1.91,3.44-.08v2.17c-1.48-.21-3.04-.6-4.53-.18ZM106.37,134.8c1.52-5.21,7.8-5.21,11.41-2.08l-2.09,1.91c-3.09-.59-6.21.31-9.32.17ZM114.7,135.53c-2.01,2.13-5.35,3.62-7.25.45,2.39-.35,4.82-.5,7.25-.45ZM107.54,137.71c3.31,2.81,5.85.17,8.66-1.78.95.08,3.87,2.7,3.72,3.47-4.52,4.57-10.25-.04-15.01-1.51.93-3.43,1.07-1.49,2.62-.18ZM99.84,131c1.99.7,3.73,2.19,5.07,3.8-2.4-.12-4.5-1.35-5.07-3.8ZM104.05,149.17c.19.49.96,1.48.85,1.83-.1.31-2.5.85-2.78.79-.1-.02-1.52-1.12-1.48-1.42l1.58-4.31,1.6-.02c-.3,1.11-.18,2.07.22,3.13ZM108.09,167.78l-3.17-2.08c.9-.55,4.05-1.34,4.85-.77.07.05.63,1.2.51,1.41l-2.19,1.45ZM111.07,167.24l.91,1.99c-.42.23-2.72-.58-2.71-.81l1.8-1.18ZM103,183.19l-2.99-.85c.07-2.35.45-4.66.92-6.95.15-.14,1.01.65,1.19.8.8.67,1.45,1.52,2.35,2.09l.25.46-1.73,4.45ZM103.65,184.63l1.99.36c.37.34-2.08,1.74-2.17,1.63l.18-1.99ZM92.09,182.6l.15-1.78,6.44,2.35c.34.51-.29,4.17-.51,4.94-.23.81-.37,1.7-1.4,1.77.45-3.38-1.81-5.93-4.68-7.28ZM86.73,179.36c1.72-.16,2.92.1,4.39.95l-.15,1.78-4.89-1.36.65-1.37ZM86.62,171.22l3.78.39c.71,2.14,1.02,4.42.93,6.68-1.62.23-2.74-.27-3.99-1.22.09-1.98-.09-3.97-.72-5.85ZM88.36,182.43c.48.12,2.09.47,2.22.87.3.93-1.57,4.43-2.24,5.31l-4.6-4.66c-.16-.6,1.31-1.34,1.47-2.01.33-.2,2.62.34,3.16.48ZM91.69,183.72c2.66.95,4.6,3.65,3.9,6.53-2.44,1.12-4.32.79-6.44-.74,1-1.85,2.13-3.69,2.54-5.79ZM91.69,171.95c1.97.25,3.77,1.33,5.8,1.09-.84,2.4-2.24,4.76-5.07,4.89.08-2.02-.32-4.01-.72-5.98ZM92.41,179.62v-.61c3.77-.16,4.95-3.09,6.44-5.98.22-.05,1.3,1.26,1.32,1.38.04.18-.75,2.99-.85,3.63-.21,1.33-.24,2.71-.39,4.05l-6.53-2.47ZM100.02,167.96l-1.36,2.9c-.28-.28-1.39-1.68-1.18-1.99l2.53-.91ZM96.77,167.96c-1.06-2.97.35-4.92,3.49-3.76,1.13.42,2.05.97.8,2.08-.28.25-4.1,1.82-4.29,1.69ZM99.84,183.54l2.9.73-.64,3.25-2.98,1.46.72-5.43ZM99.48,171.58c1.2-1.92,1.72-5.05,4.34-5.35l3.08,2.18c-.67.77-7.08,3.44-7.42,3.17ZM107.05,163.84c-.97.16-2.52.99-3.14,1.04-.32.02-.43,0-.62-.27,1.05-1.31,1.94-2.76,3.37-3.7.32-.06,2.32,2.64,2.06,2.88-.56.01-1.12-.04-1.67.05ZM106.85,159.42c-.18-.05-.82-.75-1.21-.98-1.36-.81-3.12-.74-4.35-1.81.57-.31,1.96-2.46,2.41-2.42.2.02,2.61,1.5,3.14,1.76.59.29,1.82.56,2.23.85.54.38,1.25,1.91,1.82,2.43-.59-.07-1.09-.37-1.71-.36-.6,0-2.01.6-2.33.52ZM99.24,150.83l-.79,1.52c-1.44-.05-2.65.45-3.79-.6-.09-.08-.43-.37-.44-.41-.18-.99,1.05-2.99,1.27-4.04l3.75,3.53ZM96.04,146.04h5.07l-1.36,3.63c-1.51-.88-2.65-2.27-3.71-3.63ZM99.42,153.32c.73.11,2.69-.74,3.11,0,.13.22-.02.43-.15.62-.15.22-1.94,2.22-2.09,2.22l-1.87-1.32.99-1.51ZM104.37,153.46c-.12-.15,1.03-1.92,1.54-1.09l1.72,2.72-3.26-1.63ZM101.47,144.95h-4.71c-.18-.17,1.15-2.36,1.37-2.7,1.16-1.73,2.98-3.97,5.33-3.55l-1.99,6.25ZM94.95,135.8c.21,2.05-.98,4.26-1.81,6.07-.38.27-1.28-1.76-1.42-2.11-.99-2.49-.77-5.38.61-7.67,1.04,1.09,2.46,2.08,2.63,3.71ZM94.5,146.04l.25.42-1.42,3.75c-.17.13-2.71-2.97-2.81-3.27-.12-.35.45-.9.55-.9h3.44ZM92.78,151.65c-1.04-.48-2.14-.9-3.13-1.48-.33-.19-2.01-1.22-1.94-1.5l1.72-1.36,3.35,4.35ZM93.53,153.13c.36-.09.71-.05,1.06.08.16.06,2.04,1.59,2.1,1.71.29.52-1.22,1.84-1.67,2.15-.37.26-2.32,1.19-2.6.93l1.11-4.87ZM97.78,155.83l1.7,1.16c-2,2.1-4.35,4.31-7.42,4.44l.19-2.35c2.29-.07,4.19-1.51,5.54-3.25ZM92.06,162.53c3.51-.13,6.02-2.65,8.45-4.88l3.99,1.39,1.5,1.03c-1.48,1.01-2.49,2.48-3.56,3.88-1.99-.7-4.1-2.13-6.03-.43-1.43,1.26-1.18,2.96-.74,4.61-3-.09-3.76-3.08-3.61-5.61ZM89.88,170.5l-3.59-.58-1.86-6.76.05-.23,1.33-.94,4.07,8.51ZM86.26,176.02c-.03.19.04.39-.27.27-.39-.15-2.64-2.1-3.09-2.53-1-.95-1.84-2.09-2.8-3.08l5.39.4c.41,1.53.98,3.35.77,4.94ZM82.99,175.3c.6.53,2.63,1.78,2.91,2.16.17.22.21.37.17.64-2.46-.03-4.86-.79-7.2-1.5-.9-1.86-1.38-3.72-.77-5.75.49-.43,4.32,3.94,4.89,4.44ZM85.53,179.19c.18.18-.44,1.25-.67,1.45l-3.73-.18-1.39-2.36,5.8,1.09ZM83.9,181.73l-.99,1.08c-.23-.12-1.02-1.08-.82-1.26l1.81.18ZM82.72,184.45l4.8,5.25c-.75.17-2.05,2.03-2.78,1.96l-6.27-3.86,4.25-3.35ZM83.42,192.08c.13.12.36.16.3.42-.64.32-1.67,1.41-2.35,1.09-.3-.14-3.78-3.77-3.99-4.16-.12-.22-.25-.34-.18-.64.32-.03.6,0,.91.08.91.25,4.58,2.52,5.31,3.2ZM81.47,195.31c.36-.02,2.16,1.35,2.67,1.67.23.15.82.3.85.33.29.31-.09.3-.25.38-1.62.73-5.55,1.72-6.99.44,1.06-1.13,2.29-2.17,3.73-2.81ZM83.91,195.57l-1.28-1.07,2.23-1.32,4.1,2.68-1.45.81c-1.33.78-2.42-.63-3.61-1.1ZM85.89,192.51l2.47-2.24c2.15,1.52,4.16,2.36,6.77,1.25.55.76-2.43,2.53-3.02,2.86-.79.45-1.67,1.15-2.52.77-.3-.13-3.64-2.42-3.7-2.64ZM93.32,194.96l-1.21,1.61c-.31.1-.75-.21-.97-.44l2.17-1.17ZM92.97,197.23c1.24-1.08,1.92-3.02,2.89-4.18.68-.81,1.89-1.49,2.41-2.57l3.93-1.69.7,3.13c-2.45,2.31-5.45,4.72-5.96,8.28l-3.98-2.72v-.26ZM92.96,206.37l-.71-3.61,4.33-1.21c3.13,3.24-1.09,4.1-3.62,4.81ZM92.81,207.49c1.46-.44,3.62-.84,4.85-1.77.35-.26,1.02-1.35,1.28-1.16-.12.64,2.3,2.02,2,2.35-2.25.56-5.2.92-7.19,2.14-.31.19-1.63,1.52-1.87,1.3l.94-2.86ZM98.21,201.39c-.02-.42.03-.21.28-.27,1.01-.27,2.07-.08,3.08-.36l4.07.18c-.51,1.69-.62,3.29-.56,5.05l-2.44.55c-1.34-.83-4.37-3.55-4.43-5.15ZM102.64,199.66l-4.61.37c.67-3.14,3.39-5.11,5.55-7.22,2.79,1.48,6.05,1.89,9.09,2.72l.21,1.23c-2.37.32-5.22,1.23-6.64,3.28l-3.6-.38ZM104.56,191.96c3.65-3.12,7.26-3.45,7.79,2.26-.25.24-5.95-1.32-6.66-1.58-.45-.16-.82-.28-1.12-.69ZM106.18,203.02c.02-.13.4-1.48.45-1.54.47-.61,3.58.55,4.26.82.82.34,1.6.81,2.36,1.27,0,.3-.6.84-.86.95-1.62.64-4.45.79-6.2,1.13.07-.84-.1-1.81,0-2.63ZM113.79,202.56c-1.91-1.14-3.98-1.9-6.16-2.36-.11-.42.08-.3.23-.41,1.49-1.18,3.51-1.79,5.38-1.94.25,1.58.73,3.08.55,4.71ZM103.92,190.97c-.37-.08-.87-2.46-.55-2.9l3.85-2.5c3.03.77,6.39,1.57,9.11,3.13,1.16.67,2.13,1.29,2.67,2.58,1.8,4.28-2.6,3.86-5.4,3.22-.94-6.55-4.72-7.44-9.68-3.54ZM106.96,184.23l-2.95-.69,1.72-4.16,3.52,2.83-2.29,2.02ZM106.39,178.62c.64-2.4,2.96-3.86,5.39-2.67-.16,1.01-.76,4.72-1.62,5.16-.56.29-3.08-2.22-3.78-2.49ZM110.6,174.5c-2.09-.2-3.02.48-4.33,1.97-.19.21-.67,1.09-.74,1.1-.32.05-1.38-.9-1.71-1.19-.31-.27-2.27-2.19-2.29-2.35.94-2.82,3.6-2.77,6.1-2.18.53.13,4.55,1.72,4.68,1.93.14.23.06.95-.26,1.05-.28.08-1.04-.29-1.45-.33ZM105.64,170.41l2.45-1.29c1.47.74,2.89,1.36,4.59,1.23.6.9.29,1.56.03,2.5-2.21-1.19-4.55-2.17-7.07-2.45ZM111.98,166.33c1.08-.03,1.3,1.76,1.27,2.54-.41-.2-1.43-2.37-1.27-2.54ZM112.12,164.67c-.1-.02-1.77-.81-1.85-.88l-2.45-3.61c1.07-.13,1.66-.27,2.71.09.43.15,3.67,2.09,3.78,2.28.28.49-1.64,2.22-2.19,2.12ZM115.33,163.43c.32.34,2.88,2.56,2.63,2.89l-3.62,1.81-1.07-2.6,2.07-2.11ZM115.31,161.61c-.4.08-4.59-3.8-4.6-4.43,1.81.11,3.07-.65,4.71-1.17.63,1.88,1.67,3.99-.1,5.6ZM113.79,151.48c1.27.04,2.47.75,3.25,1.73l-1.44,1.17-1.82-2.9ZM114.7,155.09c-1.41.62-3.15,1.32-4.72.83-.52-.16-3.31-3.85-3.07-4.08,1.71-.16,3.39-.75,5.13-.51.51.15,2.89,3.47,2.66,3.76ZM106.73,150.75c.5-.54,1.15-1.39,1.72-1.81,1.13-.81,1.77.53,2.63,1.26l-4.35.54ZM105.64,150.02c-.15-.75-.73-1.36-.86-2.13-.06-.35-.23-1.7.33-1.61l3.07,1.38-2.53,2.35ZM104.33,144.91c-.18.11-1.78.08-1.78-.05l2.08-6.04c4.39,1.63,9.18,5.14,13.99,2.91.39-.18,1.51-1.1,1.6-1.12.58-.13.67,1.68.63,2.08-.17,2.07-2.01,1.53-3.5,1.33-2.78-.36-9.01-2.29-11.34-.95-.57.32-1.47,1.73-1.68,1.85ZM120.68,138.61c-.56-1.47-2.16-2.86-3.63-3.44l1.56-1.62c.57-.1,2.97,3.32,3.07,3.97.03.21-.77,1.28-1.01,1.09ZM118.68,131.91c-3.31-2.43-8.2-3.68-11.5-.54-.71.68-1.13,1.65-1.81,2.35-1.02-1.29-2.38-2.27-3.77-3.11-.42-.25-1.79-.74-1.95-.95-.38-.49-.06-1.87-.17-2.52l3.52-1.4c1.41,2.03,3.41,1.59,5.43,1.84,2.78.34,5.47,2.2,8.39,1.1,1.84-.69,2.63-2.67,3.23-4.38.43.14,2.28,1.87,2.24,2.23l-3.6,5.38ZM117.42,111.07l-1.37,2.36c-1.03-.57-2.1-.26-3.2-.42-1.45-.21-3.18-1.32-3.94-2.58.01-.22,2.14-.49,2.43-.45.37.05,1.12.73,1.61.94,1.53.67,2.9.61,4.47.15ZM113.07,109.71c.91-.49,1.78-.72,2.67-1.32,1.31-.88,2.1-2.55,3.85-2.58.19.19-1.22,3.74-1.55,3.97-.92.64-4.03.82-4.96-.08ZM105.4,123.96c2.68,1.42,6.2,2.79,8.76.44.5-.46,1.21-1.84,1.73-1.91.88-.12,2.29.87,3.15,1.11-1.45,7.04-6.21,3.45-10.61,2.9-1.57-.2-3.18.23-4.41-1.22l1.38-1.32ZM103.11,124.12l-.36-1.81,1.63.91-.11.37-1.15.53ZM106.55,123.39c2.11-1.67,5.4-1.63,7.97-1.26-1.85,3.44-4.99,2.68-7.97,1.26ZM115.12,121.01c-3.41-.38-6.76-.2-9.75,1.6l-1.9-1.3c0-.33,2.6-1.2,3.04-1.31,2.76-.7,4.53-.1,7.01-2.05,1.02-.8,1.33-1.79,2.99-1.63.22.8-.74,4.46-1.39,4.68ZM115.24,114.15c-.34,2.08-3.74,2.36-5.48,2.13-.53-.07-3.46-.93-3.55-1.33.46-1.59.22-3.01-.03-4.6.37.07,1.14-.13,1.41.04.05.03.4.74.58.95,1.9,2.18,4.14,3.05,7.06,2.81ZM112.16,117.42c-1.31,1.35-3.37,1.02-5.08,1.35-1.26.24-2.41.77-3.61,1.19.28-1.52,1.79-2.35,2.19-3.79,2.15.62,4.19,1.54,6.51,1.26ZM105.28,114.52c-.3.31-4.61-2.34-5.13-2.75-.2-.16-.37-.18-.3-.51,1.67-.68,3.31-.73,5.08-.83.62,1.3.56,2.72.35,4.09ZM104.72,115.71l-2.62,4.24c-2.17-2.05-3.48-4.97-3.53-7.97l6.15,3.73ZM102.19,125.01l-2.34.73c-.22-.21,1.6-3.36,1.99-2.9l.35,2.16ZM119.5,122.66l-3.17-1.27c.72-1.61,1.16-3.25,1.44-4.99.74,0,3.62.75,3.91,1.37l-2.18,4.89ZM119.91,115.74c-.54-.15-2.25-.36-2.45-.54-.06-.06-.53-1.07-.53-1.13.02-.42,1.71-2.48,1.85-3.16l3.52-2.18c.63,1.97.87,3.8.5,5.84-.1.52-.34,2.22-.98,1.99-.64-.24-1.18-.6-1.92-.81ZM119.59,109.08l.91-2.42c.29-.53,1.26.58,1,1.15-.13.3-1.7,1.45-1.91,1.27ZM110.35,109.08l-2.33.16-1.29-3.78,1.97.2,1.65,3.42ZM106.91,109.26l-1.25-.02c-.35-1.36-1.15-2.61-2.01-3.69l1.97-.07,1.29,3.78ZM104.55,109.44c-2.15-.21-3.99.49-5.98,1.09.07-1.49.34-3.52,1.69-4.38.47-.3,1.75-.88,2.22-.53.35.26,2.32,3.58,2.07,3.82ZM101.65,121.13v.26c-.78.27-1.51,1.29-1.92,1.97-.39.64-.94,2.43-1.16,2.65-.53.52-2.16.18-2.9.27.49-1.47,1.44-2.8,1.95-4.3.71-2.11.91-4.03.08-6.15-.48-1.23-1.8-2-.3-2.96.58,3.21,1.91,5.96,4.25,8.25ZM97.08,117.37c.5,3.22-1.14,5.82-2.51,8.54-.97.11-2.25-.91-2.65-1.74-.32-.67-.71-3.05-.58-3.75.16-.9,3.29-4.92,4.08-5.7.15-.15.16-.26.44-.19.33.97,1.06,1.8,1.23,2.85ZM90.79,118.86c0-1.09-1.79-5.47-1.37-6.16.21-.34,2.1-.9,2.54-.9.73,0,2.07.61,2.56,1.15.16.18.28.4.4.6l-4.14,5.31ZM90.82,124.35c.52,1.22,1.59,2.12,2.85,2.5.21.3-1.06,2.37-1.53,2.51-2.03.61-2.39-.9-4.08-1.55l2.19-5.5.58,2.04ZM89.15,129.82l-1.81.63.36-1.63,1.44,1ZM90.98,131.08c.65.52.02.99-.2,1.64-1.32,3.94-.81,6.9,1.46,10.33,0,.13-1.31,1.74-1.45,1.81-.28.13-1.37.18-1.59.05-.43-.25-1.94-4.14-2.12-4.85-.7-2.77-.5-5.51-.06-8.3.99-.25,3.15-1.34,3.97-.68ZM86.03,130.96c-.15.16-3.79,1.83-3.94,1.67l-.28-3.99c1.49-.76,3.21-.61,4.8-.35.13.14-.39,2.45-.58,2.67ZM88.58,145.88l.13.7-2.01,1.42c-.27-.15-2.09-2.16-1.9-2.32l3.77.21ZM86.85,149.5c1.64,1.34,3.52,2.42,5.55,3.08l-1.1,5.76c-.5.1-1,.24-1.47.43-1.05.43-2.51,1.54-3.41.42-.41-.52.73-1.19,1.09-1.64,1.26-1.59,2.5-3.54.91-5.43-.94-1.12-2.1-1.06-3.45-1,.11-.53,1.43-1.72,1.86-1.61ZM87.24,156.17c-.2.3-1.59,2.04-1.89,1.82-.24-.91-1.59-5.2-.91-5.71,3.07-.86,4.61,1.15,2.8,3.89ZM84.9,159.99l.37,1.08-1.28.9-.37-1.08,1.28-.9ZM85.17,169.95l-6.52-.36c.8-1.45,1.83-2.98,2.99-4.17.23-.24,1.67-1.63,1.9-1.45l1.63,5.98ZM77.65,169.04l-4.44-3.08.11-.36c3.32-.81,6.35-2.33,9.3-3.99l.28,1.27c-2.19,1.64-3.86,3.83-5.26,6.16ZM76.83,174.21c.06.45.47,1.14.55,1.63,0,.17-.27.1-.42.06-.72-.19-4.9-2.62-5.01-3.15,1.09-1.52,3.24-2.05,5.07-1.88.07.2-.18.4-.18.45,0,.87-.11,2.09,0,2.9ZM76.47,169.41l-.09.36c-1.92-.08-3.77.68-5.16,1.99-.67-1.86-1.44-4.51.82-5.57,1.34,1.23,2.8,2.41,4.43,3.22ZM80.6,181.59l1.48,2.04-4.88,3.79c-.17.05-1.29-.21-1.41-.3-.17-.14-.89-1.91-.93-2.23-.47-3.5,3.23-3.39,5.74-3.3ZM76.38,189.88c.57.66,1.13,1.46,1.72,2.08.69.73,1.8,1.52,2.36,2.16.14.16.23.2.18.45-1.27.61-5.44,3.06-3.33,4.69,1.92,1.48,6.9-.31,9.04-.99.22,0,1.83,1.24,2.07,1.48.15.15.26.16.19.44-2.72,1.75-5.32,3.83-8.79,3.45-5.32-.59-6.75-10.35-3.44-13.77ZM87.7,197.76c1.3-.52,2.13-1.44,3.44-.45.21.3-1.48,1.65-1.72,1.99l-1.72-1.54ZM92.17,198.23l3.14,2.25-3.39,1.33-.41-.06-1.26-1.64,1.92-1.88ZM91.85,206.53l-2.15.3c-.74-.97-1.4-1.64-.25-2.61,2.22-1.86,2.28.47,2.4,2.31ZM97.39,211.62c.2-.77.86-1.09,1.55-1.35.56-.21,4.81-1.21,5.12-1.15.34.07,1.89,1.36,2.1,1.71l2.2,5.32c-.22.25-4.82.23-5.53.19-.89-.05-3.46-.26-4.17-.54-1.27-.49-1.56-3.03-1.26-4.18ZM107.63,211.8l4.71,2.89c-.95.35-1.79,1.17-2.88,1.07l-1.83-3.96ZM113.67,215.1c.73.61,5.37,1.46,5.18,2.56-.16.25-.4.48-.65.63-.63.37-3.96,1.13-4.67,1.1-1.11-.05-2.87-1.61-3.18-2.7l3.32-1.59ZM114.34,214.25c1.93-2.68,3.28-6.26,1.63-9.41,1.77-.82,3.47-1.01,4.56-2.88.44-.76.55-1.47.85-2.23.05-.13-.04-.37.28-.25,1.53.6.28,2.37-.03,3.58-1.16,4.45-1.11,8.8-2.05,13.26l-5.25-2.08ZM120.68,197.67c-2.09-.82-4.33-1.21-6.58-1.08-.82-1.4.06-.75.87-.72,2.65.09,5.88.29,5.51-3.34-.5-4.97-8.12-6.78-12.12-7.72-.11-.42.11-.31.23-.41.58-.51,1.13-1.03,1.7-1.56,2.46,1.46,5.43,2.43,8.21,1.25,1.53,4.34,2.77,8.94,2.18,13.59ZM112.97,183c-.3-.1-1.71-.74-1.82-.91-.22-.34.65-1.56.83-2.08.4-1.15.38-2.51.99-3.54.21-.04,3.19,2.05,3.42,2.37.25.33,1.68,4.14,1.55,4.33-1.67.57-3.34.4-4.98-.17ZM113.33,175.39c-.22-.35.02-.73.11-1.08,1.43-.1,1.6,1.29,1.98,2.35l-2.09-1.27ZM115.33,173.37c-.15-.01-1.11-2.05-1.14-2.28-.02-.13.14-1.57.18-1.65.07-.12,2.02-1.25,2.31-1.4,2.42-1.22,3.06-1.05,1.8,1.62-.65,1.38-1.72,3.08-3.15,3.71ZM116.34,162.23c1.67-2.22,1.03-4.6-.17-6.87l1.54-1.16c.64-.12,1.92,3.21,2.08,3.85.51,1.97.61,4.09.33,6.1-.25.27-3.72-1.51-3.79-1.93ZM118.05,152.39c-.14,0-1.86-1.3-2.45-1.54-.99-.41-2.37-.42-3.07-.73-.66-.3-1.48-1.93-2.36-2.08,1.81-1.63,4.76-1.08,6.88-.27.7.27,2.58,1.15,3.15,1.56.16.12.32.14.28.4-.04.27-2.14,2.66-2.43,2.66ZM122.4,136.43c-.81-1.44-1.86-2.65-2.97-3.86l3.6-4.83c.89,2.77.86,6.14-.63,8.69ZM123.95,121.32c.07,1.31-.64,2.65-.92,3.89l-2.55-1.91,2.01-4.61c.47-.35,1.43,2.2,1.46,2.63ZM119.28,87.2c6.03,2.2,4.94,7.09,4.65,12.36-.05.9.07,1.81-.01,2.7-.14,1.45-.77,2.92-1.25,4.28l-1.64-1.2c.3-1.45.92-2.98.72-4.49-.16-1.16-1.02-1.98-1.61-2.91.83-2.03,1.84-4.4.73-6.53-1.2-2.3-5.3-3.14-7.17-1.36-.61.58-.67,1.45-1.1,1.8-.12.1-2.6,1.47-2.8,1.55-.19.07-.32.14-.53.1-2.22-6.41,5.37-7.99,10.01-6.3ZM109.17,95.31c1.49,1.94,3.63,3.17,6.16,2.9.65-.07,1.57-.66,1.81-.66.33,0,.88.69,1.34.68.45.62-2.58,3.65-3.19,4.12-1.66,1.27-3.91,2.17-6.02,2.01-.71-1.92-.43-4.08-.79-6.01-.29-1.6-1.29-1.46.68-3.03ZM107.18,97.85l.99,6.7c-.49-.06-1.38.18-1.73-.17-1.03-1.05-.56-5.52.73-6.53ZM104.69,95.44c.37.13,1.41.68,1.58.96.32.51-.45,1.32-.67,1.87-.84,2.12-1.08,3.89-.33,6.1-.71-.1-1.76.16-2.41-.04-.37-.11-1.58-1.57-2.04-1.95-1.27-1.04-2.94-1.97-4.62-2,1.11-3.33,4.84-6.22,8.48-4.94ZM95.58,101.47c.47-.58,3.09.7,3.66,1.05.3.19,2.29,1.7,2.05,2.03-1.25.33-2.43.96-2.99,2.17-.2.42-.73,2.9-.9,2.9-1.8-1.56-2.62-3.05-2.42-5.5.04-.44.4-2.39.61-2.65ZM94.41,101.47c-.6,2.57-1.01,5.1.73,7.33.52.66,1.95,1.69,2.26,2.27.33.62-1.07,1.29-1.6,1.61-1.4-1.45-3.02-2.22-5.05-1.74-.66.16-1.13.53-1.77.67-1.06-4.27,1.46-8.6,5.43-10.14ZM82.9,120.49c.83-1.86,3.38-5.38,4.99-6.61.18-.14.23-.35.54-.27l1.62,6.6-3.15,7.12c-1.79-.61-3.55-.22-5.35.05-.02-2.37.39-4.73,1.35-6.89ZM81.54,134.63c.55,3.2.05,6.46.9,9.6-4.31-.83-8.12-3.08-4.08-7.43.34-.36,2.87-2.49,3.17-2.17ZM75.66,146.03c-1.92-4.97-.81-14.71,4.98-16.84l.53,4.04c-2.38,1.77-6.4,4.52-5.41,7.99.6,2.12,2.96,3.06,4.88,3.63.61.18,2.18.34,2.53.55.46.28,1.82,2.88,2.72,3.25-.62.45-1.21.96-1.72,1.53-.3.33-.41.87-.74,1.08-.16.1-3.4.96-3.58.94-1.43-2.08-3.26-3.77-4.19-6.18ZM83.9,156.91c-.78-.78-2.85-2.62-3.26-3.54-.12-.28.09-.24.22-.31.28-.13,2.21-.61,2.31-.5l.72,4.35ZM79.52,153.49c1.27,2.03,2.96,3.76,4.72,5.35l-1.16,1.13c-2.32-4.01-6.15-3.99-10.23-3.06l.84-2.01,5.83-1.41ZM68.05,152.38c-.87-1.83-.38-4.16,1.86-4.49,3.1-.45,4.13,4.02,2.65,6.1-1.51.12-3.77-.06-4.51-1.6ZM72.29,158.29c3.54-1.12,8.08-1.73,9.8,2.41-3.06,1.79-6.4,3.2-9.78,4.09-1.42-2.07-.84-4.35-.01-6.51ZM67.99,178.17c-.63-3.73-1.3-13.96.42-17.1.5-.92,1.42-1.9,2.45-2.17-.6,2.29-.81,4.45.54,6.52-2.29,1.11-2.13,3.33-1.58,5.48.11.44.66,1.52.66,1.68,0,.28-.55,1.18-.67,1.68-1.06,4.43,4.49,6.69,1.31,10.92-1.89-1.58-2.74-4.62-3.14-7.01ZM79.91,210.53l-2.53-2.45c-3.24-3.77-7.03-14.08-6.5-19,.08-.72.35-1.41.52-2.11.93.56,3.93.65,4.14,1.77.1.52-1.02,1.85-1.33,2.59-1.88,4.52.06,12.9,5.8,13.4,3.6.32,6.52-2,9.39-3.78l1.2,1.34c-1.39.77-3.46,1.75-2.86,3.77.12.4.75.53.69,1.03l-5.72.35c-.55.38-1.32.25-1.77.4-.54.18-1.28,2.08-1.03,2.69ZM81.66,208.75c1.75-.02,3.54-.62,5.27-.71.36-.02.67.14,1.03.14.59,0,.96-.49,1.56.07.17.16.87,1.59.89,1.84.14,1.33-1.27,1.52-2.28,1.69-1.29.21-4.7.21-5.86-.27-1.18-.49-1.79-1.91-.62-2.76ZM83.27,214.52c-.23-.5-.87-1.14-.99-1.54-.1-.34.06-.24.27-.27,1.63-.23,3.98.64,5.71,0,.34.39-1.39,1.74-1.72,1.99-.38.29-2.21,1.47-2.54,1.46-.52-.13-.49-1.13-.72-1.64ZM95.67,227.75c-1.33-.86-2.86-1.4-4.22-2.21-3.28-1.94-5.7-4.7-7.17-8.21,1.56-.89,2.89-2.03,4.24-3.17.13-.11.38-.05.45-.11.48-.43.94-1.29,1.54-1.69l-.12,2.69c-4.3.46-3.65,3.33-1.42,5.91,1.83,2.12,4.52,3.03,7.24,3.36-.34,1.19-.72,2.15-.55,3.44ZM97.44,228.66c-.82-.63-.78-2.76-.31-3.63,3.54,2.26,6.79,5.05,10.69,6.71-.07.33-.36.34-.63.37-1.51.17-3.35-.52-4.75-1.06-.99-.38-4.29-1.83-5-2.38ZM98.39,223.49c2.34-2.17,6.44-.51,8.33,1.54l-8.33-1.54ZM107.88,226.32c.46.26,1.06,1.58,1.15,2.11.09.54.21,2.74-.69,2.51-.64-.16-2.88-1.59-3.6-2.02-1.89-1.14-3.78-2.43-5.45-3.88l8.59,1.29ZM113.57,234.4c.78.3,1.6.53,2.4.78-.55,4.59-6.64,1.97-9.18.57-2.18-1.2-4.45-2.87-6.4-4.38,2.29.7,4.61,2.2,7.11,1.77.52-.09,1.31-.67,1.64-.64.38.03,3.66,1.61,4.42,1.91ZM112.71,224.94c-1.39.28-2.82.34-4.23.24-2.63-3.1-8.24-5.72-11.36-1.86-.12.1-.23.05-.36.01-.31-.09-2.33-1.68-2.72-2.01-1.64-1.42-2.9-2.8-2.72-5.17,1.79.3,4.83.09,6.45.71.48.18,2.24,1.86,2.92,2.34,3.66,2.56,8.25,4.34,12.56,5.47.05.26-.34.23-.54.27ZM115.41,224.03c-.85,0-3-.67-3.93-.95-4.03-1.2-8.51-3.25-11.64-6.02,3.03.39,6.14.6,9.16.07,1.05.99,1.99,2.51,3.39,3.04,1.75.67,5.36-.43,7.01-1.31.9,1.85-2.4,5.17-4,5.16ZM124.29,209.55c.1,1.66.63,3.42.73,5.07.14,2.31-.33,7.63-2.47,8.94-.29.18-1.88.75-2.15.75h-2.81c1.99-1.7,3.17-2.87,2.89-5.7-.04-.38-.39-.63-.32-1.05.06-.42.49-1.23.6-1.77,1.03-4.74.63-9.76,2.54-14.31.28-.04.38.22.49.42.96,1.74.37,5.55.5,7.65ZM121.19,184.21c2.17,2.89,3.89,6.74,3.43,10.43-.19,1.53-1.1,2.99-1.4,4.49l-1.45-.85c.44-4.96-.41-9.91-2.32-14.49.67-1.5,1.14-.37,1.74.43ZM120.31,181.18l-2.98-2.9-1.54-3.72.08-.27c2.17-.92,2.74-3.1,3.86-4.84.11-.17-.02-.33.4-.23,1.61,3.81,1.97,8.15.18,11.96ZM120.5,156.81l-1.77-3.44,2.79-3.16c4.07,2.12,0,7.17-.11,10.5l-.9-3.9Z"/>
</svg>