<?xml version="1.0" encoding="UTF-8"?>
<svg id="Capa_1" xmlns="http://www.w3.org/2000/svg" version="1.1" viewBox="0 0 948.48 249.6">
  <!-- Generator: Adobe Illustrator 29.5.1, SVG Export Plug-In . SVG Version: 2.1.0 Build 141)  -->
  <path d="M882.99,63.72c-1.56.34-.64,3.49-2.67,4.53-.86.44-4.36.44-5.22,0-2.09-1.07-1.18-4.03-2.72-4.48l-34-.08c-1.43-.17-2.57-.82-3.04-2.24-.44-1.32.03-2.58-1.78-2.78-1.27-.14-3.17-.28-3.62,1.19-.28.9.08,1.32-.59,2.29s-1.82,1.44-3,1.56c-6.56.66-14.18-.46-20.85-.02-1.82-.31-2.64-.72-3.28-2.48-.31-.86-.1-2.08-1.17-2.43-3.54.07-7.71-.46-11.19-.12-2.73.27-.74,3.55-3.71,4.69-1.69.64-8.57.52-10.68.38-1.22-.08-2.37-.16-3.24-1.08-1.95-2.05.46-4.66-4.68-3.98-1.69.22-1.34,1.73-1.71,2.85-.42,1.31-1.85,2.05-3.15,2.13l-39.52.08c-2.08.33-.74,3.4-2.93,4.51-.8.41-4.23.43-5.07.09-2.16-.87-1.35-3.68-2.57-4.39l-34.71-.33c-3.55-.67-2.38-4.05-3.51-4.71-.55-.32-3.08-.37-3.67-.1-1.19.54-.73,2.31-1.44,3.36s-1.82,1.44-3,1.56c-8.97.9-19.41-.64-28.53-.02-1.82-.31-2.64-.72-3.28-2.48-.31-.86-.1-2.08-1.17-2.43-3.54.07-7.71-.46-11.19-.12-2.73.27-.74,3.55-3.71,4.69-1.69.64-8.57.52-10.68.38-1.22-.08-2.37-.16-3.24-1.08-1.95-2.05.46-4.66-4.68-3.98-1.9.25-1.26,2.29-2.03,3.49-.83,1.29-2.3,1.47-3.71,1.57-10.27.71-21.33-.56-31.68,0-2.08.33-.74,3.4-2.93,4.51-.81.41-4.22.43-5.07.09-2.03-.82-1.41-3.71-2.57-4.39l-34.71-.33c-3.57-.63-2.35-4.03-3.52-4.7-.55-.32-3.08-.37-3.67-.1-1.19.54-.73,2.31-1.44,3.36s-1.82,1.44-3,1.56c-6.56.66-14.18-.46-20.85-.02-1.82-.31-2.64-.72-3.28-2.48-.31-.86-.1-2.08-1.17-2.43-3.54.07-7.71-.46-11.19-.12-2.73.27-.74,3.55-3.71,4.69-1.69.64-8.57.52-10.68.38-1.22-.08-2.37-.16-3.24-1.08-1.96-2.07.42-4.66-4.68-3.98-1.69.23-1.34,1.73-1.71,2.85-.42,1.31-1.85,2.05-3.15,2.13l-39.52.08c-2.08.33-.74,3.4-2.93,4.51-.8.41-4.23.43-5.07.09-2.16-.87-1.35-3.68-2.57-4.39l-34.71-.33c-3.55-.67-2.38-4.05-3.51-4.71-.55-.32-3.08-.37-3.67-.1-1.19.54-.73,2.31-1.44,3.36s-1.82,1.44-3,1.56c-8.97.9-19.41-.64-28.53-.02-1.82-.31-2.64-.72-3.28-2.48-.31-.86-.1-2.08-1.17-2.43-3.54.07-7.71-.46-11.19-.12-2.73.27-.74,3.55-3.71,4.69-1.69.64-8.57.52-10.68.38-1.22-.08-2.37-.16-3.24-1.08-1.98-2.09.47-4.48-4.45-3.98-2.01.2-1.5,1.49-1.94,2.86s-1.85,2.05-3.15,2.13l-39.52.08c-2.08.33-.74,3.4-2.93,4.51-.8.41-4.23.43-5.07.09-2.16-.87-1.35-3.68-2.57-4.39l-34.71-.33c-3.55-.67-2.38-4.05-3.51-4.71-.55-.32-3.08-.37-3.67-.1-1.07.48-.81,1.75-1.02,2.58-.32,1.29-1.98,2.16-3.21,2.31-7.22.86-16.05-.53-23.43-.04-.83-.19-1.71-.4-2.34-1.02-1.63-1.6-3.49-5.73-5.18-7.78-.75-.9-1.23-1.54-2.51-1.11-.93.31-1.22,1.62-1.03,2.48.7,3.22,8.46,8.04,5.49,11.34-.27.31-.93.73-1.32.84-4.54,1.2-6.45-5.25-8.45-8.13-2.46-3.54-6.07-5.31-3.85-10.41.68-1.57,3.37-3.57,3.59-4.56.46-1.98-.76-4.26-2.94-4.17-1.97.09-2.08,2.65-2.72,4.02-.97,2.07-3.16,5.95-5.69,6.09-1.69.09-3.33-1.2-4.15-2.57-2.49-4.12,1-5.42,2.8-8.4,1.16-1.92,2.69-5.64-.26-6.85-3.1-1.27-3.05,2.33-4.02,4.26s-3.74,4.12-4.16,5.68.93,5.21,1.57,6.74c2.69,6.35,8.59,6.24,13.15,10.13,1.76,1.51,7.26,9.25,7.62,11.34.82,4.8-3.2,6.01-6.88,4-6.12-3.33-6.18-11.96-9.4-14.12-1.12-.76-2.37-1.02-2.74.57-1.24,5.33,8.71,11.88,6.48,19.45-1.44,4.91-5.83,3.97-8.48.56-3.5-4.5-1.95-8.13-2.47-13.13-.24-2.28-1.79-4.82-1.8-7.03-.01-2.87,2.73-3.3.97-6.78-2.25-4.47-5.57-4.67-4.12-11.11.7-3.11,4.57-8.99,4.5-11.34-.09-3.17-5.13-5.14-5.54-1.69-.29,2.41,1.68,9.59-2.94,9.19-4.33-.37-1.83-8.34-3.89-10.03-1.21-1-2.48-.12-2.96,1.14-1.94,5.14,3.46,9.17,3.31,13.38-.09,2.42-.99,4.19.12,6.85s4.94,1.18,7.16,2.68c2.45,1.65,1.51,5.38-1.27,6.09-2.49.63-5.38-1.17-7.62.06-1.87,1.03-.63,3.4-.56,4.97.08,1.66-.36,8.62,1.26,9.32,1.21.52,2.89,0,3.08-1.39.32-2.37-1.03-4.57-.06-7.02s3.88-3.59,5.96-1.67c2.77,2.55,1.51,12.79,1.61,16.56.07,2.56.57,4.32,2.57,6.02,3.76,3.2,10.42,3.45,13.38-.98,1.65-2.48.33-6.16,3.99-7.29,3.33-1.03,4.93,1.67,7.27.79,1.75-.66,3-3.17,4.15-4.49,1.91-2.19,7.05-6.4,9.94-6.61,6.57-.49,8.94,7.52,2.46,9.89-2.68.98-4.9-.31-6.9.3-2.36.72-1.33,3.46.27,4.56,3.9,2.68,5.94-.92,9.5-1.05,5.13-.19,6.63,6.32,2.17,8.91-5.46,3.17-12.84.81-17.56-2.69-1.38-1.02-2.43-2.45-4.08-3.12-4.35-1.77-3.82,3.41-5.65,5.88-4.97,6.74-15.2,1.91-21.69,3.27-3.41.71-2.55,4.7.48,5,1.65.17,4.8-.64,6.7-.7,4.37-.14,11.64.53,14.62,4.1,2.68,3.21,3.5,10.64,8.9,10.65,3.05,0,4.04-3.66,2.09-5.63-2.15-2.17-5.16-2.27-6.94-5.71-1.53-2.94-3.73-11.83,1.73-11.83,5.82,0,3.3,11.22,9.58,10.81,2.06-.98,3.37-2.95,5.34-4.27,3.92-2.62,8.45-4.25,11.83.08,4.95,6.34-3.51,13.56-9.76,10.48-.67-.33-1.44-1.2-1.98-1.38-2.7-.88-4.44,3.26-1.58,4.94,5.77,3.39,15.11-3.78,19.69,1.43,3.52,4.01.45,10.32-4.43,11.18-6.33,1.1-9.23-4.71-14.29-4.71-2.69,0-3.71,2.19-5.75,3.38-6.73,3.94-12.84-.92-17.16-5.89-2.26-2.6-5.08-8.21-7.92-9.6-5.51-2.71-16.17,1.21-19.69-3.59s3.79-13.9,1.79-19.79c-1.2-3.55-5.04-2.7-6.05.66-1.82,6.04.78,14.31.41,20.81-.14,2.5-1.7,5.2,2.15,6.02,5.18,1.1,13.29-3.83,18.03-1.23,2.68,1.47,1.97,5.43-.52,6.71-4.97,2.55-16.91-2.11-19.75,4.01-1.16,2.5.41,7.88,3.15,8.8,6.44,2.17,7.44-7.79,13.41-8.57,4.93-.64,7.58,1.55,11.86,2.74,7.3,2.03,11.35,1.01,13.56,9.96.56,2.27.5,5.67,1.31,7.57,1.4,3.3,6.19,2.45,5.99-1.41-.12-2.3-1.46-5.19-1.43-7.7.06-4.08,3.26-7.09,7.34-5.66,1.9.67,4.64,3.41,6.25,3.6,2.78.34,6.14-4.61,10.43-2.29,5.09,2.76,6.09,12.01.87,15.3-4.74,2.99-7.16-2.03-10.96-3.05s-6.11,6.86-6.26,9.6c-.15,2.99.52,7.05,4.46,5.9,4.39-1.29,3.22-7.55,9.35-7.47,5.43.07,8.46,5.06,8.75,9.98.33,5.62-3.22,18.24-11.01,14.37-3.98-1.98-3.75-7.51-8.54-7.79-6.23-.36-5.75,7.63-11.32,8.15-4.27.4-9.03-4.01-7.41-8.37,1.17-3.15,5.61-3.1,6.93-6.03s-1.68-5.81-4.08-6.91c-9.36-4.26-15.71,8.88-11.18,16.46,2.13,3.57,11.35,9.55,15.4,10.52,5.34,1.28,8.73-2.32,13.82-2.06,4.3.23,7.89,2.84,8.28,7.32.72,8.29-3.18,14.45-12.13,13.57-5.4-.54-5.25-5.5-8.88-7.92-2.21-1.47-4.43-1.53-6.85-2.27-11.41-3.51-15.75-9.4-18.7-20.66-1.43-5.45-3.41-18.1,1.17-22.31,3.04-2.79,8.23-.19,10.14-3.3,2.11-3.45-2.01-7.04-4.92-8.38-13.49-6.2-17.29,11.53-14.68,21.16.83,3.08,2.67,5.19,2.97,8.55s-.91,6.85-.1,9.94,4.32,4.14,4.69,7.31c.74,6.31-8,8.23-9.67,14.33-1.23,4.51.76,7.74,5.11,4.15,3.23-2.66,7.39-8.54,11.56-9.56,4.73-1.16,7.93,4.58,11.25,6.9,4.25,2.96,14.06,5.52,13.4,12.23-.23,2.27-1.62,5.2-3.11,6.91-3.6,4.12-16.21,7.08-18.68.77-1.78-4.56,3.32-5.97,3.58-9.81s-3.3-6.02-6.66-4.74c-2.2.84-6.18,5.41-6.32,7.85-.28,4.8,3.85,5.71,5.88,8.78,2.82,4.28,1.94,15.59-4.3,16.31-3.83.44-5.12-1.29-8.23-2.09-2.45-.63-5.67-.13-7.82-1.06-4.1-1.76-3.15-6.72,1.24-7.35,2.03-.29,6.95.51,8.18-1.42,1.52-2.37.17-9.45-2.91-10.46-4.7-1.55-3.57,4.43-5.82,6.53-2.04,1.91-5.47.17-6.53-2.1-2.74-5.84,2.69-8.59,2.59-13.62-.08-4.04-5.54-5.82-3.45-11.83,1.62-4.65,9.76-5.58,9.65-9.99-.13-5.01-8.3-1.59-9.08-7.24s6.58-7.35,6.95-11.73c.46-5.47-5.73-3.82-8.64-5.79-3.5-2.37-2.32-6.96,1.02-8.79.98-.54,2.36-.74,3.34-1.22,2.46-1.19,3.33-4.89,1.15-6.78s-8.07-.83-11.16-1.08c-2.21-.18-4.45-.96-6.6-1.44-1.17,2.71.48,4.11,1.27,6.53,1.28,3.94,1.34,9.33-.12,13.22-.25.66-.98,1.25-.87,1.92,3.73,5.23,7.35,11.01,5.89,17.74-.3,1.39-2.08,4.99-2.07,5.84,0,.48,1.1,1.96,1.36,2.69,1.11,3.04.3,7.22.54,10.5.31,4.31,1.28,6.54.64,11.21-1.09,7.96-3.36,9.45-11.34,9.32-3.16-.05-3.44.41-6.3.88-1.34.22-2.78.33-4.13.31.99,2.41,1.33,4.52.46,7.04l8.05,3.28c.59-.46.3-1.28.43-1.97.58-2.96,1.49-4.92,4.43-6.13,4.83-1.98,9.94-.07,9.16,5.8-.78,5.86-8.01,5.36-12.31,4.24-.51.15-.43,2.84-2.55,3.7-4.7,1.91-9.97-.97-13.9-3.38-2.37-1.45-5.72-3.63-7.81-5.39-.99-.83-2.13-2.5-2.94-3.12-1.6-1.22-5.4-2.58-7.42-3.79-7.5-4.52-9.16-9.34-12.61-16.91-.76-1.66-.04-2.12-2.11-3.13-.26-.13-.66.1-1.2-.28-.41-.29-2.69-2.69-3.11-3.19-3.84-4.52-6.68-11.78-8.1-17.52-1.04-4.21-1.57-8.16-.1-12.36-2.84-2.72-4.04-6.64-4.69-10.44-.9-5.2-1.7-18.42.41-22.97.56-1.21,1.36-2.28,2.42-3.1,1.96-1.5,3.97-1.38,4.3-4.58-3.04-.13-6.27-.69-7.28-4.01-2.18-7.2,7.2-9.82,9.38-3.62.69,1.96.6,3.6.05,5.59.25.22,6.16-1.21,6.24-1.56-4.37-5.21-6.86-9.49-6.49-16.57s2.54-12.91,8.85-16.11c.07-2.19.21-4.39.68-6.52,1.22-5.5,5.31-10.23,9.33-13.97-.31-2.64-.65-4.92.13-7.54.88-2.95,4.26-6.55,7.02-7.86.61-.29,1.55-.34,1.98-.66.32-.24,1.9-3.26,2.62-4.1,3.54-4.09,9.45-5.87,13.68-1.68l1.77-1.85c-1.76-4.35-1.27-8.07,2.99-10.43,6.81-3.78,18.35-.3,19.12,8.32.36,4.08.02,13.34-1.43,17.04-.25.65-1.36,2.39-1.39,2.67-.05.5.69,1.98.83,2.68.75,3.68.52,6.7-.84,10.22,2.48,2.39,2.94,4.91,2.1,8.18-.21.82-1.41,3.16-1.41,3.61,0,.4.94,2.16,1.12,2.95.59,2.62.43,6.06-.35,8.64-.25.84-1.47,3.02-1.48,3.53-.02.77,1.02,3.12,1.15,4.35.39,3.87-.63,7.34-2.34,10.74,5.5,3.6,1.87,8.75.8,13.59-.54,2.43-.57,4.86-1.56,7.2,1.86.44,3.74,1,5.64,1.2,3.09.33,6.58-.42,9.49.11,4.17.76,5.55,5.62,3.11,8.89-2.01,2.69-7.36,1.97-7.67,6.27-.33,4.63,7.09,2.96,9.6,5.97,4.09,4.89-1.91,8.51-4.45,11.64-1.82,2.25-2.19,5.2,1.03,6.18,2.97.9,6.38.55,6.63,4.83.4,6.84-10.58,5.87-9.94,13.35.32,3.75,4.3,4.96,3.77,9.78-.47,4.24-5.56,8.42-2.15,12.61.8.99,2.99,1.99,3.91.85,1.96-2.42.75-7.55,6.08-7,4.87.5,6.76,9.1,4.76,12.62-2.27,4-10.8.61-11.76,3.84-1.25,4.2,6.51,3.44,8.88,3.98,3.09.71,5.39,3,8.97,1.86,4.05-1.28,4.32-9.9,2.79-13.14s-5.98-4.13-6.5-9.1c-.39-3.8,3.79-8.95,7.18-10.29,4.75-1.88,9.44,1.83,8.58,6.9-.59,3.46-6.85,6.54-2.32,9.88,3.93,2.89,12.6.47,15.44-3.24,1.18-1.53,2.46-4.65,2.3-6.58-.38-4.64-9.2-7.49-12.56-9.77-3.07-2.08-6.6-7.82-10.62-6.69-4.81,1.36-10.41,10.79-14.38,11.07-4.45.31-4.56-4.98-3.56-8.12,1.68-5.25,7.32-6.72,9.16-10.76s-3.19-5.72-4.23-9.16c-.98-3.24.22-7.36-.1-10.7-.27-2.92-1.85-4.73-2.67-7.41-2.99-9.67.2-28.07,13.93-24.49,4.63,1.21,11.81,6.67,7.62,11.83-2.84,3.49-8.08.17-10.64,4-4.4,6.57.25,26.06,5.12,32s10.35,6.53,16.97,8.71c5.17,1.7,4.74,4.49,7.71,7.53,2.3,2.35,7.82,1.95,10.35.08,4.03-2.96,5.32-12.52.67-15.31-5.97-3.58-10.08,1.31-15.54,1.16s-16.84-7.45-19.33-12.36c-2.92-5.76-.87-13.49,4.39-17.22,5.67-4.02,16.24,1.57,13.97,7.97-1.18,3.33-6.03,3.86-6.96,6-1.14,2.62,1.02,5.51,3.49,6.35,7,2.38,5.89-8.24,13.8-7.8,5.67.32,5.16,5.34,8.67,7.65,5.9,3.89,9.17-6.12,9.44-10.4.29-4.62-1.41-10.48-6.84-10.91-4.95-.39-4.28,3.82-7.2,6.23-1,.83-2.72,1.52-4.04,1.43-7.94-.55-3.89-17.8,1.95-18.65,4.08-.6,7.42,6.24,11.8,3.17,3.66-2.56,3-8.47.26-11.51-3.9-4.32-7.5,1.52-10.92,1.34s-8.12-7.26-11.51-2.39c-2.95,4.23,3.6,12.49-1.74,15.06-3.56,1.71-6.33-.75-6.98-4.22-.57-3.03-.42-5.58-1.7-8.62-2.4-5.7-7.05-4.93-12.09-6.39-3.72-1.07-7.4-3.6-11.47-2.45-4.55,1.28-5.44,8.78-11.4,8.78-5.58,0-8.66-8.73-5.08-12.66,3.86-4.22,11.39-2.09,16.36-2.48,2.15-.17,4.63-.84,4.45-3.48-.19-2.81-6.1-1.83-7.98-1.49-3.82.68-10.91,3.67-13.73-.57-1.39-2.09.1-5.56.1-8.02,0-5.35-3.37-17.14.98-21.34,1.78-1.72,4.96-1.58,6.42.5,4.08,5.83-3.05,13.82-1.83,19.82.36,1.77,2.8,2.84,4.41,3.03,6.49.75,13.4-2.01,18.33,3.75,4.45,5.22,9.1,15.23,17.62,14.25,5.12-.59,5.21-6,11.67-4.42,4.42,1.08,6.84,5.13,11.85,4.43,4.53-.63,7.06-7.51,2.67-9.83-4.55-2.4-14.11,3.83-19.09-.83-2.88-2.69-.69-7.82,3.19-7.03,1.1.23,2.18,1.68,3.53,1.99,5.89,1.34,11.37-5.4,6.12-9.72-3.24-2.67-7.81.13-10.55,2.4-2.29,1.9-3.52,4.58-7.17,2.83-4.27-2.05-3.11-8.07-5.91-9.93-.76-.51-1.94-.44-2.59.2-1.52,1.52.24,7.96,1.33,9.7,2.35,3.76,8.36,3.42,7.7,9.05-.48,4.1-4.73,4.66-7.82,2.83-4.73-2.79-4.04-9.72-9.27-12.09-3.16-1.43-7.88-1.8-11.32-1.64-3.1.15-7.28,1.87-9.48-1.08s-.02-5.85,3.23-6.13c5.72-.49,16.35,2.65,20.15-2.65,1.24-1.72,1.47-6.1,3.91-6.65,4.13-.93,6.44,2.97,9.51,4.79,3.83,2.28,9.59,3.84,13.76,1.68,4.52-2.33,2.48-7.88-2.93-6.05-2.43.82-3.04,1.97-6.12,1.34-3.44-.7-6.7-5.62-2.55-7.86,2.36-1.28,5.08.73,8.02-.86,2.34-1.27,3.04-3.7,1.04-5.7-3.74-3.73-10.18,2.57-12.73,5.28-1.39,1.48-2.41,3.63-4.39,4.49-3.25,1.41-4.09-1.12-6.98-.74s-2.31,3.22-2.98,5.18c-1.65,4.83-7.88,6.64-12.41,5.13-11.12-3.72-4.98-14.87-7.23-23.01-1.1-3.98-4.95-2.54-4.9,1.04.03,2.38,1.79,6.02-1.26,7.36-6.41,2.83-5.3-7.06-5.45-10.48-.09-2.22-1.4-4.66,1.27-6.17,2.98-1.69,7.9,1.19,9.3-1.26,2.04-3.56-4.9-2.97-6.38-3.72-1.81-.92-2.49-4.25-2.53-6.13-.02-1.18.45-2.29.5-3.37.16-3.71-4.36-6.95-3.58-12.69.59-4.35,5.93-5.36,6.91,0,.28,1.54-.17,6.5,1.64,6.77,2.89.43,1.27-6.65,1.52-8.23.55-3.39,4.54-3.36,6.71-1.46,4.6,4.01-2.66,11.58-3.13,16.33-.55,5.63,4.39,6.77,4.97,11.1.3,2.21-.56,2.49-1.25,4.14-.92,2.18,1.27,5.78,1.53,8.31.4,3.92-.8,7.11,1.27,10.97,1.09,2.03,4.62,5.44,6.4,2.41,4.06-6.89-8.72-15.33-5.78-21.38.76-1.55,2.61-1.71,4.06-1.07,2.52,1.1,3.01,4.32,4.04,6.52,1.33,2.83,2.6,5.6,5.18,7.54s6.3,1.8,5.44-2.33c-.21-1.03-4.89-8.01-5.82-9.06-3.87-4.33-10.47-4.57-13.76-9.76-.95-1.5-2.82-6.44-2.9-8.16-.16-3.12,2.61-4.46,4.02-6.72,1.58-2.54,1.35-7.16,5.81-5.96,3.56.95,3.45,4.97,2.19,7.73-.91,2.01-2.5,3.15-3.65,4.75-1.95,2.74,1.88,7.16,4.69,4.45,2.22-2.14,2.49-4.87,3.82-7.22,2.75-4.86,10.25.43,6.23,5.75-.68.9-1.7,1.52-2.31,2.49-2.58,4.17.65,5.92,2.79,8.83,1.54,2.09,3.56,6.83,5.43,8.01,1.11.7,2.87.64,2.88-.96.01-2.58-6.04-6.46-6.17-9.87-.12-3.07,3.24-5.06,5.56-2.73,2,1.99,3.56,5.88,5.39,8.05.41.49.91.97,1.57,1.07h23.48c2.52-.2,1.4-3.08,3.03-4.42,1.04-.85,3.93-.82,5.13-.35,2.73,1.09.84,4.2,3.44,4.72l34.25.07c2.8.43,1.99,3.37,3,4.44.67.69,2.53.72,3.44.53,2.64-.54.68-4.43,4.15-4.97l40.01-.07c2.13-.28,1.34-2.68,2.47-4.01s4.74-1.36,6.09-.36c2.13,1.59.02,4.1,3.48,4.44,3.26.31,7.15-.17,10.46-.12,1.45-.53,1.11-1.84,1.55-3.01s1.38-1.82,2.62-1.94c3.68-.35,8.11.15,11.85.17,2.73.84,1.04,4.58,4.02,4.86l28.54.02c2.76-.03,1.58-3.07,3.25-4.43,1.04-.85,3.93-.82,5.13-.35,2.73,1.09.84,4.2,3.44,4.72l34.25.07c2.8.43,1.99,3.37,3,4.44.67.7,2.54.72,3.44.53,2.64-.54.68-4.43,4.15-4.97l40.01-.07c2.13-.28,1.34-2.68,2.47-4.01s4.74-1.36,6.09-.36c2.13,1.59.02,4.1,3.48,4.44,3.26.31,7.15-.17,10.46-.12,1.45-.53,1.11-1.84,1.55-3.01s1.38-1.82,2.62-1.94c3.68-.35,8.11.15,11.85.17,2.73.84,1.04,4.58,4.02,4.86,6.6-.51,14.4.75,20.86.02,3-.34,1.46-2.96,3.25-4.43,1.04-.85,3.93-.82,5.13-.35,2.73,1.09.84,4.2,3.44,4.72l34.25.07c2.8.43,1.99,3.37,3,4.44.67.7,2.54.72,3.44.53,2.64-.54.68-4.43,4.15-4.97l33.05-.07c2.13-.28,1.34-2.68,2.47-4.01s4.74-1.36,6.09-.36c2.13,1.59.02,4.1,3.48,4.44,3.26.31,7.15-.17,10.46-.12,1.45-.53,1.11-1.84,1.55-3.01s1.38-1.82,2.62-1.94c3.68-.35,8.11.15,11.85.17,2.73.84,1.04,4.58,4.02,4.86l28.54.02c2.76-.03,1.58-3.07,3.25-4.43,1.04-.85,3.93-.82,5.13-.35,2.73,1.09.84,4.2,3.44,4.72l34.25.07c2.8.43,1.99,3.37,3,4.44.67.69,2.53.72,3.44.53,2.64-.54.68-4.43,4.15-4.97l40.01-.07c2.13-.28,1.34-2.68,2.47-4.01,1.15-1.34,4.74-1.36,6.09-.36,2.13,1.59.02,4.1,3.48,4.44,3.26.31,7.15-.17,10.46-.12,1.45-.53,1.11-1.84,1.55-3.01s1.38-1.82,2.62-1.94c3.68-.35,8.11.15,11.85.17,2.73.84,1.04,4.58,4.02,4.86,6.6-.51,14.4.75,20.86.02,3-.34,1.46-2.96,3.25-4.43,1.04-.85,3.93-.82,5.13-.35,2.73,1.09.84,4.2,3.44,4.72l34.25.07c2.8.43,1.99,3.37,3,4.44.85.89,3.68.8,4.56-.02s.1-2.45,1.57-3.71c.15-.13,1.13-.72,1.2-.72h31.8v1.44h-31.56ZM91.11,57.24c.64-1.8,1.46-3.75,1.65-5.67.12-1.19-.05-2.39.02-3.58.38-6.99,1.83-13.46-6.16-16.38-6.15-2.24-16.21-.15-13.26,8.35.28.06.46-.03.71-.13.27-.1,3.54-1.92,3.7-2.06.57-.47.65-1.62,1.46-2.38,2.48-2.36,7.91-1.24,9.5,1.8,1.47,2.82.14,5.97-.96,8.65.78,1.23,1.93,2.32,2.13,3.85.27,2-.56,4.02-.96,5.94l2.17,1.6ZM79.83,37.08c4.6-1.25,7.39,3.19,5.05,7.06.38.35,1.15,1.09,1.68.75,2.01-3.72,2.4-8.81-3-9.26-1.28-.11-3.37-.06-3.73,1.45ZM79.59,38.52c.51,1.82,1.89,3.55,3.48,4.56.88.56,1.33-1.12,1.33-1.8,0-2.59-2.66-3.45-4.81-2.76ZM78.38,39.24c-.48-.35-3.61,1.74-4.07,2.27,1.98,2.38,4.72,3.97,7.91,3l-2.74-2.89-1.1-2.38ZM68.07,54.35c-.98-2.93-.67-5.28.44-8.08.29-.73,1.31-1.8.89-2.48-.23-.37-1.61-1.1-2.1-1.27-4.82-1.7-9.76,2.13-11.23,6.55,2.23.04,4.43,1.26,6.11,2.65.61.5,2.21,2.44,2.7,2.58.86.26,2.25-.08,3.19.05ZM85.58,46.22c-.62.02-1.34-.89-1.78-.9-.32,0-1.54.78-2.4.88-3.35.37-6.19-1.26-8.16-3.84-2.61,2.08-1.29,1.89-.9,4.01.47,2.56.09,5.41,1.04,7.96,2.8.22,5.78-.97,7.98-2.66.81-.62,4.81-4.64,4.22-5.46ZM71.91,54.6l-1.32-8.88c-1.71,1.33-2.33,7.26-.97,8.65.46.47,1.64.15,2.29.23ZM74.07,55.8c.35,1.48,1.68,4.48,3.45,4.31,4.4-.43,5.68-5.66,10-5.13.9-2.47,1.9-5.73-.61-7.57-2.81,4.61-7.2,8.23-12.84,8.4ZM62.79,54.59c.32-.43-2.31-2.44-2.71-2.68-.76-.47-4.23-2.16-4.85-1.4-.28.35-.76,2.93-.81,3.51-.26,3.24.83,5.21,3.21,7.28.23,0,.94-3.28,1.2-3.84.75-1.61,2.31-2.44,3.96-2.88ZM53.67,50.52c-5.26,2.05-8.6,7.78-7.2,13.44.84-.18,1.47-.68,2.34-.89,2.69-.64,4.84.39,6.69,2.31.71-.43,2.57-1.31,2.13-2.13-.41-.77-2.31-2.13-2.99-3.01-2.31-2.95-1.77-6.31-.97-9.71ZM67.11,61.08c.33-.32-2.28-4.71-2.75-5.06-.62-.47-2.31.29-2.94.7-1.79,1.15-2.13,3.82-2.23,5.8,2.64-.8,5.07-1.72,7.92-1.44ZM68.53,55.82l-2.61.09c1.14,1.44,2.2,3.1,2.67,4.89l1.65.03-1.7-5.01ZM72.61,56.06l-2.61-.27,1.7,5.01,3.09-.21-2.19-4.53ZM87.03,56.28c-2.32.04-3.37,2.25-5.1,3.41-1.17.79-2.32,1.1-3.53,1.74,1.23,1.19,5.35.95,6.58.1.44-.3,2.31-5.01,2.06-5.26ZM87.03,60.59c.28.23,2.35-1.29,2.53-1.68.33-.75-.95-2.21-1.33-1.52l-1.2,3.2ZM84.21,68.7c.26.25,2.53.52,3.24.72.98.28,1.69.76,2.54,1.08s1.17-1.95,1.29-2.64c.49-2.7.18-5.13-.66-7.73l-4.67,2.89c-.18.9-2.41,3.64-2.45,4.19,0,.08.61,1.42.7,1.5ZM84.15,63.24c-2.09.62-3.9.69-5.93-.2-.64-.28-1.64-1.18-2.13-1.25-.37-.05-3.2.31-3.22.6,1,1.67,3.3,3.15,5.22,3.42,1.45.21,2.87-.2,4.24.56l1.82-3.13ZM68.07,67.8c.28-1.82.36-3.7-.47-5.42-2.35.13-4.51.2-6.73,1.1-.1.44.13.47.4.68.69.54,6.41,4.05,6.8,3.64ZM71.15,62.33c-.37-.22-1.38.04-1.87-.05.34,2.11.65,3.99.04,6.1.12.53,4,1.66,4.7,1.76,2.3.31,6.81-.06,7.26-2.82-3.87.32-6.83-.83-9.35-3.73-.24-.28-.71-1.23-.77-1.26ZM53.83,65.72c-.65-.72-2.42-1.53-3.39-1.52-.59,0-3.09.74-3.37,1.2-.57.92,1.8,6.71,1.81,8.16l5.48-7.03c-.16-.27-.32-.57-.53-.8ZM59.2,64.44c.07,3.97,1.8,7.84,4.68,10.56l3.47-5.61-8.14-4.94ZM63.27,76.91v-.35c-3.1-3.03-4.87-6.67-5.64-10.93-1.98,1.26-.24,2.29.4,3.92,1.11,2.8.84,5.35-.1,8.14-.67,2-1.93,3.75-2.58,5.7.98-.13,3.13.33,3.84-.36.29-.28,1.01-2.65,1.53-3.51.55-.91,1.51-2.26,2.55-2.61ZM45.75,66.6c-.42-.11-.48.17-.72.36-2.12,1.63-5.5,6.29-6.6,8.76-1.28,2.86-1.82,5.98-1.79,9.13,2.39-.36,4.72-.87,7.09-.06l4.18-9.43-2.15-8.75ZM55.59,67.8c-.37-.09-.38.06-.58.25-1.04,1.05-5.19,6.37-5.41,7.56-.17.93.35,4.08.77,4.97.53,1.11,2.23,2.45,3.51,2.31,1.82-3.6,3.99-7.05,3.33-11.31-.22-1.39-1.19-2.49-1.63-3.78ZM77.19,71.64c-3.07.38-5.77-.84-8.62-1.67-.52,1.91-2.53,3.01-2.9,5.02,1.59-.55,3.12-1.25,4.79-1.57,2.27-.43,5,0,6.73-1.79ZM82.95,70.2c-2.2-.22-2.62,1.09-3.96,2.16-3.28,2.58-5.62,1.79-9.29,2.71-.58.15-4.03,1.3-4.02,1.73l2.51,1.72c3.97-2.38,8.4-2.62,12.92-2.11.85-.3,2.13-5.14,1.84-6.2ZM82.71,76.91l4.2,1.68,2.89-6.48c-.39-.81-4.2-1.8-5.18-1.81-.38,2.3-.95,4.49-1.91,6.61ZM91.59,81.96c.37-1.64,1.3-3.42,1.21-5.15-.03-.58-1.31-3.95-1.93-3.49l-2.66,6.1,3.37,2.54ZM80.31,77.88c-3.41-.49-7.76-.54-10.56,1.67,3.95,1.87,8.11,2.89,10.56-1.67ZM52.7,84.14c-1.67-.51-3.09-1.7-3.77-3.31l-.77-2.71-2.9,7.29c2.24.87,2.72,2.86,5.41,2.06.63-.19,2.31-2.93,2.03-3.33ZM66.87,79.32l-2.16-1.2.48,2.4,1.53-.7.15-.5ZM86.3,79.82c-1.13-.31-3.01-1.63-4.17-1.47-.69.1-1.62,1.92-2.29,2.53-3.39,3.12-8.06,1.31-11.61-.58l-1.82,1.75c1.63,1.92,3.76,1.36,5.84,1.62,5.83.73,12.14,5.49,14.05-3.85ZM63.51,78.84c-.52-.61-2.92,3.56-2.64,3.84l3.11-.97-.47-2.87ZM85.83,90.84l4.77-7.12c.05-.48-2.4-2.78-2.97-2.96-.79,2.27-1.83,4.89-4.27,5.8-3.87,1.45-7.42-1-11.11-1.46-2.68-.33-5.33.25-7.2-2.44l-4.67,1.85c.15.87-.28,2.7.23,3.34.22.28,2.03.92,2.58,1.26,1.85,1.12,3.65,2.41,5,4.12.91-.92,1.46-2.22,2.4-3.11,4.38-4.15,10.84-2.5,15.23.72ZM58.95,84.6l-4.56.11-1.44,2.53c1.97-.55,4.03-.04,6,.24v-2.88ZM91.59,85.32l-4.77,6.4c1.47,1.6,2.86,3.21,3.94,5.11,1.97-3.37,2.02-7.85.84-11.51ZM43.35,86.04c-2.11-.34-4.39-.54-6.36.46l.37,5.29c.19.21,5.03-2.01,5.22-2.22.26-.28.95-3.35.77-3.54ZM44.31,88.92l2.39-.84-1.91-1.32-.48,2.16ZM35.43,87.24c-7.67,2.83-9.13,15.73-6.59,22.31,1.23,3.19,3.66,5.42,5.55,8.18.24.04,4.54-1.11,4.74-1.24.43-.28.58-.99.98-1.42.68-.75,1.45-1.44,2.28-2.03-1.19-.5-2.99-3.94-3.6-4.31-.47-.28-2.54-.49-3.35-.73-2.54-.76-5.67-2.01-6.47-4.81-1.31-4.61,4.01-8.24,7.16-10.59l-.7-5.36ZM66.87,95.88c-4.18.01-6.85-2.97-7.68-6.84-1.47-.47-6.24-1.12-7.32-.12s.84,1.75,1.45,2.39c3.62,3.83,2.79,6.98.87,11.45-.27.63-1.4,2.31-1.45,2.65-.08.57,1.72,3.13,2.36,2.69,2.03-4.5,5.42-10.17,11.06-9.94l.71-2.29ZM69.51,94.68c4.12.18,8.25-1.02,12.35-.23l2.77-2.53c-4.78-4.15-13.1-4.14-15.11,2.76ZM46.76,108.07c.29.17,1.74.1,2.11-.07.2-.09,1.93-2.22,1.93-2.39-3-4.55-3.67-8.46-1.93-13.69.29-.86,1.12-1.48.26-2.17-1.09-.87-3.95.57-5.26.9-.59,3.7-.85,7.33.08,11,.24.94,2.24,6.1,2.81,6.43ZM67.59,94.67c-1.77-2.13-4.08-4.1-6.72-5.04.76,3.24,3.54,4.87,6.72,5.04ZM51.99,104.04c1.1-2.39,2.68-5.33,2.4-8.04-.22-2.16-2.11-3.47-3.48-4.91-1.82,3.03-2.11,6.86-.81,10.16.18.46,1.38,3.14,1.88,2.79ZM42.39,91.32l-4.57,2.08c.07,1.73.62,3.52.73,5.24.13,1.88-.38,7.42,1.22,8.62.43.32,4.97.83,5.27.61-2.94-5.05-3.78-10.82-2.64-16.56ZM88.48,99.72c.32.24,1.38-1.17,1.34-1.45-.14-.86-3.31-5.39-4.07-5.25l-2.07,2.14c1.94.77,4.06,2.61,4.8,4.56ZM36.63,94.44c-.4-.43-3.76,2.4-4.2,2.87-5.35,5.76-.31,8.75,5.4,9.85-1.14-4.16-.47-8.48-1.2-12.72ZM80.55,95.64c-3.21-.07-6.43.13-9.6.6,2.51,4.2,6.94,2.23,9.6-.6ZM67.59,98.75c6.3,1.96,13.89,8.06,19.88,2.01.19-1.02-3.68-4.49-4.93-4.6-3.72,2.59-7.09,6.08-11.48,2.36-2.06-1.74-2.24-4.31-3.48.23ZM56.79,108.12h6.24l2.64-8.28c-3.1-.56-5.52,2.41-7.06,4.7-.3.45-2.06,3.35-1.82,3.58ZM66.82,108.06c.27-.16,1.48-2.02,2.23-2.45,3.09-1.77,11.34.78,15.02,1.26,1.98.26,4.41.98,4.64-1.76.04-.53-.07-2.93-.84-2.76-.13.03-1.6,1.24-2.12,1.48-6.37,2.95-12.72-1.69-18.53-3.85l-2.76,8c0,.17,2.11.21,2.35.07ZM68.31,108.59l4.92,2.41c5.26-3.29,10.95-.79,15.82,1.9,2.53-3.76,2.92-8.67,1.58-12.94-2.06,1.04-.58,2.47-.48,4.21.16,2.76-1.1,4.45-3.95,4.44-3.13,0-7.37-1.48-10.6-1.9-2.53-.33-6.14-1.01-7.29,1.88ZM45.95,109.35l-5-.27c-.26.22,2.16,2.88,2.52,3.08l2.66-1.88-.17-.92ZM53.79,109.56h-4.56c-.13,0-.89.72-.73,1.19.14.4,3.5,4.51,3.73,4.33l1.89-4.96-.32-.56ZM62.55,109.56h-6.72c1.41,1.79,2.92,3.64,4.92,4.8l1.8-4.8ZM66.15,109.56l-2.13.03-2.09,5.71c-.04.39,1.83,1.85,1.97,1.88.37.07,3.55-.64,3.68-1.05.14-.47-.89-1.78-1.13-2.43-.54-1.41-.7-2.67-.3-4.14ZM71.91,111.72l-4.06-1.83c-.75-.13-.52,1.66-.44,2.13.17,1.01.95,1.82,1.15,2.82l3.36-3.12ZM74.55,112.19c1.17.21,2.25,2.37,3.13,2.76.93.42,2.75.43,4.07.97.78.32,3.05,2.04,3.24,2.04.39,0,3.16-3.17,3.22-3.53.05-.34-.15-.37-.37-.53-.76-.54-3.24-1.71-4.17-2.07-2.81-1.08-6.72-1.81-9.12.35ZM51.51,117l-4.44-5.76-2.28,1.8c-.1.38,2.13,1.73,2.57,1.99,1.32.77,2.77,1.33,4.15,1.97ZM54.02,117.12c1.51,1.38,3.1.72,5.02.79l1.04-2.01-4.96-4.67c-.29,1.38-1.92,4.03-1.68,5.35,0,.05.46.43.58.54ZM21.21,112.01c-2.97.43-3.61,3.53-2.46,5.95.97,2.04,3.97,2.29,5.97,2.12,1.96-2.75.6-8.68-3.51-8.08ZM75.75,115.07c-1.14-.98-1.98-2.75-3.48-1.68-.76.55-1.62,1.68-2.28,2.4l5.76-.72ZM51.01,118.22c-2.68-.87-5.17-2.3-7.35-4.08-.57-.15-2.33,1.43-2.47,2.13,1.78-.08,3.32-.16,4.56,1.32,2.11,2.51.46,5.09-1.21,7.2-.48.6-1.99,1.5-1.45,2.18,1.2,1.5,3.12.01,4.52-.55.63-.25,1.29-.44,1.95-.57l1.45-7.63ZM89.43,128.99c.14-4.41,5.54-11.11.15-13.91l-3.69,4.19,2.35,4.56,1.19,5.16ZM80.55,121.55c.3-.39-2.86-4.79-3.53-4.99-2.3-.32-4.52.46-6.79.67-.31.31,3.38,5.2,4.07,5.41,2.08.66,4.39-.27,6.25-1.1ZM81.76,120.6l1.91-1.54c-1.04-1.3-2.63-2.24-4.31-2.29l2.41,3.84ZM41.68,125.4c.39.29,2.24-2.02,2.5-2.42,2.4-3.62.35-6.29-3.71-5.15-.9.68.89,6.35,1.21,7.56ZM71.19,121.56l-2.27-3.6c-.68-1.1-2.2,1.24-2.04,1.44l4.32,2.16ZM38.79,118.19c-.13-.13-2.69.5-3.06.67-.18.08-.46.04-.3.41.53,1.22,3.28,3.66,4.31,4.69l-.96-5.76ZM64.44,119.19c-.56-.98-3.15.15-4.13,0l-1.32,2,2.48,1.75c.2,0,2.57-2.65,2.77-2.94.16-.25.36-.53.19-.82ZM51.03,125.4c.36.34,2.95-.9,3.44-1.24.59-.41,2.59-2.15,2.21-2.84-.09-.16-2.57-2.19-2.78-2.27-.46-.16-.92-.22-1.4-.1l-1.47,6.45ZM33.96,119.42l-7.73,1.87-1.12,2.66c5.41-1.23,10.49-1.25,13.56,4.06l1.54-1.5c-2.33-2.11-4.57-4.4-6.26-7.09ZM75.51,127.07c-.76-.69-1.71-2.72-2.42-3.22-.54-.38-2.17-.75-2.95-1.13-.69-.34-3.89-2.31-4.16-2.33-.6-.06-2.44,2.79-3.19,3.21,1.63,1.41,3.96,1.33,5.76,2.39.52.31,1.36,1.23,1.6,1.29.42.11,2.29-.68,3.08-.69s1.48.39,2.27.48ZM87.75,133.56c.36-2.65.24-5.47-.44-8.08-.22-.85-1.92-5.26-2.76-5.1l-2.05,1.54c1.59,3,2.45,6.16.23,9.09.09.55,4.69,2.91,5.02,2.55ZM50.55,129.96c4.07-.16,7.19-3.1,9.83-5.88l-2.25-1.54c-1.79,2.3-4.3,4.22-7.34,4.31l-.25,3.11ZM81.5,122.76c-2.16.69-3.83,1.7-6.23,1.56.02.83,5.56,5.97,6.09,5.87,2.34-2.14.97-4.93.14-7.42ZM37.35,128.99c-2.27-5.49-8.29-4.68-12.98-3.2-1.1,2.87-1.87,5.88.02,8.62,4.48-1.18,8.91-3.05,12.96-5.42ZM55.35,138.84c-.59-2.19-.92-4.43.98-6.1,2.56-2.25,5.35-.36,7.99.56,1.41-1.85,2.76-3.8,4.71-5.14l-1.99-1.37-5.28-1.84c-3.22,2.95-6.54,6.28-11.2,6.46-.2,3.34.81,7.3,4.79,7.43ZM22.47,126.6c-1.37.35-2.58,1.66-3.25,2.87-2.27,4.15-1.39,17.71-.55,22.65.54,3.16,1.65,7.19,4.16,9.28,4.21-5.6-3.14-8.59-1.74-14.46.16-.66.9-1.85.89-2.22,0-.22-.73-1.65-.88-2.23-.73-2.84-.94-5.79,2.09-7.26-1.8-2.74-1.52-5.6-.72-8.63ZM49.11,129.72l.24-2.4-3.11,1.32c0,.34,2.73,1.24,2.87,1.08ZM41.07,128.04l-1.7,1.2.49,1.43,1.7-1.2-.49-1.43ZM80.04,131.43c-.15-.25-4.45-2.83-5.01-3.02-1.39-.48-2.18-.3-3.59-.13l3.25,4.79c.11.1,2.32,1.15,2.45,1.17.73.14,3.27-2.16,2.9-2.81ZM72.63,133.08c.34-.33-2.3-3.9-2.72-3.82-1.9,1.24-3.08,3.16-4.47,4.9.26.35.4.38.82.35.82-.06,2.87-1.16,4.16-1.37.74-.12,1.48-.05,2.22-.06ZM49.09,131.18c-.67-.14-1.38-.26-2.03-.49-.7-.26-3.16-1.8-3.45-.58l5.85,12.1c3,.64,5.87,2.02,9.01,1.67l-2.26-3.38c-1.68-.37-2.91-.35-4.33-1.43-2.46-1.86-2.78-5-2.79-7.89ZM38.07,130.2c-3.91,2.2-7.93,4.21-12.33,5.28l-.15.48,5.88,4.08c1.86-3.08,4.06-5.99,6.97-8.16l-.37-1.68ZM47.67,141.96l-5.4-11.28-1.76,1.24-.07.31,2.47,8.96,4.75.77ZM84.87,136.43c.34-.45-3.06-3.38-3.48-3.83l-2.74,2.79,1.42,3.45,4.8-2.4ZM62.48,136.36c1.65-1.47.44-2.2-1.06-2.75-4.16-1.53-6.03,1.06-4.62,4.99.25.18,5.31-1.9,5.68-2.24ZM39.27,133.32c-.31-.24-2.21,1.6-2.52,1.92-1.53,1.58-2.89,3.6-3.96,5.52l8.64.48-2.16-7.92ZM74.02,134.57c-1.06-.76-5.23.29-6.42,1.02l4.2,2.76,2.9-1.92c.17-.27-.58-1.79-.67-1.86ZM29.91,140.52c-2.17-1.08-4.1-2.64-5.87-4.27-2.99,1.41-1.97,4.92-1.08,7.38,1.84-1.74,4.29-2.74,6.84-2.64l.12-.48ZM60.39,143.39c.45.36,8.95-3.18,9.84-4.2l-4.09-2.89c-3.48.39-4.16,4.54-5.75,7.09ZM78.63,139.8c.05-1.03-.25-3.39-1.68-3.36-.22.22,1.14,3.1,1.68,3.36ZM75.75,137.64l-2.39,1.56c0,.31,3.04,1.38,3.59,1.08l-1.2-2.64ZM80.12,140.56c-.05.1-.27,2.01-.24,2.18.04.3,1.31,3.01,1.51,3.02,1.9-.84,3.31-3.09,4.18-4.92,1.67-3.53.82-3.75-2.38-2.14-.39.2-2.97,1.7-3.06,1.86ZM61.11,138.6l-3.36,1.2c-.29.41,1.18,2.26,1.56,2.63l1.8-3.84ZM77.87,141.76c-2.25.17-4.13-.65-6.08-1.63l-3.24,1.71c3.34.36,6.44,1.66,9.36,3.24.35-1.25.76-2.13-.04-3.32ZM87.75,140.28c-.56-.12-.38.08-.53.31-1.49,2.3-2.24,5.19-5.12,6.41l-.11.35,2.05,4.93,3.95,3.84c2.37-5.04,1.89-10.79-.24-15.84ZM41.86,142.73l-7.15-.53c1.28,1.31,2.38,2.82,3.71,4.08.59.56,3.57,3.15,4.09,3.35.42.16.32-.1.36-.35.28-2.11-.48-4.53-1.01-6.55ZM30.39,146.88c-.15-1.08,0-2.68,0-3.84,0-.07.33-.34.24-.6-2.41-.22-5.27.49-6.71,2.5.15.71,5.69,3.92,6.64,4.18.2.05.56.15.56-.08-.1-.65-.64-1.56-.72-2.16ZM42.63,152.04c.05-.37,0-.56-.22-.85-.38-.5-3.06-2.17-3.86-2.86-.75-.66-5.83-6.45-6.47-5.88-.81,2.69-.17,5.15,1.02,7.62,3.09.94,6.28,1.94,9.54,1.98ZM48.36,143.43l-5-.51c.84,2.49,1.08,5.13.96,7.75,1.66,1.25,3.15,1.92,5.29,1.61.12-2.99-.3-6.01-1.24-8.85ZM77.39,146.31c-.18-.28-5.49-2.39-6.2-2.56-3.31-.78-6.83-.85-8.08,2.89.02.22,2.63,2.76,3.03,3.12.44.38,1.84,1.64,2.27,1.57.09-.01.73-1.18.98-1.46,1.73-1.97,2.96-2.88,5.74-2.61.53.05,1.55.54,1.92.44.43-.13.54-1.09.35-1.39ZM57.75,145.32c-2.69.33-5.07-1.1-7.68-1.44.54,2.6,1.06,5.25.96,7.92,3.75-.17,5.61-3.3,6.72-6.48ZM59.67,157.32c.2-1.77.24-3.6.52-5.37.13-.84,1.17-4.56,1.12-4.8-.03-.17-1.47-1.9-1.75-1.83-1.98,3.82-3.54,7.72-8.52,7.92v.81s8.64,3.27,8.64,3.27ZM34.23,155.15l-2.17-3.94c-3.3-1.22-6.46-2.84-9.1-5.17-2.4,4.35,2.31,7.11,2.63,11.16.16,2.06-.73,3.41-1.57,5.16l3.01,1.2c-2.51-6.23,1.48-8.54,7.2-8.4ZM81.51,150.12c-.51-1.4-.73-3.24-2.62-3.11-.12.46-.43.97-.14,1.43l2.76,1.68ZM63.89,149.5c-.24-.2-1.38-1.25-1.58-1.06-.62,3.04-1.12,6.1-1.22,9.21l3.96,1.12,2.29-5.9-.34-.61c-1.19-.75-2.06-1.88-3.12-2.76ZM76.69,149.18c-3.22-1.58-6.3.36-7.14,3.54.93.35,4.27,3.68,5,3.3,1.14-.59,1.93-5.49,2.14-6.83ZM84.87,158.75c.18-.25-1.73-5.29-2.05-5.73s-4.26-3.2-4.54-3.14c-.81,1.37-.78,3.17-1.32,4.69-.24.69-1.4,2.3-1.1,2.76.14.22,2.01,1.07,2.41,1.2,2.19.75,4.39.98,6.6.22ZM41.91,153.48l-7.68-1.44,1.85,3.12,4.94.24c.31-.26,1.14-1.68.89-1.92ZM49.31,154.95c-1.94-1.12-3.54-1.46-5.81-1.25l-.86,1.82,6.47,1.8.2-2.36ZM66.39,159.23l3.91.92,3.03-2.68-4.66-3.75-2.28,5.51ZM56.79,167.64c1.36-.1,1.54-1.28,1.85-2.35s1.13-5.87.68-6.54l-8.53-3.11-.2,2.35c3.8,1.79,6.78,5.17,6.19,9.65ZM35.38,156.65c-3.33-.13-8.23-.27-7.61,4.37.06.43,1.01,2.78,1.24,2.96.16.13,1.64.47,1.87.4l6.47-5.02-1.97-2.71ZM39.75,156.84l-2.4-.24c-.26.24.78,1.51,1.09,1.67l1.31-1.43ZM41.48,157.13c-.2.89-2.16,1.86-1.94,2.66l6.09,6.17c.89-1.17,3.37-5.81,2.97-7.04-.17-.53-2.3-.99-2.94-1.15-.71-.18-3.74-.9-4.18-.64ZM85.59,159.96c-3.69,1.57-7.63.28-10.88-1.66-.74.7-1.48,1.39-2.25,2.07-.16.14-.46-.01-.31.55,5.3,1.25,15.39,3.64,16.05,10.23.48,4.81-3.8,4.54-7.3,4.43-1.07-.04-2.24-.89-1.15.96,2.99-.18,5.95.34,8.72,1.43.78-6.16-.86-12.26-2.88-18ZM91.83,179.88c.41-1.99,1.61-3.92,1.86-5.94.61-4.88-1.67-9.98-4.54-13.81-.79-1.06-1.43-2.55-2.31-.57,2.53,6.08,3.65,12.63,3.07,19.2l1.92,1.13ZM64.71,160.2l-3.84-.96-.96,7.2,3.95-1.93.85-4.31ZM46.71,167.15c2.81,2.02,5.3,2.46,8.53.97.93-3.82-1.64-7.4-5.17-8.65-.54,2.79-2.04,5.22-3.36,7.68ZM44.55,167.39l-6.36-6.95-5.64,4.44,8.31,5.11c.97.1,2.69-2.37,3.68-2.6ZM68.55,161.16l-2.64-.48-.24,2.64c.12.14,3.37-1.7,2.88-2.16ZM70.65,161.92l-5.1,3.31c-.42.58.24,3.74.73,3.85,6.58-5.17,11.58-3.99,12.83,4.68,3.71.84,9.53,1.4,7.15-4.27-.72-1.7-2.01-2.53-3.54-3.42-3.6-2.07-8.06-3.12-12.07-4.15ZM45.75,190.44c.08-.66-.75-.84-.91-1.37-.8-2.68,1.94-3.98,3.79-4.99l-1.59-1.77c-3.8,2.37-7.67,5.43-12.44,5.01-7.6-.67-10.16-11.76-7.68-17.75.4-.97,1.89-2.74,1.76-3.43-.28-1.48-4.24-1.59-5.48-2.34-.23.92-.59,1.84-.69,2.79-.69,6.52,4.32,20.18,8.62,25.17l3.35,3.24c-.33-.8.64-3.32,1.36-3.56.6-.2,1.62-.03,2.35-.53l7.57-.47ZM30.87,166.2c-.1.39.08.56.23.84.28.53,4.9,5.33,5.29,5.52.91.42,2.26-1.02,3.11-1.45.09-.35-.22-.4-.4-.56-.97-.9-5.83-3.91-7.04-4.24-.41-.11-.79-.15-1.21-.11ZM63.99,166.2l-5.2,2.23c-.69,1.43-2.29,2.33-3.19,3.41-1.28,1.53-2.19,4.1-3.83,5.53v.34s5.27,3.6,5.27,3.6c.67-4.72,4.64-7.9,7.89-10.97l-.93-4.15ZM77.43,173.4c-.69-7.57-5.48-7.13-10.31-3,.4.54.9.69,1.49.91.95.34,8.5,2.41,8.83,2.09ZM35.43,173.87c.08-.33-.05-.39-.23-.6-.75-.86-2.22-1.89-3.13-2.87-.78-.83-1.52-1.89-2.27-2.76-4.39,4.53-2.49,17.46,4.56,18.24,4.59.51,8.03-2.24,11.64-4.57.09-.37-.06-.38-.25-.58-.32-.32-2.45-1.95-2.74-1.96-2.83.91-9.43,3.28-11.97,1.31-2.8-2.17,2.72-5.41,4.41-6.21ZM54.63,169.8c-3.45,1.47-6.11.35-8.96-1.66l-3.27,2.97c.07.29,4.51,3.33,4.9,3.5,1.12.5,2.29-.43,3.33-1.02.78-.45,4.73-2.79,4-3.79ZM77.87,175.12c-4.02-1.11-8.34-1.64-12.04-3.61-2.87,2.8-6.47,5.4-7.35,9.56l6.11-.49,4.78.51c1.88-2.72,5.66-3.91,8.8-4.34l-.28-1.63ZM46.47,175.56l-5.44-3.56-2.96,1.76,1.7,1.42c1.57.62,3.01,2.48,4.78,1.45l1.92-1.07ZM52.23,174.36l-2.88,1.56c.29.31.87.71,1.28.58l1.6-2.14ZM41.19,177.48s-.82-.25-1.12-.44c-.67-.43-3.06-2.23-3.54-2.21-1.9.85-3.53,2.23-4.94,3.73,1.91,1.71,7.11.39,9.26-.58.21-.1.73-.09.34-.5ZM49.35,177.48c-1.73-1.32-2.84-.09-4.56.59l2.28,2.04c.32-.45,2.56-2.23,2.28-2.63ZM88.21,179.42c-2.55-1.11-5.36-1.6-8.14-1.46-.14.14.67,3.33.72,3.96.23,3.14-1.5,4.92,2.59,3.54,3.08-1.04,4.37-2.81,4.83-6.04ZM78.63,178.2c-2.48.2-5.15,1.01-7.13,2.57-.19.15-.44,0-.3.55,2.88.6,5.63,1.62,8.16,3.12.25-2.15-.39-4.15-.72-6.24ZM50.71,178.7l-2.54,2.5,1.67,2.17.54.08,4.49-1.77-4.16-2.98ZM87.03,202.68c1.24-5.92,1.17-11.67,2.71-17.57.42-1.6,2.08-3.95.05-4.74-.44-.17-.31.15-.38.33-.4,1.01-.54,1.94-1.13,2.95-1.44,2.47-3.69,2.73-6.04,3.81,2.18,4.17.4,8.92-2.17,12.47l6.96,2.76ZM68.55,182.28l-5.4-.24c-1.33.37-2.75.13-4.08.48-.33.09-.39-.2-.37.36.08,2.11,4.1,5.71,5.87,6.82l3.23-.72c-.08-2.34.07-4.46.74-6.7ZM69.27,185.04c-.13,1.08.1,2.37,0,3.48,2.33-.46,6.08-.65,8.22-1.5.36-.14,1.15-.86,1.14-1.26-1-.6-2.04-1.23-3.13-1.68-.89-.37-5.03-1.9-5.64-1.09-.06.08-.57,1.88-.59,2.05ZM51.76,189.48c3.36-.94,8.94-2.09,4.79-6.37l-5.74,1.6.94,4.78ZM84.39,213.24h3.72c.36,0,2.46-.76,2.85-.99,2.84-1.74,3.46-8.79,3.27-11.84-.13-2.18-.83-4.51-.97-6.71-.17-2.79.61-7.84-.66-10.14-.15-.27-.28-.6-.65-.55-2.53,6.03-2,12.68-3.36,18.96-.16.72-.72,1.79-.8,2.34s.38.9.43,1.39c.37,3.75-1.19,5.29-3.83,7.55ZM50.29,189.69c-.16-2.44-.24-5.52-3.18-3.06-1.53,1.28-.66,2.17.33,3.46l2.85-.4ZM59.67,187.08c-.34-.24-1.23,1.2-1.69,1.54-1.62,1.22-4.48,1.76-6.42,2.34l-1.24,3.8c.31.29,2.07-1.47,2.47-1.72,2.63-1.61,6.55-2.09,9.53-2.84.4-.44-2.8-2.26-2.64-3.12ZM80.76,187.82c-2.38-.02-4.14,1.71-6.29,2.66-1.48.65-3.18,1.15-4.73,1.64.31.59.28,1.33.62,1.9.5.85,7.81,5.39,8.27,5.18,2.73-2.92,4.25-7.73,2.13-11.38ZM50.07,191.16l-1.44.24.72,1.68c.42-.05.8-1.82.72-1.92ZM64.71,192.12c.07-.33-.08-.57-.4-.68-1.01-.33-6.38,1.15-7.7,1.57-2.7.86-4.19,2-6.42,3.66l-.35,4.32,7.2.72c-3.33-7.15,1.59-8.9,7.68-9.6ZM43.78,191.7c-2.3.12-4.67.91-6.99.93-1.56,1.14-.74,3.02.82,3.66s6.04.64,7.76.36c1.35-.22,3.2-.47,3.02-2.23-.03-.33-.95-2.22-1.19-2.43-.79-.74-1.28-.1-2.06-.1-.48,0-.88-.21-1.36-.19ZM72.15,202.43l-2.92-7.04c-.28-.46-2.33-2.17-2.78-2.27-.4-.08-6.04,1.25-6.78,1.52-.92.34-1.79.77-2.05,1.79-.4,1.53-.01,4.9,1.67,5.54.95.37,4.35.65,5.53.71.95.05,7.04.08,7.33-.25ZM77.43,200.51l-6.24-3.83,2.43,5.25c1.44.13,2.55-.95,3.81-1.41ZM48.36,200.96l.15-3.57c-.8.54-1.41,1.67-2.04,2.24-.1.09-.43,0-.6.15-1.79,1.51-3.56,3.02-5.62,4.2,1.96,4.65,5.16,8.3,9.5,10.88,1.8,1.07,3.82,1.79,5.59,2.93-.24-1.71.27-2.99.72-4.56-3.61-.43-7.17-1.64-9.59-4.45-2.95-3.42-3.82-7.21,1.88-7.83ZM45.51,197.88c-2.29.85-5.41-.3-7.56,0-.27.04-.49-.09-.35.35.16.53,1.02,1.39,1.32,2.04s.26,2.01.95,2.18c.44,0,2.86-1.55,3.36-1.94.43-.33,2.73-2.13,2.28-2.64ZM74.79,203.16c.41,1.45,2.75,3.51,4.22,3.58.94.04,5.35-.96,6.19-1.46.33-.2.65-.51.86-.84.25-1.46-5.89-2.58-6.86-3.39l-4.4,2.11ZM48.15,202.44c-2.22.53-3.39.68-2.29,3.13,1.27,2.83,4.16,4.71,7.09,5.5-2.61-2.34-5.1-4.79-4.8-8.64ZM78.63,213.72c-5.7-1.5-11.79-3.86-16.63-7.25-.9-.63-3.23-2.85-3.87-3.09-2.14-.83-6.17-.54-8.54-.94-.25,3.13,1.43,4.96,3.6,6.84.51.44,3.19,2.55,3.6,2.67.18.05.31.11.48-.02,4.13-5.11,11.56-1.63,15.05,2.47,1.88.13,3.76.05,5.61-.32.26-.05.78-.02.71-.36ZM86.79,206.04c-2.2,1.16-6.98,2.62-9.29,1.73-1.86-.71-3.11-2.72-4.49-4.03-4,.7-8.12.42-12.13-.1,4.15,3.68,10.08,6.4,15.42,7.98,1.22.36,4.07,1.25,5.2,1.26,2.12,0,6.5-4.39,5.3-6.84ZM69.99,214.19c-2.5-2.71-7.94-4.91-11.04-2.03l11.04,2.03ZM71.43,223.08c-5.16-2.19-9.47-5.88-14.16-8.88-.63,1.16-.67,3.97.41,4.81.94.73,5.31,2.64,6.63,3.15,1.86.72,4.3,1.63,6.29,1.4.36-.04.74-.05.83-.49ZM60.15,214.2c2.21,1.92,4.72,3.63,7.22,5.14.96.58,3.92,2.47,4.77,2.68,1.19.3,1.03-2.61.91-3.32s-.92-2.45-1.53-2.79l-11.37-1.7ZM83.67,226.68c4.46,1.05,11.97,1.98,11.02-4.9-.51-3.64-5.23-3.55-7.78-2.07-2.73,1.58-2.92,4.11-3.23,6.96ZM82.23,227.64c-1.06-.33-2.15-.63-3.18-1.03s-5.35-2.48-5.86-2.53c-.44-.04-1.49.73-2.18.85-3.32.57-6.39-1.41-9.42-2.34,2.58,2,5.6,4.21,8.48,5.8,3.37,1.85,11.43,5.33,12.16-.75Z"/>
</svg>