<?xml version="1.0" encoding="UTF-8"?>
<svg id="Capa_1" xmlns="http://www.w3.org/2000/svg" version="1.1" viewBox="119 84 731 126">
  <!-- Generator: Adobe Illustrator 29.5.1, SVG Export Plug-In . SVG Version: 2.1.0 Build 141)  -->
  <path d="M129.02,101.95c-2.16-2.36-4.74-4.22-7.76-5.56-3.02-1.34-6.4-2.01-10.13-2.01h-22.94c-.68,0-1.22.25-1.62.75-.39.5-.59,1.12-.59,1.85v103.65c0,.79.18,1.43.55,1.93.37.5.92.75,1.66.75h4.49c.79,0,1.34-.25,1.66-.75.32-.5.47-1.14.47-1.93v-31.45h16.32c3.68,0,7.04-.66,10.09-1.97,3.05-1.31,5.65-3.13,7.8-5.44,2.15-2.31,3.82-5.06,5.01-8.24,1.18-3.18,1.77-6.63,1.77-10.36v-22.54c0-3.68-.59-7.12-1.77-10.33-1.18-3.2-2.85-5.99-5.01-8.35ZM126.89,143.4c0,2.52-.37,4.86-1.1,7.01-.74,2.16-1.81,4.03-3.23,5.64-1.42,1.6-3.13,2.85-5.12,3.74-2,.89-4.26,1.34-6.78,1.34h-15.84v-58.64h15.76c2.57,0,4.87.47,6.9,1.42,2.02.95,3.73,2.23,5.12,3.86,1.39,1.63,2.46,3.55,3.19,5.75.74,2.21,1.1,4.6,1.1,7.17v22.7Z"/>
  <path d="M189.47,195.27h-29.56v-98.29c0-.74-.17-1.35-.51-1.85-.34-.5-.88-.75-1.62-.75h-4.49c-.74,0-1.29.25-1.66.75-.37.5-.55,1.12-.55,1.85v103.65c0,.79.18,1.43.55,1.93.37.5.92.75,1.66.75h36.18c.52,0,1.01-.21,1.46-.63.45-.42.67-1.02.67-1.81v-3.7c0-.79-.22-1.3-.67-1.54-.45-.24-.93-.35-1.46-.35Z"/>
  <path d="M231.09,96.27c-.16-.74-.43-1.23-.83-1.5-.39-.26-.83-.39-1.3-.39h-4.02c-.42,0-.84.13-1.26.39-.42.26-.71.76-.87,1.5l-22.86,104.36c-.21.74-.15,1.37.2,1.89.34.53.83.79,1.46.79h4.81c.37,0,.78-.12,1.22-.35.45-.24.75-.72.91-1.46l3.78-18.6h29.16l3.86,18.6c.11.74.41,1.22.91,1.46.5.24.93.35,1.3.35h4.73c.68,0,1.17-.25,1.46-.75.29-.5.35-1.12.2-1.85l-22.86-104.44ZM213.83,175.56l12.69-61.09.39-3.23.47,3.23,12.61,61.09h-26.17Z"/>
  <path d="M317.24,94.38h-4.02c-.79,0-1.35.25-1.69.75-.34.5-.51,1.12-.51,1.85l.24,82.45.24,5.75-1.58-5.99-32.95-83c-.21-.58-.55-1-1.02-1.26-.37-.37-.82-.55-1.34-.55h-4.18c-.68,0-1.22.25-1.62.75-.39.5-.59,1.12-.59,1.85v103.65c0,.79.18,1.43.55,1.93.37.5.92.75,1.66.75h4.1c.74,0,1.27-.25,1.62-.75.34-.5.51-1.14.51-1.93l-.24-81.97-.16-4.41,1.1,3.86,33.18,83.55c.26.74.66,1.2,1.18,1.38.52.19.97.28,1.34.28h4.02c.74,0,1.31-.24,1.73-.71.42-.47.63-1.1.63-1.89v-103.73c0-.79-.19-1.42-.55-1.89-.37-.47-.92-.71-1.66-.71Z"/>
  <path d="M381.08,99.7c-2.26-2.18-4.9-3.87-7.92-5.08-3.02-1.21-6.21-1.81-9.58-1.81s-6.71.6-9.73,1.81c-3.02,1.21-5.68,2.9-7.96,5.08-2.29,2.18-4.09,4.76-5.4,7.72-1.31,2.97-1.97,6.19-1.97,9.66v63.69c0,3.42.66,6.59,1.97,9.54,1.31,2.94,3.1,5.49,5.36,7.65,2.26,2.16,4.9,3.85,7.92,5.08,3.02,1.23,6.24,1.85,9.66,1.85s6.63-.6,9.66-1.81c3.02-1.21,5.68-2.89,7.96-5.04,2.29-2.15,4.1-4.7,5.44-7.65,1.34-2.94,2.01-6.15,2.01-9.62v-63.69c0-3.47-.67-6.69-2.01-9.66-1.34-2.97-3.14-5.54-5.4-7.72ZM379.66,180.69c0,2.21-.42,4.3-1.26,6.27-.84,1.97-1.98,3.69-3.43,5.16-1.45,1.47-3.17,2.63-5.16,3.47-2,.84-4.13,1.26-6.38,1.26s-4.36-.43-6.31-1.3c-1.94-.87-3.64-2.04-5.08-3.51-1.45-1.47-2.57-3.19-3.39-5.16-.82-1.97-1.22-4.09-1.22-6.34v-63.21c0-2.26.41-4.4,1.22-6.42.81-2.02,1.94-3.78,3.39-5.28,1.45-1.5,3.15-2.68,5.12-3.55s4.11-1.3,6.42-1.3,4.36.43,6.31,1.3c1.94.87,3.64,2.05,5.08,3.55,1.45,1.5,2.59,3.26,3.43,5.28.84,2.02,1.26,4.17,1.26,6.42v63.37Z"/>
  <path d="M411.35,94.46c-.63,0-1.13.24-1.5.71-.37.47-.55,1.05-.55,1.73v103.88c0,.74.16,1.34.47,1.81s.84.71,1.58.71c.63-.05,1.08-.3,1.34-.75.26-.45.39-1.04.39-1.77v-103.88c0-.63-.15-1.18-.43-1.66-.29-.47-.72-.74-1.3-.79Z"/>
  <path d="M483.86,94.46h-.08c-.74,0-1.23.24-1.5.71s-.39,1.05-.39,1.73v91.98l.16,4.49-1.42-4.49-38.31-93.01c-.16-.37-.35-.64-.59-.83-.24-.18-.46-.33-.67-.43l-.47-.16h-.24c-.58.05-1.04.32-1.38.79-.34.47-.51,1.02-.51,1.66v103.88c0,.74.12,1.34.35,1.81s.72.71,1.46.71h.08c.74,0,1.23-.24,1.5-.71.26-.47.39-1.08.39-1.81v-92.85l-.16-2.84.79,2.13,38.86,94.74c.21.47.47.8.79.99.32.19.6.3.87.35h.39c.58-.05,1.04-.3,1.38-.75.34-.45.51-1.01.51-1.69v-103.96c0-.68-.12-1.26-.35-1.73s-.72-.71-1.46-.71Z"/>
  <path d="M549.12,94.46h-.08c-.21,0-.53.09-.95.28-.42.19-.71.59-.87,1.22l-21.12,95.84-.32,1.66-.24-1.66-21.12-95.84c-.16-.63-.45-1.04-.87-1.22-.42-.18-.74-.28-.95-.28h-.08c-.58,0-1.05.25-1.42.75-.37.5-.47,1.09-.32,1.77l23.25,104.75c.16.68.42,1.12.79,1.3.37.19.71.28,1.02.28s.64-.09.99-.28c.34-.18.59-.62.75-1.3l23.25-104.83c.16-.63.07-1.19-.28-1.69-.34-.5-.83-.75-1.46-.75Z"/>
  <path d="M567.96,94.46c-.63,0-1.13.24-1.5.71s-.55,1.05-.55,1.73v103.88c0,.74.16,1.34.47,1.81s.84.71,1.58.71c.63-.05,1.08-.3,1.34-.75.26-.45.39-1.04.39-1.77v-103.88c0-.63-.14-1.18-.43-1.66s-.72-.74-1.3-.79Z"/>
  <path d="M635.2,166.97c-.95-1.94-2.13-3.76-3.55-5.44-1.42-1.68-3.05-3.36-4.89-5.04-1.84-1.68-3.88-3.45-6.11-5.32-2.23-1.86-4.64-3.98-7.21-6.34-1.52-1.37-3.32-2.88-5.4-4.53-2.08-1.66-4.06-3.53-5.95-5.64-1.89-2.1-3.49-4.48-4.81-7.13-1.31-2.65-1.97-5.71-1.97-9.18,0-4.36.67-7.96,2.01-10.8s3-5.07,4.97-6.7c1.97-1.63,4.06-2.76,6.27-3.39s4.15-.95,5.83-.95c2.94,0,5.56.58,7.84,1.73,2.29,1.16,4.2,2.65,5.75,4.49,1.55,1.84,2.73,3.91,3.55,6.23.81,2.31,1.22,4.65,1.22,7.01v4.97c0,.68.12,1.26.35,1.73s.72.71,1.46.71h.08c.74,0,1.23-.22,1.5-.67.26-.45.39-1.06.39-1.85v-4.89c0-2.94-.51-5.79-1.54-8.55s-2.5-5.21-4.41-7.37c-1.92-2.15-4.24-3.89-6.98-5.2-2.73-1.31-5.81-1.97-9.22-1.97-.68,0-1.72.09-3.11.28-1.39.19-2.93.58-4.61,1.18-1.68.6-3.42,1.49-5.2,2.64-1.79,1.16-3.42,2.67-4.89,4.53-1.47,1.87-2.68,4.18-3.63,6.94s-1.42,6.06-1.42,9.89c0,3.63.6,6.86,1.81,9.69s2.78,5.44,4.73,7.8,4.11,4.56,6.5,6.58c2.39,2.02,4.77,4.01,7.13,5.95,4.2,3.57,7.75,6.63,10.64,9.18,2.89,2.55,5.22,5.02,6.98,7.41,1.76,2.39,3.03,4.9,3.82,7.53.79,2.63,1.18,5.78,1.18,9.46,0,2.68-.54,5.19-1.62,7.53-1.08,2.34-2.54,4.37-4.37,6.11s-3.95,3.09-6.34,4.06c-2.39.97-4.93,1.46-7.61,1.46-1.84,0-3.86-.35-6.07-1.06s-4.27-1.88-6.19-3.51c-1.92-1.63-3.53-3.76-4.85-6.38-1.31-2.63-1.97-5.83-1.97-9.62v-3.94c0-.63-.16-1.15-.47-1.58-.32-.42-.76-.63-1.34-.63h-.08c-.74,0-1.23.24-1.5.71s-.39.97-.39,1.5v3.94c0,4.31.72,7.99,2.17,11.03,1.45,3.05,3.28,5.56,5.52,7.53s4.7,3.42,7.41,4.34,5.29,1.38,7.76,1.38c3.36,0,6.49-.64,9.38-1.93s5.4-3,7.53-5.12c2.13-2.13,3.8-4.57,5.01-7.33s1.81-5.58,1.81-8.47c0-3.2-.25-6.02-.75-8.43-.5-2.42-1.22-4.6-2.17-6.54Z"/>
  <path d="M659.63,94.46c-.63,0-1.13.24-1.5.71s-.55,1.05-.55,1.73v103.88c0,.74.16,1.34.47,1.81s.84.71,1.58.71c.63-.05,1.08-.3,1.34-.75.26-.45.39-1.04.39-1.77v-103.88c0-.63-.14-1.18-.43-1.66s-.72-.74-1.3-.79Z"/>
  <path d="M725.17,151.8c-1.66-1.76-3.42-3.02-5.28-3.78-1.87-.76-3.56-1.22-5.08-1.38,1.84-.16,3.61-.74,5.32-1.73,1.71-1,3.21-2.31,4.49-3.94,1.29-1.63,2.33-3.49,3.11-5.6.79-2.1,1.18-4.31,1.18-6.62v-11.27c0-3.83-.58-7.2-1.73-10.09-1.16-2.89-2.75-5.29-4.77-7.21-2.02-1.92-4.39-3.35-7.09-4.3-2.71-.95-5.64-1.42-8.79-1.42h-17.73c-.63,0-1.13.24-1.5.71s-.55,1.05-.55,1.73v103.88c0,.74.14,1.33.43,1.77.29.45.78.7,1.46.75h20.65c3.21,0,6.13-.51,8.79-1.54s4.94-2.53,6.86-4.53c1.92-2,3.4-4.45,4.45-7.37s1.58-6.27,1.58-10.05v-9.22c0-4.73-.55-8.6-1.66-11.63-1.1-3.02-2.48-5.41-4.14-7.17ZM690.53,98.16h15.92c2.84,0,5.4.39,7.68,1.18s4.24,2,5.87,3.63c1.63,1.63,2.89,3.65,3.78,6.07.89,2.42,1.34,5.23,1.34,8.43v11.27c0,3.31-.75,6.03-2.25,8.16s-3.28,3.8-5.36,5.01c-2.08,1.21-4.2,2.04-6.38,2.48-2.18.45-3.98.67-5.4.67h-15.21v-46.9ZM727.18,180.21c0,2.05-.33,4.22-.99,6.5s-1.69,4.39-3.11,6.31c-1.42,1.92-3.26,3.51-5.52,4.77s-4.99,1.89-8.2,1.89h-18.84v-50.6h17.73c2.1,0,4.27.37,6.5,1.1,2.23.74,4.27,1.96,6.11,3.67,1.84,1.71,3.35,3.97,4.53,6.78,1.18,2.81,1.77,6.27,1.77,10.36v9.22Z"/>
  <path d="M785.82,199.92c-.47-.16-.92-.24-1.34-.24h-30.5v-102.78c0-.68-.14-1.26-.43-1.73s-.78-.71-1.46-.71h-.08c-.63,0-1.09.24-1.38.71s-.43,1.05-.43,1.73v103.88c0,1.31.45,2.13,1.34,2.44.05.05.18.08.39.08h32.55c.42,0,.87-.14,1.34-.43.47-.29.71-.8.71-1.54v-.08c0-.74-.24-1.18-.71-1.34Z"/>
  <path d="M840.44,98.16c.37,0,.79-.12,1.26-.35s.71-.72.71-1.46v-.08c0-.74-.24-1.22-.71-1.46s-.89-.35-1.26-.35h-35.07c-.58.11-1.02.38-1.34.83-.32.45-.47.99-.47,1.62v103.88c0,.68.14,1.26.43,1.73s.72.74,1.3.79h34.84c.37,0,.8-.13,1.3-.39.5-.26.75-.76.75-1.5v-.08c0-.68-.25-1.13-.75-1.34-.5-.21-.93-.32-1.3-.32h-32.79v-51h27.11c.37,0,.8-.12,1.3-.35s.75-.72.75-1.46v-.08c0-.74-.25-1.21-.75-1.42-.5-.21-.93-.32-1.3-.32h-27.11v-46.9h33.1Z"/>
</svg>